<svg xmlns="http://www.w3.org/2000/svg" width="64" height="64" viewBox="0 0 64 64"><defs><style>.a{fill:#ccc;}.b{fill:#07996a;}</style></defs><g transform="translate(-1 -1)"><path class="a" d="M40.173,34.032H46.48a9.29,9.29,0,1,0,0-2.065H40.173a11.307,11.307,0,0,0-2.582-6.229l6.718-6.718a9.2,9.2,0,0,0,3.142.559,9.31,9.31,0,1,0-5.092-1.529l-6.228,6.228a11.311,11.311,0,0,0-11.57-1.78,12.454,12.454,0,0,0-6.816-6.241,8.258,8.258,0,1,0-8.718,0A12.4,12.4,0,0,0,1,27.839V38.161A4.133,4.133,0,0,0,5.129,42.29H6.161V60.871a4.112,4.112,0,0,0,7.226,2.7,4.112,4.112,0,0,0,7.226-2.7v-20.1a11.312,11.312,0,0,0,15.519.952l6.228,6.228a9.428,9.428,0,1,0,1.95-.97L37.591,40.26a11.293,11.293,0,0,0,2.582-6.228Zm2.818-18.069a5.149,5.149,0,0,1,8.921,0,7.184,7.184,0,0,1-8.921,0Zm2.4-6.706a2.065,2.065,0,1,1,2.065,2.065A2.067,2.067,0,0,1,45.387,9.258Zm2.065-6.194A7.216,7.216,0,0,1,53.365,14.43,7.167,7.167,0,0,0,50.513,12a4.129,4.129,0,1,0-6.123,0,7.167,7.167,0,0,0-2.852,2.427A7.216,7.216,0,0,1,47.452,3.065Zm-4.46,58.318a5.149,5.149,0,0,1,8.921,0,7.184,7.184,0,0,1-8.921,0Zm2.4-6.706a2.065,2.065,0,1,1,2.065,2.065A2.067,2.067,0,0,1,45.387,54.677Zm9.29,1.032a7.181,7.181,0,0,1-1.312,4.139,7.167,7.167,0,0,0-2.852-2.427,4.129,4.129,0,1,0-6.123,0,7.167,7.167,0,0,0-2.852,2.427,7.223,7.223,0,1,1,13.14-4.139ZM51.249,38.673a5.149,5.149,0,0,1,8.921,0,7.184,7.184,0,0,1-8.921,0Zm2.4-6.706a2.065,2.065,0,1,1,2.065,2.065A2.067,2.067,0,0,1,53.645,31.968Zm2.065-6.194a7.216,7.216,0,0,1,5.914,11.365,7.167,7.167,0,0,0-2.852-2.427,4.129,4.129,0,1,0-6.123,0A7.167,7.167,0,0,0,49.8,37.139,7.216,7.216,0,0,1,55.71,25.774ZM9.864,18.149a10.256,10.256,0,0,1,1.216-.363L10.8,21.718a23.8,23.8,0,0,1-.935-3.57Zm3.3-.621c.073,0,.145-.011.219-.011s.146.007.219.008l.583,8.169c-.255.447-.519.888-.8,1.316-.283-.431-.547-.875-.8-1.324Zm2.811,4.236-.285-3.981a10.293,10.293,0,0,1,1.244.378,23.868,23.868,0,0,1-.959,3.6ZM7.194,9.258a6.194,6.194,0,1,1,6.194,6.194A6.2,6.2,0,0,1,7.194,9.258ZM18.548,60.871a2.065,2.065,0,0,1-4.129,0V41.509a2.053,2.053,0,0,1,.6-1.461l1.157-1.157-1.46-1.46-1.157,1.157a4.1,4.1,0,0,0-1.21,2.92V60.871a2.065,2.065,0,0,1-4.129,0V22.677H6.161V40.226H5.129a2.067,2.067,0,0,1-2.065-2.065V27.839a10.317,10.317,0,0,1,4.87-8.749,26.04,26.04,0,0,0,3.822,9.2l1.63,2.444,1.67-2.5a26.06,26.06,0,0,0,3.807-9.121,10.344,10.344,0,0,1,3.872,4.354,11.414,11.414,0,0,0-2.122,1.77V22.677H18.549V28.3a11.229,11.229,0,0,0,0,9.406V60.871ZM28.871,42.29A9.29,9.29,0,1,1,38.161,33a9.3,9.3,0,0,1-9.29,9.29Z"/><path class="b" d="M29.161,29.129a1.034,1.034,0,0,1,1.032,1.032h2.065a3.1,3.1,0,0,0-3.1-3.1V25H27.1v2.065H24v3.1a3.1,3.1,0,0,0,3.1,3.1h2.065a1.034,1.034,0,0,1,1.032,1.032v1.032H27.1a1.034,1.034,0,0,1-1.032-1.032H24a3.1,3.1,0,0,0,3.1,3.1v2.065h2.065V37.387h3.1v-3.1a3.1,3.1,0,0,0-3.1-3.1H27.1a1.034,1.034,0,0,1-1.032-1.032V29.129Z" transform="translate(0.742 0.774)"/></g></svg>