<svg xmlns="http://www.w3.org/2000/svg" xmlns:xlink="http://www.w3.org/1999/xlink" width="2885.867" height="1461.054" viewBox="0 0 2885.867 1461.054">
  <defs>
    <clipPath id="clip-path">
      <path id="Path_36329" data-name="Path 36329" d="M358.9,697.956c192.7,5.439,344.5-146.364,339.06-339.06S531.9,5.58,339.2.142-5.3,146.505.142,339.2,166.2,692.518,358.9,697.956Z" transform="translate(493.63 987.26) rotate(-135)" fill="#0460e3" opacity="0.998"/>
    </clipPath>
    <filter id="Rectangle_18430" x="891.539" y="219.828" width="772" height="978" filterUnits="userSpaceOnUse">
      <feOffset dy="8" input="SourceAlpha"/>
      <feGaussianBlur stdDeviation="15" result="blur"/>
      <feFlood flood-opacity="0"/>
      <feComposite operator="in" in2="blur"/>
      <feComposite in="SourceGraphic"/>
    </filter>
  </defs>
  <g id="bg_shapes" data-name="bg shapes" opacity="0.2">
    <g id="Group_18928" data-name="Group 18928" transform="translate(453.27 1018)" opacity="0.5">
      <path id="Path_36231" data-name="Path 36231" d="M319.348,759.8a3.336,3.336,0,1,0,3.148,3.33A3.211,3.211,0,0,0,319.348,759.8Z" transform="translate(-262.564 -666.946)" fill="#0460e3" opacity="0.7"/>
      <path id="Path_36232" data-name="Path 36232" d="M319.348,736.5a3.336,3.336,0,1,0,3.148,3.33A3.3,3.3,0,0,0,319.348,736.5Z" transform="translate(-262.564 -674.686)" fill="#0460e3" opacity="0.7"/>
      <path id="Path_36233" data-name="Path 36233" d="M319.348,713.3a3.336,3.336,0,1,0,3.148,3.33A3.211,3.211,0,0,0,319.348,713.3Z" transform="translate(-262.564 -682.393)" fill="#0460e3" opacity="0.7"/>
      <path id="Path_36234" data-name="Path 36234" d="M319.348,690.1a3.336,3.336,0,1,0,3.148,3.331A3.211,3.211,0,0,0,319.348,690.1Z" transform="translate(-262.564 -690.1)" fill="#0460e3" opacity="0.7"/>
      <path id="Path_36235" data-name="Path 36235" d="M298.042,759.8a3.336,3.336,0,1,0,3.148,3.33A3.135,3.135,0,0,0,298.042,759.8Z" transform="translate(-214.441 -666.946)" fill="#0460e3" opacity="0.7"/>
      <path id="Path_36236" data-name="Path 36236" d="M298.042,736.5a3.336,3.336,0,1,0,3.148,3.33A3.211,3.211,0,0,0,298.042,736.5Z" transform="translate(-214.441 -674.686)" fill="#0460e3" opacity="0.7"/>
      <path id="Path_36237" data-name="Path 36237" d="M298.042,713.3a3.336,3.336,0,1,0,3.148,3.33A3.135,3.135,0,0,0,298.042,713.3Z" transform="translate(-214.441 -682.393)" fill="#0460e3" opacity="0.7"/>
      <path id="Path_36238" data-name="Path 36238" d="M298.042,690.1a3.336,3.336,0,1,0,3.148,3.331A3.135,3.135,0,0,0,298.042,690.1Z" transform="translate(-214.441 -690.1)" fill="#0460e3" opacity="0.7"/>
      <path id="Path_36239" data-name="Path 36239" d="M276.648,759.8a3.336,3.336,0,1,0,3.148,3.33A3.211,3.211,0,0,0,276.648,759.8Z" transform="translate(-166.103 -666.946)" fill="#0460e3" opacity="0.7"/>
      <path id="Path_36240" data-name="Path 36240" d="M276.648,736.5a3.336,3.336,0,1,0,3.148,3.33A3.3,3.3,0,0,0,276.648,736.5Z" transform="translate(-166.103 -674.686)" fill="#0460e3" opacity="0.7"/>
      <path id="Path_36241" data-name="Path 36241" d="M276.648,713.3a3.336,3.336,0,1,0,3.148,3.33A3.211,3.211,0,0,0,276.648,713.3Z" transform="translate(-166.103 -682.393)" fill="#0460e3" opacity="0.7"/>
      <path id="Path_36242" data-name="Path 36242" d="M276.648,690.1a3.336,3.336,0,1,0,3.148,3.331A3.211,3.211,0,0,0,276.648,690.1Z" transform="translate(-166.103 -690.1)" fill="#0460e3" opacity="0.7"/>
      <path id="Path_36243" data-name="Path 36243" d="M255.348,759.8a3.336,3.336,0,1,0,3.148,3.33A3.211,3.211,0,0,0,255.348,759.8Z" transform="translate(-117.985 -666.946)" fill="#0460e3" opacity="0.7"/>
      <path id="Path_36244" data-name="Path 36244" d="M255.348,736.5a3.336,3.336,0,1,0,3.148,3.33A3.3,3.3,0,0,0,255.348,736.5Z" transform="translate(-117.985 -674.686)" fill="#0460e3" opacity="0.7"/>
      <path id="Path_36245" data-name="Path 36245" d="M255.348,713.3a3.336,3.336,0,1,0,3.148,3.33A3.211,3.211,0,0,0,255.348,713.3Z" transform="translate(-117.985 -682.393)" fill="#0460e3" opacity="0.7"/>
      <path id="Path_36246" data-name="Path 36246" d="M255.348,690.1a3.336,3.336,0,1,0,3.148,3.331A3.211,3.211,0,0,0,255.348,690.1Z" transform="translate(-117.985 -690.1)" fill="#0460e3" opacity="0.7"/>
      <path id="Path_36247" data-name="Path 36247" d="M319.348,829.5a3.336,3.336,0,1,0,3.148,3.331A3.211,3.211,0,0,0,319.348,829.5Z" transform="translate(-262.564 -643.793)" fill="#0460e3" opacity="0.7"/>
      <path id="Path_36248" data-name="Path 36248" d="M319.348,806.3a3.336,3.336,0,1,0,3.148,3.331A3.211,3.211,0,0,0,319.348,806.3Z" transform="translate(-262.564 -651.5)" fill="#0460e3" opacity="0.7"/>
      <path id="Path_36249" data-name="Path 36249" d="M319.348,783a3.336,3.336,0,1,0,3.148,3.331A3.211,3.211,0,0,0,319.348,783Z" transform="translate(-262.564 -659.24)" fill="#0460e3" opacity="0.7"/>
      <path id="Path_36250" data-name="Path 36250" d="M298.042,829.5a3.336,3.336,0,1,0,3.148,3.331A3.135,3.135,0,0,0,298.042,829.5Z" transform="translate(-214.441 -643.793)" fill="#0460e3" opacity="0.7"/>
      <path id="Path_36251" data-name="Path 36251" d="M298.042,806.3a3.336,3.336,0,1,0,3.148,3.331A3.135,3.135,0,0,0,298.042,806.3Z" transform="translate(-214.441 -651.5)" fill="#0460e3" opacity="0.7"/>
      <path id="Path_36252" data-name="Path 36252" d="M298.042,783a3.336,3.336,0,1,0,3.148,3.331A3.135,3.135,0,0,0,298.042,783Z" transform="translate(-214.441 -659.24)" fill="#0460e3" opacity="0.7"/>
      <path id="Path_36253" data-name="Path 36253" d="M276.648,829.5a3.336,3.336,0,1,0,3.148,3.331A3.211,3.211,0,0,0,276.648,829.5Z" transform="translate(-166.103 -643.793)" fill="#0460e3" opacity="0.7"/>
      <path id="Path_36254" data-name="Path 36254" d="M361.948,759.8a3.336,3.336,0,1,0,3.148,3.33A3.211,3.211,0,0,0,361.948,759.8Z" transform="translate(-358.8 -666.946)" fill="#0460e3" opacity="0.7"/>
      <path id="Path_36255" data-name="Path 36255" d="M361.948,736.5a3.336,3.336,0,1,0,3.148,3.33A3.3,3.3,0,0,0,361.948,736.5Z" transform="translate(-358.8 -674.686)" fill="#0460e3" opacity="0.7"/>
      <path id="Path_36256" data-name="Path 36256" d="M361.948,713.3a3.336,3.336,0,1,0,3.148,3.33A3.211,3.211,0,0,0,361.948,713.3Z" transform="translate(-358.8 -682.393)" fill="#0460e3" opacity="0.7"/>
      <path id="Path_36257" data-name="Path 36257" d="M361.948,690.1a3.336,3.336,0,1,0,3.148,3.331A3.211,3.211,0,0,0,361.948,690.1Z" transform="translate(-358.8 -690.1)" fill="#0460e3" opacity="0.7"/>
      <path id="Path_36258" data-name="Path 36258" d="M340.648,759.8a3.336,3.336,0,1,0,3.148,3.33A3.211,3.211,0,0,0,340.648,759.8Z" transform="translate(-310.682 -666.946)" fill="#0460e3" opacity="0.7"/>
      <path id="Path_36259" data-name="Path 36259" d="M340.648,736.5a3.336,3.336,0,1,0,3.148,3.33A3.3,3.3,0,0,0,340.648,736.5Z" transform="translate(-310.682 -674.686)" fill="#0460e3" opacity="0.7"/>
      <path id="Path_36260" data-name="Path 36260" d="M340.648,713.3a3.336,3.336,0,1,0,3.148,3.33A3.211,3.211,0,0,0,340.648,713.3Z" transform="translate(-310.682 -682.393)" fill="#0460e3" opacity="0.7"/>
      <path id="Path_36261" data-name="Path 36261" d="M340.648,690.1a3.336,3.336,0,1,0,3.148,3.331A3.211,3.211,0,0,0,340.648,690.1Z" transform="translate(-310.682 -690.1)" fill="#0460e3" opacity="0.7"/>
      <path id="Path_36262" data-name="Path 36262" d="M361.948,829.5a3.336,3.336,0,1,0,3.148,3.331A3.211,3.211,0,0,0,361.948,829.5Z" transform="translate(-358.8 -643.793)" fill="#0460e3" opacity="0.7"/>
      <path id="Path_36263" data-name="Path 36263" d="M361.948,806.3a3.336,3.336,0,1,0,3.148,3.331A3.211,3.211,0,0,0,361.948,806.3Z" transform="translate(-358.8 -651.5)" fill="#0460e3" opacity="0.7"/>
      <path id="Path_36264" data-name="Path 36264" d="M361.948,783a3.336,3.336,0,1,0,3.148,3.331A3.211,3.211,0,0,0,361.948,783Z" transform="translate(-358.8 -659.24)" fill="#0460e3" opacity="0.7"/>
      <path id="Path_36265" data-name="Path 36265" d="M340.648,829.5a3.336,3.336,0,1,0,3.148,3.331A3.211,3.211,0,0,0,340.648,829.5Z" transform="translate(-310.682 -643.793)" fill="#0460e3" opacity="0.7"/>
      <path id="Path_36266" data-name="Path 36266" d="M340.648,806.3a3.336,3.336,0,1,0,3.148,3.331A3.211,3.211,0,0,0,340.648,806.3Z" transform="translate(-310.682 -651.5)" fill="#0460e3" opacity="0.7"/>
      <path id="Path_36267" data-name="Path 36267" d="M340.648,783a3.336,3.336,0,1,0,3.148,3.331A3.211,3.211,0,0,0,340.648,783Z" transform="translate(-310.682 -659.24)" fill="#0460e3" opacity="0.7"/>
      <path id="Path_36268" data-name="Path 36268" d="M276.648,806.3a3.336,3.336,0,1,0,3.148,3.331A3.211,3.211,0,0,0,276.648,806.3Z" transform="translate(-166.103 -651.5)" fill="#0460e3" opacity="0.7"/>
      <path id="Path_36269" data-name="Path 36269" d="M276.648,783a3.336,3.336,0,1,0,3.148,3.331A3.211,3.211,0,0,0,276.648,783Z" transform="translate(-166.103 -659.24)" fill="#0460e3" opacity="0.7"/>
      <path id="Path_36270" data-name="Path 36270" d="M255.348,829.5a3.336,3.336,0,1,0,3.148,3.331A3.211,3.211,0,0,0,255.348,829.5Z" transform="translate(-117.985 -643.793)" fill="#0460e3" opacity="0.7"/>
      <path id="Path_36271" data-name="Path 36271" d="M255.348,806.3a3.336,3.336,0,1,0,3.148,3.331A3.211,3.211,0,0,0,255.348,806.3Z" transform="translate(-117.985 -651.5)" fill="#0460e3" opacity="0.7"/>
      <path id="Path_36272" data-name="Path 36272" d="M255.348,783a3.336,3.336,0,1,0,3.148,3.331A3.211,3.211,0,0,0,255.348,783Z" transform="translate(-117.985 -659.24)" fill="#0460e3" opacity="0.7"/>
      <path id="Path_36273" data-name="Path 36273" d="M319.348,876a3.336,3.336,0,1,0,3.148,3.331A3.211,3.211,0,0,0,319.348,876Z" transform="translate(-262.564 -628.346)" fill="#0460e3" opacity="0.7"/>
      <path id="Path_36274" data-name="Path 36274" d="M319.348,852.7a3.336,3.336,0,1,0,3.148,3.331A3.3,3.3,0,0,0,319.348,852.7Z" transform="translate(-262.564 -636.086)" fill="#0460e3" opacity="0.7"/>
      <path id="Path_36275" data-name="Path 36275" d="M298.042,876a3.336,3.336,0,1,0,3.148,3.331A3.135,3.135,0,0,0,298.042,876Z" transform="translate(-214.441 -628.346)" fill="#0460e3" opacity="0.7"/>
      <path id="Path_36276" data-name="Path 36276" d="M298.042,852.7a3.336,3.336,0,1,0,3.148,3.331A3.212,3.212,0,0,0,298.042,852.7Z" transform="translate(-214.441 -636.086)" fill="#0460e3" opacity="0.7"/>
      <path id="Path_36277" data-name="Path 36277" d="M361.948,876a3.336,3.336,0,1,0,3.148,3.331A3.211,3.211,0,0,0,361.948,876Z" transform="translate(-358.8 -628.346)" fill="#0460e3" opacity="0.7"/>
      <path id="Path_36278" data-name="Path 36278" d="M361.948,852.7a3.336,3.336,0,1,0,3.148,3.331A3.3,3.3,0,0,0,361.948,852.7Z" transform="translate(-358.8 -636.086)" fill="#0460e3" opacity="0.7"/>
      <path id="Path_36279" data-name="Path 36279" d="M340.648,876a3.336,3.336,0,1,0,3.148,3.331A3.211,3.211,0,0,0,340.648,876Z" transform="translate(-310.682 -628.346)" fill="#0460e3" opacity="0.7"/>
      <path id="Path_36280" data-name="Path 36280" d="M340.648,852.7a3.336,3.336,0,1,0,3.148,3.331A3.3,3.3,0,0,0,340.648,852.7Z" transform="translate(-310.682 -636.086)" fill="#0460e3" opacity="0.7"/>
      <path id="Path_36281" data-name="Path 36281" d="M276.648,876a3.336,3.336,0,1,0,3.148,3.331A3.211,3.211,0,0,0,276.648,876Z" transform="translate(-166.103 -628.346)" fill="#0460e3" opacity="0.7"/>
      <path id="Path_36282" data-name="Path 36282" d="M276.648,852.7a3.336,3.336,0,1,0,3.148,3.331A3.3,3.3,0,0,0,276.648,852.7Z" transform="translate(-166.103 -636.086)" fill="#0460e3" opacity="0.7"/>
      <path id="Path_36283" data-name="Path 36283" d="M255.348,876a3.336,3.336,0,1,0,3.148,3.331A3.211,3.211,0,0,0,255.348,876Z" transform="translate(-117.985 -628.346)" fill="#0460e3" opacity="0.7"/>
      <path id="Path_36284" data-name="Path 36284" d="M255.348,852.7a3.336,3.336,0,1,0,3.148,3.331A3.3,3.3,0,0,0,255.348,852.7Z" transform="translate(-117.985 -636.086)" fill="#0460e3" opacity="0.7"/>
    </g>
    <g id="Group_18929" data-name="Group 18929" transform="translate(1355.723 447.213)">
      <path id="Path_36285" data-name="Path 36285" d="M791.747,256a3.336,3.336,0,1,0,3.148,3.33A3.211,3.211,0,0,0,791.747,256Z" transform="translate(-788.6 -164.345)" fill="#009c97" opacity="0.7"/>
      <path id="Path_36286" data-name="Path 36286" d="M791.747,233a3.336,3.336,0,1,0,3.148,3.331A3.3,3.3,0,0,0,791.747,233Z" transform="translate(-788.6 -171.986)" fill="#009c97" opacity="0.7"/>
      <path id="Path_36287" data-name="Path 36287" d="M791.747,210.1a3.336,3.336,0,1,0,3.148,3.33A3.211,3.211,0,0,0,791.747,210.1Z" transform="translate(-788.6 -179.593)" fill="#009c97" opacity="0.7"/>
      <path id="Path_36288" data-name="Path 36288" d="M791.747,187.2a3.336,3.336,0,1,0,3.148,3.331A3.211,3.211,0,0,0,791.747,187.2Z" transform="translate(-788.6 -187.2)" fill="#009c97" opacity="0.7"/>
      <path id="Path_36289" data-name="Path 36289" d="M770.648,256a3.336,3.336,0,1,0,3.148,3.33A3.382,3.382,0,0,0,770.648,256Z" transform="translate(-740.934 -164.345)" fill="#009c97" opacity="0.7"/>
      <path id="Path_36290" data-name="Path 36290" d="M770.648,233a3.336,3.336,0,1,0,3.148,3.331A3.486,3.486,0,0,0,770.648,233Z" transform="translate(-740.934 -171.986)" fill="#009c97" opacity="0.7"/>
      <path id="Path_36291" data-name="Path 36291" d="M770.648,210.1a3.336,3.336,0,1,0,3.148,3.33A3.382,3.382,0,0,0,770.648,210.1Z" transform="translate(-740.934 -179.593)" fill="#009c97" opacity="0.7"/>
      <path id="Path_36292" data-name="Path 36292" d="M770.648,187.2a3.336,3.336,0,1,0,3.148,3.331A3.294,3.294,0,0,0,770.648,187.2Z" transform="translate(-740.934 -187.2)" fill="#009c97" opacity="0.7"/>
      <path id="Path_36293" data-name="Path 36293" d="M791.747,301.8a3.336,3.336,0,1,0,3.148,3.33A3.211,3.211,0,0,0,791.747,301.8Z" transform="translate(-788.6 -149.131)" fill="#009c97" opacity="0.7"/>
      <path id="Path_36294" data-name="Path 36294" d="M791.747,278.9a3.336,3.336,0,1,0,3.148,3.33A3.211,3.211,0,0,0,791.747,278.9Z" transform="translate(-788.6 -156.738)" fill="#009c97" opacity="0.7"/>
      <path id="Path_36295" data-name="Path 36295" d="M770.648,301.8a3.336,3.336,0,1,0,3.148,3.33A3.382,3.382,0,0,0,770.648,301.8Z" transform="translate(-740.934 -149.131)" fill="#009c97" opacity="0.7"/>
      <path id="Path_36296" data-name="Path 36296" d="M770.648,278.9a3.336,3.336,0,1,0,3.148,3.33A3.382,3.382,0,0,0,770.648,278.9Z" transform="translate(-740.934 -156.738)" fill="#009c97" opacity="0.7"/>
    </g>
    <g id="Group_18930" data-name="Group 18930" transform="translate(1410.113 799.977)">
      <path id="Path_36297" data-name="Path 36297" d="M715.484,454.531A2.462,2.462,0,0,0,713.092,452a2.552,2.552,0,0,0-2.392,2.531,2.462,2.462,0,0,0,2.392,2.531A2.552,2.552,0,0,0,715.484,454.531Z" transform="translate(-665.5 -452)" fill="#009c97" opacity="0.7"/>
      <path id="Path_36298" data-name="Path 36298" d="M697.585,454.531A2.462,2.462,0,0,0,695.192,452a2.552,2.552,0,0,0-2.392,2.531,2.462,2.462,0,0,0,2.392,2.531A2.552,2.552,0,0,0,697.585,454.531Z" transform="translate(-625.063 -452)" fill="#009c97" opacity="0.7"/>
      <path id="Path_36299" data-name="Path 36299" d="M679.584,454.531A2.462,2.462,0,0,0,677.192,452a2.552,2.552,0,0,0-2.392,2.531,2.462,2.462,0,0,0,2.392,2.531A2.552,2.552,0,0,0,679.584,454.531Z" transform="translate(-584.4 -452)" fill="#009c97" opacity="0.7"/>
      <path id="Path_36300" data-name="Path 36300" d="M661.684,454.531a2.4,2.4,0,1,0-2.392,2.531A2.462,2.462,0,0,0,661.684,454.531Z" transform="translate(-543.963 -452)" fill="#009c97" opacity="0.7"/>
      <path id="Path_36301" data-name="Path 36301" d="M751.385,454.531A2.462,2.462,0,0,0,748.992,452a2.552,2.552,0,0,0-2.392,2.531,2.462,2.462,0,0,0,2.392,2.531A2.552,2.552,0,0,0,751.385,454.531Z" transform="translate(-746.6 -452)" fill="#009c97" opacity="0.7"/>
      <path id="Path_36302" data-name="Path 36302" d="M733.484,454.531A2.462,2.462,0,0,0,731.092,452a2.552,2.552,0,0,0-2.392,2.531,2.462,2.462,0,0,0,2.392,2.531A2.552,2.552,0,0,0,733.484,454.531Z" transform="translate(-706.163 -452)" fill="#009c97" opacity="0.7"/>
    </g>
    <g id="Group_18931" data-name="Group 18931" transform="translate(936.496 1145.932)" opacity="0.5">
      <path id="Path_36303" data-name="Path 36303" d="M1176.647,421.664a3.279,3.279,0,1,1-3.273-3.464A3.271,3.271,0,0,1,1176.647,421.664Zm27.448,31.573a3.279,3.279,0,1,1-3.274-3.464A3.434,3.434,0,0,1,1204.094,453.237Zm0-31.573a3.279,3.279,0,1,1-3.274-3.464A3.272,3.272,0,0,1,1204.094,421.664Zm27.447,63.279a3.279,3.279,0,1,1-3.274-3.464A3.351,3.351,0,0,1,1231.542,484.943Zm0-31.706a3.279,3.279,0,1,1-3.274-3.464A3.434,3.434,0,0,1,1231.542,453.237Zm0-31.573a3.279,3.279,0,1,1-3.274-3.464A3.272,3.272,0,0,1,1231.542,421.664Zm27.447,31.573a3.279,3.279,0,1,1-3.273-3.464A3.434,3.434,0,0,1,1258.989,453.237Zm0-31.573a3.279,3.279,0,1,1-3.273-3.464A3.271,3.271,0,0,1,1258.989,421.664Zm27.448,0a3.279,3.279,0,1,1-3.273-3.464A3.272,3.272,0,0,1,1286.437,421.664Z" transform="translate(-1170.1 -418.2)" fill="#0460e3"/>
    </g>
    <g id="Group_18932" data-name="Group 18932" transform="translate(2071.922 256.828) rotate(180)">
      <path id="Path_36333" data-name="Path 36333" d="M6.547,3.464A3.434,3.434,0,0,1,3.274,6.927,3.434,3.434,0,0,1,0,3.464,3.434,3.434,0,0,1,3.274,0,3.271,3.271,0,0,1,6.547,3.464ZM33.995,35.037A3.434,3.434,0,0,1,30.721,38.5a3.469,3.469,0,0,1,0-6.927A3.434,3.434,0,0,1,33.995,35.037Zm0-31.573a3.434,3.434,0,0,1-3.274,3.464,3.434,3.434,0,0,1-3.273-3.464A3.434,3.434,0,0,1,30.721,0,3.272,3.272,0,0,1,33.995,3.464ZM61.442,66.743a3.279,3.279,0,1,1-3.274-3.464A3.351,3.351,0,0,1,61.442,66.743Zm0-31.706a3.279,3.279,0,1,1-3.274-3.464A3.434,3.434,0,0,1,61.442,35.037Zm0-31.573a3.279,3.279,0,1,1-6.547,0A3.434,3.434,0,0,1,58.168,0,3.272,3.272,0,0,1,61.442,3.464ZM88.889,35.037a3.279,3.279,0,1,1-3.273-3.464A3.434,3.434,0,0,1,88.889,35.037Zm0-31.573a3.279,3.279,0,1,1-6.547,0A3.434,3.434,0,0,1,85.616,0,3.271,3.271,0,0,1,88.889,3.464Zm27.448,0a3.279,3.279,0,1,1-6.547,0A3.434,3.434,0,0,1,113.063,0,3.272,3.272,0,0,1,116.337,3.464Z" transform="translate(0 0)" fill="#0460e3"/>
    </g>
    <g id="Group_18938" data-name="Group 18938" transform="translate(1456.574 651.438)" opacity="0.7">
      <path id="Path_36309" data-name="Path 36309" d="M697.792,340.5c-14.731,0-26.692,12.656-26.692,28.242s11.961,28.242,26.692,28.242,26.692-12.656,26.692-28.242S712.523,340.5,697.792,340.5Zm0,52.888c-12.842,0-23.418-11.057-23.418-24.779s10.45-24.779,23.418-24.779c12.842,0,23.418,11.057,23.418,24.779S710.634,393.388,697.792,393.388Z" transform="translate(-671.1 -340.5)" fill="#009c97"/>
    </g>
    <g id="Group_18948" data-name="Group 18948" transform="translate(410.361 549.293)">
      <g id="Group_18937" data-name="Group 18937" transform="translate(43.091 41.964)" opacity="0.75">
        <line id="Line_574" data-name="Line 574" x2="193.894" y2="205.157" transform="translate(1.605 1.732)" fill="#009c97"/>
        <path id="Path_36308" data-name="Path 36308" d="M1326.13,298.5a1.336,1.336,0,0,0-1.133.533,1.93,1.93,0,0,0,0,2.531l193.894,205.157a1.68,1.68,0,0,0,2.392,0,1.93,1.93,0,0,0,0-2.531L1327.389,299.033A2.577,2.577,0,0,0,1326.13,298.5Z" transform="translate(-1324.525 -298.5)" fill="#0460e3"/>
      </g>
      <g id="Group_18939" data-name="Group 18939" opacity="0.7">
        <path id="Path_36310" data-name="Path 36310" d="M1490.06,267c-23.8,0-43.06,20.382-43.06,45.561s19.264,45.561,43.06,45.561,43.059-20.382,43.059-45.561S1513.73,267,1490.06,267Zm0,87.658c-21.908,0-39.786-18.917-39.786-42.1s17.879-42.1,39.786-42.1,39.786,18.917,39.786,42.1S1511.967,354.658,1490.06,354.658Z" transform="translate(-1447 -267)" fill="#0460e3"/>
      </g>
    </g>
    <g id="Group_18952" data-name="Group 18952" transform="translate(1889.957 411.512) rotate(180)">
      <g id="Group_18937-2" data-name="Group 18937" transform="translate(43.091 41.964)" opacity="0.75">
        <line id="Line_574-2" data-name="Line 574" x2="193.894" y2="205.157" transform="translate(1.605 1.732)" fill="#009c97"/>
        <path id="Path_36308-2" data-name="Path 36308" d="M1326.13,298.5a1.336,1.336,0,0,0-1.133.533,1.93,1.93,0,0,0,0,2.531l193.894,205.157a1.68,1.68,0,0,0,2.392,0,1.93,1.93,0,0,0,0-2.531L1327.389,299.033A2.577,2.577,0,0,0,1326.13,298.5Z" transform="translate(-1324.525 -298.5)" fill="#0460e3"/>
      </g>
      <g id="Group_18939-2" data-name="Group 18939" opacity="0.7">
        <path id="Path_36310-2" data-name="Path 36310" d="M1490.06,267c-23.8,0-43.06,20.382-43.06,45.561s19.264,45.561,43.06,45.561,43.059-20.382,43.059-45.561S1513.73,267,1490.06,267Zm0,87.658c-21.908,0-39.786-18.917-39.786-42.1s17.879-42.1,39.786-42.1,39.786,18.917,39.786,42.1S1511.967,354.658,1490.06,354.658Z" transform="translate(-1447 -267)" fill="#0460e3"/>
      </g>
    </g>
    <g id="Group_18941" data-name="Group 18941" transform="translate(2134.826 1256.252)" opacity="0.7">
      <path id="Path_36312" data-name="Path 36312" d="M159.092,794.5c-14.731,0-26.692,12.656-26.692,28.242s11.961,28.242,26.692,28.242,26.692-12.656,26.692-28.242S173.823,794.5,159.092,794.5Zm0,53.021c-12.842,0-23.418-11.057-23.418-24.779,0-13.588,10.45-24.779,23.418-24.779,12.842,0,23.418,11.057,23.418,24.779C182.51,836.331,171.934,847.521,159.092,847.521Z" transform="translate(-132.4 -794.5)" fill="#009c97"/>
    </g>
    <g id="top_left_diagonals" data-name="top left diagonals" transform="translate(-70 -24.092)">
      <g id="Group_18935" data-name="Group 18935" transform="translate(335.711 69.969)" opacity="0.75">
        <line id="Line_572" data-name="Line 572" x2="286.183" y2="302.94" transform="translate(43.929 61.331)" fill="#009c97"/>
      </g>
      <g id="Group_18950" data-name="Group 18950" transform="translate(179.845 294.84)">
        <line id="Line_572-2" data-name="Line 572" x2="286.183" y2="302.94" transform="translate(43.929 61.331)" fill="#009c97"/>
        <path id="Path_36306" data-name="Path 36306" d="M942.43,64.2a1.335,1.335,0,0,0-1.133.533,1.93,1.93,0,0,0,0,2.531L1227.48,370.07a1.68,1.68,0,0,0,2.392,0,1.93,1.93,0,0,0,0-2.531L943.563,64.6A1.7,1.7,0,0,0,942.43,64.2Z" transform="translate(-940.825 -64.2)" fill="#0460e3"/>
        <path id="Path_36336" data-name="Path 36336" d="M142.149,794.5c-5.38,0-9.749,4.622-9.749,10.315s4.368,10.315,9.749,10.315,9.749-4.622,9.749-10.315S147.529,794.5,142.149,794.5Zm0,19.365a9.064,9.064,0,1,1,8.553-9.05A8.825,8.825,0,0,1,142.149,813.865Z" transform="translate(170 -475.218)" fill="#0460e3" stroke="#0460e3" stroke-width="1.5"/>
        <g id="Group_18975" data-name="Group 18975" transform="translate(-118.014 28.04)">
          <path id="Path_36341" data-name="Path 36341" d="M942.43,64.2a1.335,1.335,0,0,0-1.133.533,1.93,1.93,0,0,0,0,2.531L1227.48,370.07a1.68,1.68,0,0,0,2.392,0,1.93,1.93,0,0,0,0-2.531L943.563,64.6A1.7,1.7,0,0,0,942.43,64.2Z" transform="translate(-417.813 -351.24)" fill="#0460e3"/>
          <g id="Group_18974" data-name="Group 18974" transform="translate(894.435 -298.788)">
            <path id="Path_36231-2" data-name="Path 36231" d="M319.348,759.8a3.336,3.336,0,1,0,3.148,3.33A3.211,3.211,0,0,0,319.348,759.8Z" transform="translate(-262.564 -666.946)" fill="#0460e3" opacity="0.7"/>
            <path id="Path_36232-2" data-name="Path 36232" d="M319.348,736.5a3.336,3.336,0,1,0,3.148,3.33A3.3,3.3,0,0,0,319.348,736.5Z" transform="translate(-262.564 -674.686)" fill="#0460e3" opacity="0.7"/>
            <path id="Path_36233-2" data-name="Path 36233" d="M319.348,713.3a3.336,3.336,0,1,0,3.148,3.33A3.211,3.211,0,0,0,319.348,713.3Z" transform="translate(-262.564 -682.393)" fill="#0460e3" opacity="0.7"/>
            <path id="Path_36234-2" data-name="Path 36234" d="M319.348,690.1a3.336,3.336,0,1,0,3.148,3.331A3.211,3.211,0,0,0,319.348,690.1Z" transform="translate(-262.564 -690.1)" fill="#0460e3" opacity="0.7"/>
            <path id="Path_36235-2" data-name="Path 36235" d="M298.042,759.8a3.336,3.336,0,1,0,3.148,3.33A3.135,3.135,0,0,0,298.042,759.8Z" transform="translate(-214.441 -666.946)" fill="#0460e3" opacity="0.7"/>
            <path id="Path_36236-2" data-name="Path 36236" d="M298.042,736.5a3.336,3.336,0,1,0,3.148,3.33A3.211,3.211,0,0,0,298.042,736.5Z" transform="translate(-214.441 -674.686)" fill="#0460e3" opacity="0.7"/>
            <path id="Path_36237-2" data-name="Path 36237" d="M298.042,713.3a3.336,3.336,0,1,0,3.148,3.33A3.135,3.135,0,0,0,298.042,713.3Z" transform="translate(-214.441 -682.393)" fill="#0460e3" opacity="0.7"/>
            <path id="Path_36238-2" data-name="Path 36238" d="M298.042,690.1a3.336,3.336,0,1,0,3.148,3.331A3.135,3.135,0,0,0,298.042,690.1Z" transform="translate(-214.441 -690.1)" fill="#0460e3" opacity="0.7"/>
            <path id="Path_36247-2" data-name="Path 36247" d="M319.348,829.5a3.336,3.336,0,1,0,3.148,3.331A3.211,3.211,0,0,0,319.348,829.5Z" transform="translate(-262.564 -643.793)" fill="#0460e3" opacity="0.7"/>
            <path id="Path_36248-2" data-name="Path 36248" d="M319.348,806.3a3.336,3.336,0,1,0,3.148,3.331A3.211,3.211,0,0,0,319.348,806.3Z" transform="translate(-262.564 -651.5)" fill="#0460e3" opacity="0.7"/>
            <path id="Path_36249-2" data-name="Path 36249" d="M319.348,783a3.336,3.336,0,1,0,3.148,3.331A3.211,3.211,0,0,0,319.348,783Z" transform="translate(-262.564 -659.24)" fill="#0460e3" opacity="0.7"/>
            <path id="Path_36250-2" data-name="Path 36250" d="M298.042,829.5a3.336,3.336,0,1,0,3.148,3.331A3.135,3.135,0,0,0,298.042,829.5Z" transform="translate(-214.441 -643.793)" fill="#0460e3" opacity="0.7"/>
            <path id="Path_36251-2" data-name="Path 36251" d="M298.042,806.3a3.336,3.336,0,1,0,3.148,3.331A3.135,3.135,0,0,0,298.042,806.3Z" transform="translate(-214.441 -651.5)" fill="#0460e3" opacity="0.7"/>
            <path id="Path_36252-2" data-name="Path 36252" d="M298.042,783a3.336,3.336,0,1,0,3.148,3.331A3.135,3.135,0,0,0,298.042,783Z" transform="translate(-214.441 -659.24)" fill="#0460e3" opacity="0.7"/>
            <path id="Path_36254-2" data-name="Path 36254" d="M361.948,759.8a3.336,3.336,0,1,0,3.148,3.33A3.211,3.211,0,0,0,361.948,759.8Z" transform="translate(-358.8 -666.946)" fill="#0460e3" opacity="0.7"/>
            <path id="Path_36255-2" data-name="Path 36255" d="M361.948,736.5a3.336,3.336,0,1,0,3.148,3.33A3.3,3.3,0,0,0,361.948,736.5Z" transform="translate(-358.8 -674.686)" fill="#0460e3" opacity="0.7"/>
            <path id="Path_36256-2" data-name="Path 36256" d="M361.948,713.3a3.336,3.336,0,1,0,3.148,3.33A3.211,3.211,0,0,0,361.948,713.3Z" transform="translate(-358.8 -682.393)" fill="#0460e3" opacity="0.7"/>
            <path id="Path_36257-2" data-name="Path 36257" d="M361.948,690.1a3.336,3.336,0,1,0,3.148,3.331A3.211,3.211,0,0,0,361.948,690.1Z" transform="translate(-358.8 -690.1)" fill="#0460e3" opacity="0.7"/>
            <path id="Path_36258-2" data-name="Path 36258" d="M340.648,759.8a3.336,3.336,0,1,0,3.148,3.33A3.211,3.211,0,0,0,340.648,759.8Z" transform="translate(-310.682 -666.946)" fill="#0460e3" opacity="0.7"/>
            <path id="Path_36259-2" data-name="Path 36259" d="M340.648,736.5a3.336,3.336,0,1,0,3.148,3.33A3.3,3.3,0,0,0,340.648,736.5Z" transform="translate(-310.682 -674.686)" fill="#0460e3" opacity="0.7"/>
            <path id="Path_36260-2" data-name="Path 36260" d="M340.648,713.3a3.336,3.336,0,1,0,3.148,3.33A3.211,3.211,0,0,0,340.648,713.3Z" transform="translate(-310.682 -682.393)" fill="#0460e3" opacity="0.7"/>
            <path id="Path_36261-2" data-name="Path 36261" d="M340.648,690.1a3.336,3.336,0,1,0,3.148,3.331A3.211,3.211,0,0,0,340.648,690.1Z" transform="translate(-310.682 -690.1)" fill="#0460e3" opacity="0.7"/>
            <path id="Path_36262-2" data-name="Path 36262" d="M361.948,829.5a3.336,3.336,0,1,0,3.148,3.331A3.211,3.211,0,0,0,361.948,829.5Z" transform="translate(-358.8 -643.793)" fill="#0460e3" opacity="0.7"/>
            <path id="Path_36263-2" data-name="Path 36263" d="M361.948,806.3a3.336,3.336,0,1,0,3.148,3.331A3.211,3.211,0,0,0,361.948,806.3Z" transform="translate(-358.8 -651.5)" fill="#0460e3" opacity="0.7"/>
            <path id="Path_36264-2" data-name="Path 36264" d="M361.948,783a3.336,3.336,0,1,0,3.148,3.331A3.211,3.211,0,0,0,361.948,783Z" transform="translate(-358.8 -659.24)" fill="#0460e3" opacity="0.7"/>
            <path id="Path_36265-2" data-name="Path 36265" d="M340.648,829.5a3.336,3.336,0,1,0,3.148,3.331A3.211,3.211,0,0,0,340.648,829.5Z" transform="translate(-310.682 -643.793)" fill="#0460e3" opacity="0.7"/>
            <path id="Path_36266-2" data-name="Path 36266" d="M340.648,806.3a3.336,3.336,0,1,0,3.148,3.331A3.211,3.211,0,0,0,340.648,806.3Z" transform="translate(-310.682 -651.5)" fill="#0460e3" opacity="0.7"/>
            <path id="Path_36267-2" data-name="Path 36267" d="M340.648,783a3.336,3.336,0,1,0,3.148,3.331A3.211,3.211,0,0,0,340.648,783Z" transform="translate(-310.682 -659.24)" fill="#0460e3" opacity="0.7"/>
            <path id="Path_36273-2" data-name="Path 36273" d="M319.348,876a3.336,3.336,0,1,0,3.148,3.331A3.211,3.211,0,0,0,319.348,876Z" transform="translate(-262.564 -628.346)" fill="#0460e3" opacity="0.7"/>
            <path id="Path_36274-2" data-name="Path 36274" d="M319.348,852.7a3.336,3.336,0,1,0,3.148,3.331A3.3,3.3,0,0,0,319.348,852.7Z" transform="translate(-262.564 -636.086)" fill="#0460e3" opacity="0.7"/>
            <path id="Path_36275-2" data-name="Path 36275" d="M298.042,876a3.336,3.336,0,1,0,3.148,3.331A3.135,3.135,0,0,0,298.042,876Z" transform="translate(-214.441 -628.346)" fill="#0460e3" opacity="0.7"/>
            <path id="Path_36276-2" data-name="Path 36276" d="M298.042,852.7a3.336,3.336,0,1,0,3.148,3.331A3.212,3.212,0,0,0,298.042,852.7Z" transform="translate(-214.441 -636.086)" fill="#0460e3" opacity="0.7"/>
            <path id="Path_36277-2" data-name="Path 36277" d="M361.948,876a3.336,3.336,0,1,0,3.148,3.331A3.211,3.211,0,0,0,361.948,876Z" transform="translate(-358.8 -628.346)" fill="#0460e3" opacity="0.7"/>
            <path id="Path_36278-2" data-name="Path 36278" d="M361.948,852.7a3.336,3.336,0,1,0,3.148,3.331A3.3,3.3,0,0,0,361.948,852.7Z" transform="translate(-358.8 -636.086)" fill="#0460e3" opacity="0.7"/>
            <path id="Path_36279-2" data-name="Path 36279" d="M340.648,876a3.336,3.336,0,1,0,3.148,3.331A3.211,3.211,0,0,0,340.648,876Z" transform="translate(-310.682 -628.346)" fill="#0460e3" opacity="0.7"/>
            <path id="Path_36280-2" data-name="Path 36280" d="M340.648,852.7a3.336,3.336,0,1,0,3.148,3.331A3.3,3.3,0,0,0,340.648,852.7Z" transform="translate(-310.682 -636.086)" fill="#0460e3" opacity="0.7"/>
          </g>
        </g>
      </g>
      <g id="Group_18944" data-name="Group 18944">
        <g id="Group_18912" data-name="Group 18912" transform="translate(477.141 275.712)">
          <path id="Path_36319" data-name="Path 36319" d="M1173.5,68.6a33.934,33.934,0,0,0-24.8,10.924,38.867,38.867,0,0,0,0,52.488l307.461,325.32a33.728,33.728,0,0,0,24.8,10.924,34.311,34.311,0,0,0,24.8-10.791c13.6-14.388,13.6-37.967,0-52.488L1198.3,79.657A33.371,33.371,0,0,0,1173.5,68.6Zm307.587,395.66a30.2,30.2,0,0,1-22.159-9.725l-307.461-325.32a34.588,34.588,0,0,1,0-46.893,30.109,30.109,0,0,1,44.319,0l307.461,325.32a34.589,34.589,0,0,1,0,46.893A30.41,30.41,0,0,1,1481.089,464.26Z" transform="translate(-1138.5 -68.6)" fill="#0460e3"/>
        </g>
        <g id="Group_18915" data-name="Group 18915" transform="translate(496.391 143.629)">
          <path id="Path_36322" data-name="Path 36322" d="M925.963-12.2a12.156,12.156,0,0,0-8.688,3.73A13.4,13.4,0,0,0,913.75.722a13.646,13.646,0,0,0,3.525,9.192l188.354,199.3a11.944,11.944,0,0,0,8.688,3.73,12.157,12.157,0,0,0,8.688-3.73,13.4,13.4,0,0,0,0-18.251L934.65-8.337A11.579,11.579,0,0,0,925.963-12.2Zm188.354,221.276a8.251,8.251,0,0,1-6.043-2.664L919.919,7.117A9.241,9.241,0,0,1,917.4.722a9.241,9.241,0,0,1,2.518-6.395,8.252,8.252,0,0,1,6.044-2.664,8.252,8.252,0,0,1,6.043,2.664l188.354,199.3a9.293,9.293,0,0,1,0,12.789A8.252,8.252,0,0,1,1114.317,209.076Z" transform="translate(-913.75 12.2)" fill="#0460e3"/>
        </g>
        <g id="Group_18916" data-name="Group 18916" transform="translate(416.364 395.366)">
          <path id="Path_36323" data-name="Path 36323" d="M1074.176,73.1a17.986,17.986,0,0,0-12.968,5.6,20.012,20.012,0,0,0,0,27.31L1358.6,420.668a17.776,17.776,0,0,0,12.968,5.6,17.987,17.987,0,0,0,12.968-5.6,20.012,20.012,0,0,0,0-27.31L1087.144,78.7A17.775,17.775,0,0,0,1074.176,73.1ZM1371.69,422.533A14.084,14.084,0,0,1,1361.366,418L1063.978,103.341a16.166,16.166,0,0,1,0-21.848,14.031,14.031,0,0,1,20.648,0l297.388,314.663a16.166,16.166,0,0,1,0,21.848A14.084,14.084,0,0,1,1371.69,422.533Z" transform="translate(-1055.825 -73.1)" fill="#0460e3"/>
        </g>
        <g id="Group_18949" data-name="Group 18949" transform="translate(70 30)">
          <path id="Path_36323-2" data-name="Path 36323" d="M1074.176,73.1a17.986,17.986,0,0,0-12.968,5.6,20.012,20.012,0,0,0,0,27.31L1358.6,420.668a17.776,17.776,0,0,0,12.968,5.6,17.987,17.987,0,0,0,12.968-5.6,20.012,20.012,0,0,0,0-27.31L1087.144,78.7A17.775,17.775,0,0,0,1074.176,73.1ZM1371.69,422.533A14.084,14.084,0,0,1,1361.366,418L1063.978,103.341a16.166,16.166,0,0,1,0-21.848,14.031,14.031,0,0,1,20.648,0l297.388,314.663a16.166,16.166,0,0,1,0,21.848A14.084,14.084,0,0,1,1371.69,422.533Z" transform="translate(-1055.825 -73.1)" fill="#0460e3"/>
        </g>
      </g>
    </g>
    <g id="top_left_diagonals-2" data-name="top left diagonals" transform="translate(1613.211 906.619)">
      <g id="Group_18935-2" data-name="Group 18935" transform="translate(364.028 -14)">
        <line id="Line_572-3" data-name="Line 572" x2="286.183" y2="302.94" transform="translate(53.678 61.331)" fill="#009c97"/>
        <path id="Path_36306-2" data-name="Path 36306" d="M942.43,64.2a1.335,1.335,0,0,0-1.133.533,1.93,1.93,0,0,0,0,2.531L1227.48,370.07a1.68,1.68,0,0,0,2.392,0,1.93,1.93,0,0,0,0-2.531L943.563,64.6A1.7,1.7,0,0,0,942.43,64.2Z" transform="translate(-1011.076 -16.2)" fill="#0460e3"/>
        <path id="Path_36334" data-name="Path 36334" d="M142.149,794.5c-5.38,0-9.749,4.622-9.749,10.315s4.368,10.315,9.749,10.315,9.749-4.622,9.749-10.315S147.529,794.5,142.149,794.5Zm0,19.365a9.064,9.064,0,1,1,8.553-9.05A8.825,8.825,0,0,1,142.149,813.865Z" transform="translate(178.177 -478.576)" fill="#13a6a2" stroke="#0460e3" stroke-width="1.5"/>
      </g>
      <g id="Group_18944-2" data-name="Group 18944" transform="translate(-110 -257.792)">
        <g id="Group_18912-2" data-name="Group 18912" transform="translate(291.3 41.236)">
          <path id="Path_36319-2" data-name="Path 36319" d="M1173.5,68.6a33.934,33.934,0,0,0-24.8,10.924,38.867,38.867,0,0,0,0,52.488l307.461,325.32a33.728,33.728,0,0,0,24.8,10.924,34.311,34.311,0,0,0,24.8-10.791c13.6-14.388,13.6-37.967,0-52.488L1198.3,79.657A33.371,33.371,0,0,0,1173.5,68.6Zm307.587,395.66a30.2,30.2,0,0,1-22.159-9.725l-307.461-325.32a34.588,34.588,0,0,1,0-46.893,30.109,30.109,0,0,1,44.319,0l307.461,325.32a34.589,34.589,0,0,1,0,46.893A30.41,30.41,0,0,1,1481.089,464.26Z" transform="translate(-1138.5 -68.6)" fill="#0460e3"/>
        </g>
        <g id="Group_18915-2" data-name="Group 18915" transform="translate(452.548 167.582)">
          <path id="Path_36322-2" data-name="Path 36322" d="M925.963-12.2a12.156,12.156,0,0,0-8.688,3.73A13.4,13.4,0,0,0,913.75.722a13.646,13.646,0,0,0,3.525,9.192l188.354,199.3a11.944,11.944,0,0,0,8.688,3.73,12.157,12.157,0,0,0,8.688-3.73,13.4,13.4,0,0,0,0-18.251L934.65-8.337A11.579,11.579,0,0,0,925.963-12.2Zm188.354,221.276a8.251,8.251,0,0,1-6.043-2.664L919.919,7.117A9.241,9.241,0,0,1,917.4.722a9.241,9.241,0,0,1,2.518-6.395,8.252,8.252,0,0,1,6.044-2.664,8.252,8.252,0,0,1,6.043,2.664l188.354,199.3a9.293,9.293,0,0,1,0,12.789A8.252,8.252,0,0,1,1114.317,209.076Z" transform="translate(-899.75 -29.8)" fill="#0460e3"/>
        </g>
        <g id="Group_18916-2" data-name="Group 18916" transform="translate(291.301 295.068)">
          <path id="Path_36323-3" data-name="Path 36323" d="M1074.176,73.1a17.986,17.986,0,0,0-12.968,5.6,20.012,20.012,0,0,0,0,27.31L1358.6,420.668a17.776,17.776,0,0,0,12.968,5.6,17.987,17.987,0,0,0,12.968-5.6,20.012,20.012,0,0,0,0-27.31L1087.144,78.7A17.775,17.775,0,0,0,1074.176,73.1ZM1371.69,422.533A14.084,14.084,0,0,1,1361.366,418L1063.978,103.341a16.166,16.166,0,0,1,0-21.848,14.031,14.031,0,0,1,20.648,0l297.388,314.663a16.166,16.166,0,0,1,0,21.848A14.084,14.084,0,0,1,1371.69,422.533Z" transform="translate(-1055.825 -73.1)" fill="#0460e3"/>
        </g>
        <g id="Group_18949-2" data-name="Group 18949" transform="translate(168.301 398.064)">
          <path id="Path_36323-4" data-name="Path 36323" d="M1074.176,73.1a17.986,17.986,0,0,0-12.968,5.6,20.012,20.012,0,0,0,0,27.31L1358.6,420.668a17.776,17.776,0,0,0,12.968,5.6,17.987,17.987,0,0,0,12.968-5.6,20.012,20.012,0,0,0,0-27.31L1087.144,78.7A17.775,17.775,0,0,0,1074.176,73.1ZM1371.69,422.533A14.084,14.084,0,0,1,1361.366,418L1063.978,103.341a16.166,16.166,0,0,1,0-21.848,14.031,14.031,0,0,1,20.648,0l297.388,314.663a16.166,16.166,0,0,1,0,21.848A14.084,14.084,0,0,1,1371.69,422.533Z" transform="translate(-932.825 -12.1)" fill="#0460e3"/>
        </g>
      </g>
    </g>
    <g id="Group_18945" data-name="Group 18945" transform="translate(1908.607 214.293)">
      <g id="Group_18918" data-name="Group 18918" transform="translate(-10 -190)" opacity="0.5" clip-path="url(#clip-path)">
        <path id="Path_36324" data-name="Path 36324" d="M-591.3,22.3l-3.9,4.13L310.689,984.939l3.9-4.13Zm933.84,958.509-3.9,4.13L-567.375,26.43l3.9-4.13Zm27.825,0-3.9,4.13L-539.424,26.43l3.9-4.13Zm27.951,0-3.9,4.13L-511.473,26.43l3.9-4.13Zm27.951,0-3.9,4.13L-483.648,26.43l3.9-4.13Zm27.825,0-3.9,4.13L-455.7,26.43l3.9-4.13Zm27.951,0-3.9,4.13L-427.746,26.43l3.9-4.13Zm27.951,0-3.9,4.13L-399.8,26.43l3.9-4.13Zm27.951,0-3.9,4.13L-371.97,26.43l3.9-4.13Zm27.825,0-3.9,4.13L-344.019,26.43l3.9-4.13Zm27.951,0-3.9,4.13L-316.068,26.43l3.9-4.13Zm27.951,0-3.9,4.13L-288.243,26.43l3.9-4.13Zm27.825,0-3.9,4.13L-260.292,26.43l3.9-4.13Zm27.951,0-3.9,4.13L-232.341,26.43l3.9-4.13Zm27.951,0-3.9,4.13L-204.39,26.43l3.9-4.13Zm27.951,0-3.9,4.13L-176.565,26.43l3.9-4.13Zm27.825,0-3.9,4.13L-148.614,26.43l3.9-4.13Zm27.951,0-3.9,4.13L-120.663,26.43l3.9-4.13Zm27.951,0-3.9,4.13L-92.838,26.43l3.9-4.13Zm27.825,0-3.9,4.13L-64.887,26.43l3.9-4.13Zm27.951,0-3.9,4.13L-36.936,26.43l3.9-4.13Zm27.951,0-3.9,4.13L-9.111,26.43l3.9-4.13Zm27.825,0-3.9,4.13L18.84,26.43l3.9-4.13Zm27.951,0-3.9,4.13L46.791,26.43l3.9-4.13Zm27.951,0-3.9,4.13L74.742,26.43l3.9-4.13Zm27.951,0-3.9,4.13L102.567,26.43l3.9-4.13Zm27.825,0-3.9,4.13L130.518,26.43l3.9-4.13Zm27.951,0-3.9,4.13L158.469,26.43l3.9-4.13Zm27.951,0-3.9,4.13L186.295,26.43l3.9-4.13Zm27.825,0-3.9,4.13L214.246,26.43l3.9-4.13Zm27.951,0-3.9,4.13L242.2,26.43l3.9-4.13Zm27.951,0-3.9,4.13L270.147,26.43l3.9-4.13Zm27.951,0-3.9,4.13L297.973,26.43l3.9-4.13Zm27.825,0-3.9,4.13L325.924,26.43l3.9-4.13Zm27.951,0-3.9,4.13L353.875,26.43l3.9-4.13Zm27.951,0-3.9,4.13L381.7,26.43l3.9-4.13Zm27.825,0-3.9,4.13L409.651,26.43l3.9-4.13Zm27.951,0-3.9,4.13L437.6,26.43l3.9-4.13Zm27.951,0-3.9,4.13L465.553,26.43l3.9-4.13Zm27.951,0-3.9,4.13L493.378,26.43l3.9-4.13Zm27.825,0-3.9,4.13L521.329,26.43l3.9-4.13Z" transform="translate(77.841 -7.554)" fill="#0460e3"/>
      </g>
    </g>
    <path id="Path_36337" data-name="Path 36337" d="M159.092,794.5c-14.731,0-26.692,12.656-26.692,28.242s11.961,28.242,26.692,28.242,26.692-12.656,26.692-28.242S173.823,794.5,159.092,794.5Zm0,53.021c-12.842,0-23.418-11.057-23.418-24.779,0-13.588,10.45-24.779,23.418-24.779,12.842,0,23.418,11.057,23.418,24.779C182.51,836.331,171.934,847.521,159.092,847.521Z" transform="translate(592.902 155.791)" fill="#0460e3"/>
    <g transform="matrix(1, 0, 0, 1, 0, 0)" filter="url(#Rectangle_18430)">
      <rect id="Rectangle_18430-2" data-name="Rectangle 18430" width="682" height="888" rx="20" transform="translate(936.54 256.83)" fill="#fff"/>
    </g>
  </g>
</svg>
