<svg xmlns="http://www.w3.org/2000/svg" width="42" height="42.001" viewBox="0 0 42 42.001">
  <g id="Group_44713" data-name="Group 44713" transform="translate(-17454 7456)">
    <path id="Path_98444" data-name="Path 98444" d="M337.879,144.515a6.853,6.853,0,0,1-3.783,3.08,28.967,28.967,0,0,1-11.578,2.42,4.269,4.269,0,0,1-2.284-.172c-.528.331-1.92-.438-2.419-.69-1.522-.772-1.169-2.72.069-3.584.957-.668,2-1.136,2.956-1.733.219-.137,1.6-.865,1.928-.66.79-.082,2.2-.511,2.593-.273.746.094,1.887-.675,2.692.005a19.115,19.115,0,0,1-2.092.267c-.544-.467-3.529.571-4.173.76-1.214.357-5.146,1.838-4.148,3.557.387.034.665.647,1.223.958a7.9,7.9,0,0,0,2.5.687,16.3,16.3,0,0,0,2.787.044c1.06-.119,1.719-.167,2.3-.208a20.338,20.338,0,0,0,2.865-.441,13.385,13.385,0,0,0,3.892-1.223c.189-.112,2.7-1.688,2.646-1.932.334-.236,1-.407.917-.925-.065-.426-.659-1.148-1.11-1.176a6.377,6.377,0,0,0-3.473-1.36c-1.52-.831-4.143-.61-5.529-1.754-.575.2-1.1-.828-1.451-.763-.866-1.251.959-1.694,1.807-2.084a16.39,16.39,0,0,1,4.883-1.2c.035-.046.753.1.9.025.666-.344,1.017-.059,1.768.152-.078-.189-.515-.268-.664-.311,2.768.109.261,2.535.107,2.376,1.616-2.85-6.169-.8-6.975-.55-2.557.8.388,1.6,1.185,2.022a28.789,28.789,0,0,0,3.213.787c1.245.415,2.536.738,3.759,1.242.939.387,2.62.813,2.668,2.154" transform="translate(17147.656 -7572.273)" fill="#828282"/>
    <g id="_001-bank" data-name="001-bank" transform="translate(17454 -7456.013)">
      <g id="Group_44712" data-name="Group 44712" transform="translate(0 0.015)">
        <g id="Group_44711" data-name="Group 44711">
          <path id="Path_98445" data-name="Path 98445" d="M41.3,15.414a.7.7,0,0,0,.7-.7V11.889a.69.69,0,0,0-.045-.223.042.042,0,0,0-.006-.027.7.7,0,0,0-.14-.206.789.789,0,0,0-.065-.052.7.7,0,0,0-.1-.08L21.338.1a.7.7,0,0,0-.676,0L.363,11.3a.7.7,0,0,0-.1.08.79.79,0,0,0-.065.052.7.7,0,0,0-.14.206.042.042,0,0,1-.006.027A.69.69,0,0,0,0,11.889v2.825a.7.7,0,0,0,.7.7H2.8v21H.7a.7.7,0,0,0-.7.7v4.2a.7.7,0,0,0,.7.7H41.3a.7.7,0,0,0,.7-.7v-4.2a.7.7,0,0,0-.7-.7H39.2v-21ZM21,1.514l17.581,9.7H3.421Zm19.6,36.3v2.8H1.4v-2.8Zm-36.4-1.4v-21H7v21Zm4.2,0v-21H33.6v21Zm26.6,0v-21h2.8v21ZM1.4,14.014v-1.4H40.6v1.4Z" transform="translate(0 -0.015)" fill="#828282"/>
        </g>
      </g>
    </g>
  </g>
</svg>
