<svg xmlns="http://www.w3.org/2000/svg" width="80" height="80" viewBox="0 0 80 80"><defs><style>.a{fill:#adadad;}</style></defs><g transform="translate(0 -0.067)"><g transform="translate(52.772 17.393)"><g transform="translate(0 0)"><circle class="a" cx="4.585" cy="4.585" r="4.585"/></g></g><g transform="translate(0 0.067)"><g transform="translate(0 0)"><path class="a" d="M79.137,25.991a45.6,45.6,0,0,0-9.83-15.461A44.535,44.535,0,0,0,53.964.892,12.561,12.561,0,0,0,40.636,3.718L28.365,15.935A12.51,12.51,0,0,0,25.756,29.8c.644,1.449,1.345,2.867,2.093,4.236L.915,60.977A3.126,3.126,0,0,0,0,63.188V76.941a3.125,3.125,0,0,0,3.125,3.126h13.75A3.125,3.125,0,0,0,20,76.941V71.315h5.625a3.125,3.125,0,0,0,3.125-3.126V62.562h5.625a3.126,3.126,0,0,0,0-6.252h-8.75A3.125,3.125,0,0,0,22.5,59.437v5.626H16.875a3.125,3.125,0,0,0-3.125,3.126v5.626H6.25V64.482L33.962,36.764a3.127,3.127,0,0,0,.462-3.832,50.591,50.591,0,0,1-2.957-5.671,6.223,6.223,0,0,1,1.307-6.9L45.046,8.149a6.3,6.3,0,0,1,6.687-1.417A38.258,38.258,0,0,1,64.9,14.96,39.329,39.329,0,0,1,73.32,28.276a6.208,6.208,0,0,1-1.4,6.672L59.5,47.312a6.292,6.292,0,0,1-6.877,1.341A40.559,40.559,0,0,1,47,45.782a3.126,3.126,0,0,0-3.269,5.328,46.831,46.831,0,0,0,6.494,3.314,12.522,12.522,0,0,0,13.687-2.682l12.42-12.365A12.458,12.458,0,0,0,79.137,25.991Z" transform="translate(0 -0.067)"/></g></g></g></svg>