<svg id="RYVYL_Block_Logo" data-name="RYVYL Block Logo" xmlns="http://www.w3.org/2000/svg" width="153.448" height="44" viewBox="0 0 153.448 44">
  <g id="Layer_1_00000005231201803883154830000004934234042110442401_" transform="translate(49.109 5.922)">
    <g id="Group_3" transform="translate(0.217 0)">
      <path id="Path_5" d="M116.5,303.443v6.784h.889V304.31h3.836l-.564-.845Zm74.082,0v6.784h4.161l.564-.845h-3.836v-5.917h-.889Zm-53.21-.022-2.081,3.229-2.081-3.229h-1l2.666,4.1v2.709h.867v-2.709l2.666-4.1Zm19.658-.022-2.6,5.635-2.558-5.635h-.932l3.034,6.827h.91l3.186-6.827Z" transform="translate(-116.5 -303.4)" fill="#0c1e30"/>
      <path id="Path_6" d="M368.68,303.5l-2.081,3.229-2.081-3.229H363.5l2.666,4.1v2.709h.867V307.6l2.666-4.1Z" transform="translate(-309.965 -303.478)" fill="#0c1e30"/>
    </g>
    <path id="Subtraction_1" d="M209.686,419.043h-5.137V401.01h5.137v6.871h.759l6.654-6.871h6.22l-8.106,8.431v.282l8.626,9.32H217.4l-6.957-7.434h-.759v7.434Zm-12.961,0h-9.472c-2.709,0-4.183-1.43-4.183-4.031v-10.1a4.064,4.064,0,0,1,1-3.1,2.679,2.679,0,0,1,1.17-.629,6.116,6.116,0,0,1,1.539-.2H197.05a5.575,5.575,0,0,1,1.691.217,2.606,2.606,0,0,1,1.149.694,2.654,2.654,0,0,1,.65,1.214,7.123,7.123,0,0,1,.217,1.777v2.449h-5.072v-1.994H188.12v9.3h7.564v-3.1h5.072v3.75a4.187,4.187,0,0,1-.217,1.365,3.661,3.661,0,0,1-.694,1.192,3.308,3.308,0,0,1-1.257.845A4.145,4.145,0,0,1,196.725,419.043Zm-21.544,0h-4.552v-4.356h3.381v-7.759l5.007-3.143a10.577,10.577,0,0,1,.065,1.17v10.382a3.642,3.642,0,0,1-.26,1.365,3.845,3.845,0,0,1-.759,1.192,3.49,3.49,0,0,1-1.235.845,3.9,3.9,0,0,1-1.647.3Zm-5.852,0H164.3a5.142,5.142,0,0,1-1.409-.2,3.5,3.5,0,0,1-1.192-.629,2.889,2.889,0,0,1-.824-1.084,3.616,3.616,0,0,1-.3-1.582v-11.7l5.05,3.034v7.824h3.728l-.022,4.335Zm-12.484,0H140.762V401.01H145.9v13.676h10.967v4.356Zm-23.8,0H119.5V401.01H133a3.566,3.566,0,0,1,2.753.91,2.727,2.727,0,0,1,.564,1.084,6.453,6.453,0,0,1,.173,1.43v2.8a4.682,4.682,0,0,1-.173,1.452,1.934,1.934,0,0,1-.715,1.04,2.113,2.113,0,0,1,1.019,1.062,3.887,3.887,0,0,1,.282,1.647v3.359a3.045,3.045,0,0,1-.91,2.211,3.78,3.78,0,0,1-1.192.737,4.174,4.174,0,0,1-1.756.3Zm-8.41-7.348v3.36h7.152V411.7Zm0-6.676v3.164H131.4v-3.164Zm49.374.39h-8.323l-4.833-2.9a2.847,2.847,0,0,1,2.883-1.5H176a3.536,3.536,0,0,1,1.712.368,2.216,2.216,0,0,1,.954,1.084l-4.66,2.948Z" transform="translate(-119.5 -387.891)" fill="#0c1e30"/>
  </g>
  <g id="noun-blockchain-5468876">
    <path id="Path_20" d="M-1.173,84.582A1.5,1.5,0,0,1-1.932,83.3L-2.3,64.858a1.6,1.6,0,0,1,.2-.78,1.619,1.619,0,0,1,.542-.542,1.506,1.506,0,0,1,1.539,0L4.094,65.92v-.065L16.838,73.2V87.9L4.657,80.854a1.093,1.093,0,0,1-.542-.932V69.388L.8,67.459l.282,14.912,10.013,5.787L9.577,90.781Z" transform="translate(2.3 -49.884)" fill="#0c1e30"/>
    <path id="Path_19" d="M32.2,15.419,44.381,8.375a1.194,1.194,0,0,1,1.084,0l9.146,5.288,3.251-1.886-13.048-7.2L34.8,10.369,33.284,7.747l10.75-6.22a1.477,1.477,0,0,1,1.5-.022L61.7,10.413a1.618,1.618,0,0,1,.585.564,1.441,1.441,0,0,1,.2.737,1.5,1.5,0,0,1-.759,1.322l-4.075,2.341h.022L44.944,22.724Z" transform="translate(-24.722 -1.312)" fill="#0c1e30"/>
    <path id="Path_18" d="M96.767,102.851a1.522,1.522,0,0,1-.78-1.322V97l-.087.043v-14.7L108.623,75V89.088a1.093,1.093,0,0,1-.542.932l-9.06,5.245v3.576l12.766-7.716V79.552h3.034V91.971a1.519,1.519,0,0,1-.737,1.3l-15.8,9.537a1.415,1.415,0,0,1-.78.217A1.242,1.242,0,0,1,96.767,102.851Z" transform="translate(-74.616 -59.029)" fill="#0c1e30"/>
  </g>
</svg>
