<svg xmlns="http://www.w3.org/2000/svg" width="42.324" height="38.551" viewBox="0 0 42.324 38.551">
  <path id="Cart_icon" data-name="Cart icon" d="M6.956,962.362a.945.945,0,1,0,0,1.89h4.9l4.976,23.537a.988.988,0,0,0,.989,1.034H41.449a.945.945,0,1,0,0-1.89H18.591l-.8-3.78H43.339a.976.976,0,0,0,.915-.738l3.308-14.175a.989.989,0,0,0-.915-1.152H14.4l-.842-3.987a.975.975,0,0,0-.93-.738Zm7.841,6.615H45.465l-2.879,12.285H17.4Zm8.225,22.68a4.253,4.253,0,1,0,4.253,4.252A4.267,4.267,0,0,0,23.021,991.658Zm13.23,0A4.253,4.253,0,1,0,40.5,995.91,4.267,4.267,0,0,0,36.251,991.658Zm-13.23,1.89a2.363,2.363,0,1,1-2.363,2.363A2.348,2.348,0,0,1,23.021,993.548Zm13.23,0a2.363,2.363,0,1,1-2.363,2.363A2.348,2.348,0,0,1,36.251,993.548Z" transform="translate(-5.636 -961.987)" fill="#00a6a2" stroke="#00a6a2" stroke-width="0.75"/>
</svg>
