<svg xmlns="http://www.w3.org/2000/svg" width="18.031" height="19.503" viewBox="0 0 18.031 19.503">
  <g id="chargeback_icon" data-name="chargeback icon" transform="translate(-6.1 -2.537)">
    <path id="Path_34849" data-name="Path 34849" d="M15.424,4.008V3.125a.605.605,0,0,0-.308-.513.567.567,0,0,0-.6.021l-2.731,1.7a.626.626,0,0,0-.288.493.553.553,0,0,0,.288.493l2.731,1.7a.58.58,0,0,0,.308.082.472.472,0,0,0,.288-.082.605.605,0,0,0,.308-.513V5.774a7.233,7.233,0,1,1-5.381,2.054A.886.886,0,0,0,8.811,6.554a9.029,9.029,0,1,0,6.613-2.547Z" transform="translate(0)" fill="#00A6A2"/>
    <path id="Path_34850" data-name="Path 34850" d="M39.857,30.5h-.945a.324.324,0,0,0-.329.329v.821a2.379,2.379,0,0,0-1.93,2.588,2.475,2.475,0,0,0,2.485,2.156h.616a.764.764,0,0,1,.575.267.783.783,0,0,1-.637,1.314h-.821a.524.524,0,0,1-.493-.39.333.333,0,0,0-.329-.246h-.945a.34.34,0,0,0-.246.1.359.359,0,0,0-.082.246A2.1,2.1,0,0,0,38.6,39.557v.8a.324.324,0,0,0,.329.329h.945a.324.324,0,0,0,.329-.329v-.842a2.418,2.418,0,0,0,1.93-2.095,2.37,2.37,0,0,0-.616-1.848,2.394,2.394,0,0,0-1.766-.78h-.719a.764.764,0,0,1-.575-.267.783.783,0,0,1,.637-1.314h.821a.524.524,0,0,1,.493.39.333.333,0,0,0,.329.246h.945a.34.34,0,0,0,.246-.1.359.359,0,0,0,.082-.246,2.1,2.1,0,0,0-1.828-1.869v-.8A.324.324,0,0,0,39.857,30.5ZM36.9,37.667Z" transform="translate(-24.269 -22.221)" fill="#00A6A2"/>
  </g>
</svg>
