<svg id="Cogent_will_update_" data-name="Cogent (will update)" xmlns="http://www.w3.org/2000/svg" width="40" height="40.002" viewBox="0 0 40 40.002">
  <path id="Path_36167" data-name="Path 36167" d="M12.725,33.949h0a17.9,17.9,0,0,1-6.04-19.77A17.931,17.931,0,0,1,17.917,2.871,17.174,17.174,0,0,0,7.545,31.836,17.381,17.381,0,0,0,9.8,33.808,13.7,13.7,0,0,1,3.31,30.946,19.966,19.966,0,0,1,26.389,1.055a18.642,18.642,0,0,1,5.978,3.27A20.009,20.009,0,0,1,36.7,9.083a13.706,13.706,0,0,0-8.368-3.03h-.253a13.747,13.747,0,0,0-9.732,23.479,13.871,13.871,0,0,0,1.939,1.614,13.72,13.72,0,0,1-2.538,1.539A16.5,16.5,0,0,1,20.92,4.927a15.009,15.009,0,0,0-4.905,1.831A15.219,15.219,0,0,0,9.478,14.54a15.082,15.082,0,0,0,2.608,14.994,15.2,15.2,0,0,0,3.928,3.319c.184.108.372.214.56.314a13.681,13.681,0,0,1-3.85.782Z" transform="translate(0 0.001)" fill="#0032a0" />
  <path id="Path_36166" data-name="Path 36166" d="M12.725,33.949h0a17.9,17.9,0,0,1-6.04-19.77A17.931,17.931,0,0,1,17.917,2.871,17.174,17.174,0,0,0,7.545,31.836,17.381,17.381,0,0,0,9.8,33.808,13.7,13.7,0,0,1,3.31,30.946,19.94,19.94,0,0,1,19.956,0,20.207,20.207,0,0,1,26.7,1.169,20.012,20.012,0,0,1,36.7,9.083a13.706,13.706,0,0,0-8.368-3.03h-.253a13.747,13.747,0,0,0-9.732,23.479,13.871,13.871,0,0,0,1.939,1.614,13.72,13.72,0,0,1-2.538,1.539A16.5,16.5,0,0,1,20.92,4.927a15.009,15.009,0,0,0-4.905,1.831A15.219,15.219,0,0,0,9.478,14.54a15.082,15.082,0,0,0,2.608,14.994,15.2,15.2,0,0,0,3.928,3.319c.184.108.372.214.56.314a13.681,13.681,0,0,1-3.85.782Z" transform="translate(40 40.001) rotate(180)" fill="#9a989a" />
</svg>