<svg xmlns="http://www.w3.org/2000/svg" width="64.011" height="64" viewBox="0 0 64.011 64">
  <g id="contract" transform="translate(0 -0.039)">
    <path id="Path_5956" data-name="Path 5956" d="M230.359,98.39a3.2,3.2,0,0,0-5.867-.768l-.533.928a1.067,1.067,0,0,0-1.451.384l-2.709,4.618-.928-.533a1.066,1.066,0,1,0-1.067,1.845l.928.533-9.067,15.712-2.24,5.984-1.067,1.994a3.2,3.2,0,0,0,.171,3.456l-2.4,2.944-.672-1.685a2.134,2.134,0,0,0-3.808-.3l-.384.651-.362-4.267a2.133,2.133,0,0,0-4.149-.5l-2.624,7.872a1.067,1.067,0,0,0,.672,1.344.923.923,0,0,0,.331.085,1.067,1.067,0,0,0,1.014-.725l2.613-7.872.373,4.33a2.133,2.133,0,0,0,3.957.918l.395-.651.661,1.675a2.133,2.133,0,0,0,3.648.544l2.485-3.146a3.286,3.286,0,0,0,.843.107,3.2,3.2,0,0,0,2.784-1.579l1.067-1.781,4.064-4.939,9.162-15.9.928.533a1.069,1.069,0,0,1,.395,1.461l-4.267,7.392a1.059,1.059,0,1,0,1.8,1.109l4.267-7.392a3.2,3.2,0,0,0-1.173-4.373l-.928-.533,2.667-4.619a1.067,1.067,0,0,0-.384-1.451l.533-.928a3.2,3.2,0,0,0,.32-2.474Zm-4.021.3a1.067,1.067,0,0,1,.651-.5,1.12,1.12,0,0,1,.81.107,1.068,1.068,0,0,1,.5.651,1.12,1.12,0,0,1-.107.81l-.533.928L225.8,99.617ZM211.8,128.47l-.533-.309-1.579-.918,1.515-4.053,3.36,1.941Zm-3.2,3.082a1.066,1.066,0,0,1-.32-1.4l.533-.928,1.856,1.067-.533.917a1.066,1.066,0,0,1-1.536.341Zm7.179-8.17-3.691-2.133,8.533-14.784,3.691,2.133Zm9.6-16.63-3.691-2.133,2.133-3.691,3.691,2.133Zm0,0" transform="translate(-166.466 -83.183)" fill="#00a6a2"/>
    <path id="Path_5957" data-name="Path 5957" d="M75.169,356.853l-3.776,3.766-2.261-2.261a1.067,1.067,0,1,0-1.5,1.515l2.261,2.261a2.15,2.15,0,0,0,3.019,0l3.765-3.776a1.067,1.067,0,0,0-1.5-1.5Zm0,0" transform="translate(-58.337 -309.016)" fill="#00a6a2"/>
    <path id="Path_5958" data-name="Path 5958" d="M32,321.108a9.067,9.067,0,0,0,18.133,0,1.067,1.067,0,1,0-2.133,0,6.934,6.934,0,1,1-2.773-5.546,1.067,1.067,0,0,0,1.28-1.707A9.067,9.067,0,0,0,32,321.108Zm0,0" transform="translate(-27.733 -270.402)" fill="#ccc"/>
    <path id="Path_5959" data-name="Path 5959" d="M100.8,50.172a1.067,1.067,0,1,0,0-2.133H73.067A1.067,1.067,0,0,0,72,49.106v4.267a1.066,1.066,0,0,0,1.067,1.067H100.8a1.067,1.067,0,0,0,0-2.133H74.133V50.172Zm0,0" transform="translate(-62.4 -41.6)" fill="#ccc"/>
    <path id="Path_5960" data-name="Path 5960" d="M97.067,112.039a1.067,1.067,0,1,0,0,2.133H118.4a1.067,1.067,0,0,0,0-2.133Zm0,0" transform="translate(-83.2 -97.067)" fill="#ccc"/>
    <path id="Path_5961" data-name="Path 5961" d="M152.533,168.039H129.067a1.067,1.067,0,0,0,0,2.133h23.467a1.067,1.067,0,1,0,0-2.133Zm0,0" transform="translate(-110.933 -145.6)" fill="#ccc"/>
    <path id="Path_5962" data-name="Path 5962" d="M79.467,217.106a1.067,1.067,0,0,0-1.067-1.067H57.067a1.067,1.067,0,1,0,0,2.133H78.4A1.066,1.066,0,0,0,79.467,217.106Zm0,0" transform="translate(-48.533 -187.2)" fill="#ccc"/>
    <path id="Path_5963" data-name="Path 5963" d="M256.533,216.039h-7.467a1.067,1.067,0,1,0,0,2.133h7.467a1.067,1.067,0,1,0,0-2.133Zm0,0" transform="translate(-214.933 -187.2)" fill="#ccc"/>
    <path id="Path_5964" data-name="Path 5964" d="M67.733,258.172a1.067,1.067,0,1,0,0-2.133H57.067a1.067,1.067,0,1,0,0,2.133Zm0,0" transform="translate(-48.533 -221.867)" fill="#ccc"/>
    <path id="Path_5965" data-name="Path 5965" d="M169.067,258.172h7.467a1.067,1.067,0,1,0,0-2.133h-7.467a1.067,1.067,0,1,0,0,2.133Zm0,0" transform="translate(-145.6 -221.867)" fill="#ccc"/>
    <path id="Path_5966" data-name="Path 5966" d="M48,49.106a1.067,1.067,0,0,0-1.067,1.067V60.839a1.066,1.066,0,0,1-1.067,1.067H3.2a1.066,1.066,0,0,1-1.067-1.067V3.239A1.067,1.067,0,0,1,3.2,2.172H45.867a1.067,1.067,0,0,1,1.067,1.067V23.271a1.067,1.067,0,1,0,2.133,0V3.239a3.2,3.2,0,0,0-3.2-3.2H3.2A3.2,3.2,0,0,0,0,3.239v57.6a3.2,3.2,0,0,0,3.2,3.2H45.867a3.2,3.2,0,0,0,3.2-3.2V50.172A1.067,1.067,0,0,0,48,49.106Zm0,0" fill="#ccc"/>
  </g>
</svg>
