<svg id="coyni_logo_white" data-name="coyni logo white" xmlns="http://www.w3.org/2000/svg" width="175.691" height="70.803" viewBox="0 0 175.691 70.803">
  <rect id="Rectangle_18373" data-name="Rectangle 18373" width="6.196" height="41.018" transform="translate(167.809 14.263)" fill="#fff"/>
  <path id="Path_34783" data-name="Path 34783" d="M525.74,291.744a4.78,4.78,0,1,1,1.4,3.384,4.784,4.784,0,0,1-1.4-3.384" transform="translate(-359.617 -286.96)" fill="#fff"/>
  <path id="Path_34784" data-name="Path 34784" d="M447.786,320.857c3.108-3.693,7.472-5.5,12.686-5.5,10,0,16.176,6.782,16.176,16.639v25.225h-6.272V332c0-6.485-3.594-10.6-10.211-10.6-8.5,0-12.379,6.225-12.379,14.235v21.588h-6.2V316.21h6.2Z" transform="translate(-315.21 -301.947)" fill="#fff"/>
  <path id="Path_34785" data-name="Path 34785" d="M364.514,357.734,346.18,317.16h6.73l14.8,32.588,12.752-32.588h6.683l-17.338,43.847c-2.7,6.815-8.567,13.295-16.5,12.648l-1.067-.09v-5.984l1.266.113c5.162.472,8.544-4.095,10.348-8.336Z" transform="translate(-264.861 -302.897)" fill="#fff"/>
  <path id="Path_34786" data-name="Path 34786" d="M250.61,321.566a15.156,15.156,0,1,1-15.151,15.153,15.156,15.156,0,0,1,15.151-15.153m0-6.206a21.371,21.371,0,0,0-20.757,16.292,3.75,3.75,0,0,1-3.68,2.9h-5.743a3.679,3.679,0,0,1-3.207-1.776,7.429,7.429,0,1,0,0,7.887,3.684,3.684,0,0,1,3.207-1.771h5.743a3.745,3.745,0,0,1,3.679,2.89,21.362,21.362,0,1,0,20.757-26.42Z" transform="translate(-189.567 -301.947)" fill="#fff"/>
  <path id="Path_34787" data-name="Path 34787" d="M180.206,336.723c0-13.418,16.086-20.03,25.6-10.976l4.392-4.392c-13.37-12.908-36.2-3.622-36.2,15.368S196.826,365,210.2,352.092L205.8,347.7c-9.512,9.049-25.6,2.442-25.6-10.981" transform="translate(-174 -301.953)" fill="#fff"/>
</svg>
