<svg id="coyni_logo_full" data-name="coyni logo full" xmlns="http://www.w3.org/2000/svg" width="106.617" height="44.222" viewBox="0 0 106.617 44.222">
  <rect id="Rectangle_4870" data-name="Rectangle 4870" width="3.76" height="25.619" transform="translate(101.834 8.909)" fill="#1d1e2e"/>
  <path id="Path_11508" data-name="Path 11508" d="M525.74,289.948a2.9,2.9,0,1,1,2.9,2.988,2.859,2.859,0,0,1-2.054-.874,3.03,3.03,0,0,1-.849-2.114" transform="translate(-424.929 -286.96)" fill="#35bab6"/>
  <path id="Path_11509" data-name="Path 11509" d="M445.35,318.794a9.5,9.5,0,0,1,7.7-3.434c6.067,0,9.816,4.236,9.816,10.392v15.755h-3.806V325.752c0-4.05-2.181-6.619-6.2-6.619-5.159,0-7.512,3.888-7.512,8.891v13.484h-3.76V315.891h3.76Z" transform="translate(-364.897 -306.982)" fill="#1d1e2e"/>
  <path id="Path_11510" data-name="Path 11510" d="M357.306,342.5,346.18,317.16h4.084l8.982,20.354,7.738-20.354h4.055l-10.521,27.386c-1.637,4.257-5.2,8.3-10.011,7.9l-.648-.056v-3.737l.768.071c3.133.3,5.185-2.557,6.28-5.206Z" transform="translate(-296.832 -308.252)" fill="#1d1e2e"/>
  <path id="Path_11511" data-name="Path 11511" d="M232.088,319.236a9.47,9.47,0,1,1-9.194,9.464,9.334,9.334,0,0,1,9.194-9.464m0-3.876a13.047,13.047,0,0,0-12.6,10.176,2.29,2.29,0,0,1-2.233,1.81h-3.485a2.219,2.219,0,0,1-1.946-1.109,4.449,4.449,0,0,0-5.066-2,4.679,4.679,0,0,0,0,8.919,4.449,4.449,0,0,0,5.066-2,2.222,2.222,0,0,1,1.946-1.106h3.485a2.287,2.287,0,0,1,2.233,1.805,12.976,12.976,0,0,0,14.651,10.014,13.268,13.268,0,0,0,10.865-14.234,13.12,13.12,0,0,0-12.92-12.281Z" transform="translate(-195.045 -306.982)" fill="#35bab6"/>
  <path id="Path_11512" data-name="Path 11512" d="M177.766,328.708c0-8.38,9.762-12.51,15.534-6.855l2.665-2.743c-8.114-8.062-21.965-2.262-21.965,9.6s13.852,17.661,21.965,9.6l-2.665-2.74c-5.772,5.652-15.534,1.525-15.534-6.858" transform="translate(-174 -306.991)" fill="#1d1e2e"/>
</svg>
