<svg id="coyni_icon" data-name="coyni icon" xmlns="http://www.w3.org/2000/svg" width="43.696" height="43.695" viewBox="0 0 43.696 43.695">
  <g id="Group_10610" data-name="Group 10610">
    <path id="Path_5897" data-name="Path 5897" d="M229.848,208A21.848,21.848,0,1,0,251.7,229.848,21.848,21.848,0,0,0,229.848,208Zm0,41.125a19.277,19.277,0,1,1,19.278-19.277A19.278,19.278,0,0,1,229.848,249.125Z" transform="translate(-208 -208)" fill="#00a6a2"/>
  </g>
  <path id="Path_11531" data-name="Path 11531" d="M84.263,83.152A5.359,5.359,0,1,1,78.9,88.512a5.359,5.359,0,0,1,5.359-5.359m0-2.2a7.558,7.558,0,0,0-7.341,5.764,1.326,1.326,0,0,1-1.3,1.023H73.588a1.306,1.306,0,0,1-1.134-.627,2.627,2.627,0,1,0,0,2.79,1.305,1.305,0,0,1,1.134-.627h2.033a1.326,1.326,0,0,1,1.3,1.023,7.555,7.555,0,1,0,7.341-9.345Z" transform="translate(-55.398 -66.663)" fill="#00a6a2"/>
  <path id="Path_11532" data-name="Path 11532" d="M43.025,88.525a5.366,5.366,0,0,1,9.053-3.883l1.553-1.553a7.555,7.555,0,1,0,0,10.871l-1.553-1.553a5.366,5.366,0,0,1-9.053-3.883" transform="translate(-33.555 -66.678)" fill="#00a6a2"/>
</svg>
