<svg id="Layer_1" data-name="Layer 1" xmlns="http://www.w3.org/2000/svg" viewBox="0 0 158.34 82.09">
    <defs>
        <style>.cls-1{fill:#35bab6;}.cls-1,.cls-2{fill-rule:evenodd;}.cls-2{fill:#1d1e2e;}</style>
    </defs>
    <path class="cls-1" d="M158.13,92.88A29.12,29.12,0,1,1,129,122a29.11,29.11,0,0,1,29.12-29.12m0-11.92a41.06,41.06,0,0,0-39.89,31.31,7.21,7.21,0,0,1-7.07,5.56h-11A7.07,7.07,0,0,1,94,114.42a14.27,14.27,0,1,0,0,15.16,7.07,7.07,0,0,1,6.16-3.41h11a7.21,7.21,0,0,1,7.07,5.56A41,41,0,1,0,158.13,81Z" transform="translate(-40.83 -80.96)" />
    <path class="cls-2" d="M52.76,122c0-25.79,30.9-38.49,49.18-21.09l8.44-8.44c-25.69-24.8-69.55-7-69.55,29.53s43.86,54.33,69.55,29.53l-8.44-8.44c-18.27,17.4-49.18,4.7-49.18-21.09" transform="translate(-40.83 -80.96)" />
</svg>