<svg xmlns="http://www.w3.org/2000/svg" width="63.968" height="64" viewBox="0 0 63.968 64"><defs><style>.a{fill:#ccc;}.b{fill:#35bab6;}</style></defs><g transform="translate(-25.108 -24.989)"><path class="a" d="M81.9,284.906l-.329.177a4.527,4.527,0,0,0-5.379-1.347l-.019.01-.776.418a5.891,5.891,0,0,0-6.746-.609l-4.177,2.272H58.917a8.029,8.029,0,0,1-3.476-.8l-.765-.37a13.117,13.117,0,0,0-13.652,1.333c-.018.014-.036.028-.053.043l-1.846,1.643a6.4,6.4,0,0,1-2.416,1.347l-1.048-3.442a.831.831,0,0,0-.795-.589H25.939a.831.831,0,0,0-.825.932l2.976,24.4a.831.831,0,0,0,.825.731H42.306a.831.831,0,0,0,.795-1.074l-1.759-5.773,5.479-3.463a3.3,3.3,0,0,1,2.405-.311l.052.011L60.424,302.5a14.423,14.423,0,0,0,8.912-1.258.819.819,0,0,0,.1-.06l19.277-13.236a.831.831,0,0,0,.242-1.114A5.292,5.292,0,0,0,81.9,284.906Zm-4.948.309a2.838,2.838,0,0,1,3.1.686l-7.31,3.944-.429.226a6.338,6.338,0,0,0-1-1.819Zm-7.5-.206.02-.011a4.227,4.227,0,0,1,4.3.04l-3.717,2a6.315,6.315,0,0,0-2.374-1.068ZM29.65,309.4l-2.773-22.74h7.373l6.933,22.74Zm38.895-9.618a12.749,12.749,0,0,1-7.824,1.087L49.6,298.82a4.956,4.956,0,0,0-3.613.49l-.038.023-5.114,3.233L37.2,290.617a8.071,8.071,0,0,0,3.036-1.7l1.82-1.621a11.461,11.461,0,0,1,11.9-1.145l.765.37a9.7,9.7,0,0,0,4.2.962h7.414a4.689,4.689,0,0,1,4.6,3.808l-5.374-.243a32.18,32.18,0,0,0-5.848.27.831.831,0,1,0,.228,1.647,30.468,30.468,0,0,1,5.545-.256l6.324.286h.038a.831.831,0,0,0,.831-.831c0-.135-.006-.268-.014-.4l.867-.457,9.163-4.942a3.631,3.631,0,0,1,4.37.7Z" transform="translate(0 -222.071)"/><path class="a" d="M76.974,433.915a2.617,2.617,0,1,0,2.617-2.617A2.617,2.617,0,0,0,76.974,433.915Zm2.617-.954a.954.954,0,1,1-.954.954.954.954,0,0,1,.954-.954Z" transform="translate(-44.682 -350.026)"/><path class="b" d="M223.152,34.037V31.3a6.309,6.309,0,1,0-12.618,0v2.739a6.309,6.309,0,1,0,12.618,0Zm-10.955,0V31.3a4.647,4.647,0,1,1,9.293,0v2.739a4.647,4.647,0,1,1-9.293,0Z" transform="translate(-159.741)"/><path class="b" d="M85.607,155.4h20.338a.831.831,0,0,0,.831-.831v-1.908H120.7a.831.831,0,0,0,.831-.831v-5.395a6.23,6.23,0,0,0-5.833-6.214.97.97,0,0,0-.856.473,3.814,3.814,0,0,1-6.018-.147.831.831,0,0,0-.689-.337,6.161,6.161,0,0,0-3.057.892,6.987,6.987,0,0,0-4.876-2.418,1.011,1.011,0,0,0-.857.5,4.475,4.475,0,0,1-7.061-.172.829.829,0,0,0-.689-.337,6.956,6.956,0,0,0-4.827,2.106c-.1.107-.2.219-.3.331a6.18,6.18,0,0,0-2.834-.89.972.972,0,0,0-.856.473,3.814,3.814,0,0,1-6.018-.147.833.833,0,0,0-.689-.337A6.227,6.227,0,0,0,70,146.439v5.395a.831.831,0,0,0,.831.831H84.776v1.908a.831.831,0,0,0,.831.831Zm22.173-13.5a5.477,5.477,0,0,0,8.2.021,4.569,4.569,0,0,1,3.888,4.514V151H106.776v-5.332a6.954,6.954,0,0,0-.768-3.182A4.493,4.493,0,0,1,107.78,141.9Zm-16.544-1.538a6.139,6.139,0,0,0,9.272.022,5.339,5.339,0,0,1,4.607,5.283v8.071H86.438v-8.071a5.37,5.37,0,0,1,4.8-5.305ZM71.662,151v-4.563a4.6,4.6,0,0,1,4.052-4.535,5.477,5.477,0,0,0,8.2.021,4.534,4.534,0,0,1,1.622.572,6.964,6.964,0,0,0-.76,3.173V151Z" transform="translate(-38.674 -97.94)"/><path class="b" d="M342.381,58.283v-2.4a5.626,5.626,0,1,0-11.251,0v2.4a5.626,5.626,0,1,0,11.251,0Zm-9.589,0v-2.4a3.963,3.963,0,0,1,7.927,0v2.4a3.963,3.963,0,0,1-7.927,0Z" transform="translate(-263.631 -21.77)"/><path class="b" d="M110.9,58.283v-2.4a5.626,5.626,0,0,0-11.251,0v2.4a5.626,5.626,0,1,0,11.251,0Zm-9.589,0v-2.4a3.963,3.963,0,1,1,7.927,0v2.4a3.963,3.963,0,0,1-7.927,0Z" transform="translate(-64.213 -21.77)"/></g></svg>