<svg id="delete_X_icon" data-name="delete X icon" xmlns="http://www.w3.org/2000/svg" width="11" height="11" viewBox="0 0 11 11">
  <circle id="Ellipse_1092" data-name="Ellipse 1092" cx="5.5" cy="5.5" r="5.5" fill="#e32b25"/>
  <g id="Group_11362" data-name="Group 11362" transform="translate(0.779)">
    <path id="Path_11527" data-name="Path 11527" d="M265.883,42.45a.73.73,0,0,1-.518-.214L260.83,37.7a.732.732,0,0,1,1.035-1.035L266.4,41.2a.732.732,0,0,1-.518,1.25Z" transform="translate(-258.895 -34.023)" fill="#fff"/>
    <path id="Path_11528" data-name="Path 11528" d="M5.268,6a.73.73,0,0,1-.518-.214L.214,1.25A.732.732,0,0,1,1.25.214L5.785,4.75A.732.732,0,0,1,5.268,6Z" transform="translate(1.721 8.427) rotate(-90)" fill="#fff"/>
  </g>
</svg>
