<svg xmlns="http://www.w3.org/2000/svg" width="31" height="31" viewBox="0 0 31 31">
  <g id="Dollar" transform="translate(0 -1.791)">
    <circle id="Ellipse_1369" data-name="Ellipse 1369" cx="15.5" cy="15.5" r="15.5" transform="translate(0 1.791)" fill="#00a6a2"/>
    <path id="_" data-name="$" d="M12.8-5.355a3.715,3.715,0,0,1-1.348,2.994A6.7,6.7,0,0,1,7.676-1.008v2.4H6.07V-.961A13.029,13.029,0,0,1,1.055-1.969V-5.062a13.5,13.5,0,0,0,2.455.891,13.135,13.135,0,0,0,2.561.457V-7.348l-.785-.3A8.763,8.763,0,0,1,2-9.639a3.818,3.818,0,0,1-.967-2.654,3.463,3.463,0,0,1,1.33-2.795,6.76,6.76,0,0,1,3.709-1.33v-1.793H7.676v1.746a13.3,13.3,0,0,1,4.852,1.078l-1.1,2.742a12.667,12.667,0,0,0-3.75-.914V-10.1a18.024,18.024,0,0,1,3.252,1.523A4.449,4.449,0,0,1,12.346-7.16,3.517,3.517,0,0,1,12.8-5.355ZM9.27-5.18a1.054,1.054,0,0,0-.4-.832,5.225,5.225,0,0,0-1.2-.7V-3.8Q9.27-4.066,9.27-5.18ZM4.559-12.293a1.112,1.112,0,0,0,.357.85,4.244,4.244,0,0,0,1.154.686v-2.754Q4.559-13.289,4.559-12.293Z" transform="translate(8.5 26)" fill="#fff"/>
  </g>
</svg>
