<svg xmlns="http://www.w3.org/2000/svg" width="80" height="80" viewBox="0 0 80 80"><defs><style>.a{fill:#ccc;}.b,.d{fill:none;}.b{stroke:#828282;stroke-width:3px;}.c{stroke:none;}</style></defs><g transform="translate(-952 -457)"><g transform="translate(952 456.95)"><g transform="translate(0 0.05)"><path class="a" d="M40.014.05A39.991,39.991,0,0,0,3.245,24.306l-.305.745A39.988,39.988,0,1,0,40.014.05ZM71.383,60.217,69.33,58.165V53.383a1.332,1.332,0,0,0-.133-.6L64,42.4V37.383a1.333,1.333,0,0,0-.593-1.109l-4-2.667a1.333,1.333,0,0,0-1.066-.184l-4.9,1.224-8.226-3.531-1.132-7.931L47.22,20.05h6.733l2.266,3.407a1.333,1.333,0,0,0,.89.575l8,1.333a1.322,1.322,0,0,0,.64-.051l7.366-2.456A37.206,37.206,0,0,1,71.383,60.217Zm-5.5-47.029-2.168,1.445-6.043-1.209-3.921-1.305a1.309,1.309,0,0,0-.744-.029l-4.956,1.239L45.881,12.6l1.61-3.221H52a1.332,1.332,0,0,0,.6-.14l4.612-2.307A37.463,37.463,0,0,1,65.885,13.189ZM25.4,5.694l3.2,2.133a1.331,1.331,0,0,0,.521.205l6.46,1.077L34.951,11l-3.366,1.124a1.333,1.333,0,0,0-.721.577l-3.829,6.381L20.886,22.77l-9.065,1.295a1.333,1.333,0,0,0-1.146,1.319v4a1.333,1.333,0,0,0,.391.943L13.341,32.6v2.291L7.8,31.194,5.784,25.158A37.544,37.544,0,0,1,25.4,5.694Zm-3.8,43.716L15.581,48.2l-2.24-4.468V40.6l4.967-4.968,1.838,3.679a1.333,1.333,0,0,0,1.193.737h8.577l3.611,6.02a1.333,1.333,0,0,0,1.142.647h3.706l-.933,4.676L32.4,56.441a1.334,1.334,0,0,0-.392.943v3.333l-4.8,3.6a1.334,1.334,0,0,0-.533,1.067V70.2l-1.658-.549-2.341-5.856V50.717A1.333,1.333,0,0,0,21.606,49.41ZM17.6,69.907A37.328,37.328,0,0,1,4.3,29.149l1.108,3.323a1.332,1.332,0,0,0,.524.688l6.645,4.431-1.516,1.517a1.333,1.333,0,0,0-.391.943v4a1.333,1.333,0,0,0,.14.6l2.666,5.333a1.334,1.334,0,0,0,.933.711l5.6,1.119V64.05a1.334,1.334,0,0,0,.095.495l2.666,6.667a1.333,1.333,0,0,0,.817.769l4,1.333a1.31,1.31,0,0,0,.415.069,1.333,1.333,0,0,0,1.333-1.333v-6l4.8-3.6a1.334,1.334,0,0,0,.533-1.067V57.935l4.942-4.943a1.334,1.334,0,0,0,.364-.681l1.333-6.667A1.333,1.333,0,0,0,40,44.05H35.425l-3.611-6.02a1.333,1.333,0,0,0-1.142-.647H22.163l-2.29-4.6a1.333,1.333,0,0,0-.98-.72,1.306,1.306,0,0,0-1.156.373l-1.73,1.724V32.05a1.333,1.333,0,0,0-.391-.943l-2.276-2.276V26.539l8.188-1.169a1.339,1.339,0,0,0,.5-.177l6.665-4a1.332,1.332,0,0,0,.456-.456l3.746-6.244,3.531-1.179a1.32,1.32,0,0,0,.842-.843l1.333-4a1.334,1.334,0,0,0-1.045-1.733L29.839,5.451l-1.356-.9A37.216,37.216,0,0,1,54.121,5.5L51.685,6.717H46.668a1.333,1.333,0,0,0-1.2.737L42.8,12.787a1.334,1.334,0,0,0,.772,1.86l4,1.333a1.309,1.309,0,0,0,.744.029l4.956-1.239L56.9,15.981a.98.98,0,0,0,.16.043l6.665,1.333a1.323,1.323,0,0,0,1-.2l3.034-2.024a37.614,37.614,0,0,1,4.01,5.359l-6.559,2.187-7.1-1.184-2.346-3.52a1.333,1.333,0,0,0-1.1-.593h-8a1.333,1.333,0,0,0-.942.391l-4,4a1.334,1.334,0,0,0-.377,1.132l1.333,9.333a1.333,1.333,0,0,0,.8,1.036l9.331,4a1.317,1.317,0,0,0,.848.068l4.76-1.191,2.91,1.944v4.62a1.332,1.332,0,0,0,.133.6l5.2,10.385v5.019a1.333,1.333,0,0,0,.391.943l2.789,2.791A37.311,37.311,0,0,1,17.6,69.907Z" transform="translate(0 -0.05)"/></g></g><g class="b" transform="translate(952 457)"><circle class="c" cx="40" cy="40" r="40"/><circle class="d" cx="40" cy="40" r="38.5"/></g></g></svg>