<svg xmlns="http://www.w3.org/2000/svg" xmlns:xlink="http://www.w3.org/1999/xlink" width="449.011" height="420" viewBox="0 0 449.011 420"><defs><style>.a{fill:#f9f9f9;}.b{isolation:isolate;}.c{fill:#e1e1e1;}.d{fill:#efefef;}.e{fill:url(#a);}.f{fill:#828282;}.g,.n{fill:#ffd95a;}.g{opacity:0.7;}.h,.j{fill:#35bab6;}.h{opacity:0.6;}.i{fill:#fcfcfc;}.k{fill:#ed3e46;}.l{fill:#ffca37;}.m{fill:#ffa701;}</style><linearGradient id="a" x1="0.502" y1="-0.16" x2="0.498" y2="1.091" gradientUnits="objectBoundingBox"><stop offset="0" stop-color="#35bab6"/><stop offset="0.141" stop-color="#38bab4"/><stop offset="0.282" stop-color="#45bcae"/><stop offset="0.423" stop-color="#59bfa5"/><stop offset="0.564" stop-color="#75c398"/><stop offset="0.706" stop-color="#99c988"/><stop offset="0.847" stop-color="#c5d073"/><stop offset="0.987" stop-color="#f9d85c"/><stop offset="1" stop-color="#ffd95a"/></linearGradient></defs><g transform="translate(-37.409 -287.449)"><path class="a" d="M165.732,689.883c-10.182.018-25.927,4.731-35.171,10.52l-86.677,53.94c-9.244,5.789-8.508,10.473,1.676,10.455l224.389,0c10.171-.018,25.927-4.731,35.171-10.519L391.8,700.335c9.242-5.789,8.49-10.472-1.679-10.455Z" transform="translate(0 -57.351)"/><g transform="translate(142.869 290.773)"><g class="b" transform="translate(0 0)"><path class="c" d="M292.566,291.435l-8.936.9a20.407,20.407,0,0,0-8.169,2.693L173.145,354.059c-10.8,6.232-15.7,20.94-10.93,32.911L276.449,675.992C280.034,685,288.11,689.842,296.5,689l8.936-.9Z" transform="translate(-160.392 -291.341)"/><path class="d" d="M183.566,353.145l102.315-59.032c10.823-6.248,23.422-1.643,28.187,10.328l114.26,289.006c4.751,11.936-.161,26.694-10.957,32.927L315.056,685.4c-10.795,6.233-23.434,1.609-28.186-10.328L172.635,386.056C167.871,374.085,172.771,359.377,183.566,353.145Z" transform="translate(-161.877 -291.325)"/></g><path class="e" d="M425.106,595.7l-114.257-289c-2.567-6.45-8.018-10.457-14.223-10.457a15.758,15.758,0,0,0-7.939,2.223l-15.374,8.871a5.133,5.133,0,0,0-2.433,3.272l-2.913,12.374a4.982,4.982,0,0,1-2.361,3.176l-45.21,26.1a4.469,4.469,0,0,1-3.771.328l-11.267-4.112a4.686,4.686,0,0,0-3.949.343L186.374,357.5c-9.034,5.213-13.125,17.64-9.117,27.708L228.5,514.864l62.983,159.352c2.563,6.445,8.025,10.447,14.251,10.447a15.692,15.692,0,0,0,7.91-2.211l102.313-59.029C425.011,618.2,429.114,605.763,425.106,595.7Z" transform="translate(-162.576 -292.026)"/><path class="f" d="M263.264,326.3a1.775,1.775,0,0,0-2.511-1.119l-24.3,14.03a2.472,2.472,0,0,0-.8,3.031,1.773,1.773,0,0,0,2.49,1.132l24.3-14.03A2.475,2.475,0,0,0,263.264,326.3Z" transform="translate(-171.09 -296.12)"/><g transform="translate(53.78 47.608)"><path class="f" d="M228.716,349c-.754-1.861-2.534-2.669-4.005-1.82a3.962,3.962,0,0,0-1.266,4.864c.742,1.829,2.522,2.638,3.968,1.8A3.951,3.951,0,0,0,228.716,349Z" transform="translate(-223.112 -346.847)"/></g><g transform="translate(11.832 121.017)"><g transform="translate(14.853 37.58)"><path class="d" d="M208.38,504.21l-9.615-24.374a7.542,7.542,0,0,0-1.248-2.04,5.377,5.377,0,0,0-1.316-1.11,2.568,2.568,0,0,0-1.5-.4,1.491,1.491,0,0,0-.591.191l-1.591.925a1.52,1.52,0,0,1,.591-.192,2.578,2.578,0,0,1,1.5.4,5.375,5.375,0,0,1,1.315,1.11,7.162,7.162,0,0,1,1.153,1.814c.1.226,9.709,24.6,9.709,24.6.709,1.768.492,3.337-.43,3.874l1.591-.926C208.872,507.548,209.088,505.978,208.38,504.21Z" transform="translate(-191.655 -476.281)"/><path class="c" d="M206.645,505.289l-9.614-24.374a6.489,6.489,0,0,0-2.564-3.149,2.577,2.577,0,0,0-1.5-.4c-1.408.163-1.874,1.958-1.031,4.062l9.614,24.373a6.485,6.485,0,0,0,2.564,3.149,2.572,2.572,0,0,0,1.5.4C207.022,509.216,207.488,507.393,206.645,505.289Z" transform="translate(-191.512 -476.435)"/></g><path class="d" d="M191.067,460.384,181.429,436c-.035-.09-.073-.18-.112-.269a6.967,6.967,0,0,0-1.126-1.769,5.288,5.288,0,0,0-1.3-1.1,2.58,2.58,0,0,0-1.5-.4,1.494,1.494,0,0,0-.586.191l-1.592.924a1.5,1.5,0,0,1,.586-.19,2.566,2.566,0,0,1,1.5.4,5.291,5.291,0,0,1,1.3,1.1,6.919,6.919,0,0,1,1.126,1.77c.039.088.077.177.112.268l9.639,24.388c.707,1.765.476,3.321-.447,3.858l1.591-.925C191.544,463.705,191.774,462.149,191.067,460.384Z" transform="translate(-174.336 -432.455)"/><path class="c" d="M189.33,461.463l-9.639-24.388a6.382,6.382,0,0,0-2.541-3.136,2.566,2.566,0,0,0-1.5-.4c-1.408.163-1.874,1.985-1.055,4.047l9.638,24.388a6.491,6.491,0,0,0,2.547,3.151,2.469,2.469,0,0,0,1.5.382C189.683,465.376,190.173,463.568,189.33,461.463Z" transform="translate(-174.191 -432.609)"/></g></g><g transform="translate(181.042 287.449)"><path class="g" d="M307.063,674.094,204.906,375.264l139.65-80.629,102.157,298.83Z" transform="translate(-204.906 -288.473)"/><path class="h" d="M455.829,592.441,316.178,673.07l-47.32-304.992,139.65-80.629Z" transform="translate(-214.021 -287.449)"/><g transform="translate(102.608 0.26)"><path class="i" d="M464.22,593.956,324.57,674.585v-297.7l139.65-80.629Z" transform="translate(-324.57 -288.964)"/><path class="j" d="M464.22,312.906,324.57,393.532V368.379l139.65-80.627Z" transform="translate(-324.57 -287.752)"/></g><g transform="translate(111.122 41.433)"><path class="j" d="M370.6,432.152l-34.341,19.827c-.871.5-1.577.2-1.577-.666V439.176a3.269,3.269,0,0,1,1.577-2.487L370.6,416.861c.871-.5,1.577-.2,1.577.667v12.136A3.27,3.27,0,0,1,370.6,432.152Z" transform="translate(-334.526 -347.29)"/><path class="d" d="M472.661,344.818l-15.524,8.964c-.508.292-.918.118-.918-.388v-7.071a1.9,1.9,0,0,1,.918-1.448l15.524-8.964c.508-.292.919-.118.919.388v7.071A1.9,1.9,0,0,1,472.661,344.818Z" transform="translate(-351.849 -335.769)"/><path class="d" d="M447.953,359.084l-15.524,8.963c-.508.292-.919.119-.919-.388v-7.07a1.9,1.9,0,0,1,.919-1.449l15.524-8.963c.508-.293.918-.119.918.388v7.071A1.9,1.9,0,0,1,447.953,359.084Z" transform="translate(-348.327 -337.802)"/><path class="d" d="M401.369,385.979l-15.524,8.963c-.508.292-.919.119-.919-.388v-7.07a1.905,1.905,0,0,1,.919-1.449l15.524-8.963c.508-.293.918-.119.918.388v7.07A1.9,1.9,0,0,1,401.369,385.979Z" transform="translate(-341.687 -341.635)"/><path class="f" d="M351.913,406.833,334.5,416.886v-.734L351.913,406.1Zm0,2.412L334.5,419.3v.735l17.413-10.054Zm0,3.147L334.5,422.445v.735l17.413-10.053Zm0,3.147L334.5,425.592v.735l17.413-10.054Z" transform="translate(-334.5 -345.791)"/><g transform="translate(45.29 19.831)"><path class="c" d="M466.863,366.906l-65.228,37.66v-8.011L466.863,358.9ZM397.578,398.9l-7.678,4.433v8.01l7.678-4.433Z" transform="translate(-387.686 -358.896)"/><path class="c" d="M466.863,383.011,401.635,420.67v-8.01L466.863,375ZM397.578,415l-7.678,4.433v8.01l7.678-4.432Z" transform="translate(-387.686 -361.192)"/><path class="c" d="M466.863,399.116l-65.228,37.659v-8.01l65.228-37.659Zm-69.286,31.992-7.678,4.432v8.01l7.678-4.432Z" transform="translate(-387.686 -363.487)"/><path class="d" d="M466.863,415.221,401.635,452.88v-8.01l65.228-37.659Zm-69.286,31.992-7.678,4.432v8.01l7.678-4.432Z" transform="translate(-387.686 -365.783)"/><path class="d" d="M466.863,431.326l-65.228,37.659v-8.01l65.228-37.659Zm-69.286,31.992-7.678,4.432v8.01l7.678-4.432Z" transform="translate(-387.686 -368.076)"/><path class="d" d="M466.863,447.431l-65.228,37.66v-8.01l65.228-37.659Zm-69.286,31.993-7.678,4.432v8.01l7.678-4.433Z" transform="translate(-387.686 -370.371)"/><path class="d" d="M466.863,463.536,401.635,501.2v-8.01l65.228-37.659Zm-69.286,31.993-7.678,4.432v8.01l7.678-4.433Z" transform="translate(-387.686 -372.666)"/><path class="d" d="M466.863,479.641,401.635,517.3v-8.01l65.228-37.659Zm-69.286,31.993-7.678,4.432v8.01l7.678-4.433Z" transform="translate(-387.686 -374.961)"/><path class="d" d="M466.863,495.745l-65.228,37.66v-8.011l65.228-37.659Zm-69.286,31.992L389.9,532.17v8.01l7.678-4.432Z" transform="translate(-387.686 -377.255)"/><path class="d" d="M466.863,511.85l-65.228,37.659V541.5l65.228-37.659Zm-69.286,31.992-7.678,4.433v8.01l7.678-4.432Z" transform="translate(-387.686 -379.55)"/><path class="d" d="M466.863,527.92l-65.228,37.66v-8.01l65.228-37.66Zm-69.286,31.992-7.678,4.433v8.01l7.678-4.433Z" transform="translate(-387.686 -381.84)"/><path class="d" d="M466.863,543.92l-65.228,37.66v-8.01l65.228-37.66Zm-69.286,31.992-7.678,4.433v8.01l7.678-4.433Z" transform="translate(-387.686 -384.12)"/><path class="d" d="M466.863,559.92l-65.228,37.66v-8.01l65.228-37.66Zm-69.286,31.992-7.678,4.433v8.01l7.678-4.433Z" transform="translate(-387.686 -386.4)"/><path class="d" d="M466.863,575.92l-65.228,37.66v-8.01l65.228-37.66Zm-69.286,31.992-7.678,4.433v8.01l7.678-4.433Z" transform="translate(-387.686 -388.68)"/><path class="d" d="M466.863,591.92l-65.228,37.66v-8.01l65.228-37.66Zm-69.286,31.992-7.678,4.433v8.01l7.678-4.433Z" transform="translate(-387.686 -390.958)"/><path class="d" d="M466.863,607.92l-65.228,37.66v-8.01l65.228-37.66Zm-69.286,31.992-7.678,4.433v8.01l7.678-4.433Z" transform="translate(-387.686 -393.239)"/><path class="d" d="M466.863,623.92l-65.228,37.66v-8.01l65.228-37.66Zm-69.286,31.992-7.678,4.433v8.01l7.678-4.433Z" transform="translate(-387.686 -395.519)"/><path class="d" d="M466.863,639.92l-65.228,37.66v-8.01l65.228-37.66Zm-69.286,31.992-7.678,4.433v8.01l7.678-4.433Z" transform="translate(-387.686 -397.8)"/><path class="k" d="M391.745,409.147a4.592,4.592,0,0,1-2.213,3.492c-1.223.706-2.214.286-2.214-.936a4.593,4.593,0,0,1,2.214-3.492C390.755,407.505,391.745,407.925,391.745,409.147Z" transform="translate(-387.318 -365.876)"/><path class="k" d="M391.745,425.053a4.589,4.589,0,0,1-2.213,3.492c-1.223.707-2.214.287-2.214-.935a4.593,4.593,0,0,1,2.214-3.492C390.755,423.411,391.745,423.83,391.745,425.053Z" transform="translate(-387.318 -368.141)"/><path class="k" d="M391.745,441.2a4.591,4.591,0,0,1-2.213,3.492c-1.223.706-2.214.287-2.214-.935a4.592,4.592,0,0,1,2.214-3.492C390.755,439.558,391.745,439.977,391.745,441.2Z" transform="translate(-387.318 -370.442)"/></g><path class="f" d="M353.579,458.308l-4.747,2.74v1.49l5.559-3.209,2.531-1.462v-1.491l-3.343,1.93Zm-7.037,4.063-7.876,4.547-2.549,1.471v1.491l2.549-1.472,7.876-4.546Zm-3.113,7.715-7.369,4.255v1.491l7.369-4.255Zm10.365-5.984-8.075,4.662v1.491l8.672-5.007,5.652-3.264v-1.49l-6.249,3.607Zm5.682-7.707,8.186-4.726v-1.491l-8.186,4.726Z" transform="translate(-334.722 -352.072)"/><path class="f" d="M344.524,486.753v1.491l12.4-7.158V479.6Zm-2.29,1.322-3.568,2.06-2.549,1.472v1.49l2.549-1.471,3.568-2.06Zm7.237,1.739-13.412,7.743v1.491l13.412-7.743Zm2.289-1.322v1.491l8.282-4.781v-1.491Zm7.715-8.88,8.186-4.726v-1.491l-8.186,4.726Z" transform="translate(-334.722 -355.381)"/><path class="f" d="M353.579,504.843l-4.747,2.74v1.491l5.559-3.21,2.531-1.461v-1.491l-3.343,1.93Zm-7.037,4.063-7.876,4.547-2.549,1.471v1.491l2.549-1.471,7.876-4.547Zm-3.113,7.715-7.369,4.255v1.491l7.369-4.255Zm2.29-1.322v1.491l11.911-6.877v-1.491Zm13.757-12.369,7.152-4.129v-1.491l-7.152,4.13Z" transform="translate(-334.722 -358.789)"/><path class="f" d="M348.832,531.431v1.491l11.234-6.486v-1.491Zm-2.29,1.322-7.876,4.546-2.549,1.472v1.491l2.549-1.472,7.876-4.546Zm-3.113,7.715-7.369,4.255v1.491l7.369-4.255Zm2.29-1.322v1.491l4.766-2.752v-1.491Z" transform="translate(-334.722 -362.727)"/><path class="f" d="M345.423,556.764v1.491l6.865-3.963V552.8Zm-2.29,1.322-4.467,2.578-2.549,1.472v1.49l2.549-1.471,4.467-2.578Zm7.312,1.7-14.385,8.3v1.491l14.385-8.3Zm4.4-6.964,3.691-2.131v-1.492l-3.691,2.132Z" transform="translate(-334.722 -366.183)"/></g><g transform="translate(180.432 60.784)"><path class="l" d="M415.331,430.471v88.424l124.945-72.138V358.333Z" transform="translate(-415.331 -358.333)"/><g transform="translate(0 72.515)"><path class="m" d="M495.515,442.9l-.389.478L551.4,458.953l.246-.141v-.3Z" transform="translate(-426.705 -442.902)"/><path class="m" d="M415.331,530.611v.419l.544-.315,67.877-87.24-.684.012Z" transform="translate(-415.331 -442.984)"/></g><path class="n" d="M415.331,430.471l124.945-72.137-2.935,7.228-52.156,92.794-65.153-25.9Z" transform="translate(-415.331 -358.333)"/></g></g></g></svg>