<svg xmlns="http://www.w3.org/2000/svg" width="79.903" height="54.756" viewBox="0 0 79.903 54.756">
  <g id="endpoint_code_icon" data-name="endpoint code icon" transform="translate(-63.121 3.001)">
    <g id="small_arrow" data-name="small arrow" transform="translate(120.001 4.063)">
      <path id="small_arrow-2" data-name="small arrow" d="M1291.369,71.1a3.4,3.4,0,0,1-2.459-1.058,3.716,3.716,0,0,1,0-5.111l13.61-14.145-13.61-14.145a3.716,3.716,0,0,1,0-5.111,3.385,3.385,0,0,1,4.918,0l16.069,16.7a3.715,3.715,0,0,1,0,5.111l-16.069,16.7A3.4,3.4,0,0,1,1291.369,71.1Z" transform="translate(-1287.891 -30.469)" fill="#00a6a2"/>
    </g>
    <g id="small_arrow-3" data-name="small arrow" transform="translate(86.144 44.691) rotate(180)">
      <path id="small_arrow-4" data-name="small arrow" d="M3.477,40.628A3.4,3.4,0,0,1,1.018,39.57a3.716,3.716,0,0,1,0-5.111l13.61-14.145L1.018,6.169a3.716,3.716,0,0,1,0-5.111,3.385,3.385,0,0,1,4.918,0L22,17.759a3.715,3.715,0,0,1,0,5.111L5.936,39.57A3.4,3.4,0,0,1,3.477,40.628Z" fill="#00a6a2"/>
    </g>
    <path id="Line_551" data-name="Line 551" d="M0,51.755a2.993,2.993,0,0,1-1.087-.2A3,3,0,0,1-2.8,47.667L16.164-1.087A3,3,0,0,1,20.047-2.8a3,3,0,0,1,1.709,3.883L2.8,49.841A3,3,0,0,1,0,51.755Z" transform="translate(93.941)" fill="#00a6a2"/>
  </g>
</svg>
