<svg xmlns="http://www.w3.org/2000/svg" width="44.6" height="39.938" viewBox="0 0 44.6 39.938">
	<defs>
		<style>
			.a,.b,.c{fill:#fff;}.a{stroke:#828282;stroke-width:2.3px;}.a,.b{stroke-linejoin:round;}.d{fill:#828282;}.e{fill:#35bab6;}.f,.h{stroke:none;}.g{fill:none;}.h{fill:#828282;}
		</style>
	</defs>
	<g transform="translate(-965.367 -534.561)">
		<g class="a" transform="translate(967.953 549.865)">
			<rect class="f" width="39.514" height="22.334" />
			<rect class="g" x="-1.15" y="-1.15" width="41.814" height="24.634" />
		</g>
		<g class="b" transform="translate(967.667 536.861)">
			<path class="f" d="M 19.85984039306641 25.16550254821777 L 19.28059005737305 24.82467269897461 L -0.5831999778747559 13.1367130279541 L -2.235490083694458 12.16450309753418 L -0.5999000072479248 11.16443347930908 L 19.26388931274414 -0.9811266660690308 L 19.85972023010254 -1.345446705818176 L 20.45775032043457 -0.9847366809844971 L 40.59395980834961 11.16082286834717 L 42.25807189941406 12.16456317901611 L 40.57730865478516 13.14015293121338 L 20.44109916687012 24.8281135559082 L 19.85984039306641 25.16550254821777 Z" />
			<path class="h" d="M 19.86379051208496 23.83352279663086 L 40 12.14556312561035 L 19.86379051208496 3.305663994979113e-06 L 0 12.14556312561035 L 19.86379051208496 23.83352279663086 M 19.86379814147949 26.13352012634277 C 19.46047782897949 26.13352012634277 19.05729293823242 26.02759170532227 18.69738960266113 25.81582260131836 L -1.166399955749512 14.12786293029785 C -1.862779974937439 13.71811294555664 -2.293070077896118 12.97300338745117 -2.299920082092285 12.16504287719727 C -2.30676007270813 11.35708332061768 -1.889150023460388 10.60479354858398 -1.199810028076172 10.1833028793335 L 18.66398048400879 -1.962256669998169 C 19.03210639953613 -2.187341451644897 19.4479808807373 -2.299993515014648 19.86379623413086 -2.299993515014648 C 20.27506828308105 -2.299993515014648 20.686279296875 -2.189889192581177 21.05171966552734 -1.969466686248779 L 41.18793106079102 10.17609310150146 C 41.88401031494141 10.59594345092773 42.30675888061523 11.35205364227295 42.29991912841797 12.16491317749023 C 42.2930793762207 12.977783203125 41.85765838623047 13.7266731262207 41.15460968017578 14.13475322723389 L 21.01840019226074 25.82271385192871 C 20.66136932373047 26.02994728088379 20.26251792907715 26.13352012634277 19.86379814147949 26.13352012634277 Z" />
		</g>
		<rect class="c" width="32.642" height="8.59" transform="translate(971.389 540.416)" />
		<g transform="translate(970.53 539.557)">
			<path class="d" d="M33.353,46H1.007A1.007,1.007,0,0,0,0,47.007V55.06a1.007,1.007,0,0,0,1.007,1.007H33.353A1.007,1.007,0,0,0,34.36,55.06V47.007A1.007,1.007,0,0,0,33.353,46Zm-1.007,8.053H2.013v-6.04H32.347Z" transform="translate(0 -46)" />
			<circle class="e" cx="1.007" cy="1.007" r="1.007" transform="translate(16.173 4.027)" />
			<circle class="e" cx="1.007" cy="1.007" r="1.007" transform="translate(20.2 4.027)" />
			<circle class="e" cx="1.007" cy="1.007" r="1.007" transform="translate(24.227 4.027)" />
			<circle class="e" cx="1.007" cy="1.007" r="1.007" transform="translate(12.147 4.027)" />
			<circle class="e" cx="1.007" cy="1.007" r="1.007" transform="translate(8.12 4.027)" />
		</g>
	</g>
</svg>
