<svg xmlns="http://www.w3.org/2000/svg" width="44.6" height="43.201" viewBox="0 0 44.6 43.201"><defs><style>.a,.b,.c{fill:#fff;}.a{stroke:#828282;stroke-width:2.3px;}.a,.b{stroke-linejoin:round;}.d{fill:#828282;}.e,.g{stroke:none;}.f{fill:none;}.g{fill:#828282;}</style></defs><g transform="translate(-965.367 -531.298)"><g transform="translate(967.667 536.861)"><g class="a" transform="translate(0.286 13.004)"><rect class="e" width="39.514" height="22.334"/><rect class="f" x="-1.15" y="-1.15" width="41.814" height="24.634"/></g><g class="b"><path class="e" d="M 19.85984039306641 25.16550254821777 L 19.28059005737305 24.82467269897461 L -0.5831999778747559 13.1367130279541 L -2.235490083694458 12.16450309753418 L -0.5999000072479248 11.16443347930908 L 19.26388931274414 -0.9811266660690308 L 19.85972023010254 -1.345446705818176 L 20.45775032043457 -0.9847366809844971 L 40.59395980834961 11.16082286834717 L 42.25807189941406 12.16456317901611 L 40.57730865478516 13.14015293121338 L 20.44109916687012 24.8281135559082 L 19.85984039306641 25.16550254821777 Z"/><path class="g" d="M 19.86379051208496 23.83352279663086 L 40 12.14556312561035 L 19.86379051208496 3.305663994979113e-06 L 0 12.14556312561035 L 19.86379051208496 23.83352279663086 M 19.86379814147949 26.13352012634277 C 19.46047782897949 26.13352012634277 19.05729293823242 26.02759170532227 18.69738960266113 25.81582260131836 L -1.166399955749512 14.12786293029785 C -1.862779974937439 13.71811294555664 -2.293070077896118 12.97300338745117 -2.299920082092285 12.16504287719727 C -2.30676007270813 11.35708332061768 -1.889150023460388 10.60479354858398 -1.199810028076172 10.1833028793335 L 18.66398048400879 -1.962256669998169 C 19.03210639953613 -2.187341451644897 19.4479808807373 -2.299993515014648 19.86379623413086 -2.299993515014648 C 20.27506828308105 -2.299993515014648 20.686279296875 -2.189889192581177 21.05171966552734 -1.969466686248779 L 41.18793106079102 10.17609310150146 C 41.88401031494141 10.59594345092773 42.30675888061523 11.35205364227295 42.29991912841797 12.16491317749023 C 42.2930793762207 12.977783203125 41.85765838623047 13.7266731262207 41.15460968017578 14.13475322723389 L 21.01840019226074 25.82271385192871 C 20.66136932373047 26.02994728088379 20.26251792907715 26.13352012634277 19.86379814147949 26.13352012634277 Z"/></g><g transform="translate(-17 -51)"><path class="c" d="M552.5-3422.25l9.875-10.5V-3437l.75-3.75,4-1.875a27.953,27.953,0,0,1,3.875-.625c.375.125,5.125,1.5,5.125,1.5l1.875,3.375s.25,3.5,0,3.875-.5,2.125-.75,2.625S575-3429,575-3429l-4,1.875h-3.25s-1,.5-1.375.75a19.723,19.723,0,0,1-2,.875h-1.25l-.75,3.25-2.125,1.375-2.25-.875v3.875l-2.25,1-3.25-1Z" transform="translate(-527 3494)"/><g transform="translate(18.175 70.18) rotate(-45)"><path class="d" d="M47.117,226A9.375,9.375,0,0,0,39,230.687H25.211a1.172,1.172,0,0,0-.95.486l-2.539,3.516a1.172,1.172,0,0,0,0,1.372l2.539,3.516a1.172,1.172,0,0,0,.95.486h2.363a1.172,1.172,0,0,0,.973-.519l.671-1,.671,1a1.172,1.172,0,0,0,.973.519h2.962a1.172,1.172,0,0,0,.973-.519l.671-1,.671,1a1.172,1.172,0,0,0,.973.519H39A9.375,9.375,0,1,0,47.117,226Zm0,16.406a7.069,7.069,0,0,1-6.355-4.018,1.172,1.172,0,0,0-1.059-.669H37.737l-1.3-1.932a1.172,1.172,0,0,0-1.946,0l-1.3,1.932H31.487l-1.3-1.932a1.172,1.172,0,0,0-1.946,0l-1.3,1.932H25.81l-1.693-2.344,1.693-2.344H39.7a1.172,1.172,0,0,0,1.059-.669,7.032,7.032,0,1,1,6.355,10.044Z" transform="translate(-21.5 -226)"/><path class="d" d="M365.172,316A1.172,1.172,0,0,0,364,317.172v2.344a1.172,1.172,0,0,0,2.344,0v-2.344A1.172,1.172,0,0,0,365.172,316Z" transform="translate(-337.242 -308.969)"/></g></g></g></g></svg>