<svg id="evidence_Icon_blue" data-name="evidence Icon blue" xmlns="http://www.w3.org/2000/svg" width="21" height="23" viewBox="0 0 21 23">
  <path id="Rectangle_4987" data-name="Rectangle 4987" d="M3,2A1,1,0,0,0,2,3V16a1,1,0,0,0,1,1H14a1,1,0,0,0,1-1V3a1,1,0,0,0-1-1H3M3,0H14a3,3,0,0,1,3,3V16a3,3,0,0,1-3,3H3a3,3,0,0,1-3-3V3A3,3,0,0,1,3,0Z" fill="#00A6A2"/>
  <rect id="Rectangle_4986" data-name="Rectangle 4986" width="17" height="19" rx="3" transform="translate(4 4)" fill="#fff"/>
  <path id="Rectangle_4986_-_Outline" data-name="Rectangle 4986 - Outline" d="M3,2A1,1,0,0,0,2,3V16a1,1,0,0,0,1,1H14a1,1,0,0,0,1-1V3a1,1,0,0,0-1-1H3M3,0H14a3,3,0,0,1,3,3V16a3,3,0,0,1-3,3H3a3,3,0,0,1-3-3V3A3,3,0,0,1,3,0Z" transform="translate(4 4)" fill="#00A6A2"/>
  <path id="Rectangle_4986_-_Outline-2" data-name="Rectangle 4986 - Outline" d="M3,2A1,1,0,0,0,2,3V16a1,1,0,0,0,1,1H14a1,1,0,0,0,1-1V3a1,1,0,0,0-1-1H3M3,0H14a3,3,0,0,1,3,3V16a3,3,0,0,1-3,3H3a3,3,0,0,1-3-3V3A3,3,0,0,1,3,0Z" transform="translate(4 4)" fill="#00A6A2"/>
  <path id="Path_34846" data-name="Path 34846" d="M576.392,361.8h-7.37a1.015,1.015,0,0,1,0-2h7.37a1.015,1.015,0,0,1,0,2Z" transform="translate(-560.049 -352)" fill="#00A6A2"/>
  <path id="Path_34847" data-name="Path 34847" d="M576.392,361.8h-7.37a1.015,1.015,0,0,1,0-2h7.37a1.015,1.015,0,0,1,0,2Z" transform="translate(-560.049 -348)" fill="#00A6A2"/>
  <path id="Path_34848" data-name="Path 34848" d="M576.392,361.8h-7.37a1.015,1.015,0,0,1,0-2h7.37a1.015,1.015,0,0,1,0,2Z" transform="translate(-560.049 -344)" fill="#00A6A2"/>
</svg>
