<svg xmlns="http://www.w3.org/2000/svg" width="25.622" height="25.622" viewBox="0 0 25.622 25.622">
  <g id="Icon_feather-upload" data-name="Icon feather-upload" transform="translate(-3 -3)">
    <path id="Path_34873" data-name="Path 34873" d="M24.779,31.249H6.843A3.848,3.848,0,0,1,3,27.406V22.281a1.281,1.281,0,0,1,2.562,0v5.124a1.283,1.283,0,0,0,1.281,1.281H24.779a1.283,1.283,0,0,0,1.281-1.281V22.281a1.281,1.281,0,0,1,2.562,0v5.124A3.848,3.848,0,0,1,24.779,31.249Z" transform="translate(0 -2.627)" fill="#404040"/>
    <path id="Path_34874" data-name="Path 34874" d="M23.092,11.968a1.277,1.277,0,0,1-.906-.375l-5.5-5.5-5.5,5.5A1.281,1.281,0,0,1,9.375,9.781l6.406-6.406a1.281,1.281,0,0,1,1.812,0L24,9.781a1.281,1.281,0,0,1-.906,2.187Z" transform="translate(-0.876 0)" fill="#404040"/>
    <path id="Path_34875" data-name="Path 34875" d="M17.781,20.935A1.281,1.281,0,0,1,16.5,19.654V4.281a1.281,1.281,0,1,1,2.562,0V19.654A1.281,1.281,0,0,1,17.781,20.935Z" transform="translate(-1.97 0)" fill="#404040"/>
  </g>
</svg>
