<svg id="Camada_1" data-name="Camada 1" xmlns="http://www.w3.org/2000/svg" viewBox="0 0 11 12"><defs><style>.cls-1{fill:#adadad;}.cls-2{fill:#35bab6;}</style></defs><path id="Retângulo_3248" data-name="Retângulo 3248" class="cls-1" d="M570.73,1214.26h0a.51.51,0,0,1,.5.5v11a.5.5,0,0,1-.5.5h0a.5.5,0,0,1-.5-.5v-11A.5.5,0,0,1,570.73,1214.26Z" transform="translate(-561.23 -1214.26)"/><path id="Retângulo_3249" data-name="Retângulo 3249" class="cls-1" d="M566.73,1214.26h0a.51.51,0,0,1,.5.5v11a.5.5,0,0,1-.5.5h0a.5.5,0,0,1-.5-.5v-11A.5.5,0,0,1,566.73,1214.26Z" transform="translate(-561.23 -1214.26)"/><path id="Retângulo_3250" data-name="Retângulo 3250" class="cls-1" d="M562.73,1214.26h0a.51.51,0,0,1,.5.5v11a.5.5,0,0,1-.5.5h0a.5.5,0,0,1-.5-.5v-11A.5.5,0,0,1,562.73,1214.26Z" transform="translate(-561.23 -1214.26)"/><path class="cls-2" d="M570.73,1225.26a1.5,1.5,0,1,1,1.5-1.5A1.5,1.5,0,0,1,570.73,1225.26Zm0-2a.5.5,0,0,0-.5.5.5.5,0,0,0,.5.5.5.5,0,0,0,.5-.5A.51.51,0,0,0,570.73,1223.26Z" transform="translate(-561.23 -1214.26)"/><path class="cls-2" d="M562.73,1223.26a1.5,1.5,0,1,1,1.5-1.5A1.5,1.5,0,0,1,562.73,1223.26Zm0-2a.5.5,0,0,0-.5.5.5.5,0,0,0,.5.5.5.5,0,0,0,.5-.5A.51.51,0,0,0,562.73,1221.26Z" transform="translate(-561.23 -1214.26)"/><path class="cls-2" d="M566.73,1219.76a1.5,1.5,0,1,1,1.5-1.5A1.5,1.5,0,0,1,566.73,1219.76Zm0-2a.5.5,0,0,0-.5.5.5.5,0,0,0,.5.5.5.5,0,0,0,.5-.5A.51.51,0,0,0,566.73,1217.76Z" transform="translate(-561.23 -1214.26)"/></svg>