<svg id="Flip_Icon" data-name="Flip Icon" xmlns="http://www.w3.org/2000/svg" width="27.767" height="27.737" viewBox="0 0 27.767 27.737">
  <path id="Path_11096" data-name="Path 11096" d="M27.717,21.448A1.66,1.66,0,0,1,26.064,23.1H5.738l1.815,1.815a1.715,1.715,0,0,1,.259,2.107,1.63,1.63,0,0,1-2.529.259L.421,22.42a1.351,1.351,0,0,1,0-1.945l4.83-4.83A1.65,1.65,0,0,1,7.78,15.9a1.721,1.721,0,0,1-.259,2.107L5.706,19.827H26.064A1.593,1.593,0,0,1,27.717,21.448ZM27.328,5.3,22.5.474a1.65,1.65,0,0,0-2.529.259,1.721,1.721,0,0,0,.259,2.107l1.815,1.815H1.653a1.653,1.653,0,1,0,0,3.307H22.012L20.2,9.777a1.715,1.715,0,0,0-.259,2.107,1.63,1.63,0,0,0,2.529.259l4.83-4.83A1.4,1.4,0,0,0,27.328,5.3Z" transform="translate(27.767) rotate(90)" fill="#00a6a2"/>
</svg>
