<svg xmlns="http://www.w3.org/2000/svg" width="395.014" height="53.844" viewBox="0 0 395.014 53.844">
  <g id="gbox_logo" data-name="gbox logo" transform="translate(123.979)">
    <g id="Group_11218" data-name="Group 11218" transform="translate(0 24.652)">
      <path id="Path_11221" data-name="Path 11221" d="M30.085,65.341v-.509c0-2.156-.438-3.661-1.3-4.474s-2.523-1.238-4.941-1.238H6.242c-2.443,0-4.111.425-4.97,1.259S0,62.789,0,65.07V78.526c0,2.3.425,3.886,1.272,4.708s2.523,1.243,4.97,1.243h17.6c2.443,0,4.12-.417,4.97-1.243s1.272-2.41,1.272-4.708V69.82H14.778V74h9.711v5.85H5.758V63.511H24.489v2.835Z" transform="translate(0 -59.12)" fill="#404040"/>
    </g>
    <path id="Path_11222" data-name="Path 11222" d="M95.52,89.547V67.66h18.718a5.745,5.745,0,0,1,3.778,1,4.06,4.06,0,0,1,1.172,3.24v5.133a4.07,4.07,0,0,1-1.172,3.232,5.719,5.719,0,0,1-3.778,1.013h-2.856l10.1,8.26h-7.31l-8.819-8.26h-4.824v8.26H95.52Zm16.458-18.1h-11.45v6.088h11.45a3.067,3.067,0,0,0,1.81-.384,1.633,1.633,0,0,0,.488-1.355V73.168a1.6,1.6,0,0,0-.488-1.334A3.036,3.036,0,0,0,111.978,71.45Z" transform="translate(-55.69 -39.447)" fill="#404040"/>
    <path id="Path_11223" data-name="Path 11223" d="M177.05,89.547V67.66h22.4v3.728H182.145v4.887h10.1V80h-10.1v5.425h17.517v4.12Z" transform="translate(-103.224 -39.447)" fill="#404040"/>
    <path id="Path_11224" data-name="Path 11224" d="M253.82,89.547V67.66h22.4v3.728H258.915v4.887h10.1V80h-10.1v5.425h17.517v4.12Z" transform="translate(-147.983 -39.447)" fill="#404040"/>
    <path id="Path_11225" data-name="Path 11225" d="M330.49,89.547V67.66h3.478l15.4,12.9c.525.429.988.83,1.389,1.209a13.02,13.02,0,0,1,1.1,1.172c-.083-1.23-.138-2.1-.167-2.61s-.042-.9-.042-1.18V67.66h4.574V89.547h-3.478L336.678,76.025c-.388-.346-.726-.655-1.013-.93a11.027,11.027,0,0,1-.809-.851c.071.676.121,1.313.154,1.914s.05,1.122.05,1.564V89.543h-4.57Z" transform="translate(-192.683 -39.447)" fill="#404040"/>
    <g id="Group_11219" data-name="Group 11219" transform="translate(175.723 24.656)">
      <path id="Path_11226" data-name="Path 11226" d="M447.877,73.036a5.38,5.38,0,0,0-3.344-1.543l-.68-.092.68-.083a5.489,5.489,0,0,0,3.215-1.334,3.839,3.839,0,0,0,1.1-2.877V63.992a4.663,4.663,0,0,0-1.322-3.694,6.5,6.5,0,0,0-4.312-1.168h-21.8V84.486h20.2a10.3,10.3,0,0,0,5.6-1.218,4.14,4.14,0,0,0,1.822-3.694V76.318A4.585,4.585,0,0,0,447.877,73.036ZM427.1,63.1h13.639a3.928,3.928,0,0,1,2.189.438,1.708,1.708,0,0,1,.63,1.484v2.418a1.681,1.681,0,0,1-.638,1.5,3.986,3.986,0,0,1-2.185.425H427.091V63.1Zm16.6,14.582a2.381,2.381,0,0,1-.621,1.86,3.713,3.713,0,0,1-2.339.53H427.1v-6.68h13.639a3.783,3.783,0,0,1,2.339.517,2.328,2.328,0,0,1,.621,1.843Z" transform="translate(-421.42 -59.13)" fill="#404040"/>
    </g>
    <path id="Path_11227" data-name="Path 11227" d="M508.53,72.835q0-2.983,1.117-4.078t4.307-1.1h13.168q3.19,0,4.307,1.1c.746.73,1.117,2.093,1.117,4.078V84.368q0,3-1.117,4.091t-4.307,1.088H513.955q-3.19,0-4.307-1.088t-1.117-4.091Zm5.091,12.593h13.852V71.575H513.621Z" transform="translate(-296.485 -39.447)" fill="#404040"/>
    <path id="Path_11228" data-name="Path 11228" d="M581.813,89.553l10.374-11.242L581.63,67.67h6.751l7,7.435,6.647-7.435h5.859l-9.545,10.057,11.8,11.821h-6.918l-8.01-8.485-7.393,8.49Z" transform="translate(-339.103 -39.453)" fill="#404040"/>
    <path id="Path_11229" data-name="Path 11229" d="M546.03,28.988a3.194,3.194,0,0,1,.625-2.285,3.507,3.507,0,0,1,2.414-.613h7.381a3.507,3.507,0,0,1,2.414.613,3.194,3.194,0,0,1,.625,2.285v6.463a3.2,3.2,0,0,1-.625,2.293,3.532,3.532,0,0,1-2.414.609H549.07a3.532,3.532,0,0,1-2.414-.609,3.2,3.2,0,0,1-.625-2.293Zm2.852,7.055h7.764V28.279h-7.764Z" transform="translate(-318.348 -15.211)" fill="#404040"/>
    <path id="Path_11230" data-name="Path 11230" d="M590.47,15.988a2.283,2.283,0,0,1,.446-1.63,2.5,2.5,0,0,1,1.722-.438H597.9a2.5,2.5,0,0,1,1.722.438,2.291,2.291,0,0,1,.446,1.63V20.6a2.282,2.282,0,0,1-.446,1.635,2.522,2.522,0,0,1-1.722.434h-5.266a2.529,2.529,0,0,1-1.722-.434,2.282,2.282,0,0,1-.446-1.635Zm2.035,5.033h5.537V15.484H592.5Z" transform="translate(-344.257 -8.116)" fill="#404040"/>
    <path id="Path_11231" data-name="Path 11231" d="M569.11,1.372a1.514,1.514,0,0,1,.3-1.08A1.667,1.667,0,0,1,570.549,0h3.49a1.652,1.652,0,0,1,1.142.292,1.521,1.521,0,0,1,.3,1.08V4.428a1.519,1.519,0,0,1-.3,1.084,1.669,1.669,0,0,1-1.142.288h-3.49a1.677,1.677,0,0,1-1.143-.288,1.519,1.519,0,0,1-.3-1.084Zm1.351,3.34h3.674V1.038h-3.674Z" transform="translate(-331.804 0)" fill="#404040"/>
    <path id="Path_11232" data-name="Path 11232" d="M-48.557-6.047h.8a2.654,2.654,0,0,0,1.672-.441,1.545,1.545,0,0,0,.555-1.285A1.584,1.584,0,0,0-46-9.031a2.178,2.178,0,0,0-1.457-.406h-1.1Zm5.469-1.812a3.491,3.491,0,0,1-1.152,2.82,4.928,4.928,0,0,1-3.277.977h-1.039V0h-2.422V-11.422h3.648a4.853,4.853,0,0,1,3.16.895A3.262,3.262,0,0,1-43.088-7.859Zm5.147,3.477a3.666,3.666,0,0,0,.426,1.961,1.523,1.523,0,0,0,1.387.664,1.5,1.5,0,0,0,1.371-.66,3.719,3.719,0,0,0,.418-1.965,3.608,3.608,0,0,0-.422-1.945,1.525,1.525,0,0,0-1.383-.648,1.52,1.52,0,0,0-1.375.645A3.6,3.6,0,0,0-37.941-4.383Zm6.039,0a4.694,4.694,0,0,1-1.125,3.336A4.079,4.079,0,0,1-36.16.156a4.382,4.382,0,0,1-2.219-.551,3.665,3.665,0,0,1-1.477-1.582,5.316,5.316,0,0,1-.516-2.406,4.668,4.668,0,0,1,1.117-3.328A4.1,4.1,0,0,1-36.113-8.9a4.407,4.407,0,0,1,2.219.547,3.65,3.65,0,0,1,1.477,1.57A5.267,5.267,0,0,1-31.9-4.383ZM-21.794,0l-.672-3.055-.906-3.859h-.055L-25.02,0h-2.562l-2.484-8.734h2.375l1.008,3.867q.242,1.039.492,2.867h.047a16.054,16.054,0,0,1,.273-1.883l.125-.664,1.078-4.187h2.625l1.023,4.188q.031.172.1.508t.129.715q.062.379.113.742t.059.582h.047q.07-.562.25-1.543t.258-1.324l1.047-3.867h2.336L-19.2,0Zm11.413-7.2a1.511,1.511,0,0,0-1.187.48,2.224,2.224,0,0,0-.492,1.363h3.344a1.986,1.986,0,0,0-.461-1.363A1.561,1.561,0,0,0-10.381-7.2Zm.336,7.359a4.508,4.508,0,0,1-3.3-1.164,4.408,4.408,0,0,1-1.187-3.3,4.848,4.848,0,0,1,1.1-3.395A3.908,3.908,0,0,1-10.4-8.9,3.847,3.847,0,0,1-7.514-7.844,3.99,3.99,0,0,1-6.482-4.93v1.156h-5.633a2.294,2.294,0,0,0,.6,1.586,2.117,2.117,0,0,0,1.578.57,6.551,6.551,0,0,0,1.492-.164A7.466,7.466,0,0,0-6.975-2.3V-.461A5.6,5.6,0,0,1-8.311,0,8.423,8.423,0,0,1-10.045.156ZM1.61-8.9a3.843,3.843,0,0,1,.8.07l-.18,2.234a2.73,2.73,0,0,0-.7-.078,2.527,2.527,0,0,0-1.777.586A2.118,2.118,0,0,0-.882-4.445V0H-3.265V-8.734h1.8l.352,1.469h.117a3.283,3.283,0,0,1,1.1-1.184A2.707,2.707,0,0,1,1.61-8.9ZM8.578-7.2a1.511,1.511,0,0,0-1.187.48A2.224,2.224,0,0,0,6.9-5.359h3.344a1.986,1.986,0,0,0-.461-1.363A1.561,1.561,0,0,0,8.578-7.2ZM8.913.156a4.508,4.508,0,0,1-3.3-1.164A4.408,4.408,0,0,1,4.429-4.3,4.848,4.848,0,0,1,5.527-7.7,3.908,3.908,0,0,1,8.562-8.9a3.847,3.847,0,0,1,2.883,1.055A3.99,3.99,0,0,1,12.476-4.93v1.156H6.843a2.294,2.294,0,0,0,.6,1.586,2.117,2.117,0,0,0,1.578.57,6.551,6.551,0,0,0,1.492-.164A7.466,7.466,0,0,0,11.984-2.3V-.461A5.6,5.6,0,0,1,10.648,0,8.423,8.423,0,0,1,8.913.156Zm9.546,0a2.837,2.837,0,0,1-2.418-1.2,5.5,5.5,0,0,1-.879-3.312A5.5,5.5,0,0,1,16.057-7.7a2.905,2.905,0,0,1,2.465-1.2,2.849,2.849,0,0,1,2.516,1.281h.078a9.741,9.741,0,0,1-.18-1.742v-2.8h2.391V0H21.5l-.461-1.133h-.1A2.727,2.727,0,0,1,18.459.156Zm.836-1.9a1.615,1.615,0,0,0,1.34-.531,3.09,3.09,0,0,0,.465-1.8v-.258a3.571,3.571,0,0,0-.434-2.016,1.61,1.61,0,0,0-1.41-.609,1.4,1.4,0,0,0-1.238.676,3.605,3.605,0,0,0-.441,1.965,3.417,3.417,0,0,0,.445,1.934A1.455,1.455,0,0,0,19.3-1.742Zm13.427-9.68h3.555a6.85,6.85,0,0,1,3.527.691,2.407,2.407,0,0,1,1.1,2.2,2.771,2.771,0,0,1-.48,1.68,1.919,1.919,0,0,1-1.277.789v.078a2.516,2.516,0,0,1,1.566.906,2.948,2.948,0,0,1,.48,1.766A2.909,2.909,0,0,1,40.062-.875,4.882,4.882,0,0,1,37,0H32.722ZM35.144-6.9H36.55a2.571,2.571,0,0,0,1.426-.3,1.137,1.137,0,0,0,.441-1.008,1.008,1.008,0,0,0-.48-.941,3.088,3.088,0,0,0-1.52-.285H35.144Zm0,1.922V-2h1.578A2.341,2.341,0,0,0,38.2-2.383a1.413,1.413,0,0,0,.477-1.172q0-1.422-2.031-1.422Zm8.171-3.758h2.609L47.572-3.82A6.818,6.818,0,0,1,47.862-2.3h.047a6.7,6.7,0,0,1,.336-1.516l1.617-4.914h2.555l-3.7,9.852a4.265,4.265,0,0,1-1.449,2.047,3.658,3.658,0,0,1-2.2.68,5.53,5.53,0,0,1-1.211-.133V1.82a4.073,4.073,0,0,0,.938.1A1.693,1.693,0,0,0,45.9,1.535,2.507,2.507,0,0,0,46.643.367l.141-.43Z" transform="translate(-73 50)" fill="#404040"/>
  </g>
</svg>
