<svg id="gift_card_icon" data-name="gift card icon" xmlns="http://www.w3.org/2000/svg" width="26" height="17" viewBox="0 0 26 17">
  <g id="Group_20181" data-name="Group 20181">
    <path id="Rectangle_18505" data-name="Rectangle 18505" d="M1.814,1.214a.607.607,0,0,0-.6.607V15.179a.607.607,0,0,0,.6.607H24.186a.607.607,0,0,0,.6-.607V1.821a.607.607,0,0,0-.6-.607H1.814M1.814,0H24.186A1.818,1.818,0,0,1,26,1.821V15.179A1.818,1.818,0,0,1,24.186,17H1.814A1.818,1.818,0,0,1,0,15.179V1.821A1.818,1.818,0,0,1,1.814,0Z" fill="#00a6a2"/>
    <path id="present" d="M17555.773,8676.86a1.6,1.6,0,0,1-1.594-1.6v-2.876a.585.585,0,0,1-.506-.578v-3.05a.583.583,0,0,1,.58-.583h1.289a1.856,1.856,0,0,1-.146-.736,1.905,1.905,0,0,1,1.895-1.906,1.884,1.884,0,0,0,2.631,0,1.909,1.909,0,0,1,1.75,2.643h1.285a.585.585,0,0,1,.584.583v3.05a.585.585,0,0,1-.508.578v2.876a1.6,1.6,0,0,1-1.592,1.6Zm4.629-1.168h1.039a.432.432,0,0,0,.428-.433v-2.871h-1.467Zm-2.428,0h1.264v-6.353h-1.264Zm-2.633-.433a.435.435,0,0,0,.432.433h1.037v-3.3h-1.469Zm5.061-4.037h1.973v-1.883h-1.973Zm-5.562,0h1.971v-1.883h-1.971Zm4.346-3.786v.736h.736a.736.736,0,1,0-.736-.736Zm-2.627,0a.735.735,0,0,0,.732.736h.734v-.736a.733.733,0,1,0-1.467,0Z" transform="translate(-17551.131 -8662.695)" fill="#00a6a2"/>
    <path id="Line_658" data-name="Line 658" d="M7.465.214H-.4A.606.606,0,0,1-1-.393.606.606,0,0,1-.4-1h7.86a.606.606,0,0,1,.6.607A.606.606,0,0,1,7.465.214Z" transform="translate(15.209 6.339)" fill="#00a6a2"/>
    <path id="Line_659" data-name="Line 659" d="M4.442.214H-.4A.606.606,0,0,1-1-.393.606.606,0,0,1-.4-1H4.442a.606.606,0,0,1,.6.607A.606.606,0,0,1,4.442.214Z" transform="translate(15.209 8.768)" fill="#00a6a2"/>
  </g>
</svg>
