<svg id="paperclip_attach_icon" data-name="paperclip attach icon" xmlns="http://www.w3.org/2000/svg" width="17.333" height="15.941" viewBox="0 0 17.333 15.941">
  <g id="Group_11344" data-name="Group 11344" transform="translate(-10.957 -966.479)">
    <path id="Union_37" data-name="Union 37" d="M12100.544,13890.222a.553.553,0,0,1,0-.794l8.069-8.07a3.387,3.387,0,1,0-4.789-4.79l-8.691,8.69a2.071,2.071,0,1,0,2.929,2.929l8.69-8.691a.75.75,0,0,0,0-1.066.75.75,0,0,0-1.066,0l-6.683,6.829a.578.578,0,0,1-.4.164.565.565,0,0,1-.564-.564.557.557,0,0,1,.167-.4l6.683-6.826a1.88,1.88,0,1,1,2.66,2.656l-8.687,8.691a3.2,3.2,0,0,1-4.524-4.521l8.69-8.691a4.514,4.514,0,1,1,6.383,6.384l-8.066,8.069a.558.558,0,0,1-.8,0Z" transform="translate(-12082.443 -12907.97)" fill="#767676"/>
  </g>
</svg>
