<svg id="CO_coyni_logo" data-name="CO coyni logo" xmlns="http://www.w3.org/2000/svg" width="19.367" height="10.04" viewBox="0 0 19.367 10.04">
  <path id="Path_11502" data-name="Path 11502" d="M78.673,82.416a3.561,3.561,0,1,1-3.561,3.561,3.561,3.561,0,0,1,3.561-3.561m0-1.459a5.022,5.022,0,0,0-4.878,3.83.881.881,0,0,1-.865.68H71.579a.868.868,0,0,1-.754-.417,1.746,1.746,0,1,0,0,1.854.867.867,0,0,1,.754-.417H72.93a.881.881,0,0,1,.865.68,5.021,5.021,0,1,0,4.878-6.21Z" transform="translate(-64.326 -80.957)" fill="#00a6a2" fill-rule="evenodd"/>
  <path id="Path_11503" data-name="Path 11503" d="M42.289,85.992a3.566,3.566,0,0,1,6.016-2.58l1.032-1.032a5.02,5.02,0,1,0,0,7.224L48.3,88.572a3.566,3.566,0,0,1-6.016-2.58" transform="translate(-40.83 -80.972)" fill="#00a6a2" fill-rule="evenodd"/>
</svg>
