<svg xmlns="http://www.w3.org/2000/svg" xmlns:xlink="http://www.w3.org/1999/xlink" width="102.988" height="106.833" viewBox="0 0 102.988 106.833">
  <defs>
    <filter id="Rectangle_4585" x="14.806" y="0" width="47.021" height="88.042" filterUnits="userSpaceOnUse">
      <feOffset dy="2" input="SourceAlpha"/>
      <feGaussianBlur stdDeviation="1" result="blur"/>
      <feFlood flood-opacity="0.2"/>
      <feComposite operator="in" in2="blur"/>
      <feComposite in="SourceGraphic"/>
    </filter>
  </defs>
  <g id="Scan_2-step_auth_icon" data-name="Scan 2-step auth icon" transform="translate(0 1)">
    <rect id="Rectangle_4594" data-name="Rectangle 4594" width="9.709" height="12.136" transform="translate(60.327 62.624)" fill="#4c4c4c"/>
    <rect id="Rectangle_4595" data-name="Rectangle 4595" width="37.622" height="4.854" transform="translate(45.764 73.546)" fill="#4c4c4c"/>
    <rect id="Rectangle_4593" data-name="Rectangle 4593" width="52.156" height="76.688" rx="4" transform="translate(102.988 15.494) rotate(90)" fill="#828282"/>
    <rect id="Rectangle_4592" data-name="Rectangle 4592" width="47.029" height="71.56" rx="2" transform="translate(100.422 18.058) rotate(90)" fill="#fff"/>
    <g id="Group_11003" data-name="Group 11003" transform="translate(62.797 32.432)">
      <path id="Path_10998" data-name="Path 10998" d="M451.1,391.905a.643.643,0,0,1-.643-.643v-3.3a.564.564,0,0,0-.563-.563h-3.3a.643.643,0,1,1,0-1.287h3.3a1.852,1.852,0,0,1,1.85,1.85v3.3A.644.644,0,0,1,451.1,391.905Z" transform="translate(-431.154 -386.115)" fill="#00a6a2"/>
      <path id="Path_10999" data-name="Path 10999" d="M405.93,391.905a.644.644,0,0,1-.643-.643v-3.3a1.852,1.852,0,0,1,1.85-1.85h3.3a.643.643,0,0,1,0,1.287h-3.3a.564.564,0,0,0-.563.563v3.3A.643.643,0,0,1,405.93,391.905Z" transform="translate(-405.287 -386.115)" fill="#00a6a2"/>
      <path id="Path_11000" data-name="Path 11000" d="M410.434,432.569h-3.3a1.852,1.852,0,0,1-1.85-1.85v-3.3a.643.643,0,1,1,1.287,0v3.3a.564.564,0,0,0,.563.563h3.3a.643.643,0,1,1,0,1.287Z" transform="translate(-405.287 -411.982)" fill="#00a6a2"/>
      <path id="Path_11001" data-name="Path 11001" d="M449.893,432.569h-3.3a.643.643,0,1,1,0-1.287h3.3a.564.564,0,0,0,.563-.563v-3.3a.643.643,0,1,1,1.287,0v3.3A1.852,1.852,0,0,1,449.893,432.569Z" transform="translate(-431.154 -411.982)" fill="#00a6a2"/>
      <path id="Path_11002" data-name="Path 11002" d="M417.587,400.264H414.21a1.852,1.852,0,0,1-1.85-1.85v-3.378a1.852,1.852,0,0,1,1.85-1.85h3.378a1.852,1.852,0,0,1,1.85,1.85v3.378A1.852,1.852,0,0,1,417.587,400.264Zm-3.378-5.79a.563.563,0,0,0-.563.563v3.378a.563.563,0,0,0,.563.563h3.378a.564.564,0,0,0,.563-.563v-3.378a.564.564,0,0,0-.563-.563Z" transform="translate(-409.786 -390.614)"/>
      <path id="Path_11003" data-name="Path 11003" d="M417.587,423.248H414.21a1.852,1.852,0,0,1-1.85-1.85v-3.378a1.852,1.852,0,0,1,1.85-1.85h3.378a1.852,1.852,0,0,1,1.85,1.85V421.4A1.852,1.852,0,0,1,417.587,423.248Zm-3.378-5.79a.563.563,0,0,0-.563.563V421.4a.563.563,0,0,0,.563.563h3.378a.564.564,0,0,0,.563-.563v-3.378a.564.564,0,0,0-.563-.563Z" transform="translate(-409.786 -405.234)"/>
      <path id="Path_11004" data-name="Path 11004" d="M440.571,400.264h-3.378a1.852,1.852,0,0,1-1.85-1.85v-3.378a1.852,1.852,0,0,1,1.85-1.85h3.378a1.852,1.852,0,0,1,1.85,1.85v3.378A1.852,1.852,0,0,1,440.571,400.264Zm-3.378-5.79a.564.564,0,0,0-.563.563v3.378a.564.564,0,0,0,.563.563h3.378a.564.564,0,0,0,.563-.563v-3.378a.564.564,0,0,0-.563-.563Z" transform="translate(-424.407 -390.614)"/>
      <path id="Path_11005" data-name="Path 11005" d="M441.375,419.388h-1.528v-2.171a1.047,1.047,0,0,0-1.045-1.045h-2.413a1.046,1.046,0,0,0-1.045,1.045v2.413a1.046,1.046,0,0,0,1.045,1.045h2.171V422.2a1.047,1.047,0,0,0,1.045,1.045h1.769a1.047,1.047,0,0,0,1.045-1.045v-1.769A1.047,1.047,0,0,0,441.375,419.388Zm-4.745-1.93h1.93v1.93h-1.93Zm4.5,4.5h-1.287v-1.287h1.287Z" transform="translate(-424.407 -405.234)"/>
      <path id="Path_11006" data-name="Path 11006" d="M420.719,402.189h-.643a.643.643,0,0,1-.643-.643V400.9a.643.643,0,0,1,.643-.643h.643a.643.643,0,0,1,.643.643v.643A.644.644,0,0,1,420.719,402.189Z" transform="translate(-414.285 -395.112)"/>
      <path id="Path_11007" data-name="Path 11007" d="M443.7,402.189h-.643a.643.643,0,0,1-.643-.643V400.9a.643.643,0,0,1,.643-.643h.643a.643.643,0,0,1,.643.643v.643A.644.644,0,0,1,443.7,402.189Z" transform="translate(-428.905 -395.112)"/>
      <path id="Path_11008" data-name="Path 11008" d="M420.719,425.173h-.643a.643.643,0,0,1-.643-.643v-.643a.643.643,0,0,1,.643-.643h.643a.644.644,0,0,1,.643.643v.643A.644.644,0,0,1,420.719,425.173Z" transform="translate(-414.285 -409.733)"/>
    </g>
    <path id="Path_10997" data-name="Path 10997" d="M352.374,419.768c-5.045-.778-11.569-.989-11.9-.108s-5.105,15.727-4.96,21.99-.021,31.336-.021,31.336L328.278,486s7.55,9.169,19.4,5.712c1.957-3.777,5.362-13.66,5.362-13.66,9.366-1.977,13.3-22.741,14.2-28.707S352.374,419.768,352.374,419.768Z" transform="translate(-328.278 -386.654)" fill="#009d98"/>
    <g transform="matrix(1, 0, 0, 1, 0, -1)" filter="url(#Rectangle_4585)">
      <rect id="Rectangle_4585-2" data-name="Rectangle 4585" width="41.021" height="82.042" rx="4" transform="translate(17.81 1)" fill="#828282"/>
    </g>
    <rect id="Rectangle_4586" data-name="Rectangle 4586" width="35.893" height="76.915" rx="2" transform="translate(20.369 2.563)" fill="#fff"/>
    <g id="Group_10991" data-name="Group 10991" transform="translate(28.022 20.434)">
      <path id="Path_10998-2" data-name="Path 10998" d="M451.1,391.905a.643.643,0,0,1-.643-.643v-3.3a.564.564,0,0,0-.563-.563h-3.3a.643.643,0,1,1,0-1.287h3.3a1.852,1.852,0,0,1,1.85,1.85v3.3A.644.644,0,0,1,451.1,391.905Z" transform="translate(-431.154 -386.115)"/>
      <path id="Path_10999-2" data-name="Path 10999" d="M405.93,391.905a.644.644,0,0,1-.643-.643v-3.3a1.852,1.852,0,0,1,1.85-1.85h3.3a.643.643,0,0,1,0,1.287h-3.3a.564.564,0,0,0-.563.563v3.3A.643.643,0,0,1,405.93,391.905Z" transform="translate(-405.287 -386.115)"/>
      <path id="Path_11000-2" data-name="Path 11000" d="M410.434,432.569h-3.3a1.852,1.852,0,0,1-1.85-1.85v-3.3a.643.643,0,1,1,1.287,0v3.3a.564.564,0,0,0,.563.563h3.3a.643.643,0,1,1,0,1.287Z" transform="translate(-405.287 -411.982)"/>
      <path id="Path_11001-2" data-name="Path 11001" d="M449.893,432.569h-3.3a.643.643,0,1,1,0-1.287h3.3a.564.564,0,0,0,.563-.563v-3.3a.643.643,0,1,1,1.287,0v3.3A1.852,1.852,0,0,1,449.893,432.569Z" transform="translate(-431.154 -411.982)"/>
      <path id="Path_11002-2" data-name="Path 11002" d="M417.587,400.264H414.21a1.852,1.852,0,0,1-1.85-1.85v-3.378a1.852,1.852,0,0,1,1.85-1.85h3.378a1.852,1.852,0,0,1,1.85,1.85v3.378A1.852,1.852,0,0,1,417.587,400.264Zm-3.378-5.79a.563.563,0,0,0-.563.563v3.378a.563.563,0,0,0,.563.563h3.378a.564.564,0,0,0,.563-.563v-3.378a.564.564,0,0,0-.563-.563Z" transform="translate(-409.786 -390.614)"/>
      <path id="Path_11003-2" data-name="Path 11003" d="M417.587,423.248H414.21a1.852,1.852,0,0,1-1.85-1.85v-3.378a1.852,1.852,0,0,1,1.85-1.85h3.378a1.852,1.852,0,0,1,1.85,1.85V421.4A1.852,1.852,0,0,1,417.587,423.248Zm-3.378-5.79a.563.563,0,0,0-.563.563V421.4a.563.563,0,0,0,.563.563h3.378a.564.564,0,0,0,.563-.563v-3.378a.564.564,0,0,0-.563-.563Z" transform="translate(-409.786 -405.234)"/>
      <path id="Path_11004-2" data-name="Path 11004" d="M440.571,400.264h-3.378a1.852,1.852,0,0,1-1.85-1.85v-3.378a1.852,1.852,0,0,1,1.85-1.85h3.378a1.852,1.852,0,0,1,1.85,1.85v3.378A1.852,1.852,0,0,1,440.571,400.264Zm-3.378-5.79a.564.564,0,0,0-.563.563v3.378a.564.564,0,0,0,.563.563h3.378a.564.564,0,0,0,.563-.563v-3.378a.564.564,0,0,0-.563-.563Z" transform="translate(-424.407 -390.614)"/>
      <path id="Path_11005-2" data-name="Path 11005" d="M441.375,419.388h-1.528v-2.171a1.047,1.047,0,0,0-1.045-1.045h-2.413a1.046,1.046,0,0,0-1.045,1.045v2.413a1.046,1.046,0,0,0,1.045,1.045h2.171V422.2a1.047,1.047,0,0,0,1.045,1.045h1.769a1.047,1.047,0,0,0,1.045-1.045v-1.769A1.047,1.047,0,0,0,441.375,419.388Zm-4.745-1.93h1.93v1.93h-1.93Zm4.5,4.5h-1.287v-1.287h1.287Z" transform="translate(-424.407 -405.234)"/>
      <path id="Path_11006-2" data-name="Path 11006" d="M420.719,402.189h-.643a.643.643,0,0,1-.643-.643V400.9a.643.643,0,0,1,.643-.643h.643a.643.643,0,0,1,.643.643v.643A.644.644,0,0,1,420.719,402.189Z" transform="translate(-414.285 -395.112)"/>
      <path id="Path_11007-2" data-name="Path 11007" d="M443.7,402.189h-.643a.643.643,0,0,1-.643-.643V400.9a.643.643,0,0,1,.643-.643h.643a.643.643,0,0,1,.643.643v.643A.644.644,0,0,1,443.7,402.189Z" transform="translate(-428.905 -395.112)"/>
      <path id="Path_11008-2" data-name="Path 11008" d="M420.719,425.173h-.643a.643.643,0,0,1-.643-.643v-.643a.643.643,0,0,1,.643-.643h.643a.644.644,0,0,1,.643.643v.643A.644.644,0,0,1,420.719,425.173Z" transform="translate(-414.285 -409.733)"/>
    </g>
    <path id="Path_11009" data-name="Path 11009" d="M359.035,501.823c4.042.023,9.5-6.424,10.762-18.966a23.777,23.777,0,0,1,9.233-8.493c6.3-3.243,6.677-12.835,3.18-9.338s-10.351.389-23.3,11.673C354,480.979,344.368,501.742,359.035,501.823Z" transform="translate(-342.884 -415.396)" fill="#35bab6"/>
  </g>
</svg>
