<svg xmlns="http://www.w3.org/2000/svg" xmlns:xlink="http://www.w3.org/1999/xlink" width="430" height="76" viewBox="0 0 430 76">
  <defs>
    <clipPath id="clip-path">
      <rect id="Rectangle_4824" data-name="Rectangle 4824" width="430" height="76" rx="10" fill="#fff"/>
    </clipPath>
    <filter id="Path_37021" x="-57.175" y="-92.861" width="177.132" height="250.747" filterUnits="userSpaceOnUse">
      <feOffset dx="3" dy="3" input="SourceAlpha"/>
      <feGaussianBlur stdDeviation="3" result="blur"/>
      <feFlood flood-opacity="0.102"/>
      <feComposite operator="in" in2="blur"/>
      <feComposite in="SourceGraphic"/>
    </filter>
    <filter id="Path_34835" x="-57.177" y="-6.396" width="230.037" height="125.777" filterUnits="userSpaceOnUse">
      <feOffset dx="3" dy="3" input="SourceAlpha"/>
      <feGaussianBlur stdDeviation="3" result="blur-2"/>
      <feFlood flood-opacity="0.102"/>
      <feComposite operator="in" in2="blur-2"/>
      <feComposite in="SourceGraphic"/>
    </filter>
  </defs>
  <g id="Group_10" data-name="Group 10" clip-path="url(#clip-path)">
    <g transform="matrix(1, 0, 0, 1, 0, 0)" filter="url(#Path_37021)">
      <path id="Path_37021-2" data-name="Path 37021" d="M-7.9-3.4S1.357,19.768,30.266,40.7,126.36,83.514,126.36,83.514l40.025,20.867-212.037-8.32V-1.879L-25.094-3.55Z" transform="matrix(-0.26, 0.97, -0.97, -0.26, 92.71, -15.75)" fill="#55749a" opacity="0.9"/>
    </g>
    <g transform="matrix(1, 0, 0, 1, 0, 0)" filter="url(#Path_34835)">
      <path id="Path_34835-2" data-name="Path 34835" d="M-7.9-3.4S1.357,19.768,30.266,40.7,126.36,83.514,126.36,83.514l40.025,20.867-212.037-8.32V-1.879H-26.73Z" transform="translate(-5.52 3)" fill="#0c1e30" opacity="0.8"/>
    </g>
  </g>
</svg>
