<svg xmlns="http://www.w3.org/2000/svg" width="18.999" height="19" viewBox="0 0 18.999 19">
  <g id="Group_11139" data-name="Group 11139" transform="translate(-4)">
    <path id="Path_5178" data-name="Path 5178" d="M19.787,23H7.213A3.217,3.217,0,0,1,4,19.787V7.213A3.217,3.217,0,0,1,7.213,4h3.892a1.118,1.118,0,1,1,0,2.235H7.213a.979.979,0,0,0-.978.978V19.787a.979.979,0,0,0,.978.978H19.787a.978.978,0,0,0,.977-.978V14.7A1.118,1.118,0,1,1,23,14.7v5.089A3.216,3.216,0,0,1,19.787,23Z" transform="translate(0 -4)" fill="#404040"/>
    <g id="Group_17799" data-name="Group 17799" transform="translate(11 2)">
      <path id="Path_5179" data-name="Path 5179" d="M14.462,3a1,1,0,0,1,1,1V8.538H20a1,1,0,0,1,0,2H14.462a1,1,0,0,1-1-1V4A1,1,0,0,1,14.462,3Z" transform="translate(-13.462 -0.538)" fill="#404040"/>
      <path id="Line_372" data-name="Line 372" d="M8-1a1,1,0,0,1,.707.293,1,1,0,0,1,0,1.414l-8,8a1,1,0,0,1-1.414,0,1,1,0,0,1,0-1.414l8-8A1,1,0,0,1,8-1Z" transform="translate(1 1)" fill="#404040"/>
    </g>
  </g>
</svg>
