<svg xmlns="http://www.w3.org/2000/svg" width="63.969" height="64" viewBox="0 0 63.969 64">
  <defs>
    <style>.a{fill:#07996a;}.b{fill:#ccc;}</style>
  </defs>
  <g transform="translate(0 0.001)">
    <path class="a" d="M114.667,288a10.667,10.667,0,1,0,10.667,10.667A10.667,10.667,0,0,0,114.667,288Zm0,19.2a8.533,8.533,0,1,1,8.533-8.533A8.533,8.533,0,0,1,114.667,307.2Zm0,0" transform="translate(-90.134 -249.601)" />
    <path class="a" d="M156.267,323.2c1.3,0,2.133.631,2.133,1.067h2.133c0-1.516-1.343-2.743-3.2-3.093V320H155.2v1.173c-1.857.347-3.2,1.576-3.2,3.093,0,1.8,1.874,3.2,4.267,3.2,1.3,0,2.133.631,2.133,1.067s-.831,1.067-2.133,1.067-2.133-.631-2.133-1.067H152c0,1.516,1.343,2.743,3.2,3.093V332.8h2.133v-1.173c1.857-.347,3.2-1.576,3.2-3.093,0-1.8-1.874-3.2-4.267-3.2-1.3,0-2.133-.631-2.133-1.067S154.964,323.2,156.267,323.2Zm0,0" transform="translate(-131.734 -277.334)" />
    <path class="b" d="M54.4,61.866H9.6v-25.6H26.666a3.2,3.2,0,0,0,3.2-3.2V6.4H41.6V19.2H54.4V34.132h2.133V17.691L43.108,4.266H29.866V3.2a3.2,3.2,0,0,0-3.2-3.2H3.2A3.2,3.2,0,0,0,0,3.2V33.066a3.2,3.2,0,0,0,3.2,3.2H7.466V64H56.533V49.066H54.4ZM43.733,7.907l9.158,9.158H43.733ZM2.133,33.066V3.2A1.067,1.067,0,0,1,3.2,2.132H26.666A1.067,1.067,0,0,1,27.733,3.2V33.066a1.067,1.067,0,0,1-1.067,1.067H3.2A1.067,1.067,0,0,1,2.133,33.066Zm0,0" />
    <path class="a" d="M256,200h2.133v2.133H256Zm0,0" transform="translate(-221.867 -173.334)" />
    <path class="b" d="M288,200h12.8v2.133H288Zm0,0" transform="translate(-249.6 -173.334)" />
    <path class="a" d="M256,168h2.133v2.133H256Zm0,0" transform="translate(-221.867 -145.601)" />
    <path class="b" d="M288,168h12.8v2.133H288Zm0,0" transform="translate(-249.6 -145.601)" />
    <path class="a" d="M256,232h2.133v2.133H256Zm0,0" transform="translate(-221.867 -201.068)" />
    <path class="b" d="M288,232h12.8v2.133H288Zm0,0" transform="translate(-249.6 -201.068)" />
    <path class="a" d="M256,264h2.133v2.133H256Zm0,0" transform="translate(-221.867 -228.801)" />
    <path class="b" d="M288,264h12.8v2.133H288Zm0,0" transform="translate(-249.6 -228.801)" />
    <path class="b" d="M47.467,24H24v7.467H47.467Zm-2.133,5.333h-19.2v-3.2h19.2Zm0,0" transform="translate(-20.8 -20.801)" />
    <path class="b" d="M36.267,88H34.133A2.133,2.133,0,0,0,32,90.133v2.133A2.133,2.133,0,0,0,34.133,94.4h2.133A2.133,2.133,0,0,0,38.4,92.267V90.133A2.133,2.133,0,0,0,36.267,88Zm-2.133,4.267V90.133h2.133v2.133Zm0,0" transform="translate(-27.734 -76.268)" />
    <path class="b" d="M92.267,88H90.133A2.133,2.133,0,0,0,88,90.133v2.133A2.133,2.133,0,0,0,90.133,94.4h2.133A2.133,2.133,0,0,0,94.4,92.267V90.133A2.133,2.133,0,0,0,92.267,88Zm-2.133,4.267V90.133h2.133v2.133Zm0,0" transform="translate(-76.267 -76.268)" />
    <path class="b" d="M148.267,88h-2.133A2.133,2.133,0,0,0,144,90.133v2.133a2.133,2.133,0,0,0,2.133,2.133h2.133a2.133,2.133,0,0,0,2.133-2.133V90.133A2.133,2.133,0,0,0,148.267,88Zm-2.133,4.267V90.133h2.133v2.133Zm0,0" transform="translate(-124.8 -76.268)" />
    <path class="b" d="M36.267,144H34.133A2.133,2.133,0,0,0,32,146.133v2.133a2.133,2.133,0,0,0,2.133,2.133h2.133a2.133,2.133,0,0,0,2.133-2.133v-2.133A2.133,2.133,0,0,0,36.267,144Zm-2.133,4.267v-2.133h2.133v2.133Zm0,0" transform="translate(-27.734 -124.801)" />
    <path class="b" d="M92.267,144H90.133A2.133,2.133,0,0,0,88,146.133v2.133a2.133,2.133,0,0,0,2.133,2.133h2.133a2.133,2.133,0,0,0,2.133-2.133v-2.133A2.133,2.133,0,0,0,92.267,144Zm-2.133,4.267v-2.133h2.133v2.133Zm0,0" transform="translate(-76.267 -124.801)" />
    <path class="b" d="M148.267,144h-2.133A2.133,2.133,0,0,0,144,146.133v2.133a2.133,2.133,0,0,0,2.133,2.133h2.133a2.133,2.133,0,0,0,2.133-2.133v-2.133A2.133,2.133,0,0,0,148.267,144Zm-2.133,4.267v-2.133h2.133v2.133Zm0,0" transform="translate(-124.8 -124.801)" />
    <path class="b" d="M36.267,200H34.133A2.133,2.133,0,0,0,32,202.133v2.133a2.133,2.133,0,0,0,2.133,2.133h2.133a2.133,2.133,0,0,0,2.133-2.133v-2.133A2.133,2.133,0,0,0,36.267,200Zm-2.133,4.267v-2.133h2.133v2.133Zm0,0" transform="translate(-27.734 -173.334)" />
    <path class="b" d="M92.267,200H90.133A2.133,2.133,0,0,0,88,202.133v2.133a2.133,2.133,0,0,0,2.133,2.133h2.133a2.133,2.133,0,0,0,2.133-2.133v-2.133A2.133,2.133,0,0,0,92.267,200Zm-2.133,4.267v-2.133h2.133v2.133Zm0,0" transform="translate(-76.267 -173.334)" />
    <path class="b" d="M148.267,200h-2.133A2.133,2.133,0,0,0,144,202.133v2.133a2.133,2.133,0,0,0,2.133,2.133h2.133a2.133,2.133,0,0,0,2.133-2.133v-2.133A2.133,2.133,0,0,0,148.267,200Zm-2.133,4.267v-2.133h2.133v2.133Zm0,0" transform="translate(-124.8 -173.334)" />
    <path class="b" d="M305.709,249.373a3.276,3.276,0,0,0-4.524,0L282.9,267.658a1.079,1.079,0,0,0-.214.308l-2.575,5.592a1.067,1.067,0,0,0,1.415,1.415l5.592-2.575a1.07,1.07,0,0,0,.308-.214L305.709,253.9a3.2,3.2,0,0,0,0-4.526ZM286.05,270.539l-2.795,1.288,1.288-2.795L298.176,255.4l1.508,1.508ZM301.2,255.393l-1.508-1.508.747-.747,1.508,1.508Zm3.008-3.008-.754.754-1.508-1.508.755-.754a1.09,1.09,0,0,1,1.507,0A1.067,1.067,0,0,1,304.2,252.385Zm0,0" transform="translate(-242.678 -215.338)" />
  </g>
</svg>