<svg id="lock_icon" data-name="lock icon" xmlns="http://www.w3.org/2000/svg" width="15" height="17" viewBox="0 0 15 17">
  <rect id="Rectangle_4983" data-name="Rectangle 4983" width="9" height="12" rx="4.5" transform="translate(3)" fill="#fff"/>
  <path id="Rectangle_4983_-_Outline" data-name="Rectangle 4983 - Outline" d="M4.5,2A2.5,2.5,0,0,0,2,4.5v3a2.5,2.5,0,0,0,5,0v-3A2.5,2.5,0,0,0,4.5,2m0-2A4.5,4.5,0,0,1,9,4.5v3a4.5,4.5,0,0,1-9,0v-3A4.5,4.5,0,0,1,4.5,0Z" transform="translate(3)" fill="#707070"/>
  <rect id="Rectangle_4982" data-name="Rectangle 4982" width="15" height="11" rx="2" transform="translate(0 6)" fill="#fff"/>
  <path id="Rectangle_4982_-_Outline" data-name="Rectangle 4982 - Outline" d="M2,2V9H13V2H2M2,0H13a2,2,0,0,1,2,2V9a2,2,0,0,1-2,2H2A2,2,0,0,1,0,9V2A2,2,0,0,1,2,0Z" transform="translate(0 6)" fill="#707070"/>
</svg>
