<svg id="Log_out_icon" data-name="Log out icon" xmlns="http://www.w3.org/2000/svg" width="17.132" height="17.002" viewBox="0 0 17.132 17.002">
  <path id="Union_32" data-name="Union 32" d="M5301.956,9981.241l-3.76-3.976a.75.75,0,0,1,.546-1.265H5301v-5a1,1,0,0,1,1-1h1a1,1,0,0,1,1,1v5h2.26a.749.749,0,0,1,.543,1.265l-3.757,3.976a.749.749,0,0,1-1.09,0Z" transform="translate(-9964.345 5311.002) rotate(-90)" fill="#767676"/>
  <path id="Union_33" data-name="Union 33" d="M11798.529,14286.862a1,1,0,0,1-1-1v-15a1,1,0,0,1,1-1h6.859a1,1,0,0,1,1,1v1a1,1,0,0,1-1,1h-4.858v11h4.858a1,1,0,0,1,1,1v1a1,1,0,0,1-1,1Z" transform="translate(-11797.529 -14269.86)" fill="#767676"/>
</svg>
