<svg xmlns="http://www.w3.org/2000/svg" width="173.117" height="32" viewBox="0 0 173.117 32"><defs><style>.a{fill:#2e394d;}.b{fill:#74c947;}.c{fill:#17a77b;}</style></defs><g transform="translate(0 15.746)"><path class="a" d="M19.216,63.094v-.325a3.883,3.883,0,0,0-.831-2.858,4.679,4.679,0,0,0-3.156-.791H3.987a4.651,4.651,0,0,0-3.175.8,4.221,4.221,0,0,0-.812,3v8.595a4.221,4.221,0,0,0,.812,3.007,4.668,4.668,0,0,0,3.175.794H15.232a4.678,4.678,0,0,0,3.175-.794,4.221,4.221,0,0,0,.812-3.007V65.954H9.439v2.669h6.2v3.737H3.678V61.924H15.642v1.811Z" transform="translate(0 -59.12)"/></g><path class="a" d="M95.52,81.64V67.66h11.956a3.67,3.67,0,0,1,2.413.642,2.593,2.593,0,0,1,.748,2.069V73.65a2.6,2.6,0,0,1-.748,2.064,3.653,3.653,0,0,1-2.413.647h-1.824l6.453,5.276h-4.669L101.8,76.361H98.721v5.276h-3.2Zm10.512-11.559H98.719v3.888h7.314a1.959,1.959,0,0,0,1.156-.245,1.043,1.043,0,0,0,.312-.866V71.178a1.024,1.024,0,0,0-.312-.852A1.939,1.939,0,0,0,106.032,70.081Z" transform="translate(-70.08 -49.64)"/><path class="a" d="M177.05,81.64V67.66h14.31v2.381H180.3v3.121h6.453v2.381H180.3v3.465h11.189V81.64Z" transform="translate(-129.896 -49.64)"/><path class="a" d="M253.82,81.64V67.66h14.31v2.381H257.075v3.121h6.453v2.381h-6.453v3.465h11.189V81.64Z" transform="translate(-186.219 -49.64)"/><path class="a" d="M330.49,81.64V67.66h2.221l9.838,8.24c.336.274.631.53.887.772a8.323,8.323,0,0,1,.7.748c-.053-.786-.088-1.34-.107-1.667S344,75.176,344,75V67.66h2.922V81.64H344.7L334.442,73c-.248-.221-.463-.418-.647-.594a7.042,7.042,0,0,1-.517-.543c.045.431.077.839.1,1.222s.032.716.032,1v7.551H330.49Z" transform="translate(-242.469 -49.64)"/><g transform="translate(112.238 15.748)"><path class="a" d="M438.319,68.012a3.437,3.437,0,0,0-2.136-.985l-.434-.059.434-.053a3.506,3.506,0,0,0,2.053-.852,2.452,2.452,0,0,0,.7-1.838v-1.99a2.978,2.978,0,0,0-.844-2.36,4.153,4.153,0,0,0-2.754-.746H421.42v16.2h12.9a6.58,6.58,0,0,0,3.579-.778,2.644,2.644,0,0,0,1.164-2.36v-2.08A2.929,2.929,0,0,0,438.319,68.012Zm-13.274-6.344h8.712a2.509,2.509,0,0,1,1.4.28,1.091,1.091,0,0,1,.4.948v1.545a1.074,1.074,0,0,1-.408.956,2.546,2.546,0,0,1-1.4.272h-8.712v-4Zm10.6,9.314a1.521,1.521,0,0,1-.4,1.188,2.372,2.372,0,0,1-1.494.338h-8.712V68.241h8.712a2.416,2.416,0,0,1,1.494.33,1.487,1.487,0,0,1,.4,1.177Z" transform="translate(-421.42 -59.13)"/></g><path class="b" d="M508.53,70.965a3.633,3.633,0,0,1,.714-2.6,4,4,0,0,1,2.751-.7h8.411a4,4,0,0,1,2.751.7,3.637,3.637,0,0,1,.714,2.6v7.367a3.638,3.638,0,0,1-.714,2.613,4.014,4.014,0,0,1-2.751.7h-8.411a4.014,4.014,0,0,1-2.751-.7,3.638,3.638,0,0,1-.714-2.613Zm3.252,8.043h8.848V70.161h-8.848Z" transform="translate(-373.091 -49.64)"/><path class="a" d="M581.747,81.647l6.626-7.18-6.744-6.8h4.312l4.469,4.749,4.245-4.749H598.4l-6.1,6.424,7.537,7.551h-4.418l-5.116-5.42-4.722,5.423Z" transform="translate(-426.722 -49.647)"/><path class="c" d="M546.03,27.941a2.04,2.04,0,0,1,.4-1.46,2.24,2.24,0,0,1,1.542-.392h4.714a2.24,2.24,0,0,1,1.542.392,2.04,2.04,0,0,1,.4,1.46v4.128a2.047,2.047,0,0,1-.4,1.465,2.256,2.256,0,0,1-1.542.389h-4.714a2.256,2.256,0,0,1-1.542-.389,2.042,2.042,0,0,1-.4-1.465Zm1.822,4.506h4.959V27.488h-4.959Z" transform="translate(-400.604 -19.141)"/><path class="b" d="M590.47,15.241a1.459,1.459,0,0,1,.285-1.041,1.6,1.6,0,0,1,1.1-.28h3.364a1.6,1.6,0,0,1,1.1.28,1.463,1.463,0,0,1,.285,1.041v2.946a1.457,1.457,0,0,1-.285,1.044,1.611,1.611,0,0,1-1.1.277h-3.364a1.615,1.615,0,0,1-1.1-.277,1.458,1.458,0,0,1-.285-1.044Zm1.3,3.215h3.537V14.919H591.77Z" transform="translate(-433.208 -10.213)"/><path class="c" d="M569.11.876a.967.967,0,0,1,.189-.69,1.065,1.065,0,0,1,.73-.186h2.229a1.055,1.055,0,0,1,.73.186.971.971,0,0,1,.189.69V2.828a.97.97,0,0,1-.189.692,1.066,1.066,0,0,1-.73.184h-2.229a1.071,1.071,0,0,1-.73-.184.97.97,0,0,1-.189-.692Zm.863,2.133h2.346V.663h-2.346Z" transform="translate(-417.537)"/></svg>