<svg xmlns="http://www.w3.org/2000/svg" xmlns:xlink="http://www.w3.org/1999/xlink" viewBox="0 0 201.66 145.1"><defs><style>.cls-1{fill:#3c3c3b;}.cls-2{fill:#4bb9b5;}.cls-3{fill:none;}.cls-4{fill:#1d1d1b;}.cls-5{opacity:0.35;fill:url(#Gradiente_sem_nome_13);}</style><linearGradient id="Gradiente_sem_nome_13" x1="74.44" y1="-24.07" x2="74.44" y2="101.29" gradientUnits="userSpaceOnUse"><stop offset="0.07" stop-color="#fff"/><stop offset="1" stop-color="#fff" stop-opacity="0"/></linearGradient></defs><g id="Camada_2" data-name="Camada 2"><g id="Camada_1-2" data-name="Camada 1"><path class="cls-1" d="M74.68,0C32.8,0,0,31.87,0,72.55v.39c0,41.14,31.94,72.16,74.29,72.16a76.68,76.68,0,0,0,40-11l5.84,5.22a16.47,16.47,0,0,0,28.1-11.84,17.22,17.22,0,0,0-6.32-13.16l-4.09-3.4A71.88,71.88,0,0,0,149,72.55v-.39C149,31,117,0,74.68,0Zm38.1,72.94a46.11,46.11,0,0,1-2.21,14.23L98.39,76.26c-3.8-3.33-7.14-4.68-11.52-4.68A16.56,16.56,0,0,0,70.42,88.22a17.2,17.2,0,0,0,6.3,13.14l11,9.3a41.31,41.31,0,0,1-13,1.93c-21.94,0-38.49-17.22-38.49-40v-.39c0-22.6,16.38-39.65,38.1-39.65,21.95,0,38.49,17.21,38.49,40Z"/><path class="cls-2" d="M187.74,101.18a13.94,13.94,0,0,0-8.9,3.29c-7.79,6.2-15.43,10-26.3,10.54A24,24,0,0,1,156,127.49a24.44,24.44,0,0,1-5.17,15c20.34-.46,34.07-6.74,45.8-17a13.74,13.74,0,0,0-8.89-24.37Z"/><path class="cls-3" d="M74.29,32.51c-21.72,0-38.1,17.05-38.1,39.65v.39c0,22.83,16.55,40,38.49,40a41.31,41.31,0,0,0,13-1.93l-11-9.3a17.2,17.2,0,0,1-6.3-13.14A16.56,16.56,0,0,1,86.87,71.58c4.38,0,7.72,1.35,11.52,4.68l12.18,10.91a46.11,46.11,0,0,0,2.21-14.23v-.39a45,45,0,0,0-.74-8.22,39.88,39.88,0,0,0-8.73-18.65A37.57,37.57,0,0,0,74.29,32.51Z"/><path class="cls-4" d="M103.25,44.85s0,.3.06.83A39.88,39.88,0,0,1,112,64.33c.11-.31.22-.63.33-1,4.72-14.47,20.55-19.92,30-21.92a69.88,69.88,0,0,0-6.88-11.76l-14,3.83Z"/><path class="cls-3" d="M74.29,32.51c-21.72,0-38.1,17.05-38.1,39.65v.39c0,.46,0,.93,0,1.39.66,22.13,17,38.65,38.46,38.65a41.31,41.31,0,0,0,13-1.93l-11-9.3a17.2,17.2,0,0,1-6.3-13.14A16.56,16.56,0,0,1,86.87,71.58c4.38,0,7.72,1.35,11.52,4.68l12.18,10.91a46.11,46.11,0,0,0,2.21-14.23v-.39a46.37,46.37,0,0,0-.33-5.45C110.05,47,94.45,32.51,74.29,32.51Z"/><path class="cls-5" d="M36.19,72.55v-.39c0-22.6,16.38-39.65,38.1-39.65,20.16,0,35.76,14.53,38.16,34.59h1.68c11.81,0,23.42.45,34.75,1.32C147,29.15,115.73,0,74.68,0,32.8,0,0,31.87,0,72.55v.39a76.59,76.59,0,0,0,.58,9.29,365.67,365.67,0,0,1,35.64-8.29C36.21,73.48,36.19,73,36.19,72.55Z"/><path class="cls-2" d="M194.89,16.25C183.67,7.93,169.94,2.52,149.62,2.52A72.89,72.89,0,0,0,115,10.9,67.18,67.18,0,0,0,89.19,35.41h0c-.44.73-.84,1.49-1.25,2.24-.18.32-.37.64-.55,1l-.12.23-.36.71c-.16.3-.32.6-.47.91-.32.64-.62,1.28-.92,1.93,0,.08-.07.15-.1.23-.3.66-.6,1.32-.88,2S84,46,83.72,46.73s-.56,1.46-.81,2.2-.4,1.25-.59,1.87c-.26.85-.54,1.69-.77,2.54,0,.2-.09.4-.14.6a71.36,71.36,0,0,0-1.61,7.93v0c-.14,1-.25,2-.34,3a24,24,0,0,1,7.42-1.18c6.29,0,11.43,2,16.66,6.61l0,0,0,0L105,71.67,108.48,75l.39-1.8c1.07-4.95,2.53-11.69,2.54-11.7,3.19-14,12.68-25.16,25.69-29.53a38.49,38.49,0,0,1,12.33-2c10.64,0,19.35,3.48,27.67,9.67A15.62,15.62,0,0,0,186,42.57,14.54,14.54,0,0,0,200.7,28.06,14.91,14.91,0,0,0,194.89,16.25Z"/></g></g></svg>