<svg xmlns="http://www.w3.org/2000/svg" xmlns:xlink="http://www.w3.org/1999/xlink" viewBox="0 0 531.88 101.98"><defs><style>.cls-1{fill:#3c3c3b;}.cls-2{fill:#4bb9b5;}.cls-3{fill:none;}.cls-4{fill:#1d1d1b;}.cls-5{opacity:0.35;fill:url(#Gradiente_sem_nome_13);}</style><linearGradient id="Gradiente_sem_nome_13" x1="52.32" y1="-16.92" x2="52.32" y2="71.19" gradientUnits="userSpaceOnUse"><stop offset="0.07" stop-color="#fff"/><stop offset="1" stop-color="#fff" stop-opacity="0"/></linearGradient></defs><g id="Camada_2" data-name="Camada 2"><g id="Camada_1-2" data-name="Camada 1"><path class="cls-1" d="M161.61,52.06v-.15c0-15.27,12-27.77,28.62-27.77s28.46,12.35,28.46,27.62v.15a27.55,27.55,0,0,1-4.75,15.42l2.3,1.92a5.78,5.78,0,0,1,2.15,4.45,5.54,5.54,0,0,1-9.44,4L206,75.08a29.34,29.34,0,0,1-16,4.6C173.51,79.68,161.61,67.33,161.61,52.06Zm27.93,6.06a5.57,5.57,0,0,1,5.52-5.6A5.49,5.49,0,0,1,199,54.13l5.9,5.3a18.84,18.84,0,0,0,1.46-7.37v-.15c0-9.21-6.75-16.88-16.26-16.88S174,42.55,174,51.76v.15c0,9.21,6.75,16.88,16.26,16.88a16.1,16.1,0,0,0,7.06-1.46l-5.6-4.76A5.78,5.78,0,0,1,189.54,58.12Z"/><path class="cls-1" d="M261.51,73.39a5.84,5.84,0,0,1-11.67,0v-.46c-2.68,3.45-6.13,6.6-12,6.6-8.82,0-14-5.83-14-15.27V43a5.83,5.83,0,0,1,11.66,0V60.58c0,5.52,2.61,8.36,7.06,8.36s7.28-2.84,7.28-8.36V43a5.84,5.84,0,0,1,11.67,0Z"/><path class="cls-1" d="M268,27.82c0-3.38,2.84-5.45,6.52-5.45S281,24.44,281,27.82V28c0,3.38-2.84,5.53-6.53,5.53S268,31.35,268,28ZM268.64,43a5.83,5.83,0,1,1,11.66,0V73.39a5.83,5.83,0,1,1-11.66,0Z"/><path class="cls-1" d="M285.45,58.43v-.15A21.11,21.11,0,0,1,307,36.87c6.22,0,10.59,1.69,14,4.61a5.14,5.14,0,0,1,1.84,4,5.23,5.23,0,0,1-5.29,5.22,5.46,5.46,0,0,1-3.37-1.15,11.14,11.14,0,0,0-7.29-2.61c-5.83,0-10,5.14-10,11.2v.16c0,6.29,4.07,11.35,10.44,11.35a11.77,11.77,0,0,0,7.67-2.84,5.41,5.41,0,0,1,3.15-1.07,4.95,4.95,0,0,1,3.22,8.67c-3.46,3.14-7.83,5.29-14.58,5.29A21,21,0,0,1,285.45,58.43Z"/><path class="cls-1" d="M327.41,28.13a5.84,5.84,0,0,1,11.67,0V53.6l14.57-13.81c1.69-1.61,3.07-2.61,5.14-2.61a5.1,5.1,0,0,1,5.14,5.22c0,2-1.07,3.52-2.68,5.06L352,55.36l11,14.81a6.11,6.11,0,0,1,1.46,3.76A5.29,5.29,0,0,1,359,79.22,5.54,5.54,0,0,1,354,76.54l-10.2-14-4.68,4.22v6.67a5.84,5.84,0,0,1-11.67,0Z"/><path class="cls-2" d="M367.54,52.06v-.15c0-15.27,11.51-27.77,28-27.77,8.06,0,13.51,2.14,18,5.44a5.93,5.93,0,0,1,2.3,4.68A5.76,5.76,0,0,1,410,40a6.25,6.25,0,0,1-3.53-1.15,17.64,17.64,0,0,0-11-3.84c-9.06,0-15.58,7.52-15.58,16.73v.15c0,9.21,6.37,16.88,15.58,16.88a17.28,17.28,0,0,0,11.66-4.22,5.47,5.47,0,1,1,7.06,8.36c-4.84,4.22-10.51,6.75-19.11,6.75C379.28,79.68,367.54,67.48,367.54,52.06Z"/><path class="cls-2" d="M419,67v-.16c0-9,6.83-13.12,16.57-13.12a29.1,29.1,0,0,1,10.05,1.69v-.69c0-4.83-3-7.52-8.82-7.52a26.71,26.71,0,0,0-8.05,1.15,5,5,0,0,1-1.69.31,4.74,4.74,0,0,1-4.83-4.76,4.82,4.82,0,0,1,3.14-4.52,35.8,35.8,0,0,1,13.12-2.15c6.37,0,11,1.69,13.89,4.6,3.06,3.07,4.45,7.6,4.45,13.12V73.62a5.6,5.6,0,0,1-5.68,5.6c-3.38,0-5.6-2.38-5.6-4.83v-.08c-2.84,3.15-6.75,5.22-12.43,5.22C425.39,79.53,419,75.08,419,67Zm26.78-2.69V62.19a18.1,18.1,0,0,0-7.44-1.53c-5,0-8.06,2-8.06,5.67v.16c0,3.14,2.61,5,6.37,5C442.12,71.47,445.8,68.48,445.8,64.26Z"/><path class="cls-2" d="M463.06,43a5.83,5.83,0,0,1,11.66,0v1.84c1.69-4,4.45-7.67,7.91-7.67a5.31,5.31,0,0,1,5.67,5.68,5.35,5.35,0,0,1-4.37,5.44c-5.91,1.38-9.21,5.91-9.21,14.2V73.39a5.83,5.83,0,0,1-11.66,0Z"/><path class="cls-2" d="M531.88,73.39a5.83,5.83,0,0,1-11.66,0v-.54c-2.84,3.84-6.75,6.68-12.81,6.68-9.59,0-18.72-7.52-18.72-21.25v-.16c0-13.73,9-21.25,18.72-21.25A15.79,15.79,0,0,1,520.22,43V28.13a5.83,5.83,0,0,1,11.66,0ZM500.35,58.12v.16c0,6.83,4.6,11.35,10,11.35s10-4.52,10-11.35v-.16c0-6.82-4.53-11.35-10-11.35S500.35,51.22,500.35,58.12Z"/><path class="cls-1" d="M52.48,0C23.05,0,0,22.4,0,51v.27C0,80.17,22.45,102,52.21,102A54,54,0,0,0,80.3,94.26l4.11,3.66a11.57,11.57,0,0,0,19.74-8.32,12.11,12.11,0,0,0-4.44-9.25L96.84,78a50.45,50.45,0,0,0,7.86-27v-.27C104.7,21.8,82.25,0,52.48,0ZM79.27,51.26a32.46,32.46,0,0,1-1.56,10L69.15,53.6a11.39,11.39,0,0,0-8.1-3.29A11.64,11.64,0,0,0,49.49,62a12.08,12.08,0,0,0,4.43,9.24l7.69,6.53a28.94,28.94,0,0,1-9.13,1.36c-15.42,0-27-12.1-27-28.14v-.27c0-15.89,11.51-27.87,26.78-27.87,15.43,0,27.06,12.09,27.06,28.14Z"/><path class="cls-2" d="M131.94,71.11a9.77,9.77,0,0,0-6.25,2.31c-5.48,4.36-10.84,7-18.48,7.41a16.91,16.91,0,0,1,2.43,8.77A17.14,17.14,0,0,1,106,100.17c14.3-.31,23.95-4.73,32.2-11.93a9.66,9.66,0,0,0-6.26-17.13Z"/><path class="cls-3" d="M52.21,22.85c-15.26,0-26.78,12-26.78,27.87V51c0,16,11.63,28.14,27.05,28.14a28.94,28.94,0,0,0,9.13-1.36l-7.69-6.53A12.08,12.08,0,0,1,49.49,62,11.64,11.64,0,0,1,61.05,50.31a11.39,11.39,0,0,1,8.1,3.29l8.56,7.67a32.46,32.46,0,0,0,1.56-10V51a31.14,31.14,0,0,0-.53-5.78,27.89,27.89,0,0,0-6.14-13.1A26.36,26.36,0,0,0,52.21,22.85Z"/><path class="cls-4" d="M72.57,31.52s0,.21,0,.59a27.89,27.89,0,0,1,6.14,13.1c.08-.22.15-.44.23-.68,3.32-10.17,14.44-14,21.09-15.41a47.86,47.86,0,0,0-4.83-8.26l-9.82,2.69Z"/><path class="cls-3" d="M52.21,22.85c-15.26,0-26.78,12-26.78,27.87V51c0,.33,0,.65,0,1,.46,15.56,11.92,27.17,27,27.17a28.94,28.94,0,0,0,9.13-1.36l-7.69-6.53A12.08,12.08,0,0,1,49.49,62,11.64,11.64,0,0,1,61.05,50.31a11.39,11.39,0,0,1,8.1,3.29l8.56,7.67a32.46,32.46,0,0,0,1.56-10V51A32,32,0,0,0,79,47.16C77.34,33.06,66.38,22.85,52.21,22.85Z"/><path class="cls-5" d="M25.43,51v-.27c0-15.89,11.52-27.87,26.78-27.87,14.17,0,25.13,10.21,26.82,24.31h1.18c8.3,0,16.46.32,24.42.93C103.31,20.49,81.34,0,52.48,0,23.05,0,0,22.4,0,51v.27a53.87,53.87,0,0,0,.41,6.53c8-2.28,16.33-4.24,25.05-5.83C25.45,51.64,25.43,51.32,25.43,51Z"/><path class="cls-2" d="M137,11.42c-7.88-5.84-17.54-9.65-31.81-9.65A51.29,51.29,0,0,0,80.84,7.66,47.15,47.15,0,0,0,62.69,24.89h0c-.31.51-.59,1.05-.88,1.58-.13.22-.26.45-.38.68l-.09.16c-.08.17-.17.33-.25.5l-.33.64c-.22.45-.43.9-.64,1.36,0,.05,0,.1-.08.16-.21.46-.42.93-.62,1.4s-.38,1-.57,1.47-.39,1-.57,1.55-.28.87-.42,1.31c-.18.6-.37,1.19-.54,1.79,0,.14-.06.28-.1.42a50.85,50.85,0,0,0-1.13,5.57v0c-.1.71-.18,1.42-.25,2.14a17,17,0,0,1,16.93,3.81l0,0,0,0,1,.86,2.47,2.34q.14-.59.27-1.26c.76-3.48,1.79-8.21,1.79-8.22,2.24-9.82,8.91-17.69,18.06-20.76A27.19,27.19,0,0,1,105,21.08c7.48,0,13.6,2.45,19.44,6.8a11,11,0,0,0,6.26,2,10.21,10.21,0,0,0,10.33-10.2A10.49,10.49,0,0,0,137,11.42Z"/></g></g></svg>