<svg xmlns="http://www.w3.org/2000/svg" width="46.853" height="64" viewBox="0 0 46.853 64"><defs><style>.a{fill:#ccc;}.b{fill:#07996a;}</style></defs><g transform="translate(-68.588)"><g transform="translate(68.588)"><g transform="translate(0)"><path class="a" d="M108.257,42.454H101.7V38.539a15.912,15.912,0,0,0,6.247-12.64V21.038c1.111-5.643.628-9.8-1.439-12.358a6.453,6.453,0,0,0-3.559-2.259c0-.815,0-2.408,0-5.446a.937.937,0,0,0-.937-.937c-.756,0-1.53-.009-2.351-.018C98.807.01,97.926,0,97.034,0,90.251,0,83.412.638,79.326,5.267c-3.078,3.486-4.139,8.659-3.245,15.814,0,.006,0,.012,0,.018v4.8a15.912,15.912,0,0,0,6.247,12.64v3.915h-6.56a7.192,7.192,0,0,0-7.184,7.184s0,0,0,.007v4.99a.937.937,0,0,0,1.874,0v-5s0,0,0,0a5.316,5.316,0,0,1,5.31-5.305h7.213l3.434,2.29,3.372,3.372-1.13,12.136H79.208V55.947a.937.937,0,1,0-1.874,0v6.178H70.463V58.384a.937.937,0,1,0-1.874,0v4.671s0,0,0,.007a.939.939,0,0,0,.937.937H114.5a.937.937,0,0,0,.937-.937V49.638A7.192,7.192,0,0,0,108.257,42.454ZM80.731,6.507c3.594-4.072,9.96-4.633,16.3-4.633.882,0,1.757.01,2.6.019.492.005.968.011,1.434.014,0,4.614,0,5.318,0,5.318a.93.93,0,0,0,.916.936,4.409,4.409,0,0,1,3.087,1.732c1.332,1.677,1.822,4.42,1.451,8.021l-1.411-2.823a.937.937,0,0,0-1.123-.474c-.084.027-8.474,2.683-13.348,2.683a19.863,19.863,0,0,1-9.055-2.589.937.937,0,0,0-1.238.237l-2.638,3.517C77.373,13.111,78.367,9.185,80.731,6.507ZM77.959,25.9V21.262l3.4-4.536a21.153,21.153,0,0,0,9.284,2.448c4.323,0,10.907-1.861,13.15-2.535l2.276,4.552V25.9A14.071,14.071,0,0,1,92.2,39.953a.948.948,0,0,0-.379,0A14.071,14.071,0,0,1,77.959,25.9ZM99.823,39.78v3.11L96.837,44.88l-3.886-.971V41.8A15.816,15.816,0,0,0,99.823,39.78Zm-15.617,3.11V39.78A15.812,15.812,0,0,0,91.077,41.8v2.108l-3.886.971ZM88.85,46.4l3.165-.791,3.165.791-2.3,2.3H91.153Zm1.694,15.728,1.075-11.55h.791l1.075,11.55H90.544Zm23.023,0h-18.2l-1.13-12.136,3.371-3.371,3.435-2.29h7.213a5.316,5.316,0,0,1,5.31,5.31V62.125Z" transform="translate(-68.588)"/></g></g><g transform="translate(97.325 48.764)"><g transform="translate(0)"><path class="b" d="M310.662,392.608h-2.811v-1.562a.937.937,0,0,0-.937-.937h-3.748a.937.937,0,0,0-.937.937v1.562h-2.811a.937.937,0,0,0-.937.937v6.247a.937.937,0,0,0,.937.937h11.244a.937.937,0,0,0,.937-.937v-6.247A.937.937,0,0,0,310.662,392.608Zm-6.559-.625h1.874v.625H304.1Zm5.622,6.872h-9.37v-4.373h9.37Z" transform="translate(-298.481 -390.109)"/></g></g></g></svg>