<svg xmlns="http://www.w3.org/2000/svg" width="42.225" height="42.225" viewBox="0 0 42.225 42.225">
  <g id="money_icon" data-name="money icon" transform="translate(0.375 0.375)">
    <g id="Group_7557" data-name="Group 7557" transform="translate(24.298 20.754)">
      <g id="Group_7556" data-name="Group 7556">
        <path id="Path_5594" data-name="Path 5594" d="M303.356,262.115a1.574,1.574,0,1,1,1.782-1.561.81.81,0,1,0,1.62,0,3.251,3.251,0,0,0-2.592-3.108v-.426a.81.81,0,1,0-1.62,0v.426a3.251,3.251,0,0,0-2.592,3.108,3.31,3.31,0,0,0,3.4,3.2,1.575,1.575,0,1,1-1.782,1.561.81.81,0,1,0-1.62,0,3.251,3.251,0,0,0,2.592,3.108v.354a.81.81,0,1,0,1.62,0v-.354a3.251,3.251,0,0,0,2.592-3.108A3.31,3.31,0,0,0,303.356,262.115Z" transform="translate(-299.954 -256.201)" fill="#00a6a2" stroke="#00a6a2" stroke-width="0.75"/>
      </g>
    </g>
    <g id="Group_7559" data-name="Group 7559" transform="translate(31.1 17.851)">
      <g id="Group_7558" data-name="Group 7558">
        <path id="Path_5595" data-name="Path 5595" d="M389.4,224.727a10.594,10.594,0,0,0-4.311-3.861.806.806,0,0,0-1.081.384.824.824,0,0,0,.379,1.094A9.084,9.084,0,0,1,388.4,234.7a.824.824,0,0,0,.335,1.109.8.8,0,0,0,.38.1.809.809,0,0,0,.716-.435,10.776,10.776,0,0,0-.434-10.747Z" transform="translate(-383.924 -220.785)" fill="#00a6a2" stroke="#00a6a2" stroke-width="0.75"/>
      </g>
    </g>
    <g id="Group_7561" data-name="Group 7561" transform="translate(28.109 16.885)">
      <g id="Group_7560" data-name="Group 7560">
        <path id="Path_5596" data-name="Path 5596" d="M347.865,209h-.055a.82.82,0,0,0,0,1.639h.051a.82.82,0,0,0,0-1.639Z" transform="translate(-347 -209.001)" fill="#00a6a2" stroke="#00a6a2" stroke-width="0.75"/>
      </g>
    </g>
    <g id="Group_7563" data-name="Group 7563" transform="translate(17.173 22.107)">
      <g id="Group_7562" data-name="Group 7562">
        <path id="Path_5597" data-name="Path 5597" d="M218.677,286.276a9.084,9.084,0,0,1-4.017-12.36.825.825,0,0,0-.335-1.109.805.805,0,0,0-1.1.339,10.776,10.776,0,0,0,.434,10.746,10.6,10.6,0,0,0,4.311,3.861.8.8,0,0,0,.35.081.809.809,0,0,0,.731-.465A.824.824,0,0,0,218.677,286.276Z" transform="translate(-212.002 -272.711)" fill="#00a6a2" stroke="#00a6a2" stroke-width="0.75"/>
      </g>
    </g>
    <g id="Group_7565" data-name="Group 7565" transform="translate(25.628 36.557)">
      <g id="Group_7564" data-name="Group 7564">
        <path id="Path_5598" data-name="Path 5598" d="M317.238,449h-.047a.82.82,0,0,0-.007,1.639h.054a.82.82,0,0,0,0-1.639Z" transform="translate(-316.378 -448.999)" fill="#00a6a2" stroke="#00a6a2" stroke-width="0.75"/>
      </g>
    </g>
    <g id="Group_7567" data-name="Group 7567">
      <g id="Group_7566" data-name="Group 7566">
        <path id="Path_5599" data-name="Path 5599" d="M31.382,17.112a3.776,3.776,0,0,0-.36-.669h2.109a3.771,3.771,0,0,0,0-7.541H26.644A3.777,3.777,0,0,0,23.572,3H3.726a3.771,3.771,0,0,0,0,7.541h6.487a3.8,3.8,0,0,0,0,4.262H8.1a3.777,3.777,0,0,0-2.316,6.721,3.791,3.791,0,0,0,0,5.9,3.791,3.791,0,0,0,0,5.9A3.777,3.777,0,0,0,8.1,40.048h9.546A13.661,13.661,0,0,0,27.7,44.475a13.955,13.955,0,0,0,3.678-27.363Zm1.749-6.571a2.131,2.131,0,0,1,0,4.262H13.285a2.131,2.131,0,0,1,0-4.262ZM3.726,8.9a2.131,2.131,0,0,1,0-4.262H23.572a2.131,2.131,0,0,1,0,4.262ZM8.1,16.442H27.947a2.085,2.085,0,0,1,.919.214c-.383-.033-.771-.05-1.162-.05a13.648,13.648,0,0,0-9.745,4.1H8.1a2.131,2.131,0,0,1,0-4.262Zm0,5.9h8.474a13.961,13.961,0,0,0-2.082,4.262H8.1a2.131,2.131,0,0,1,0-4.262Zm0,5.9h6.02a14.109,14.109,0,0,0-.05,4.262H8.1a2.131,2.131,0,0,1,0-4.262Zm0,10.164a2.131,2.131,0,0,1,0-4.262h6.3a13.956,13.956,0,0,0,1.944,4.262Zm19.6,4.426A12.3,12.3,0,1,1,39.855,30.54,12.237,12.237,0,0,1,27.7,42.835Z" transform="translate(0 -3)" fill="#00a6a2" stroke="#00a6a2" stroke-width="0.75"/>
      </g>
    </g>
  </g>
</svg>
