<svg xmlns="http://www.w3.org/2000/svg" width="66.202" height="58.653" viewBox="0 0 66.202 58.653">
  <g id="Group_17841" data-name="Group 17841" transform="translate(-475.798 -462.347)">
    <g id="Group_17840" data-name="Group 17840" transform="translate(0 8)">
      <path id="Path_34934" data-name="Path 34934" d="M29.2,0A29.2,29.2,0,1,1,0,29.2,29.2,29.2,0,0,1,29.2,0Z" transform="translate(475.798 454.347)" fill="#e5f6f6"/>
      <g id="desktop_2_" data-name="desktop (2)" transform="translate(486.767 466.123)">
        <path id="Path_34918" data-name="Path 34918" d="M159.213,401l-6.174,2.2-.234.818A3.1,3.1,0,0,1,150,406.136v.55h12.8Z" transform="translate(-138.994 -372.385)" fill="#ccc"/>
        <path id="Path_34919" data-name="Path 34919" d="M200.039,376.22l-.863-3.019-3.559-2.2-3.559,2.2-.629,2.2H197.6l.234.818a3.1,3.1,0,0,0,2.806,2.117l1.1.55,1.1-.55A3.1,3.1,0,0,1,200.039,376.22Z" transform="translate(-177.384 -344.586)" fill="#8f8f8b"/>
        <path id="Path_34920" data-name="Path 34920" d="M437,262.006h2.2a2.208,2.208,0,0,0,2.2-2.2v-4.4L437,251Z" transform="translate(-404.936 -233.391)" fill="#d5dbe1"/>
        <path id="Path_34921" data-name="Path 34921" d="M0,204.207a2.208,2.208,0,0,0,2.2,2.2H32.064a2.208,2.208,0,0,0,2.2-2.2V191L0,199.8Z" transform="translate(0 -177.793)" fill="#f3f3f1"/>
        <path id="Path_34922" data-name="Path 34922" d="M439.2,11H437l2.2,22.012h2.2V13.2A2.208,2.208,0,0,0,439.2,11Z" transform="translate(-404.936 -11)" fill="#d5dbe1"/>
        <path id="Path_34923" data-name="Path 34923" d="M34.265,13.2a2.208,2.208,0,0,0-2.2-2.2H2.2A2.208,2.208,0,0,0,0,13.2v19.81H34.265v-2.2L18.233,22Z" transform="translate(0 -11)" fill="#f3f3f1"/>
        <path id="Path_34925" data-name="Path 34925" d="M62.063,40.975l-32.057,0S30,61.535,30,61.535l32.063,0S62.06,40.975,62.063,40.975Z" transform="translate(-27.799 -38.774)" fill="#f1f4f9"/>
        <circle id="Ellipse_1366" data-name="Ellipse 1366" cx="1.101" cy="1.101" r="1.101" transform="translate(17.132 24.213)" fill="#e5f3e5"/>
        <path id="Path_34926" data-name="Path 34926" d="M109.3,472.1H86.55a.55.55,0,0,1,0-1.1H109.3a.55.55,0,0,1,0,1.1Z" transform="translate(-79.69 -437.249)" fill="#8f8f8b"/>
      </g>
      <g id="desktop" transform="translate(486.217 447.625)">
        <path id="Path_34867" data-name="Path 34867" d="M34.815,18.5H2.751A2.755,2.755,0,0,0,0,21.251V45.464a2.755,2.755,0,0,0,2.751,2.751H14.5l-.662,2.318a2.543,2.543,0,0,1-2.277,1.717H7.411a.55.55,0,0,0,0,1.1H30.156a.55.55,0,0,0,0-1.1H26.01a2.544,2.544,0,0,1-2.277-1.717l-.662-2.318H34.815a2.755,2.755,0,0,0,2.751-2.751V21.251A2.755,2.755,0,0,0,34.815,18.5ZM2.751,19.6H34.815a1.653,1.653,0,0,1,1.651,1.651v19.26H1.1V21.251A1.653,1.653,0,0,1,2.751,19.6ZM22.675,50.836a3.357,3.357,0,0,0,.845,1.415H14.046a3.358,3.358,0,0,0,.845-1.415l.749-2.62h6.287Zm12.14-3.721H2.751A1.653,1.653,0,0,1,1.1,45.464V41.612H36.466v3.852A1.653,1.653,0,0,1,34.815,47.115Z" fill="#00a6a2"/>
        <path id="Path_34868" data-name="Path 34868" d="M30.572,70.092H63.895a.606.606,0,0,0,.572-.635V49.135a.606.606,0,0,0-.572-.635H30.572a.606.606,0,0,0-.572.635v8.891a.575.575,0,1,0,1.144,0V49.77H63.323V68.822H31.144V60.566a.575.575,0,1,0-1.144,0v8.891A.606.606,0,0,0,30.572,70.092Z" transform="translate(-28.45 -28.45)" fill="#00a6a2"/>
        <path id="Path_34869" data-name="Path 34869" d="M234.848,348.5a1.348,1.348,0,1,0,1.348,1.348A1.349,1.349,0,0,0,234.848,348.5Zm0,1.8a.449.449,0,1,1,.449-.449A.45.45,0,0,1,234.848,350.3Z" transform="translate(-215.879 -306.037)" fill="#00a6a2"/>
      </g>
    </g>
    <g id="complete" transform="translate(523 502)">
      <circle id="Ellipse_1134" data-name="Ellipse 1134" cx="9.5" cy="9.5" r="9.5" fill="#00a6a2"/>
      <g id="Check" transform="translate(3.352 5.38)">
        <path id="Icon_feather-check" data-name="Icon feather-check" d="M8.6,16.75a.667.667,0,0,1-.483-.208L4.7,12.984a.733.733,0,0,1,0-1.006.664.664,0,0,1,.966,0L8.6,15.032,15.63,7.708a.664.664,0,0,1,.966,0,.733.733,0,0,1,0,1.006L9.082,16.542A.667.667,0,0,1,8.6,16.75Z" transform="translate(-4.5 -7.5)" fill="#fff" stroke="#fff" stroke-linecap="round" stroke-width="0.5"/>
      </g>
    </g>
  </g>
</svg>
