<svg xmlns="http://www.w3.org/2000/svg" width="78.276" height="74.584" viewBox="0 0 78.276 74.584">
  <g id="Group_17715" data-name="Group 17715" transform="translate(-1088.73 -306.589)">
    <path id="Path_34850" data-name="Path 34850" d="M2.077,39.748S-6.022,26.692,9.766,20.5,16.285-1.265,34.826.082,83.9,37.83,45.609,53.76,2.077,39.748,2.077,39.748Z" transform="translate(1105.813 306.589) rotate(17)" fill="#e8f3f9"/>
    <g id="contract" transform="translate(1102.349 318.367)">
      <path id="Path_5956" data-name="Path 5956" d="M222.6,97.91a2.553,2.553,0,0,0-4.677-.613l-.425.74a.85.85,0,0,0-1.157.306l-2.16,3.682-.74-.425a.85.85,0,1,0-.85,1.471l.74.425L206.1,116.024l-1.786,4.771-.85,1.59a2.552,2.552,0,0,0,.136,2.756l-1.914,2.347-.536-1.343a1.7,1.7,0,0,0-3.036-.238l-.306.519-.289-3.4a1.7,1.7,0,0,0-3.308-.4l-2.092,6.276a.85.85,0,0,0,.536,1.072.736.736,0,0,0,.264.068.85.85,0,0,0,.808-.578l2.083-6.276.3,3.452a1.7,1.7,0,0,0,3.155.732l.315-.519.527,1.335a1.7,1.7,0,0,0,2.908.434L205,126.111a2.619,2.619,0,0,0,.672.085,2.551,2.551,0,0,0,2.22-1.259l.85-1.42,3.24-3.938,7.305-12.68.74.425a.853.853,0,0,1,.315,1.165l-3.4,5.894a.844.844,0,1,0,1.437.885l3.4-5.894a2.55,2.55,0,0,0-.936-3.487l-.74-.425,2.126-3.683a.851.851,0,0,0-.306-1.157l.425-.74a2.55,2.55,0,0,0,.255-1.973Zm-3.206.238a.85.85,0,0,1,.519-.4.893.893,0,0,1,.646.085.851.851,0,0,1,.4.519.893.893,0,0,1-.085.646l-.425.74-1.48-.85ZM207.8,121.893l-.425-.247-1.259-.732,1.208-3.232L210,119.23Zm-2.551,2.458a.85.85,0,0,1-.255-1.114l.425-.74,1.48.85-.425.731a.85.85,0,0,1-1.225.272Zm5.724-6.514-2.943-1.7,6.8-11.788,2.943,1.7Zm7.654-13.259-2.943-1.7,1.7-2.943,2.943,1.7Zm0,0" transform="translate(-171.657 -85.816)" fill="#00a6a2"/>
      <path id="Path_5957" data-name="Path 5957" d="M73.576,356.8l-3.01,3-1.8-1.8a.851.851,0,1,0-1.2,1.208l1.8,1.8a1.714,1.714,0,0,0,2.407,0l3-3.011a.851.851,0,0,0-1.2-1.2Zm0,0" transform="translate(-60.156 -318.692)" fill="#00a6a2"/>
      <path id="Path_5958" data-name="Path 5958" d="M32,319.27a7.229,7.229,0,0,0,14.458,0,.85.85,0,1,0-1.7,0,5.529,5.529,0,1,1-2.211-4.422.851.851,0,0,0,1.021-1.361A7.229,7.229,0,0,0,32,319.27Zm0,0" transform="translate(-28.598 -278.873)" fill="#00a6a2"/>
      <path id="Path_5959" data-name="Path 5959" d="M94.962,49.74a.85.85,0,1,0,0-1.7H72.85a.85.85,0,0,0-.85.85v3.4a.85.85,0,0,0,.85.85H94.962a.85.85,0,1,0,0-1.7H73.7v-1.7Zm0,0" transform="translate(-64.346 -42.936)" fill="#00a6a2"/>
      <path id="Path_5960" data-name="Path 5960" d="M96.85,112.039a.85.85,0,1,0,0,1.7H113.86a.85.85,0,0,0,0-1.7Zm0,0" transform="translate(-85.794 -100.133)" fill="#00a6a2"/>
      <path id="Path_5961" data-name="Path 5961" d="M147.561,168.039H128.85a.85.85,0,1,0,0,1.7h18.71a.85.85,0,1,0,0-1.7Zm0,0" transform="translate(-114.393 -150.179)" fill="#00a6a2"/>
      <path id="Path_5962" data-name="Path 5962" d="M74.71,216.889a.85.85,0,0,0-.85-.85H56.85a.85.85,0,1,0,0,1.7H73.86A.85.85,0,0,0,74.71,216.889Zm0,0" transform="translate(-50.047 -193.077)" fill="#00a6a2"/>
      <path id="Path_5963" data-name="Path 5963" d="M254.8,216.039H248.85a.85.85,0,1,0,0,1.7H254.8a.85.85,0,1,0,0-1.7Zm0,0" transform="translate(-221.636 -193.077)" fill="#00a6a2"/>
      <path id="Path_5964" data-name="Path 5964" d="M65.355,257.74a.85.85,0,1,0,0-1.7h-8.5a.85.85,0,1,0,0,1.7Zm0,0" transform="translate(-50.047 -228.824)" fill="#00a6a2"/>
      <path id="Path_5965" data-name="Path 5965" d="M168.85,257.74H174.8a.85.85,0,1,0,0-1.7H168.85a.85.85,0,0,0,0,1.7Zm0,0" transform="translate(-150.14 -228.824)" fill="#00a6a2"/>
      <path id="Path_5966" data-name="Path 5966" d="M38.271,39.16a.851.851,0,0,0-.85.85v8.5a.85.85,0,0,1-.85.85H2.551a.85.85,0,0,1-.85-.85V2.59a.851.851,0,0,1,.85-.85H36.57a.851.851,0,0,1,.85.85V18.562a.85.85,0,0,0,1.7,0V2.59A2.552,2.552,0,0,0,36.57.039H2.551A2.552,2.552,0,0,0,0,2.59V48.515a2.551,2.551,0,0,0,2.551,2.551H36.57a2.551,2.551,0,0,0,2.551-2.551v-8.5A.851.851,0,0,0,38.271,39.16Zm0,0" transform="translate(0 -0.039)" fill="#00a6a2"/>
    </g>
  </g>
</svg>
