<svg xmlns="http://www.w3.org/2000/svg" width="70.842" height="64" viewBox="0 0 70.842 64"><defs><style>.a{fill:#ccc;}.b{fill:#07996a;}</style></defs><g transform="translate(0 -24.725)"><path class="a" d="M68.417,24.725H2.426A2.428,2.428,0,0,0,0,27.151V71.936a2.428,2.428,0,0,0,2.426,2.426H16.065l.28,1.3a3.487,3.487,0,0,0,2.787,2.684,6.986,6.986,0,1,0,12.243.053h5.8a6.987,6.987,0,1,0,12.263-.02,3.485,3.485,0,0,0,3.038-2.718l7.55-35.138h8.735v31.41a.347.347,0,0,1-.346.346H57.09a1.04,1.04,0,1,0,0,2.079H68.416a2.428,2.428,0,0,0,2.426-2.426V27.151a2.428,2.428,0,0,0-2.425-2.426ZM25.238,86.646a4.908,4.908,0,1,1,4.908-4.908,4.914,4.914,0,0,1-4.908,4.908Zm18.077,0a4.908,4.908,0,1,1,4.908-4.908,4.914,4.914,0,0,1-4.908,4.908Zm22.492-48.2a3.464,3.464,0,0,0-2.33-6.028h-3.27a6.875,6.875,0,0,0-6.686,5.4l-.134.626H43.57a1.04,1.04,0,1,0,0,2.079h9.37l-1.055,4.911H14.139a3.465,3.465,0,0,0-3.388,4.193l2.563,11.929a1.039,1.039,0,1,0,2.033-.437L12.784,49.192a1.386,1.386,0,0,1,1.355-1.677H52.725a1.04,1.04,0,0,0,1.016-.821l1.813-8.436a4.785,4.785,0,0,1,4.653-3.76h3.27a1.386,1.386,0,0,1,0,2.772h-3.27a2,2,0,0,0-1.943,1.57L50.446,75.227a1.393,1.393,0,0,1-1.355,1.095H47.723a6.97,6.97,0,0,0-8.816,0H29.646a6.97,6.97,0,0,0-8.816,0h-1.1a1.393,1.393,0,0,1-1.355-1.095L16.244,65.3a1.039,1.039,0,1,0-2.033.437l1.407,6.548H2.426a.347.347,0,0,1-.346-.346V40.525H38.762a1.04,1.04,0,1,0,0-2.079H2.079V27.15a.347.347,0,0,1,.346-.346H68.417a.347.347,0,0,1,.346.346v11.3Z"/><circle class="b" cx="2.027" cy="2.027" r="2.027" transform="translate(5.657 30.559)"/><circle class="b" cx="2.027" cy="2.027" r="2.027" transform="translate(11.821 30.559)"/><circle class="b" cx="2.027" cy="2.027" r="2.027" transform="translate(17.985 30.559)"/><path class="b" d="M225.274,334.913H219.16a1.039,1.039,0,0,0-1.036,1.125l.315,3.827a1.04,1.04,0,0,0,1.036.954h5.483a1.039,1.039,0,0,0,1.036-.954l.315-3.827a1.039,1.039,0,0,0-1.036-1.125ZM224,338.74h-3.569l-.144-1.748h3.857Z" transform="translate(-187.941 -267.269)"/><path class="b" d="M117.2,214.554a1.04,1.04,0,0,0,1.016.821h7.275a1.046,1.046,0,0,0,1.036-1.125l-.315-3.827a1.04,1.04,0,0,0-1.036-.954H117.39a1.046,1.046,0,0,0-1.016,1.258Zm7.019-3.006.144,1.748h-5.306l-.376-1.748Z" transform="translate(-100.249 -159.182)"/><path class="b" d="M144.361,334.913a1.039,1.039,0,0,0-1.016,1.258l.822,3.827a1.04,1.04,0,0,0,1.016.821h4.975a1.039,1.039,0,0,0,1.036-1.125l-.315-3.827a1.04,1.04,0,0,0-1.036-.954Zm1.662,3.827-.376-1.748h3.238l.144,1.748Z" transform="translate(-123.491 -267.269)"/><path class="b" d="M130.884,272.192a1.039,1.039,0,0,0-1.016,1.258l.822,3.827a1.039,1.039,0,0,0,1.016.821h6.125a1.039,1.039,0,0,0,1.036-1.125l-.315-3.827a1.04,1.04,0,0,0-1.036-.954Zm1.662,3.827-.376-1.748h4.388l.144,1.748Z" transform="translate(-111.878 -213.227)"/><path class="b" d="M208.1,214.422a1.04,1.04,0,0,0,1.036.954h8.342a1.039,1.039,0,0,0,1.036-.954l.315-3.827a1.046,1.046,0,0,0-1.036-1.125h-8.972a1.046,1.046,0,0,0-1.036,1.125Zm8.564-2.873-.144,1.748h-6.427l-.144-1.748Z" transform="translate(-179.029 -159.183)"/><path class="b" d="M301.413,278.1h6.4a1.04,1.04,0,0,0,1.016-.821l.822-3.827a1.04,1.04,0,0,0-1.016-1.258h-6.9a1.039,1.039,0,0,0-1.036.954l-.315,3.827a1.039,1.039,0,0,0,1.036,1.125Zm1.273-3.827h4.659l-.376,1.748h-4.427Z" transform="translate(-258.813 -213.226)"/><path class="b" d="M306.567,215.376h7.546a1.04,1.04,0,0,0,1.016-.821l.822-3.827a1.046,1.046,0,0,0-1.016-1.258h-8.053a1.039,1.039,0,0,0-1.036.954l-.315,3.827A1.045,1.045,0,0,0,306.567,215.376Zm1.273-3.827h5.809l-.376,1.748H307.7Z" transform="translate(-263.253 -159.182)"/><path class="b" d="M221.538,272.192h-7.543a1.039,1.039,0,0,0-1.036,1.125l.315,3.827a1.04,1.04,0,0,0,1.036.954h6.913a1.039,1.039,0,0,0,1.036-.954l.315-3.827a1.039,1.039,0,0,0-1.036-1.125Zm-1.273,3.827h-5l-.144-1.748h5.286Z" transform="translate(-183.49 -213.227)"/><path class="b" d="M296.248,340.818h5.245A1.04,1.04,0,0,0,302.51,340l.822-3.827a1.04,1.04,0,0,0-1.016-1.258h-5.753a1.039,1.039,0,0,0-1.036.954l-.315,3.827a1.039,1.039,0,0,0,1.036,1.125Zm1.273-3.827h3.508l-.376,1.748h-3.277Z" transform="translate(-254.363 -267.268)"/><path class="b" d="M171.291,423.882a1.784,1.784,0,1,0,1.784,1.784A1.784,1.784,0,0,0,171.291,423.882Z" transform="translate(-146.053 -343.928)"/><path class="b" d="M301.938,423.882a1.784,1.784,0,1,0,1.784,1.784A1.784,1.784,0,0,0,301.938,423.882Z" transform="translate(-258.624 -343.928)"/></g></svg>