<svg xmlns="http://www.w3.org/2000/svg" width="48" height="53.04" viewBox="0 0 48 53.04"><defs><style>.a{fill:#ccc;}.b{fill:#35bab6;}</style></defs><path class="a" d="M1814.478,457.112c0-.032,0-.064-.008-.1s-.008-.057-.014-.085-.014-.058-.023-.086-.018-.055-.028-.082-.023-.052-.036-.078-.027-.05-.042-.074-.031-.046-.047-.068a.886.886,0,0,0-.058-.068c-.01-.01-.017-.022-.027-.031l-10.163-9.736a.716.716,0,0,0-.49-.207l-25.954-.184h0a.715.715,0,0,0-.5.208l-10.319,9.92c-.01.009-.017.021-.026.03a.9.9,0,0,0-.059.069c-.017.022-.032.044-.047.066s-.029.049-.042.075-.025.051-.036.078-.02.054-.029.082-.016.057-.023.086-.011.056-.014.085-.007.064-.008.1c0,.015,0,.028,0,.043V474.12c0,2.193,1.519,3.978,3.385,3.978H1811.1c1.867,0,3.385-1.784,3.385-3.978V457.156C1814.482,457.141,1814.479,457.126,1814.478,457.112Zm-36.618-8.956,25.4.18,8.247,7.9h-11.8a.859.859,0,0,0-.782.919v1.965c0,2.917-2.02,5.291-4.5,5.291h-7.879c-2.483,0-4.5-2.374-4.5-5.291v-1.965a.858.858,0,0,0-.782-.919h-11.8Zm35.058,25.964a2,2,0,0,1-1.822,2.141h-41.229a2,2,0,0,1-1.822-2.141V458.074h12.43v1.047c0,3.931,2.722,7.128,6.067,7.128h7.879c3.345,0,6.067-3.2,6.067-7.128v-1.047h12.43Z" transform="translate(-1766.482 -425.058)"/><path class="b" d="M1915.151,344.5l.023,0,.023,0a.918.918,0,0,0,.918-.918v-7.348a.919.919,0,0,0-.918-.919l-.023,0-.023,0a.919.919,0,0,0-.918.919v7.348A.918.918,0,0,0,1915.151,344.5Z" transform="translate(-1891.271 -335.317)"/><path class="b" d="M1954.884,370a.918.918,0,0,0,1.276-.243l4.133-6.076a.918.918,0,1,0-1.519-1.033l-4.133,6.075A.918.918,0,0,0,1954.884,370Z" transform="translate(-1925.697 -357.297)"/><path class="b" d="M1855.774,369.755a.918.918,0,1,0,1.519-1.033l-4.133-6.075a.918.918,0,1,0-1.519,1.033Z" transform="translate(-1838.468 -357.297)"/></svg>