<svg xmlns="http://www.w3.org/2000/svg" width="61.867" height="64" viewBox="0 0 61.867 64">
  <g id="Outlines" transform="translate(-3 -2)">
    <g id="Group_9137" data-name="Group 9137" transform="translate(3 2)">
      <path id="Path_5987" data-name="Path 5987" d="M38.333,42.533A1.067,1.067,0,0,0,39.4,41.467v-6.4A1.067,1.067,0,0,0,38.333,34H18.067a1.067,1.067,0,1,0,0,2.133h19.2v5.333A1.067,1.067,0,0,0,38.333,42.533Z" transform="translate(-2.067 0.133)" fill="#ccc"/>
      <path id="Path_5988" data-name="Path 5988" d="M14.4,36.133A1.067,1.067,0,0,0,14.4,34H9.067A1.067,1.067,0,0,0,8,35.067V58.533A1.067,1.067,0,0,0,9.067,59.6H38.933A1.067,1.067,0,0,0,40,58.533v-12.8a1.067,1.067,0,1,0-2.133,0v3.2h-3.2A3.186,3.186,0,0,0,32.3,54.267a3.1,3.1,0,0,0-.64,3.2H21.867V55.333h3.2a1.067,1.067,0,0,0,.955-1.543l-1.067-2.133a8.314,8.314,0,0,1-.588-1.552l1.173.783a1.067,1.067,0,0,0,1.184-1.775l-.345-.229a1.052,1.052,0,0,0,.82-1.017A1.067,1.067,0,0,0,26.133,46.8H24.139a8.5,8.5,0,0,1,.45-1.879l2.274.758a1.068,1.068,0,0,0,.674-2.027l-3.2-1.067a1.067,1.067,0,0,0-1.292.533A10.591,10.591,0,0,0,21.993,46.8H18.046c.157-.988.342-1.97.585-2.941a1.067,1.067,0,0,0-1.372-1.271l-2.189.73-.436-1.311,2.916-1.457a6.811,6.811,0,0,0,6.492,0l3.744,1.872a1.067,1.067,0,0,0,.954-1.909l-4.267-2.133a1.067,1.067,0,0,0-1.067.067,4.693,4.693,0,0,1-5.216,0,1.067,1.067,0,0,0-1.067-.067l-4.267,2.133a1.067,1.067,0,0,0-.533,1.292L13.39,45a1.067,1.067,0,0,0,1.349.675l1.413-.471c-.107.533-.192,1.06-.272,1.593h-.414a1.067,1.067,0,1,0,0,2.133h.156c-.1,1.107-.156,2.219-.156,3.331v2a1.067,1.067,0,0,0,1.067,1.067h3.2v2.133h-9.6V36.133Zm3.2,16.131c0-1.113.069-2.224.177-3.331h4.215a10.591,10.591,0,0,0,1.053,3.677l.3.59H17.6Zm17.067-1.2h3.2V53.2h-3.2a1.067,1.067,0,0,1,0-2.133ZM33.6,56.4a1.067,1.067,0,0,1,1.067-1.067h3.2v2.133h-3.2A1.067,1.067,0,0,1,33.6,56.4Z" transform="translate(-2.667 0.133)" fill="#ccc"/>
      <path id="Path_5989" data-name="Path 5989" d="M55.867,36.133a1.067,1.067,0,1,0,0-2.133h-12.8A1.067,1.067,0,0,0,42,35.067v4.267A1.067,1.067,0,0,0,43.067,40.4h12.8a1.067,1.067,0,1,0,0-2.133H44.133V36.133Z" transform="translate(-0.4 0.133)" fill="#ccc"/>
      <path id="Path_5990" data-name="Path 5990" d="M64.867,21.2a4.267,4.267,0,0,0-3.2-4.115V15.867a5.34,5.34,0,0,0-5.333-5.333V3.067A1.067,1.067,0,0,0,55.267,2H12.6a1.067,1.067,0,0,0-1.067,1.067v7.467A5.34,5.34,0,0,0,6.2,15.867v1.218A4.267,4.267,0,0,0,3,21.2v5.333A5.317,5.317,0,0,0,12.6,29.7a5.284,5.284,0,0,0,8.533,0,5.284,5.284,0,0,0,8.533,0,5.284,5.284,0,0,0,8.533,0,5.317,5.317,0,0,0,9.6-3.167V22.267a1.067,1.067,0,1,0-2.133,0v4.267a3.2,3.2,0,1,1-6.4,0V22.267a1.067,1.067,0,1,0-2.133,0v4.267a3.2,3.2,0,0,1-6.4,0V19.067H54.2v7.467a3.2,3.2,0,0,1-3.2,3.2,1.067,1.067,0,1,0,0,2.133A5.314,5.314,0,0,0,55.267,29.7a5.277,5.277,0,0,0,6.4,1.714V63.867H59.533V45.733a1.067,1.067,0,0,0-1.067-1.067h-12.8A1.067,1.067,0,0,0,44.6,45.733V63.867H6.2v-29.2a1.067,1.067,0,1,0-2.133,0V64.933A1.067,1.067,0,0,0,5.133,66h57.6A1.067,1.067,0,0,0,63.8,64.933V29.7a5.282,5.282,0,0,0,1.067-3.167ZM46.733,53.291,53.224,46.8h3.018l-9.508,9.508ZM50.207,46.8l-3.474,3.474V46.8ZM46.733,63.867V59.326L57.4,48.659v6.674H55.267a1.067,1.067,0,1,0,0,2.133H57.4v6.4Zm12.8-48v1.067h-3.2V12.667a3.2,3.2,0,0,1,3.2,3.2Zm-51.2,0a3.2,3.2,0,0,1,3.2-3.2v4.267h-3.2Zm0,13.867a3.2,3.2,0,0,1-3.2-3.2V21.2a2.133,2.133,0,0,1,2.133-2.133h4.267v7.467a3.2,3.2,0,0,1-3.2,3.2Zm8.533,0a3.2,3.2,0,0,1-3.2-3.2V19.067h6.4v7.467a3.2,3.2,0,0,1-3.2,3.2Zm11.733-3.2a3.2,3.2,0,1,1-6.4,0V19.067h6.4Zm-14.933-9.6V4.133H54.2v12.8Zm42.667,9.6V19.067H60.6A2.133,2.133,0,0,1,62.733,21.2v5.333a3.2,3.2,0,1,1-6.4,0Z" transform="translate(-3 -2)" fill="#ccc"/>
      <path id="Path_5991" data-name="Path 5991" d="M20.067,6A1.067,1.067,0,0,0,19,7.067v6.4a1.067,1.067,0,1,0,2.133,0v-6.4A1.067,1.067,0,0,0,20.067,6Z" transform="translate(-1.933 -1.733)" fill="#00a6a2"/>
      <path id="Path_5992" data-name="Path 5992" d="M16.067,6A1.067,1.067,0,0,0,15,7.067v6.4a1.067,1.067,0,0,0,2.133,0v-6.4A1.067,1.067,0,0,0,16.067,6Z" transform="translate(-2.2 -1.733)" fill="#00a6a2"/>
      <path id="Path_5993" data-name="Path 5993" d="M48.067,6A1.067,1.067,0,0,0,47,7.067v6.4a1.067,1.067,0,0,0,2.133,0v-6.4A1.067,1.067,0,0,0,48.067,6Z" transform="translate(-0.067 -1.733)" fill="#00a6a2"/>
      <path id="Path_5994" data-name="Path 5994" d="M32.067,6A1.067,1.067,0,0,0,31,7.067v6.4a1.067,1.067,0,1,0,2.133,0v-6.4A1.067,1.067,0,0,0,32.067,6Z" transform="translate(-1.133 -1.733)" fill="#00a6a2"/>
      <path id="Path_5995" data-name="Path 5995" d="M40.333,6H36.067A1.067,1.067,0,0,0,35,7.067v6.4a1.067,1.067,0,1,0,2.133,0V8.133h2.133v5.333a1.067,1.067,0,0,0,2.133,0v-6.4A1.067,1.067,0,0,0,40.333,6Z" transform="translate(-0.867 -1.733)" fill="#00a6a2"/>
      <path id="Path_5996" data-name="Path 5996" d="M44.067,6A1.067,1.067,0,0,0,43,7.067v6.4a1.067,1.067,0,0,0,2.133,0v-6.4A1.067,1.067,0,0,0,44.067,6Z" transform="translate(-0.333 -1.733)" fill="#00a6a2"/>
      <path id="Path_5997" data-name="Path 5997" d="M28.333,6H24.067A1.067,1.067,0,0,0,23,7.067v6.4a1.067,1.067,0,0,0,1.067,1.067h4.267A1.067,1.067,0,0,0,29.4,13.467v-6.4A1.067,1.067,0,0,0,28.333,6Zm-1.067,6.4H25.133V8.133h2.133Z" transform="translate(-1.667 -1.733)" fill="#00a6a2"/>
    </g>
  </g>
</svg>
