<svg id="Eye_19px" data-name="Eye, 19px" xmlns="http://www.w3.org/2000/svg" width="19" height="19" viewBox="0 0 19 19">
  <rect id="Boundary" width="19" height="19" fill="none"/>
  <g id="Group_25649" data-name="Group 25649">
    <path id="_Color" data-name=" ↳Color" d="M-3.2,17.074a2.953,2.953,0,0,1-1.146-2.221A3.343,3.343,0,0,1-3.2,12.632a10.977,10.977,0,0,1,15.656,0,3.8,3.8,0,0,1,1.2,2.22,3.219,3.219,0,0,1-1.2,2.221A11.2,11.2,0,0,1,4.623,20.35,11.2,11.2,0,0,1-3.2,17.074ZM.386,14.853a4.205,4.205,0,0,0,4.237,4.178,4.178,4.178,0,1,0,0-8.356A4.206,4.206,0,0,0,.386,14.853Zm1.663,0a2.574,2.574,0,1,1,2.574,2.538A2.564,2.564,0,0,1,2.049,14.85Z" transform="translate(4.851 -5.35)" fill="#949494"/>
    <g id="Group_25643" data-name="Group 25643" transform="translate(1.756 2.195)">
      <path id="Path_37026" data-name="Path 37026" d="M0,15,14.488,1.391" transform="translate(0 -1.391)" fill="none" stroke="#fff" stroke-width="1.5"/>
      <path id="Path_37025" data-name="Path 37025" d="M0,15,14.488,1.391" transform="translate(1 -0.391)" fill="none" stroke="#979797" stroke-width="1.5"/>
    </g>
  </g>
</svg>
