<svg xmlns="http://www.w3.org/2000/svg" width="44.05" height="38.802" viewBox="0 0 44.05 38.802">
  <g id="payouts_icon" data-name="payouts icon" transform="translate(0)">
    <g id="Group_11425" data-name="Group 11425" transform="translate(0.5 0.5)">
      <path id="Union_43" data-name="Union 43" d="M11582.946,13235.829a2.077,2.077,0,0,1-2.076-2.076v-23.1a2.078,2.078,0,0,1,2.076-2.076h13.407a6.029,6.029,0,0,1-.383-2.155,6.359,6.359,0,0,1,1.227-3.817,6.831,6.831,0,0,1,2.992-2.255v-2.3a1.015,1.015,0,0,1,1.026-1.026h3.834a1.011,1.011,0,0,1,1.022,1.026v1.931a8.886,8.886,0,0,1,2.611,1.02l.773.455a1.028,1.028,0,0,1,.426,1.245l-1.448,3.82a1.02,1.02,0,0,1-.615.6,1.052,1.052,0,0,1-.847-.072l-.01,0-1.069-.611a4.678,4.678,0,0,0-2.5-.678c-.206,0-.884.023-.884.329,0,.083,0,.1.133.216a8.909,8.909,0,0,0,2.047,1.053,13.36,13.36,0,0,1,2.365,1.223h15.784a2.077,2.077,0,0,1,2.076,2.076v23.1a2.076,2.076,0,0,1-2.076,2.076Zm-.026-25.176v23.1c0,.017.007.026.026.026h39.9c.021,0,.027-.01.027-.026v-.5h.02v-22.577c0-.017-.007-.027-.023-.027h-13.655a6.808,6.808,0,0,1-.183,7.724,7.154,7.154,0,0,1-3.123,2.365v2.381a1.017,1.017,0,0,1-1.026,1.027h-3.863a1.017,1.017,0,0,1-1.026-1.027v-2.029a9.091,9.091,0,0,1-3.411-1.385l-.651-.462a1.027,1.027,0,0,1-.368-1.189l1.392-3.876a1.008,1.008,0,0,1,.635-.635.946.946,0,0,1,.315-.053,1.07,1.07,0,0,1,.562.162l.017.01,1.112.744a5.387,5.387,0,0,0,2.873.854c.05,0,1.253-.011,1.253-.668,0-.209,0-.647-1.857-1.405a11.857,11.857,0,0,1-4.222-2.558h-14.692C11582.927,13210.627,11582.92,13210.634,11582.92,13210.653Zm14.821,7.352.014.01a7.6,7.6,0,0,0,3.365,1.173,1.026,1.026,0,0,1,.9,1.02v1.863h1.813v-2.093a1.032,1.032,0,0,1,.74-.986,4.74,4.74,0,0,0,3.671-4.6,4.453,4.453,0,0,0-1.319-3.315,9.07,9.07,0,0,0-3.022-1.817c-2.644-1.1-3.451-1.837-3.451-3.162a2.319,2.319,0,0,1,.448-1.355,2.877,2.877,0,0,1,2.488-1.026,6.65,6.65,0,0,1,3.491.938l.05.026.714-1.891-.013-.01a7.024,7.024,0,0,0-2.728-.91l-.02,0a1.035,1.035,0,0,1-.881-1.02v-1.768h-1.783v2.01a1.026,1.026,0,0,1-.741.983,5.018,5.018,0,0,0-2.571,1.634,4.311,4.311,0,0,0-.91,2.718c0,2.524,1.848,3.767,4.617,4.856l.011,0a6.432,6.432,0,0,1,2.541,1.618,2.588,2.588,0,0,1-.372,3.68,3.7,3.7,0,0,1-2.329.728,7.515,7.515,0,0,1-4.016-1.2l-.026-.017Z" transform="translate(-11581.37 -13197.527)" fill="#00a6a2"/>
      <path id="Union_42" data-name="Union 42" d="M11581.9,13199.078a1.025,1.025,0,1,1,0-2.051h29.4a1.025,1.025,0,1,1,0,2.051Z" transform="translate(-11575.07 -13166.177)" fill="#00a6a2"/>
    </g>
  </g>
</svg>
