<svg xmlns="http://www.w3.org/2000/svg" xmlns:xlink="http://www.w3.org/1999/xlink" width="386" height="420.12" viewBox="0 0 386 420.12">
  <defs>
    <linearGradient id="linear-gradient" x1="0.502" y1="-0.16" x2="0.498" y2="1.091" gradientUnits="objectBoundingBox">
      <stop offset="0" stop-color="#35bab6"/>
      <stop offset="0.141" stop-color="#38bab4"/>
      <stop offset="0.282" stop-color="#45bcae"/>
      <stop offset="0.423" stop-color="#59bfa5"/>
      <stop offset="0.564" stop-color="#75c398"/>
      <stop offset="0.706" stop-color="#99c988"/>
      <stop offset="0.847" stop-color="#c5d073"/>
      <stop offset="0.987" stop-color="#f9d85c"/>
      <stop offset="1" stop-color="#ffd95a"/>
    </linearGradient>
  </defs>
  <g id="Group_9120" data-name="Group 9120" transform="translate(-1233.409 -287.449)">
    <g id="_4" data-name="4" transform="translate(1233.409 287.449)">
      <path id="Path_6876" data-name="Path 6876" d="M1361.757,689.883c-10.184.018-25.932,4.74-35.177,10.541l-86.694,54.045c-9.246,5.8-8.51,10.493,1.677,10.475l224.433,0c10.173-.018,25.932-4.74,35.178-10.54l86.7-54.046c9.243-5.8,8.491-10.493-1.679-10.475Z" transform="translate(-1233.409 -344.825)" fill="#f9f9f9"/>
      <g id="Group_9125" data-name="Group 9125" transform="translate(105.028 3.331)">
        <g id="Group_9120-2" data-name="Group 9120" style="isolation: isolate">
          <path id="Path_6877" data-name="Path 6877" d="M1488.822,291.435l-8.953.9a20.47,20.47,0,0,0-8.185,2.694L1369.17,354.071c-10.816,6.233-15.725,20.944-10.951,32.917l114.456,289.077c3.592,9.008,11.684,13.853,20.087,13.01l8.953-.9Z" transform="translate(-1356.392 -291.341)" fill="#e1e1e1"/>
          <path id="Path_6878" data-name="Path 6878" d="M1379.591,353.156,1482.1,294.113c10.844-6.25,23.467-1.643,28.241,10.329L1624.828,593.5c4.76,11.938-.162,26.7-10.978,32.934l-102.515,59.042c-10.816,6.234-23.48,1.609-28.241-10.33L1368.639,386.074C1363.865,374.1,1368.774,359.39,1379.591,353.156Z" transform="translate(-1357.86 -291.325)" fill="#efefef"/>
        </g>
        <path id="Path_6879" data-name="Path 6879" d="M1621.59,595.744,1507.111,306.7c-2.572-6.451-8.034-10.459-14.25-10.459a15.81,15.81,0,0,0-7.955,2.224l-15.4,8.872a5.135,5.135,0,0,0-2.437,3.273l-2.918,12.376a4.984,4.984,0,0,1-2.365,3.177l-45.3,26.107a4.485,4.485,0,0,1-3.778.328l-11.289-4.113a4.7,4.7,0,0,0-3.956.343l-15.066,8.677c-9.052,5.213-13.151,17.643-9.134,27.712L1424.607,514.9l63.105,159.376c2.568,6.446,8.041,10.448,14.279,10.448a15.745,15.745,0,0,0,7.925-2.211l102.512-59.037C1621.495,618.247,1625.606,605.81,1621.59,595.744Z" transform="translate(-1358.551 -292.018)" fill="url(#linear-gradient)"/>
        <path id="Path_6880" data-name="Path 6880" d="M1459.318,326.3a1.779,1.779,0,0,0-2.516-1.121l-24.347,14.057a2.477,2.477,0,0,0-.8,3.037,1.777,1.777,0,0,0,2.495,1.134l24.347-14.057A2.48,2.48,0,0,0,1459.318,326.3Z" transform="translate(-1366.965 -296.064)" fill="#828282"/>
        <g id="Group_9121" data-name="Group 9121" transform="translate(53.884 47.7)">
          <path id="Path_6881" data-name="Path 6881" d="M1424.727,349.009c-.755-1.864-2.539-2.674-4.013-1.824a3.969,3.969,0,0,0-1.269,4.874c.743,1.832,2.527,2.644,3.976,1.807A3.959,3.959,0,0,0,1424.727,349.009Z" transform="translate(-1419.112 -346.847)" fill="#828282"/>
        </g>
        <g id="Group_9124" data-name="Group 9124" transform="translate(11.855 120.995)">
          <g id="Group_9122" data-name="Group 9122" transform="translate(14.882 37.653)">
            <path id="Path_6882" data-name="Path 6882" d="M1404.411,504.265l-9.633-24.422a7.554,7.554,0,0,0-1.25-2.044,5.388,5.388,0,0,0-1.319-1.112,2.573,2.573,0,0,0-1.506-.4,1.494,1.494,0,0,0-.592.192l-1.594.927a1.522,1.522,0,0,1,.592-.192,2.582,2.582,0,0,1,1.506.4,5.383,5.383,0,0,1,1.318,1.112,7.174,7.174,0,0,1,1.156,1.817c.1.227,9.728,24.648,9.728,24.648.71,1.772.493,3.344-.431,3.882l1.594-.928C1404.9,507.608,1405.12,506.036,1404.411,504.265Z" transform="translate(-1387.654 -476.281)" fill="#efefef"/>
            <path id="Path_6883" data-name="Path 6883" d="M1402.674,505.344l-9.633-24.422a6.5,6.5,0,0,0-2.569-3.156,2.582,2.582,0,0,0-1.506-.4c-1.411.163-1.878,1.961-1.032,4.07l9.632,24.421a6.5,6.5,0,0,0,2.569,3.156,2.577,2.577,0,0,0,1.506.4C1403.052,509.277,1403.519,507.452,1402.674,505.344Z" transform="translate(-1387.512 -476.433)" fill="#e1e1e1"/>
          </g>
          <g id="Group_9123" data-name="Group 9123">
            <path id="Path_6884" data-name="Path 6884" d="M1387.1,460.439,1377.441,436c-.035-.09-.073-.18-.113-.27a6.984,6.984,0,0,0-1.128-1.772,5.3,5.3,0,0,0-1.305-1.1,2.584,2.584,0,0,0-1.505-.4,1.5,1.5,0,0,0-.587.192l-1.6.926a1.5,1.5,0,0,1,.587-.19,2.571,2.571,0,0,1,1.505.4,5.3,5.3,0,0,1,1.305,1.1,6.937,6.937,0,0,1,1.128,1.773c.039.088.077.178.112.269l9.658,24.435c.709,1.768.477,3.327-.448,3.865l1.594-.927C1387.575,463.766,1387.806,462.207,1387.1,460.439Z" transform="translate(-1370.334 -432.455)" fill="#efefef"/>
            <path id="Path_6885" data-name="Path 6885" d="M1385.36,461.518l-9.658-24.435a6.394,6.394,0,0,0-2.546-3.142,2.571,2.571,0,0,0-1.505-.4c-1.411.163-1.877,1.989-1.057,4.055l9.657,24.435a6.5,6.5,0,0,0,2.552,3.157,2.474,2.474,0,0,0,1.5.383C1385.713,465.438,1386.2,463.626,1385.36,461.518Z" transform="translate(-1370.191 -432.607)" fill="#e1e1e1"/>
          </g>
        </g>
      </g>
      <g id="Group_9131" data-name="Group 9131" transform="translate(143.271)">
        <path id="Path_6886" data-name="Path 6886" d="M1503.261,674.135,1400.906,375.273l139.921-80.638L1643.182,593.5Z" transform="translate(-1400.906 -288.461)" fill="#ffd95a" opacity="0.7"/>
        <path id="Path_6887" data-name="Path 6887" d="M1652.192,592.483l-139.921,80.64-47.412-305.034,139.921-80.64Z" transform="translate(-1409.915 -287.449)" fill="#35bab6" opacity="0.6"/>
        <g id="Group_9126" data-name="Group 9126" transform="translate(102.807 0.261)">
          <path id="Path_6888" data-name="Path 6888" d="M1660.491,593.986,1520.57,674.624V376.889l139.921-80.638Z" transform="translate(-1520.57 -288.949)" fill="#fcfcfc"/>
          <path id="Path_6889" data-name="Path 6889" d="M1660.491,312.955,1520.57,393.738v-25.2l139.921-80.784Z" transform="translate(-1520.57 -287.752)" fill="#35bab6"/>
        </g>
      </g>
    </g>
    <g id="Group_9135" data-name="Group 9135" transform="translate(1502.116 430.218)">
      <g id="Group_9134" data-name="Group 9134">
        <g id="Group_9133" data-name="Group 9133" style="isolation: isolate">
          <path id="Path_6896" data-name="Path 6896" d="M1639.2,454.417c-1.117-.651-2.665-.561-4.378.426l-81.783,47.218a13.533,13.533,0,0,0-6.132,10.635l.136,48.626c0,1.944.69,3.307,1.8,3.948l4.539,2.778c-1.107-.641-1.789-2.009-1.8-3.947l-.135-48.627a13.532,13.532,0,0,1,6.132-10.634l81.788-47.219c1.708-.987,3.256-1.077,4.373-.426Z" transform="translate(-1546.909 -454)" fill="#efefef"/>
          <g id="Group_9132" data-name="Group 9132" transform="translate(4.539 2.777)">
            <path id="Path_6897" data-name="Path 6897" d="M1558.324,505.294a13.532,13.532,0,0,0-6.132,10.634l.135,48.627c.016,3.907,2.776,5.479,6.177,3.516l56.821-32.8,2.485-1.438,28.878,9.976a2.127,2.127,0,0,0,2.634-2.882l-9.034-20.073a13.518,13.518,0,0,0,6.137-10.62l-.141-48.627c-.01-3.912-2.775-5.495-6.171-3.531Z" transform="translate(-1552.192 -457.232)" fill="#ffd95a"/>
          </g>
        </g>
      </g>
      <path id="Path_6898" data-name="Path 6898" d="M1587.794,522.325l7.813-4.51v1.864l-7.813,4.51Zm.747,8.832v-1.864l-6.1,3.522-4.015,2.317V537l4.015-2.318Zm-12.979,5.629-10,5.776v1.864l10-5.777Zm5.17-8.519,4.2-2.424v-1.865l-7.233,4.176-12.077,6.973v1.864l15.111-8.724Zm-11.852-.555,9.846-5.686v-1.864l-9.846,5.685-3.188,1.84v1.864l3.188-1.84Zm19.66-11.352,3.165-1.827v-1.864l-4.181,2.413-5.936,3.427v1.864l6.951-4.013Zm17.188-11.787-4.38,2.528v1.863l4.38-2.528Zm-7.242,4.181-3.771,2.178V512.8l3.771-2.178Zm7.315,3.176-7.193,4.152v1.865l7.193-4.153Zm25.028-14.45,7.814-4.51v1.864l-7.814,4.51Zm-29.183,24.247-10,5.776v1.865l10-5.777Zm22.122-18.305,4.2-2.424v-1.864l-7.233,4.175-12.077,6.974v1.863l15.111-8.724Zm-11.853-.556,9.847-5.686v-1.864L1611.915,501l-3.187,1.84V504.7l3.187-1.84Zm19.661-11.351,3.165-1.827v-1.864l-4.18,2.413-5.936,3.426v1.864l6.951-4.012Zm9.945-7.607-3.772,2.178v1.863l3.772-2.177Z" transform="translate(-1549.536 -458.213)" fill="#828282"/>
    </g>
  </g>
</svg>
