<svg id="phone_icon" data-name="phone icon" xmlns="http://www.w3.org/2000/svg" width="14.483" height="14.483" viewBox="0 0 14.483 14.483">
  <path id="Path_11169" data-name="Path 11169" d="M19.182,14.016l-3.481-.7a1.015,1.015,0,0,0-.82.248l-.629.629a.776.776,0,0,1-.974.08,17.327,17.327,0,0,1-2.015-1.642,17.383,17.383,0,0,1-1.642-2.016.777.777,0,0,1,.08-.974l.629-.629a1.013,1.013,0,0,0,.248-.82l-.7-3.481a.771.771,0,0,0-.727-.6H7.62c-.7,0-1.579,1.075-1.948,1.574a1.536,1.536,0,0,0-.239.545c-.176,1.04-.82,4.348,3.529,8.7s7.657,3.7,8.7,3.529a1.54,1.54,0,0,0,.544-.239c.5-.369,1.574-1.249,1.574-1.948V14.743A.772.772,0,0,0,19.182,14.016Z" transform="translate(-5.295 -4.12)" fill="#00a6a2"/>
</svg>
