<svg xmlns="http://www.w3.org/2000/svg" width="179.172" height="17" viewBox="0 0 179.172 17">
    <defs>
        <style>
            .cls-2{fill:#777}
        </style>
    </defs>
    <g id="Grupo_6597" transform="translate(-1359 -1030)">
        <text id="Powered_by" fill="#777" font-family="OpenSans-Regular, Open Sans" font-size="12px" transform="translate(1359 1043)">
            <tspan x="0" y="0">Powered by</tspan>
        </text>
        <g id="Grupo_6596" transform="translate(-.053 .202)">
            <path id="Path_1888" d="M235.35 478.5h-7.14v6.3h7.139v-2.216h-3.742v-1.691h5.93v3.441a2.722 2.722 0 0 1-.518 1.867 2.759 2.759 0 0 1-1.958.467h-6.794a3.092 3.092 0 0 1-1.958-.467 2.722 2.722 0 0 1-.518-1.867v-5.249a2 2 0 0 1 2.476-2.391h6.794a3 3 0 0 1 1.9.467 2.427 2.427 0 0 1 .518 1.75v.233l-2.245.408z" class="cls-2" transform="translate(1207.271 557.117)"/>
            <path id="Path_1889" d="M253.4 488.639v-8.846h7.255a2.268 2.268 0 0 1 1.439.379 1.764 1.764 0 0 1 .461 1.327v2.085a1.442 1.442 0 0 1-.461 1.264 1.939 1.939 0 0 1-1.439.379h-1.094l3.8 3.349h-2.821l-3.4-3.349h-1.84v3.349h-1.9zm6.449-7.33h-4.491v2.464h4.491a.968.968 0 0 0 .691-.19.617.617 0 0 0 .173-.569V482a1.087 1.087 0 0 0-.173-.569 2.652 2.652 0 0 0-.691-.126z" class="cls-2" transform="translate(1195.784 555.143)"/>
            <path id="Path_1890" d="M274.9 488.648V479.8h8.636v1.58h-6.621v1.9h3.858v1.517h-3.858v2.149h6.736v1.643H274.9z" class="cls-2" transform="translate(1186.836 555.136)"/>
            <path id="Path_1891" d="M295 488.648V479.8h8.636v1.58h-6.621v1.9h3.858v1.517h-3.858v2.149h6.736v1.643H295z" class="cls-2" transform="translate(1178.473 555.136)"/>
            <path id="Path_1892" d="M315.1 488.648V479.8h1.324l6.852 5.877V479.8h1.785v8.848h-1.382l-6.794-5.94v5.94z" class="cls-2" transform="translate(1170.12 555.136)"/>
            <path id="Path_1893" d="M339.9 486.666v-9.974h8.406a2.441 2.441 0 0 1 1.67.467 1.775 1.775 0 0 1 .518 1.458v1.225a1.592 1.592 0 0 1-.461 1.167 2.058 2.058 0 0 1-1.267.525 2.137 2.137 0 0 1 1.324.583 2.054 2.054 0 0 1 .461 1.283v1.283a1.574 1.574 0 0 1-.691 1.458 4.132 4.132 0 0 1-2.188.467zm7.427-8.341h-5.182v2.391h5.182a1.82 1.82 0 0 0 .806-.175.681.681 0 0 0 .23-.583v-.933a.571.571 0 0 0-.23-.525 1.818 1.818 0 0 0-.806-.175zm0 4.025h-5.182v2.508h5.182a1.449 1.449 0 0 0 .864-.175 1.027 1.027 0 0 0 .23-.7v-.758a1.027 1.027 0 0 0-.23-.7 1.362 1.362 0 0 0-.864-.175z" class="cls-2" transform="translate(1159.811 557.117)"/>
            <path id="Path_1894" d="M364.531 481.876a2.676 2.676 0 0 1 .4-1.643 2.331 2.331 0 0 1 1.67-.442h6.218a1.675 1.675 0 0 1 2.073 2.085v4.675a2.378 2.378 0 0 1-.461 1.643 2.262 2.262 0 0 1-1.67.442h-6.218a2.33 2.33 0 0 1-1.67-.442 2.087 2.087 0 0 1-.4-1.643zm1.958 5.054H373v-5.5h-6.506z" class="cls-2" transform="translate(1149.8 555.147)"/>
            <path id="Path_1895" d="M387.058 488.648l3.973-4.55L387 479.8h2.648l2.706 2.844 2.533-2.844h2.245l-3.685 4.045 4.548 4.8h-2.706l-3.109-3.286-2.821 3.286z" class="cls-2" transform="translate(1140.228 555.136)"/>
        </g>
    </g>
</svg>
