<svg xmlns="http://www.w3.org/2000/svg" width="174.354" height="22.05" viewBox="0 0 174.354 22.05">
  <g id="powered_by_greenbox_logo" data-name="powered by greenbox logo" transform="translate(-874.834 -971.033)">
    <g id="greenbox-logo-white" transform="translate(932 971.033)">
      <g id="Group_17921" data-name="Group 17921" transform="translate(0 10.659)">
        <path id="Path_34814" data-name="Path 34814" d="M13.008,61.81v-.22a2.629,2.629,0,0,0-.563-1.935,3.167,3.167,0,0,0-2.136-.535H2.7a3.149,3.149,0,0,0-2.149.544A2.857,2.857,0,0,0,0,61.693v5.818a2.857,2.857,0,0,0,.55,2.035,3.16,3.16,0,0,0,2.149.537h7.612a3.167,3.167,0,0,0,2.149-.537,2.857,2.857,0,0,0,.55-2.035V63.746H6.389v1.806h4.2v2.529H2.49V61.018h8.1v1.226Z" transform="translate(0 -59.12)" fill="#fff"/>
      </g>
      <path id="Path_34815" data-name="Path 34815" d="M95.52,77.123V67.66h8.093a2.484,2.484,0,0,1,1.633.434,1.755,1.755,0,0,1,.507,1.4v2.219a1.76,1.76,0,0,1-.507,1.4,2.473,2.473,0,0,1-1.633.438h-1.235l4.368,3.572h-3.16L99.773,73.55H97.687v3.572H95.52Zm7.116-7.825H97.685v2.632h4.951a1.326,1.326,0,0,0,.782-.166.706.706,0,0,0,.211-.586V70.042a.693.693,0,0,0-.211-.577A1.313,1.313,0,0,0,102.636,69.3Z" transform="translate(-78.299 -55.462)" fill="#fff"/>
      <path id="Path_34816" data-name="Path 34816" d="M177.05,77.123V67.66h9.687v1.612h-7.484v2.113h4.368V73h-4.368v2.346h7.574v1.781Z" transform="translate(-145.13 -55.462)" fill="#fff"/>
      <path id="Path_34817" data-name="Path 34817" d="M253.82,77.123V67.66h9.687v1.612h-7.484v2.113h4.368V73h-4.368v2.346H263.6v1.781Z" transform="translate(-208.059 -55.462)" fill="#fff"/>
      <path id="Path_34818" data-name="Path 34818" d="M330.49,77.123V67.66h1.5l6.66,5.578c.227.186.427.359.6.523a5.63,5.63,0,0,1,.474.507c-.036-.532-.059-.907-.072-1.129s-.018-.391-.018-.51V67.66h1.978v9.463h-1.5l-6.947-5.847c-.168-.15-.314-.283-.438-.4a4.769,4.769,0,0,1-.35-.368c.031.292.052.568.067.828s.022.485.022.676v5.111H330.49Z" transform="translate(-270.906 -55.462)" fill="#fff"/>
      <g id="Group_17922" data-name="Group 17922" transform="translate(75.977 10.66)">
        <path id="Path_34819" data-name="Path 34819" d="M432.859,65.143a2.326,2.326,0,0,0-1.446-.667l-.294-.04.294-.036a2.373,2.373,0,0,0,1.39-.577,1.66,1.66,0,0,0,.476-1.244V61.232a2.016,2.016,0,0,0-.572-1.6,2.811,2.811,0,0,0-1.864-.5H421.42V70.093h8.733a4.455,4.455,0,0,0,2.423-.526,1.79,1.79,0,0,0,.788-1.6V66.562A1.982,1.982,0,0,0,432.859,65.143Zm-8.986-4.294h5.9a1.7,1.7,0,0,1,.947.189.738.738,0,0,1,.272.642v1.046a.727.727,0,0,1-.276.647,1.724,1.724,0,0,1-.945.184h-5.9V60.848Zm7.177,6.3a1.029,1.029,0,0,1-.269.8,1.605,1.605,0,0,1-1.011.229h-5.9V65.3h5.9a1.636,1.636,0,0,1,1.011.224,1.007,1.007,0,0,1,.269.8Z" transform="translate(-421.42 -59.13)" fill="#fff"/>
      </g>
      <path id="Path_34820" data-name="Path 34820" d="M508.53,69.9a2.459,2.459,0,0,1,.483-1.763,2.706,2.706,0,0,1,1.862-.474h5.693a2.706,2.706,0,0,1,1.862.474,2.462,2.462,0,0,1,.483,1.763v4.987a2.463,2.463,0,0,1-.483,1.769,2.717,2.717,0,0,1-1.862.471h-5.693a2.718,2.718,0,0,1-1.862-.471,2.463,2.463,0,0,1-.483-1.769Zm2.2,5.445h5.989V69.353h-5.989Z" transform="translate(-416.848 -55.462)" fill="#fff"/>
      <path id="Path_34821" data-name="Path 34821" d="M581.709,77.132l4.486-4.861-4.565-4.6h2.919l3.025,3.215,2.874-3.215h2.533l-4.127,4.349,5.1,5.111h-2.991L587.5,73.461l-3.2,3.671Z" transform="translate(-476.768 -55.47)" fill="#fff"/>
      <path id="Path_34822" data-name="Path 34822" d="M546.03,27.343a1.381,1.381,0,0,1,.27-.988,1.517,1.517,0,0,1,1.044-.265h3.191a1.516,1.516,0,0,1,1.044.265,1.381,1.381,0,0,1,.27.988v2.794a1.385,1.385,0,0,1-.27.992,1.527,1.527,0,0,1-1.044.263h-3.191a1.527,1.527,0,0,1-1.044-.263,1.383,1.383,0,0,1-.27-.992Zm1.233,3.05h3.357V27.037h-3.357Z" transform="translate(-447.587 -21.386)" fill="#fff"/>
      <path id="Path_34823" data-name="Path 34823" d="M590.47,14.814a.987.987,0,0,1,.193-.7,1.08,1.08,0,0,1,.745-.189h2.277a1.083,1.083,0,0,1,.745.189.99.99,0,0,1,.193.7v1.994a.987.987,0,0,1-.193.707,1.09,1.09,0,0,1-.745.188h-2.277a1.094,1.094,0,0,1-.745-.188.987.987,0,0,1-.193-.707Zm.88,2.176h2.394V14.6H591.35Z" transform="translate(-484.015 -11.41)" fill="#fff"/>
      <path id="Path_34824" data-name="Path 34824" d="M569.11.593a.654.654,0,0,1,.128-.467A.721.721,0,0,1,569.732,0h1.509a.715.715,0,0,1,.494.126.658.658,0,0,1,.128.467V1.915a.657.657,0,0,1-.128.469.722.722,0,0,1-.494.124h-1.509a.725.725,0,0,1-.494-.124.657.657,0,0,1-.128-.469Zm.584,1.444h1.588V.449h-1.588Z" transform="translate(-466.506)" fill="#fff"/>
    </g>
    <path id="Path_34825" data-name="Path 34825" d="M4.682-4.3a1.7,1.7,0,0,1-.629,1.417,2.848,2.848,0,0,1-1.8.5H1.54V0H.834V-6.068H2.407Q4.682-6.068,4.682-4.3ZM1.54-2.992h.635a2.36,2.36,0,0,0,1.357-.3,1.117,1.117,0,0,0,.419-.971,1.047,1.047,0,0,0-.394-.9,2.06,2.06,0,0,0-1.229-.295H1.54Zm9.679-.05a3.341,3.341,0,0,1-.737,2.291A2.59,2.59,0,0,1,8.434.083a2.623,2.623,0,0,1-2.069-.82,3.368,3.368,0,0,1-.728-2.314,3.326,3.326,0,0,1,.73-2.3,2.641,2.641,0,0,1,2.075-.816,2.585,2.585,0,0,1,2.042.83A3.337,3.337,0,0,1,11.219-3.042Zm-4.835,0a2.88,2.88,0,0,0,.525,1.87,1.863,1.863,0,0,0,1.525.637A1.845,1.845,0,0,0,9.957-1.17a2.92,2.92,0,0,0,.515-1.872A2.9,2.9,0,0,0,9.959-4.9a1.837,1.837,0,0,0-1.517-.633A1.873,1.873,0,0,0,6.908-4.9,2.85,2.85,0,0,0,6.383-3.042ZM17.784,0h-.7L15.863-4.063q-.087-.27-.2-.681a3.97,3.97,0,0,1-.112-.494,9.451,9.451,0,0,1-.291,1.2L14.078,0h-.7L11.766-6.068h.747l.959,3.748a13.938,13.938,0,0,1,.291,1.428,10.311,10.311,0,0,1,.332-1.486l1.087-3.69h.747l1.141,3.723a11.317,11.317,0,0,1,.336,1.453,12.444,12.444,0,0,1,.3-1.436l.955-3.74h.747ZM23.74,0H20.358V-6.068H23.74v.627H21.063v1.955h2.515v.623H21.063V-.631H23.74Zm2.05-2.523V0h-.706V-6.068h1.664a2.619,2.619,0,0,1,1.65.427,1.55,1.55,0,0,1,.533,1.287,1.612,1.612,0,0,1-1.22,1.627L29.36,0h-.834L27.056-2.523Zm0-.606h.967a1.67,1.67,0,0,0,1.1-.3,1.1,1.1,0,0,0,.349-.89,1.013,1.013,0,0,0-.355-.867,1.922,1.922,0,0,0-1.139-.266h-.917ZM33.722,0H30.339V-6.068h3.383v.627H31.045v1.955H33.56v.623H31.045V-.631h2.677ZM39.91-3.092a3.063,3.063,0,0,1-.816,2.3A3.227,3.227,0,0,1,36.748,0H35.067V-6.068h1.859a2.974,2.974,0,0,1,2.2.784A2.962,2.962,0,0,1,39.91-3.092Zm-.747.025a2.443,2.443,0,0,0-.6-1.789,2.387,2.387,0,0,0-1.77-.6H35.772V-.61h.859a2.612,2.612,0,0,0,1.9-.62A2.457,2.457,0,0,0,39.163-3.067Zm4.308-3h1.714a3.234,3.234,0,0,1,1.747.361,1.275,1.275,0,0,1,.54,1.141,1.319,1.319,0,0,1-.3.89,1.449,1.449,0,0,1-.878.454v.042q1.382.237,1.382,1.453a1.56,1.56,0,0,1-.55,1.27A2.341,2.341,0,0,1,45.588,0H43.471Zm.706,2.6h1.162A1.892,1.892,0,0,0,46.414-3.7a.905.905,0,0,0,.328-.791.8.8,0,0,0-.365-.737,2.282,2.282,0,0,0-1.162-.226H44.177Zm0,.6V-.6h1.266a1.8,1.8,0,0,0,1.106-.284,1.05,1.05,0,0,0,.371-.89.943.943,0,0,0-.38-.83,2.03,2.03,0,0,0-1.156-.266Zm6.263-.162,1.619-3.034h.764L50.8-2.353V0h-.714V-2.32L48.062-6.068h.772Z" transform="translate(874 993)" fill="#fff"/>
  </g>
</svg>
