<svg xmlns="http://www.w3.org/2000/svg" width="54.664" height="22.53" viewBox="0 0 54.664 22.53">
  <g id="received_icon" data-name="received icon" transform="translate(-10.953 -33.983)" stroke="#00a6a2" fill="#00a6a2">
    <path d="M 42.37495803833008 56.36238861083984 C 42.37492752075195 56.36238861083984 42.37492752075195 56.36238861083984 42.37489700317383 56.36238861083984 C 41.97121429443359 56.36238098144531 41.57540512084961 56.28913116455078 41.19845581054688 56.14466857910156 L 28.20147323608398 51.15155029296875 L 24.50684547424316 51.15155029296875 L 24.50684547424316 52.19475936889648 C 24.50688552856445 52.46775054931641 24.40059471130371 52.72443008422852 24.20755577087402 52.9174919128418 C 24.0145149230957 53.11054992675781 23.75783538818359 53.21686935424805 23.48479461669922 53.21688079833984 L 12.12504577636719 53.21686935424805 C 11.8520450592041 53.21691131591797 11.59537506103516 53.11061859130859 11.40231513977051 52.91757965087891 C 11.20925521850586 52.72454071044922 11.10293579101562 52.46786117553711 11.10293579101562 52.19482040405273 L 11.10293579101562 35.15483093261719 C 11.10288524627686 34.88183975219727 11.20917510986328 34.62516021728516 11.40222549438477 34.43209838867188 C 11.59526538848877 34.23904037475586 11.8519458770752 34.13272094726562 12.12498569488525 34.13272094726562 L 23.48472595214844 34.13272094726562 C 23.75771522521973 34.13267135620117 24.01439476013184 34.23896026611328 24.20746612548828 34.43199920654297 C 24.40052604675293 34.62504959106445 24.50684547424316 34.88172912597656 24.50684547424316 35.15475845336914 L 24.50684547424316 36.69300079345703 L 30.88632583618164 36.69298934936523 C 30.98206520080566 36.69305038452148 31.07712554931641 36.70648193359375 31.16897583007812 36.73291015625 L 40.08442687988281 39.29653167724609 L 46.49532699584961 39.2965202331543 C 48.41523361206055 39.29864883422852 49.97879409790039 40.86220932006836 49.98092651367188 42.78195190429688 L 49.98092651367188 42.7846794128418 L 49.9808349609375 42.78739929199219 C 49.9783821105957 42.85711288452148 49.97375869750977 42.92707443237305 49.96701049804688 42.99684906005859 L 60.96003723144531 39.56328201293945 C 61.29685592651367 39.4580192565918 61.64528656005859 39.40464019775391 61.99562454223633 39.40464019775391 C 63.41263580322266 39.40464019775391 64.67401885986328 40.25302124023438 65.20913696289062 41.56599044799805 C 65.53837585449219 42.37382888793945 65.55209350585938 43.26897048950195 65.24778747558594 44.08652114868164 C 64.94346618652344 44.90407943725586 64.3477783203125 45.57238006591797 63.5704460144043 45.96831893920898 L 43.86552429199219 56.00506973266602 C 43.40593338012695 56.23884582519531 42.89050674438477 56.36238861083984 42.37495803833008 56.36238861083984 Z M 24.50684547424316 49.10746002197266 L 28.39076614379883 49.10746002197266 C 28.51647567749023 49.10747909545898 28.63973617553711 49.13029861450195 28.75714492797852 49.17528915405273 L 41.93134689331055 54.23630142211914 C 42.07366561889648 54.29098892211914 42.22309494018555 54.31872177124023 42.37548446655273 54.31871032714844 C 42.57000732421875 54.31869888305664 42.764404296875 54.27202987670898 42.93767547607422 54.18373870849609 L 62.64266586303711 44.14696884155273 C 62.99920654296875 43.96731185913086 63.26358413696289 43.64390182495117 63.36859512329102 43.25936889648438 C 63.50937652587891 42.75473022460938 63.36334609985352 42.21557998657227 62.98772430419922 41.85152053833008 C 62.72023391723633 41.59228897094727 62.36775588989258 41.44952011108398 61.99522399902344 41.44952011108398 C 61.85077667236328 41.44952011108398 61.70750427246094 41.47143936157227 61.56939697265625 41.51467895507812 L 48.55216217041016 45.5806999206543 C 47.96187591552734 46.02161026000977 47.23274612426758 46.26539993286133 46.49581527709961 46.26773834228516 L 37.24410629272461 46.26773071289062 C 36.77031707763672 46.26826095581055 36.38429641723633 46.65428924560547 36.38376617431641 47.12826156616211 L 36.38376617431641 47.54776000976562 C 36.38376617431641 48.11132049560547 35.92527389526367 48.56980895996094 35.36171722412109 48.56980895996094 C 34.79815673828125 48.56980895996094 34.33966445922852 48.11132049560547 34.33966445922852 47.54776000976562 L 34.33965682983398 47.12807846069336 C 34.34150695800781 45.5283317565918 35.64435577392578 44.22547912597656 37.24393463134766 44.22364044189453 L 46.49532699584961 44.22364044189453 C 47.29017639160156 44.22364044189453 47.93682479858398 43.57699203491211 47.93682479858398 42.78213882446289 C 47.93682479858398 41.98730087280273 47.29017639160156 41.34064865112305 46.49532699584961 41.34064865112305 L 39.94064712524414 41.34064865112305 C 39.84493637084961 41.34059906005859 39.7498664855957 41.32717895507812 39.65798568725586 41.30073928833008 L 30.74254417419434 38.73709869384766 L 24.50684547424316 38.73709869384766 L 24.50684547424316 49.10746002197266 Z M 13.14703559875488 51.17277908325195 L 22.46274566650391 51.17277908325195 L 22.46273612976074 36.17681121826172 L 13.14703559875488 36.17681121826172 L 13.14703559875488 51.17277908325195 Z" stroke="none"/>
    <path d="M 12.12498474121094 34.28271102905273 C 11.64327239990234 34.28271102905273 11.25285339355469 34.67319107055664 11.25292205810547 35.15483093261719 L 11.25292205810547 52.19482040405273 C 11.25292205810547 52.67652130126953 11.64340209960938 53.06694030761719 12.12504577636719 53.06687164306641 L 23.48478698730469 53.06687164306641 C 23.96649551391602 53.06687164306641 24.35690689086914 52.6763916015625 24.35684585571289 52.19475936889648 L 24.35684585571289 51.00154876708984 L 28.22928619384766 51.00154876708984 L 41.25213623046875 56.00460052490234 C 42.08119201660156 56.32232666015625 43.00607299804688 56.27394104003906 43.79744720458984 55.87141036987305 L 63.50236511230469 45.83465957641602 C 65.04012298583984 45.0513801574707 65.72154235839844 43.22071838378906 65.07021331787109 41.62260055541992 C 64.41889953613281 40.02449417114258 62.65195083618164 39.19169998168945 61.00475692749023 39.70645904541016 L 49.78766632080078 43.21001052856445 C 49.81142425537109 43.0684814453125 49.82587432861328 42.92554092407227 49.83092498779297 42.78211975097656 C 49.82888793945312 40.94076156616211 48.33667755126953 39.44855880737305 46.49532318115234 39.4465217590332 L 40.06328582763672 39.44652938842773 L 31.12749481201172 36.87705993652344 C 31.04909515380859 36.85449981689453 30.9679069519043 36.84304046630859 30.88632583618164 36.84299087524414 L 24.35684585571289 36.84299850463867 L 24.35684585571289 35.15475845336914 C 24.35684585571289 34.67306137084961 23.96636581420898 34.28263854980469 23.48472595214844 34.28271102905273 L 12.12498474121094 34.28271102905273 M 22.61274719238281 51.32278060913086 L 12.99703598022461 51.32278060913086 L 12.99703598022461 36.02680969238281 L 22.61273574829102 36.02680969238281 L 22.61274719238281 51.32278060913086 M 46.49532318115234 44.37364196777344 L 37.24410629272461 44.37364196777344 C 35.72359466552734 44.37538909912109 34.49141693115234 45.60757064819336 34.48965454101562 47.12807846069336 L 34.48966598510742 47.54776000976562 C 34.48966598510742 48.02938079833984 34.88008499145508 48.4198112487793 35.36171722412109 48.4198112487793 C 35.84333419799805 48.4198112487793 36.2337646484375 48.02938079833984 36.2337646484375 47.54776000976562 L 36.2337646484375 47.12808990478516 C 36.2343864440918 46.57033920288086 36.68637466430664 46.11835098266602 37.24410629272461 46.11772918701172 L 46.49533462524414 46.11774063110352 C 47.2132453918457 46.11545944213867 47.91087341308594 45.87939071655273 48.4826545715332 45.44525909423828 L 61.52458572387695 41.37152862548828 C 62.07583236694336 41.19895935058594 62.67731475830078 41.3418083190918 63.09210586547852 41.74380874633789 C 63.50689697265625 42.14580154418945 63.66850662231445 42.74253082275391 63.51326751708984 43.29891204833984 L 63.5132942199707 43.29888916015625 C 63.39691543579102 43.72505187988281 63.10524749755859 44.08184051513672 62.71074676513672 44.28063201904297 L 43.00577545166016 54.31739044189453 C 42.65506362915039 54.49609756469727 42.24497222900391 54.51751708984375 41.87755584716797 54.37631988525391 L 28.70347595214844 49.31536102294922 C 28.60364532470703 49.2771110534668 28.49765396118164 49.25748062133789 28.39076614379883 49.25746154785156 L 24.35684585571289 49.25746154785156 L 24.35684585571289 38.58710098266602 L 30.76368713378906 38.58710098266602 L 39.69946670532227 41.15658950805664 C 39.77787399291992 41.17914962768555 39.85905456542969 41.19060897827148 39.94064712524414 41.19065093994141 L 46.49532318115234 41.19065093994141 C 47.37428283691406 41.19065093994141 48.08682632446289 41.90319061279297 48.08682632446289 42.78213882446289 C 48.08682632446289 43.66109848022461 47.37428283691406 44.37364196777344 46.49532318115234 44.37364196777344 M 12.12498474121094 33.98271179199219 L 23.48472595214844 33.98271179199219 C 23.79777526855469 33.98265838623047 24.09212493896484 34.10456085205078 24.31352615356445 34.32593154907227 C 24.53491592407227 34.54729843139648 24.65684509277344 34.84165191650391 24.65684509277344 35.15475845336914 L 24.65684509277344 36.54299926757812 L 30.88632583618164 36.54299163818359 C 30.99615478515625 36.54306030273438 31.10514450073242 36.5584602355957 31.21045684814453 36.58876037597656 L 40.10557556152344 39.14653015136719 L 46.49532318115234 39.14651870727539 C 48.4979362487793 39.14873886108398 50.12870788574219 40.77951049804688 50.13092803955078 42.78179168701172 L 50.13093566894531 42.7872314453125 L 50.13088989257812 42.78851318359375 L 60.91531372070312 39.42010116577148 C 61.26662445068359 39.31031036376953 61.63007354736328 39.254638671875 61.99552536010742 39.254638671875 C 63.47394561767578 39.25473022460938 64.78982543945312 40.1397705078125 65.3480224609375 41.50936889648438 C 65.69150543212891 42.35213088989258 65.70582580566406 43.28596115112305 65.38835144042969 44.13885116577148 C 65.07088470458984 44.99174118041992 64.44945526123047 45.68891906738281 63.63852691650391 46.10198211669922 L 43.9336051940918 56.13872909545898 C 43.45297622680664 56.38320922851562 42.91402435302734 56.51239013671875 42.37489700317383 56.51239013671875 C 41.95282363891602 56.51239013671875 41.53895568847656 56.43579864501953 41.144775390625 56.28472900390625 L 28.17362594604492 51.30155181884766 L 24.65684509277344 51.30155181884766 L 24.65684509277344 52.19475936889648 C 24.65688705444336 52.50780868530273 24.53499603271484 52.80215835571289 24.31362533569336 53.02355194091797 C 24.09224700927734 53.24494171142578 23.79789733886719 53.36687088012695 23.48478698730469 53.36687088012695 L 12.12504577636719 53.36687088012695 C 11.81199645996094 53.36692047119141 11.51764678955078 53.24502182006836 11.29624176025391 53.02365112304688 C 11.07485198974609 52.80228042602539 10.95292663574219 52.50793075561523 10.95292663574219 52.19482040405273 L 10.95292663574219 35.15483093261719 C 10.95287322998047 34.84178161621094 11.07477569580078 34.54743194580078 11.296142578125 34.32603073120117 C 11.51751708984375 34.10464096069336 11.81187438964844 33.98271179199219 12.12498474121094 33.98271179199219 Z M 22.31273651123047 36.32680892944336 L 13.29703521728516 36.32680892944336 L 13.29703521728516 51.02278137207031 L 22.312744140625 51.02278137207031 L 22.31273651123047 36.32680892944336 Z M 30.72139358520508 38.88710021972656 L 24.65684509277344 38.88710021972656 L 24.65684509277344 48.95745849609375 L 28.39076614379883 48.95745849609375 C 28.53491592407227 48.95748901367188 28.67621612548828 48.98365020751953 28.81081390380859 49.03522109985352 L 41.98513412475586 54.09627151489258 C 42.26988983154297 54.20569229125977 42.59797668457031 54.18848419189453 42.86956405639648 54.05009078979492 L 62.5745849609375 44.01330947875977 C 62.89381408691406 43.85243988037109 63.13005447387695 43.56344985961914 63.22389602661133 43.2198600769043 C 63.35010528564453 42.76742172241211 63.21944427490234 42.28498840332031 62.88332366943359 41.9592399597168 C 62.64395523071289 41.72724914550781 62.32856750488281 41.5994987487793 61.99523544311523 41.59952163696289 C 61.86597442626953 41.59952926635742 61.73777770996094 41.6191520690918 61.61421585083008 41.65782928466797 L 48.62105941772461 45.71632766723633 C 48.00888442993164 46.16660308837891 47.25653076171875 46.41532516479492 46.49628448486328 46.41773986816406 L 37.24410629272461 46.41772842407227 C 36.85300445556641 46.41815948486328 36.53419494628906 46.73698043823242 36.53376388549805 47.12842178344727 L 36.53376388549805 47.54776000976562 C 36.53376388549805 48.19403076171875 36.00798416137695 48.71981048583984 35.36171722412109 48.71981048583984 C 34.71544647216797 48.71981048583984 34.18966674804688 48.19403076171875 34.18966674804688 47.54776000976562 L 34.18965530395508 47.12808990478516 C 34.19160461425781 45.44564056396484 35.56166458129883 44.07558059692383 37.24375534057617 44.07363891601562 L 46.49532318115234 44.07363891601562 C 47.20746612548828 44.07363891601562 47.78682708740234 43.49428176879883 47.78682708740234 42.78213882446289 C 47.78682708740234 42.07001113891602 47.20746612548828 41.49065017700195 46.49532318115234 41.49065017700195 L 39.94064712524414 41.49065017700195 C 39.83085632324219 41.4906005859375 39.72185516357422 41.47520065307617 39.61651611328125 41.44488906860352 L 30.72139358520508 38.88710021972656 Z" stroke="none" fill="#00a6a2"/>
  </g>
</svg>
