<svg xmlns="http://www.w3.org/2000/svg" width="18.743" height="18.502" viewBox="0 0 18.743 18.502">
  <g id="reload" transform="translate(0.389 0.25)">
    <g id="Group_17787" data-name="Group 17787">
      <path id="Path_34898" data-name="Path 34898" d="M10.594,1.482a.732.732,0,0,1-.8.687,7.513,7.513,0,0,0-5.029,13.5l-.018-1.609a.766.766,0,0,1,.764-.764.783.783,0,0,1,.764.727l.037,3.824a.712.712,0,0,1-.727.764l-3.821.037a.733.733,0,0,1-.764-.727.712.712,0,0,1,.727-.764l2.513-.033A8.993,8.993,0,0,1,9.256.677h.65A.735.735,0,0,1,10.594,1.482Z" transform="translate(-0.262 -0.677)" stroke="#707070" stroke-width="0.5"/>
      <path id="Path_34899" data-name="Path 34899" d="M217.444,1.488l-2.19.026a8.969,8.969,0,0,1,3.222,10.07,8.907,8.907,0,0,1-9.177,6.161.748.748,0,1,1,.118-1.492A7.5,7.5,0,0,0,214.4,2.744l.022,1.844a.746.746,0,0,1-1.492.037L212.9.8a.712.712,0,0,1,.727-.764L217.448,0a.7.7,0,0,1,.727.727A.713.713,0,0,1,217.444,1.488Z" transform="translate(-200.955 0.232)" stroke="#707070" stroke-width="0.5"/>
    </g>
  </g>
</svg>
