<svg xmlns="http://www.w3.org/2000/svg" width="43.599" height="42.979" viewBox="0 0 60.599 36.979">
  <defs>
    <style>.a{fill:#00908c;stroke:#00908c;stroke-linecap:round;stroke-linejoin:round;stroke-width:0.8px;}</style>
  </defs>
  <g transform="translate(0.423 0.406)">
    <path class="a" d="M431.359,240.364l-1.448-7.971a.877.877,0,1,0-1.727.314l1.449,7.973a2.925,2.925,0,0,1-2.352,3.405l-5.649,1.058a.878.878,0,0,0,.161,1.74c.053,0,5.808-1.072,5.808-1.072a4.68,4.68,0,0,0,3.759-5.446Z" transform="translate(-371.668 -216.364)" />
    <path class="a" d="M140.661,130.355l-19.447,3.569a2.929,2.929,0,0,1-3.406-2.349l-2.946-16.056a2.929,2.929,0,0,1,2.349-3.406l29.238-5.366a2.926,2.926,0,0,1,3.4,2.349l.746,4.069a.877.877,0,1,0,1.726-.317l-.747-4.069a4.681,4.681,0,0,0-5.448-3.758l-.083.015-.133-.723a4.238,4.238,0,0,0-4.935-3.4l-30.106,5.524a4.244,4.244,0,0,0-3.4,4.935l3.105,16.925a4.237,4.237,0,0,0,4.935,3.4l.517-.095.053.29a4.678,4.678,0,0,0,5.449,3.758l19.447-3.569a.877.877,0,0,0-.317-1.726ZM115.2,129.97a2.486,2.486,0,0,1-2.892-1.994L109.2,111.051a2.487,2.487,0,0,1,1.994-2.892l30.106-5.524a2.483,2.483,0,0,1,2.892,1.994l.133.723-27.428,5.034a4.686,4.686,0,0,0-3.759,5.449l2.576,14.04Z" transform="translate(-94.836 -100.838)" />
    <path class="a" d="M267.014,208.96a7.754,7.754,0,1,0,7.754-7.754A7.763,7.763,0,0,0,267.014,208.96Zm13.753,0a6,6,0,1,1-6-6A6.006,6.006,0,0,1,280.767,208.96Z" transform="translate(-235.773 -189.463)" />
    <path class="a" d="M1.086,291.985l5.292-1.294a.877.877,0,1,0-.417-1.7L.669,290.28a.878.878,0,1,0,.417,1.7Z" transform="translate(0 -266.95)" />
    <path class="a" d="M64.589,369.726,59.3,371.02a.878.878,0,1,0,.417,1.7l5.292-1.294a.878.878,0,0,0-.417-1.7Z" transform="translate(-51.768 -338.244)" />
    <path class="a" d="M20.951,324.164l-8.232,2.117a.877.877,0,1,0,.437,1.7l8.232-2.117a.878.878,0,0,0-.437-1.7Z" transform="translate(-10.65 -298.01)" />
    <path class="a" d="M82.286,280.69a.872.872,0,0,0,.2-.024L83.6,280.4a.877.877,0,1,0-.4-1.708l-1.112.263a.878.878,0,0,0,.2,1.732Z" transform="translate(-71.884 -257.864)" />
    <path class="a" d="M7.873,391.005l-2,.47a.878.878,0,1,0,.4,1.708l2-.47a.878.878,0,0,0-.4-1.708Z" transform="translate(-4.589 -357.035)" />
  </g>
</svg>