<svg xmlns="http://www.w3.org/2000/svg" width="82.6" height="64" viewBox="0 0 82.6 64"><defs><style>.a{fill:#ccc;}.b{fill:#07996a;}</style></defs><g transform="translate(0 -57.647)"><g transform="translate(0 57.647)"><path class="a" d="M82.081,79.4,79.93,75.672a1.613,1.613,0,1,0-2.794,1.613l2.152,3.727a.629.629,0,0,1-.23.86l-5.69,3.285a.631.631,0,0,1-.86-.231L61.061,65.1a.631.631,0,0,1,.231-.86l5.689-3.285a.631.631,0,0,1,.86.23l2.035,3.524A1.613,1.613,0,0,0,72.67,63.1l-2.035-3.524a3.86,3.86,0,0,0-5.268-1.411l-5.69,3.285a3.842,3.842,0,0,0-1.744,2.168H41.806A8.423,8.423,0,0,0,35.811,66.1l-1.653,1.653a19.086,19.086,0,0,0-4.426-.523H24.724a3.844,3.844,0,0,0-1.8-2.374l-5.69-3.285a3.856,3.856,0,0,0-5.268,1.411L.518,82.806A3.856,3.856,0,0,0,1.93,88.073l5.69,3.285a3.832,3.832,0,0,0,1.922.516,3.881,3.881,0,0,0,.708-.066l4.657,4.657a5.868,5.868,0,0,0-.108,1.123,5.8,5.8,0,0,0,5.481,5.791,5.893,5.893,0,0,0-.033.613,5.8,5.8,0,0,0,5.8,5.8c.042,0,.084,0,.126,0,0,.042,0,.084,0,.126a5.8,5.8,0,0,0,5.8,5.8c.042,0,.084,0,.126,0,0,.042,0,.084,0,.126a5.8,5.8,0,0,0,9.907,4.1l2.295-2.295a5.767,5.767,0,0,0,1.417-2.321,5.808,5.808,0,0,0,8.987-2.949,5.806,5.806,0,0,0,8.852-3.693,5.8,5.8,0,0,0,5.934-9.613l-3.765-3.765L72.6,88.438a3.885,3.885,0,0,0,.461.029,3.833,3.833,0,0,0,1.922-.516l5.69-3.285A3.856,3.856,0,0,0,82.081,79.4ZM3.543,85.279a.63.63,0,0,1-.23-.86L14.758,64.594a.627.627,0,0,1,.382-.293.647.647,0,0,1,.165-.021.621.621,0,0,1,.313.084l5.69,3.285a.631.631,0,0,1,.231.86L10.092,88.334a.631.631,0,0,1-.86.231ZM18.024,97.587a2.56,2.56,0,0,1,.755-1.822l1.392-1.392a2.577,2.577,0,1,1,3.645,3.645l-1.392,1.392a2.577,2.577,0,0,1-4.4-1.822Zm8.026,8.981a2.577,2.577,0,0,1-1.822-4.4l2.295-2.295a2.577,2.577,0,1,1,3.645,3.645l-2.295,2.295A2.56,2.56,0,0,1,26.05,106.568Zm5.926,5.926a2.577,2.577,0,0,1-1.822-4.4l2.295-2.295a2.577,2.577,0,1,1,3.645,3.645L33.8,111.74A2.56,2.56,0,0,1,31.976,112.495Zm10.043,2.877-2.295,2.295a2.577,2.577,0,1,1-3.645-3.645l2.295-2.295a2.577,2.577,0,1,1,3.645,3.645ZM67.209,105a2.577,2.577,0,0,1-3.645,0l-15.4-15.4a1.613,1.613,0,0,0-2.282,2.281L59.694,105.7a2.577,2.577,0,1,1-3.645,3.645L39.455,92.746a1.613,1.613,0,0,0-2.282,2.281l13.809,13.809a2.577,2.577,0,1,1-3.645,3.645L44.3,109.445l-.013-.012a5.785,5.785,0,0,0-4.217-1.682c0-.043,0-.085,0-.128a5.8,5.8,0,0,0-5.929-5.8c0-.043,0-.085,0-.128a5.8,5.8,0,0,0-6.358-5.775,5.8,5.8,0,0,0-9.9-3.831L16.5,93.484l0,0L12.91,89.906,24.14,70.455h5.591a15.842,15.842,0,0,1,1.638.085l-1.844,1.844a5.8,5.8,0,0,0,8.208,8.208l4.355-4.355,25.121,25.121a2.58,2.58,0,0,1,0,3.645ZM51.709,81.3a9.155,9.155,0,0,0,3.787-7.42,1.613,1.613,0,1,0-3.226,0,5.928,5.928,0,0,1-2.889,5.091l-6.144-6.144a1.612,1.612,0,0,0-2.28-.016l-5.5,5.5a2.577,2.577,0,1,1-3.645-3.645l6.286-6.286a5.217,5.217,0,0,1,3.713-1.538H58.34l11.372,19.7c.027.047.056.091.085.136L63.444,93.03Z" transform="translate(0 -57.647)"/><path class="b" d="M455.921,128.64a1.614,1.614,0,1,0-1.141-.473A1.628,1.628,0,0,0,455.921,128.64Z" transform="translate(-381.018 -114.482)"/></g></g></svg>