<svg xmlns="http://www.w3.org/2000/svg" width="34.359" height="34.335" viewBox="0 0 34.359 34.335">
  <g id="Signet_icon" data-name="Signet icon" transform="translate(0.25 0.25)">
    <g id="Group_7626" data-name="Group 7626" transform="translate(0 0)">
      <g id="Group_7625" data-name="Group 7625" transform="translate(0 0)">
        <path id="Path_5615" data-name="Path 5615" d="M33.236,13.057a.564.564,0,0,0,.564-.564L33.822,9.6c0-.007,0-.013,0-.02a.556.556,0,0,0-.037-.18.034.034,0,0,0-.005-.021.564.564,0,0,0-.113-.166.637.637,0,0,0-.052-.042.567.567,0,0,0-.082-.064L17.176.086a.56.56,0,0,0-.545,0L.278,9.108A.567.567,0,0,0,.2,9.172a.637.637,0,0,0-.052.042.564.564,0,0,0-.113.166A.034.034,0,0,1,.026,9.4a.556.556,0,0,0-.037.18c0,.007,0,.013,0,.02l-.022,2.892a.564.564,0,0,0,.564.564H2.221l.022,16.281H.551a.564.564,0,0,0-.564.564v3.383a.564.564,0,0,0,.564.564H33.258a.564.564,0,0,0,.564-.564V29.9a.564.564,0,0,0-.564-.564H31.566l-.022-16.281ZM16.9,1.223l13.534,7.5H3.371Zm15.79,29.243v2.256H1.115V30.466ZM3.371,29.339,3.349,13.057H5.6l.022,16.281Zm3.383,0L6.732,13.057h20.3l.022,16.281Zm21.429,0-.022-16.281h2.256l.022,16.281ZM1.093,11.93l.022-1.947H32.694l-.022,1.947Z" transform="translate(0.037 -0.015)" fill="#00a6a2"/>
        <path id="Path_5615_-_Outline" data-name="Path 5615 - Outline" d="M16.9-.235a.812.812,0,0,1,.394.1L33.665,8.9a.82.82,0,0,1,.1.081c.02.015.04.031.059.048l.013.012A.811.811,0,0,1,34,9.265a.272.272,0,0,1,.028.078.8.8,0,0,1,.041.2.271.271,0,0,1,.005.054L34.05,12.5a.814.814,0,0,1-.814.812H31.795l.021,15.781h1.442a.815.815,0,0,1,.814.814v3.383a.815.815,0,0,1-.814.814H.551a.815.815,0,0,1-.814-.814V29.9a.815.815,0,0,1,.814-.814H1.993L1.971,13.307H.527a.815.815,0,0,1-.814-.814L-.265,9.6a.26.26,0,0,1,.005-.052.8.8,0,0,1,.04-.2V9.328L-.2,9.278a.811.811,0,0,1,.163-.239l.013-.012C0,9.01.017,8.994.037,8.979a.82.82,0,0,1,.1-.081l.015-.009L16.511-.133A.812.812,0,0,1,16.9-.235ZM33.4,9.322,17.055.3a.315.315,0,0,0-.3,0L.407,9.322a.319.319,0,0,0-.04.032l-.027.022L.316,9.4a.312.312,0,0,0-.045.062A.271.271,0,0,1,.255,9.5a.305.305,0,0,0-.016.085.271.271,0,0,1,0,.04L.213,12.5a.314.314,0,0,0,.314.312H2.471l.023,16.781H.551a.314.314,0,0,0-.314.314v3.383a.314.314,0,0,0,.314.314H33.258a.314.314,0,0,0,.314-.314V29.9a.314.314,0,0,0-.314-.314H31.317l-.023-16.781h1.942a.314.314,0,0,0,.314-.314l.022-2.867a.27.27,0,0,1,0-.038.305.305,0,0,0-.02-.1l-.015-.038a.312.312,0,0,0-.042-.057l-.025-.02-.027-.022A.319.319,0,0,0,33.4,9.322ZM16.9.937l14.5,8.039H2.4ZM29.472,8.476,16.9,1.509,4.337,8.476ZM.868,9.732H32.947l-.028,2.447H.84Zm31.573.5H1.362L1.346,11.68H32.425ZM3.1,12.807H5.854l.023,16.781H3.121Zm2.256.5H3.6l.021,15.781H5.376Zm1.127-.5h20.8l.023,16.781H6.5Zm20.3.5H6.983L7,29.089H26.8Zm1.127-.5h2.756l.023,16.781H27.933Zm2.256.5H28.411l.021,15.781h1.756ZM.865,30.216H32.944v2.756H.865Zm31.579.5H1.365v1.756H32.444Z" transform="translate(0.037 -0.015)" fill="#00a6a2"/>
      </g>
    </g>
    <path id="cursive_S" data-name="cursive S" d="M-18845.92-19714.973c-1.908,0-3.162-.34-3.859-1.033a2.12,2.12,0,0,1-.576-1.832c.166-1.322,1.561-2.221,4.146-2.676a22.254,22.254,0,0,1,3.5-.307h.008a.61.61,0,0,1,.613.615.61.61,0,0,1-.613.609h0a21.681,21.681,0,0,0-3.314.295c-1.9.334-3.035.924-3.121,1.621a.864.864,0,0,0,.227.8,3.58,3.58,0,0,0,2.359.662c.205.01.418.014.643.014a25.141,25.141,0,0,0,3.131-.234,16.864,16.864,0,0,0,4.783-1.377c1.537-.73,2.145-1.426,2.2-1.846-.043-.064-.268-.324-1.287-.707-.822-.309-1.873-.605-2.891-.883-1.078-.3-2.1-.588-2.887-.895-.5-.193-1.678-.656-1.594-1.57a1.548,1.548,0,0,1,.666-1.1,6.758,6.758,0,0,1,3-.953,14.326,14.326,0,0,1,1.658-.1,7.408,7.408,0,0,1,1.314.1,1.868,1.868,0,0,1,1.414.9,1.786,1.786,0,0,1,.068,1.447l-1.135-.465-.008.01a.546.546,0,0,0,0-.406.8.8,0,0,0-.559-.275,6.107,6.107,0,0,0-1.07-.08,8.3,8.3,0,0,0-3.941.811,1.085,1.085,0,0,0-.15.145,3.842,3.842,0,0,0,1.086.512c.693.246,1.555.488,2.465.738a32.411,32.411,0,0,1,3.268,1.029c.514.209,1.891.766,1.811,1.807-.18,2.3-4.912,3.971-8.057,4.381A26.025,26.025,0,0,1-18845.92-19714.973Z" transform="translate(18859.398 19741.504)" fill="#00a6a2"/>
  </g>
</svg>
