<svg xmlns="http://www.w3.org/2000/svg" xmlns:xlink="http://www.w3.org/1999/xlink" width="3026.428" height="2015.874" viewBox="0 0 3026.428 2015.874">
  <defs>
    <clipPath id="clip-path">
      <path id="Path_36328" data-name="Path 36328" d="M119.263,224.671c64.621,1.234,116.006-48.055,114.772-110.09S179.415,1.257,114.794.023-1.212,48.078.022,110.112,54.642,223.437,119.263,224.671Z" transform="translate(87.043 300.831) rotate(-111.832)"/>
    </clipPath>
    <linearGradient id="linear-gradient" x1="9.62" y1="3.848" x2="9.329" y2="4.62" gradientUnits="objectBoundingBox">
      <stop offset="0" stop-color="#009c97"/>
      <stop offset="1" stop-color="#009c97" stop-opacity="0.302"/>
    </linearGradient>
    <clipPath id="clip-path-2">
      <path id="Path_36329" data-name="Path 36329" d="M358.9,697.956c192.7,5.439,344.5-146.364,339.06-339.06S531.9,5.58,339.2.142-5.3,146.505.142,339.2,166.2,692.518,358.9,697.956Z" transform="translate(493.63 987.26) rotate(-135)" opacity="0.998"/>
    </clipPath>
    <clipPath id="clip-path-3">
      <path id="Path_36331" data-name="Path 36331" d="M266.54,518.349c143.109,4.039,255.847-108.7,251.808-251.808S395.023,4.144,251.914.105-3.934,108.8.105,251.914,123.431,514.31,266.54,518.349Z" transform="translate(366.602 733.204) rotate(-135)" opacity="0.7"/>
    </clipPath>
    <linearGradient id="linear-gradient-2" x1="10.098" y1="3.821" x2="9.794" y2="4.627" xlink:href="#linear-gradient"/>
    <clipPath id="clip-path-4">
      <path id="Path_36332" data-name="Path 36332" d="M119.253,224.547c64.651,1.2,116.089-48.09,114.889-110.091S179.561,1.221,114.91.021-1.179,48.111.021,110.112,54.6,223.347,119.253,224.547Z" transform="translate(84.206 299.254) rotate(-111.076)"/>
    </clipPath>
    <linearGradient id="linear-gradient-3" x1="10.055" y1="3.936" x2="9.79" y2="4.639" xlink:href="#linear-gradient"/>
  </defs>
  <g id="background_SVG" data-name="background SVG" transform="translate(534.393 298.788)" opacity="0.2">
    <g id="Group_18928" data-name="Group 18928" transform="translate(49.437 792.212)" opacity="0.5">
      <path id="Path_36231" data-name="Path 36231" d="M319.348,759.8a3.336,3.336,0,1,0,3.148,3.33A3.211,3.211,0,0,0,319.348,759.8Z" transform="translate(-262.564 -666.946)" fill="#009c97" opacity="0.7"/>
      <path id="Path_36232" data-name="Path 36232" d="M319.348,736.5a3.336,3.336,0,1,0,3.148,3.33A3.3,3.3,0,0,0,319.348,736.5Z" transform="translate(-262.564 -674.686)" fill="#009c97" opacity="0.7"/>
      <path id="Path_36233" data-name="Path 36233" d="M319.348,713.3a3.336,3.336,0,1,0,3.148,3.33A3.211,3.211,0,0,0,319.348,713.3Z" transform="translate(-262.564 -682.393)" fill="#009c97" opacity="0.7"/>
      <path id="Path_36234" data-name="Path 36234" d="M319.348,690.1a3.336,3.336,0,1,0,3.148,3.331A3.211,3.211,0,0,0,319.348,690.1Z" transform="translate(-262.564 -690.1)" fill="#009c97" opacity="0.7"/>
      <path id="Path_36235" data-name="Path 36235" d="M298.042,759.8a3.336,3.336,0,1,0,3.148,3.33A3.135,3.135,0,0,0,298.042,759.8Z" transform="translate(-214.441 -666.946)" fill="#009c97" opacity="0.7"/>
      <path id="Path_36236" data-name="Path 36236" d="M298.042,736.5a3.336,3.336,0,1,0,3.148,3.33A3.211,3.211,0,0,0,298.042,736.5Z" transform="translate(-214.441 -674.686)" fill="#009c97" opacity="0.7"/>
      <path id="Path_36237" data-name="Path 36237" d="M298.042,713.3a3.336,3.336,0,1,0,3.148,3.33A3.135,3.135,0,0,0,298.042,713.3Z" transform="translate(-214.441 -682.393)" fill="#009c97" opacity="0.7"/>
      <path id="Path_36238" data-name="Path 36238" d="M298.042,690.1a3.336,3.336,0,1,0,3.148,3.331A3.135,3.135,0,0,0,298.042,690.1Z" transform="translate(-214.441 -690.1)" fill="#009c97" opacity="0.7"/>
      <path id="Path_36239" data-name="Path 36239" d="M276.648,759.8a3.336,3.336,0,1,0,3.148,3.33A3.211,3.211,0,0,0,276.648,759.8Z" transform="translate(-166.103 -666.946)" fill="#009c97" opacity="0.7"/>
      <path id="Path_36240" data-name="Path 36240" d="M276.648,736.5a3.336,3.336,0,1,0,3.148,3.33A3.3,3.3,0,0,0,276.648,736.5Z" transform="translate(-166.103 -674.686)" fill="#009c97" opacity="0.7"/>
      <path id="Path_36241" data-name="Path 36241" d="M276.648,713.3a3.336,3.336,0,1,0,3.148,3.33A3.211,3.211,0,0,0,276.648,713.3Z" transform="translate(-166.103 -682.393)" fill="#009c97" opacity="0.7"/>
      <path id="Path_36242" data-name="Path 36242" d="M276.648,690.1a3.336,3.336,0,1,0,3.148,3.331A3.211,3.211,0,0,0,276.648,690.1Z" transform="translate(-166.103 -690.1)" fill="#009c97" opacity="0.7"/>
      <path id="Path_36243" data-name="Path 36243" d="M255.348,759.8a3.336,3.336,0,1,0,3.148,3.33A3.211,3.211,0,0,0,255.348,759.8Z" transform="translate(-117.985 -666.946)" fill="#009c97" opacity="0.7"/>
      <path id="Path_36244" data-name="Path 36244" d="M255.348,736.5a3.336,3.336,0,1,0,3.148,3.33A3.3,3.3,0,0,0,255.348,736.5Z" transform="translate(-117.985 -674.686)" fill="#009c97" opacity="0.7"/>
      <path id="Path_36245" data-name="Path 36245" d="M255.348,713.3a3.336,3.336,0,1,0,3.148,3.33A3.211,3.211,0,0,0,255.348,713.3Z" transform="translate(-117.985 -682.393)" fill="#009c97" opacity="0.7"/>
      <path id="Path_36246" data-name="Path 36246" d="M255.348,690.1a3.336,3.336,0,1,0,3.148,3.331A3.211,3.211,0,0,0,255.348,690.1Z" transform="translate(-117.985 -690.1)" fill="#009c97" opacity="0.7"/>
      <path id="Path_36247" data-name="Path 36247" d="M319.348,829.5a3.336,3.336,0,1,0,3.148,3.331A3.211,3.211,0,0,0,319.348,829.5Z" transform="translate(-262.564 -643.793)" fill="#009c97" opacity="0.7"/>
      <path id="Path_36248" data-name="Path 36248" d="M319.348,806.3a3.336,3.336,0,1,0,3.148,3.331A3.211,3.211,0,0,0,319.348,806.3Z" transform="translate(-262.564 -651.5)" fill="#009c97" opacity="0.7"/>
      <path id="Path_36249" data-name="Path 36249" d="M319.348,783a3.336,3.336,0,1,0,3.148,3.331A3.211,3.211,0,0,0,319.348,783Z" transform="translate(-262.564 -659.24)" fill="#009c97" opacity="0.7"/>
      <path id="Path_36250" data-name="Path 36250" d="M298.042,829.5a3.336,3.336,0,1,0,3.148,3.331A3.135,3.135,0,0,0,298.042,829.5Z" transform="translate(-214.441 -643.793)" fill="#009c97" opacity="0.7"/>
      <path id="Path_36251" data-name="Path 36251" d="M298.042,806.3a3.336,3.336,0,1,0,3.148,3.331A3.135,3.135,0,0,0,298.042,806.3Z" transform="translate(-214.441 -651.5)" fill="#009c97" opacity="0.7"/>
      <path id="Path_36252" data-name="Path 36252" d="M298.042,783a3.336,3.336,0,1,0,3.148,3.331A3.135,3.135,0,0,0,298.042,783Z" transform="translate(-214.441 -659.24)" fill="#009c97" opacity="0.7"/>
      <path id="Path_36253" data-name="Path 36253" d="M276.648,829.5a3.336,3.336,0,1,0,3.148,3.331A3.211,3.211,0,0,0,276.648,829.5Z" transform="translate(-166.103 -643.793)" fill="#009c97" opacity="0.7"/>
      <path id="Path_36254" data-name="Path 36254" d="M361.948,759.8a3.336,3.336,0,1,0,3.148,3.33A3.211,3.211,0,0,0,361.948,759.8Z" transform="translate(-358.8 -666.946)" fill="#009c97" opacity="0.7"/>
      <path id="Path_36255" data-name="Path 36255" d="M361.948,736.5a3.336,3.336,0,1,0,3.148,3.33A3.3,3.3,0,0,0,361.948,736.5Z" transform="translate(-358.8 -674.686)" fill="#009c97" opacity="0.7"/>
      <path id="Path_36256" data-name="Path 36256" d="M361.948,713.3a3.336,3.336,0,1,0,3.148,3.33A3.211,3.211,0,0,0,361.948,713.3Z" transform="translate(-358.8 -682.393)" fill="#009c97" opacity="0.7"/>
      <path id="Path_36257" data-name="Path 36257" d="M361.948,690.1a3.336,3.336,0,1,0,3.148,3.331A3.211,3.211,0,0,0,361.948,690.1Z" transform="translate(-358.8 -690.1)" fill="#009c97" opacity="0.7"/>
      <path id="Path_36258" data-name="Path 36258" d="M340.648,759.8a3.336,3.336,0,1,0,3.148,3.33A3.211,3.211,0,0,0,340.648,759.8Z" transform="translate(-310.682 -666.946)" fill="#009c97" opacity="0.7"/>
      <path id="Path_36259" data-name="Path 36259" d="M340.648,736.5a3.336,3.336,0,1,0,3.148,3.33A3.3,3.3,0,0,0,340.648,736.5Z" transform="translate(-310.682 -674.686)" fill="#009c97" opacity="0.7"/>
      <path id="Path_36260" data-name="Path 36260" d="M340.648,713.3a3.336,3.336,0,1,0,3.148,3.33A3.211,3.211,0,0,0,340.648,713.3Z" transform="translate(-310.682 -682.393)" fill="#009c97" opacity="0.7"/>
      <path id="Path_36261" data-name="Path 36261" d="M340.648,690.1a3.336,3.336,0,1,0,3.148,3.331A3.211,3.211,0,0,0,340.648,690.1Z" transform="translate(-310.682 -690.1)" fill="#009c97" opacity="0.7"/>
      <path id="Path_36262" data-name="Path 36262" d="M361.948,829.5a3.336,3.336,0,1,0,3.148,3.331A3.211,3.211,0,0,0,361.948,829.5Z" transform="translate(-358.8 -643.793)" fill="#009c97" opacity="0.7"/>
      <path id="Path_36263" data-name="Path 36263" d="M361.948,806.3a3.336,3.336,0,1,0,3.148,3.331A3.211,3.211,0,0,0,361.948,806.3Z" transform="translate(-358.8 -651.5)" fill="#009c97" opacity="0.7"/>
      <path id="Path_36264" data-name="Path 36264" d="M361.948,783a3.336,3.336,0,1,0,3.148,3.331A3.211,3.211,0,0,0,361.948,783Z" transform="translate(-358.8 -659.24)" fill="#009c97" opacity="0.7"/>
      <path id="Path_36265" data-name="Path 36265" d="M340.648,829.5a3.336,3.336,0,1,0,3.148,3.331A3.211,3.211,0,0,0,340.648,829.5Z" transform="translate(-310.682 -643.793)" fill="#009c97" opacity="0.7"/>
      <path id="Path_36266" data-name="Path 36266" d="M340.648,806.3a3.336,3.336,0,1,0,3.148,3.331A3.211,3.211,0,0,0,340.648,806.3Z" transform="translate(-310.682 -651.5)" fill="#009c97" opacity="0.7"/>
      <path id="Path_36267" data-name="Path 36267" d="M340.648,783a3.336,3.336,0,1,0,3.148,3.331A3.211,3.211,0,0,0,340.648,783Z" transform="translate(-310.682 -659.24)" fill="#009c97" opacity="0.7"/>
      <path id="Path_36268" data-name="Path 36268" d="M276.648,806.3a3.336,3.336,0,1,0,3.148,3.331A3.211,3.211,0,0,0,276.648,806.3Z" transform="translate(-166.103 -651.5)" fill="#009c97" opacity="0.7"/>
      <path id="Path_36269" data-name="Path 36269" d="M276.648,783a3.336,3.336,0,1,0,3.148,3.331A3.211,3.211,0,0,0,276.648,783Z" transform="translate(-166.103 -659.24)" fill="#009c97" opacity="0.7"/>
      <path id="Path_36270" data-name="Path 36270" d="M255.348,829.5a3.336,3.336,0,1,0,3.148,3.331A3.211,3.211,0,0,0,255.348,829.5Z" transform="translate(-117.985 -643.793)" fill="#009c97" opacity="0.7"/>
      <path id="Path_36271" data-name="Path 36271" d="M255.348,806.3a3.336,3.336,0,1,0,3.148,3.331A3.211,3.211,0,0,0,255.348,806.3Z" transform="translate(-117.985 -651.5)" fill="#009c97" opacity="0.7"/>
      <path id="Path_36272" data-name="Path 36272" d="M255.348,783a3.336,3.336,0,1,0,3.148,3.331A3.211,3.211,0,0,0,255.348,783Z" transform="translate(-117.985 -659.24)" fill="#009c97" opacity="0.7"/>
      <path id="Path_36273" data-name="Path 36273" d="M319.348,876a3.336,3.336,0,1,0,3.148,3.331A3.211,3.211,0,0,0,319.348,876Z" transform="translate(-262.564 -628.346)" fill="#009c97" opacity="0.7"/>
      <path id="Path_36274" data-name="Path 36274" d="M319.348,852.7a3.336,3.336,0,1,0,3.148,3.331A3.3,3.3,0,0,0,319.348,852.7Z" transform="translate(-262.564 -636.086)" fill="#009c97" opacity="0.7"/>
      <path id="Path_36275" data-name="Path 36275" d="M298.042,876a3.336,3.336,0,1,0,3.148,3.331A3.135,3.135,0,0,0,298.042,876Z" transform="translate(-214.441 -628.346)" fill="#009c97" opacity="0.7"/>
      <path id="Path_36276" data-name="Path 36276" d="M298.042,852.7a3.336,3.336,0,1,0,3.148,3.331A3.212,3.212,0,0,0,298.042,852.7Z" transform="translate(-214.441 -636.086)" fill="#009c97" opacity="0.7"/>
      <path id="Path_36277" data-name="Path 36277" d="M361.948,876a3.336,3.336,0,1,0,3.148,3.331A3.211,3.211,0,0,0,361.948,876Z" transform="translate(-358.8 -628.346)" fill="#009c97" opacity="0.7"/>
      <path id="Path_36278" data-name="Path 36278" d="M361.948,852.7a3.336,3.336,0,1,0,3.148,3.331A3.3,3.3,0,0,0,361.948,852.7Z" transform="translate(-358.8 -636.086)" fill="#009c97" opacity="0.7"/>
      <path id="Path_36279" data-name="Path 36279" d="M340.648,876a3.336,3.336,0,1,0,3.148,3.331A3.211,3.211,0,0,0,340.648,876Z" transform="translate(-310.682 -628.346)" fill="#009c97" opacity="0.7"/>
      <path id="Path_36280" data-name="Path 36280" d="M340.648,852.7a3.336,3.336,0,1,0,3.148,3.331A3.3,3.3,0,0,0,340.648,852.7Z" transform="translate(-310.682 -636.086)" fill="#009c97" opacity="0.7"/>
      <path id="Path_36281" data-name="Path 36281" d="M276.648,876a3.336,3.336,0,1,0,3.148,3.331A3.211,3.211,0,0,0,276.648,876Z" transform="translate(-166.103 -628.346)" fill="#009c97" opacity="0.7"/>
      <path id="Path_36282" data-name="Path 36282" d="M276.648,852.7a3.336,3.336,0,1,0,3.148,3.331A3.3,3.3,0,0,0,276.648,852.7Z" transform="translate(-166.103 -636.086)" fill="#009c97" opacity="0.7"/>
      <path id="Path_36283" data-name="Path 36283" d="M255.348,876a3.336,3.336,0,1,0,3.148,3.331A3.211,3.211,0,0,0,255.348,876Z" transform="translate(-117.985 -628.346)" fill="#009c97" opacity="0.7"/>
      <path id="Path_36284" data-name="Path 36284" d="M255.348,852.7a3.336,3.336,0,1,0,3.148,3.331A3.3,3.3,0,0,0,255.348,852.7Z" transform="translate(-117.985 -636.086)" fill="#009c97" opacity="0.7"/>
    </g>
    <g id="Group_18929" data-name="Group 18929" transform="translate(951.891 221.425)">
      <path id="Path_36285" data-name="Path 36285" d="M791.747,256a3.336,3.336,0,1,0,3.148,3.33A3.211,3.211,0,0,0,791.747,256Z" transform="translate(-788.6 -164.345)" fill="#009c97" opacity="0.7"/>
      <path id="Path_36286" data-name="Path 36286" d="M791.747,233a3.336,3.336,0,1,0,3.148,3.331A3.3,3.3,0,0,0,791.747,233Z" transform="translate(-788.6 -171.986)" fill="#009c97" opacity="0.7"/>
      <path id="Path_36287" data-name="Path 36287" d="M791.747,210.1a3.336,3.336,0,1,0,3.148,3.33A3.211,3.211,0,0,0,791.747,210.1Z" transform="translate(-788.6 -179.593)" fill="#009c97" opacity="0.7"/>
      <path id="Path_36288" data-name="Path 36288" d="M791.747,187.2a3.336,3.336,0,1,0,3.148,3.331A3.211,3.211,0,0,0,791.747,187.2Z" transform="translate(-788.6 -187.2)" fill="#009c97" opacity="0.7"/>
      <path id="Path_36289" data-name="Path 36289" d="M770.648,256a3.336,3.336,0,1,0,3.148,3.33A3.382,3.382,0,0,0,770.648,256Z" transform="translate(-740.934 -164.345)" fill="#009c97" opacity="0.7"/>
      <path id="Path_36290" data-name="Path 36290" d="M770.648,233a3.336,3.336,0,1,0,3.148,3.331A3.486,3.486,0,0,0,770.648,233Z" transform="translate(-740.934 -171.986)" fill="#009c97" opacity="0.7"/>
      <path id="Path_36291" data-name="Path 36291" d="M770.648,210.1a3.336,3.336,0,1,0,3.148,3.33A3.382,3.382,0,0,0,770.648,210.1Z" transform="translate(-740.934 -179.593)" fill="#009c97" opacity="0.7"/>
      <path id="Path_36292" data-name="Path 36292" d="M770.648,187.2a3.336,3.336,0,1,0,3.148,3.331A3.294,3.294,0,0,0,770.648,187.2Z" transform="translate(-740.934 -187.2)" fill="#009c97" opacity="0.7"/>
      <path id="Path_36293" data-name="Path 36293" d="M791.747,301.8a3.336,3.336,0,1,0,3.148,3.33A3.211,3.211,0,0,0,791.747,301.8Z" transform="translate(-788.6 -149.131)" fill="#009c97" opacity="0.7"/>
      <path id="Path_36294" data-name="Path 36294" d="M791.747,278.9a3.336,3.336,0,1,0,3.148,3.33A3.211,3.211,0,0,0,791.747,278.9Z" transform="translate(-788.6 -156.738)" fill="#009c97" opacity="0.7"/>
      <path id="Path_36295" data-name="Path 36295" d="M770.648,301.8a3.336,3.336,0,1,0,3.148,3.33A3.382,3.382,0,0,0,770.648,301.8Z" transform="translate(-740.934 -149.131)" fill="#009c97" opacity="0.7"/>
      <path id="Path_36296" data-name="Path 36296" d="M770.648,278.9a3.336,3.336,0,1,0,3.148,3.33A3.382,3.382,0,0,0,770.648,278.9Z" transform="translate(-740.934 -156.738)" fill="#009c97" opacity="0.7"/>
    </g>
    <g id="Group_18930" data-name="Group 18930" transform="translate(1006.282 574.188)">
      <path id="Path_36297" data-name="Path 36297" d="M715.484,454.531A2.462,2.462,0,0,0,713.092,452a2.552,2.552,0,0,0-2.392,2.531,2.462,2.462,0,0,0,2.392,2.531A2.552,2.552,0,0,0,715.484,454.531Z" transform="translate(-665.5 -452)" fill="#009c97" opacity="0.7"/>
      <path id="Path_36298" data-name="Path 36298" d="M697.585,454.531A2.462,2.462,0,0,0,695.192,452a2.552,2.552,0,0,0-2.392,2.531,2.462,2.462,0,0,0,2.392,2.531A2.552,2.552,0,0,0,697.585,454.531Z" transform="translate(-625.063 -452)" fill="#009c97" opacity="0.7"/>
      <path id="Path_36299" data-name="Path 36299" d="M679.584,454.531A2.462,2.462,0,0,0,677.192,452a2.552,2.552,0,0,0-2.392,2.531,2.462,2.462,0,0,0,2.392,2.531A2.552,2.552,0,0,0,679.584,454.531Z" transform="translate(-584.4 -452)" fill="#009c97" opacity="0.7"/>
      <path id="Path_36300" data-name="Path 36300" d="M661.684,454.531a2.4,2.4,0,1,0-2.392,2.531A2.462,2.462,0,0,0,661.684,454.531Z" transform="translate(-543.963 -452)" fill="#009c97" opacity="0.7"/>
      <path id="Path_36301" data-name="Path 36301" d="M751.385,454.531A2.462,2.462,0,0,0,748.992,452a2.552,2.552,0,0,0-2.392,2.531,2.462,2.462,0,0,0,2.392,2.531A2.552,2.552,0,0,0,751.385,454.531Z" transform="translate(-746.6 -452)" fill="#009c97" opacity="0.7"/>
      <path id="Path_36302" data-name="Path 36302" d="M733.484,454.531A2.462,2.462,0,0,0,731.092,452a2.552,2.552,0,0,0-2.392,2.531,2.462,2.462,0,0,0,2.392,2.531A2.552,2.552,0,0,0,733.484,454.531Z" transform="translate(-706.163 -452)" fill="#009c97" opacity="0.7"/>
    </g>
    <g id="Group_18931" data-name="Group 18931" transform="translate(532.664 917.143)" opacity="0.5">
      <path id="Path_36303" data-name="Path 36303" d="M1176.647,421.664a3.279,3.279,0,1,1-3.273-3.464A3.271,3.271,0,0,1,1176.647,421.664Zm27.448,31.573a3.279,3.279,0,1,1-3.274-3.464A3.434,3.434,0,0,1,1204.094,453.237Zm0-31.573a3.279,3.279,0,1,1-3.274-3.464A3.272,3.272,0,0,1,1204.094,421.664Zm27.447,63.279a3.279,3.279,0,1,1-3.274-3.464A3.351,3.351,0,0,1,1231.542,484.943Zm0-31.706a3.279,3.279,0,1,1-3.274-3.464A3.434,3.434,0,0,1,1231.542,453.237Zm0-31.573a3.279,3.279,0,1,1-3.274-3.464A3.272,3.272,0,0,1,1231.542,421.664Zm27.447,31.573a3.279,3.279,0,1,1-3.273-3.464A3.434,3.434,0,0,1,1258.989,453.237Zm0-31.573a3.279,3.279,0,1,1-3.273-3.464A3.271,3.271,0,0,1,1258.989,421.664Zm27.448,0a3.279,3.279,0,1,1-3.273-3.464A3.272,3.272,0,0,1,1286.437,421.664Z" transform="translate(-1170.1 -418.2)" fill="#009c97"/>
    </g>
    <g id="Group_18932" data-name="Group 18932" transform="translate(1640.09 112.149) rotate(180)">
      <path id="Path_36333" data-name="Path 36333" d="M6.547,3.464A3.434,3.434,0,0,1,3.274,6.927,3.434,3.434,0,0,1,0,3.464,3.434,3.434,0,0,1,3.274,0,3.271,3.271,0,0,1,6.547,3.464ZM33.995,35.037A3.434,3.434,0,0,1,30.721,38.5a3.469,3.469,0,0,1,0-6.927A3.434,3.434,0,0,1,33.995,35.037Zm0-31.573a3.434,3.434,0,0,1-3.274,3.464,3.434,3.434,0,0,1-3.273-3.464A3.434,3.434,0,0,1,30.721,0,3.272,3.272,0,0,1,33.995,3.464ZM61.442,66.743a3.279,3.279,0,1,1-3.274-3.464A3.351,3.351,0,0,1,61.442,66.743Zm0-31.706a3.279,3.279,0,1,1-3.274-3.464A3.434,3.434,0,0,1,61.442,35.037Zm0-31.573a3.279,3.279,0,1,1-6.547,0A3.434,3.434,0,0,1,58.168,0,3.272,3.272,0,0,1,61.442,3.464ZM88.889,35.037a3.279,3.279,0,1,1-3.273-3.464A3.434,3.434,0,0,1,88.889,35.037Zm0-31.573a3.279,3.279,0,1,1-6.547,0A3.434,3.434,0,0,1,85.616,0,3.271,3.271,0,0,1,88.889,3.464Zm27.448,0a3.279,3.279,0,1,1-6.547,0A3.434,3.434,0,0,1,113.063,0,3.272,3.272,0,0,1,116.337,3.464Z" transform="translate(0 0)" fill="#009c97"/>
    </g>
    <g id="Group_18938" data-name="Group 18938" transform="translate(1052.741 425.649)" opacity="0.7">
      <path id="Path_36309" data-name="Path 36309" d="M697.792,340.5c-14.731,0-26.692,12.656-26.692,28.242s11.961,28.242,26.692,28.242,26.692-12.656,26.692-28.242S712.523,340.5,697.792,340.5Zm0,52.888c-12.842,0-23.418-11.057-23.418-24.779s10.45-24.779,23.418-24.779c12.842,0,23.418,11.057,23.418,24.779S710.634,393.388,697.792,393.388Z" transform="translate(-671.1 -340.5)" fill="#009c97"/>
    </g>
    <g id="Group_18948" data-name="Group 18948" transform="translate(6.53 323.503)">
      <g id="Group_18937" data-name="Group 18937" transform="translate(43.091 41.964)" opacity="0.75">
        <line id="Line_574" data-name="Line 574" x2="193.894" y2="205.157" transform="translate(1.605 1.732)" fill="#009c97"/>
        <path id="Path_36308" data-name="Path 36308" d="M1326.13,298.5a1.336,1.336,0,0,0-1.133.533,1.93,1.93,0,0,0,0,2.531l193.894,205.157a1.68,1.68,0,0,0,2.392,0,1.93,1.93,0,0,0,0-2.531L1327.389,299.033A2.577,2.577,0,0,0,1326.13,298.5Z" transform="translate(-1324.525 -298.5)" fill="#009c97"/>
      </g>
      <g id="Group_18939" data-name="Group 18939" opacity="0.7">
        <path id="Path_36310" data-name="Path 36310" d="M1490.06,267c-23.8,0-43.06,20.382-43.06,45.561s19.264,45.561,43.06,45.561,43.059-20.382,43.059-45.561S1513.73,267,1490.06,267Zm0,87.658c-21.908,0-39.786-18.917-39.786-42.1s17.879-42.1,39.786-42.1,39.786,18.917,39.786,42.1S1511.967,354.658,1490.06,354.658Z" transform="translate(-1447 -267)" fill="#009c97"/>
      </g>
    </g>
    <g id="Group_18952" data-name="Group 18952" transform="translate(1334.124 292.627) rotate(180)">
      <g id="Group_18937-2" data-name="Group 18937" transform="translate(43.091 41.964)" opacity="0.75">
        <line id="Line_574-2" data-name="Line 574" x2="193.894" y2="205.157" transform="translate(1.605 1.732)" fill="#009c97"/>
        <path id="Path_36308-2" data-name="Path 36308" d="M1326.13,298.5a1.336,1.336,0,0,0-1.133.533,1.93,1.93,0,0,0,0,2.531l193.894,205.157a1.68,1.68,0,0,0,2.392,0,1.93,1.93,0,0,0,0-2.531L1327.389,299.033A2.577,2.577,0,0,0,1326.13,298.5Z" transform="translate(-1324.525 -298.5)" fill="#009c97"/>
      </g>
      <g id="Group_18939-2" data-name="Group 18939" opacity="0.7">
        <path id="Path_36310-2" data-name="Path 36310" d="M1490.06,267c-23.8,0-43.06,20.382-43.06,45.561s19.264,45.561,43.06,45.561,43.059-20.382,43.059-45.561S1513.73,267,1490.06,267Zm0,87.658c-21.908,0-39.786-18.917-39.786-42.1s17.879-42.1,39.786-42.1,39.786,18.917,39.786,42.1S1511.967,354.658,1490.06,354.658Z" transform="translate(-1447 -267)" fill="#009c97"/>
      </g>
    </g>
    <g id="Group_18941" data-name="Group 18941" transform="translate(1730.994 1030.462)" opacity="0.7">
      <path id="Path_36312" data-name="Path 36312" d="M159.092,794.5c-14.731,0-26.692,12.656-26.692,28.242s11.961,28.242,26.692,28.242,26.692-12.656,26.692-28.242S173.823,794.5,159.092,794.5Zm0,53.021c-12.842,0-23.418-11.057-23.418-24.779,0-13.588,10.45-24.779,23.418-24.779,12.842,0,23.418,11.057,23.418,24.779C182.51,836.331,171.934,847.521,159.092,847.521Z" transform="translate(-132.4 -794.5)" fill="#009c97"/>
    </g>
    <g id="Group_18942" data-name="Group 18942" transform="translate(353.38 1075.043)">
      <g id="Group_18904" data-name="Group 18904" transform="translate(0 0)" clip-path="url(#clip-path)">
        <path id="Path_36313" data-name="Path 36313" d="M496.725,548.094l-3.526,3.73,811.838,619.2,3.525-3.73Zm836.767,619.2-3.526,3.73L518.13,551.824l3.526-3.73Zm25.055,0-3.525,3.73-811.838-619.2,3.525-3.73Zm25.055,0-3.525,3.73L568.24,551.824l3.526-3.73Zm24.929,0-3.526,3.73L593.3,551.824l3.525-3.73Zm25.055,0-3.526,3.73-811.838-619.2,3.525-3.73Zm25.055,0-3.526,3.73-811.838-619.2,3.526-3.73Zm24.929,0-3.525,3.73-811.838-619.2,3.525-3.73Zm25.055,0-3.526,3.73-811.838-619.2,3.526-3.73Zm25.055,0-3.526,3.73-811.838-859,3.526-3.73Zm24.929,0-3.525,3.73-811.838-859,3.525-3.73Zm25.055,0-3.526,3.73L768.3,312.03l3.525-3.73Zm25.055,0-3.526,3.73-811.838-859,3.526-3.73Zm24.929,0-3.525,3.73-811.838-859,3.525-3.73Zm25.055,0-3.525,3.73-811.838-859,3.525-3.73Zm25.055,0-3.525,3.73L868.4,312.03l3.525-3.73Zm25.055,0-3.526,3.73-811.838-859,3.525-3.73Zm24.929,0-3.525,3.73-811.838-859,3.526-3.73Zm25.055,0-3.525,3.73-811.838-859,3.526-3.73Zm25.055,0-3.525,3.73L968.493,312.03l3.526-3.73Zm24.929,0-3.525,3.73-811.838-859,3.526-3.73Zm25.055,0-3.525,3.73-811.838-859L1022,308.3Zm25.055,0-3.525,3.73-811.838-859,3.525-3.73Zm24.929,0-3.525,3.73-811.838-859,3.526-3.73Zm25.055,0-3.525,3.73-811.838-859,3.525-3.73Zm25.055,0-3.525,3.73-811.838-859,3.525-3.73Zm24.929,0-3.526,3.73-811.838-859,3.525-3.73Zm25.055,0-3.525,3.73-811.838-859,3.525-3.73Zm25.055,0-3.525,3.73-811.838-859,3.525-3.73Zm24.929,0-3.526,3.73-811.838-859,3.526-3.73Zm25.055,0-3.525,3.73-811.838-859,3.526-3.73Zm25.055,0-3.525,3.73-811.838-859,3.525-3.73Zm24.929,0-3.525,3.73-811.838-859,3.526-3.73Zm25.055,0-3.525,3.73-811.838-859,3.525-3.73Zm25.055,0-3.525,3.73L1343.691,312.03l3.526-3.73Zm24.929,0-3.525,3.73-811.838-859,3.525-3.73Zm25.055,0-3.525,3.73-811.838-859,3.526-3.73Zm25.055,0-3.525,3.73-811.838-859,3.525-3.73Zm24.929,0-3.526,3.73-811.838-859,3.525-3.73Zm25.055,0-3.525,3.73-811.838-859,3.525-3.73Zm25.055,0-3.525,3.73-811.838-859,3.525-3.73Z" transform="translate(-1251.434 -586.854)" fill="url(#linear-gradient)"/>
      </g>
    </g>
    <g id="Group_18951" data-name="Group 18951" transform="translate(663.852 1117.468)">
      <g id="Group_18933" data-name="Group 18933" transform="translate(567.078 205.29)" opacity="0.75">
        <line id="Line_570" data-name="Line 570" x2="286.309" y2="302.94" transform="translate(1.605 1.732)" fill="#009c97"/>
        <path id="Path_36304" data-name="Path 36304" d="M389.73,560.7a1.335,1.335,0,0,0-1.133.533,1.93,1.93,0,0,0,0,2.531L674.906,866.57a1.68,1.68,0,0,0,2.392,0,1.93,1.93,0,0,0,0-2.531L390.863,561.233A1.335,1.335,0,0,0,389.73,560.7Z" transform="translate(-388.125 -560.7)" fill="#009c97"/>
      </g>
      <g id="Group_18934" data-name="Group 18934" transform="translate(0 224.474)" opacity="0.75">
        <line id="Line_571" data-name="Line 571" x2="286.309" y2="302.94" transform="translate(1.605 1.732)" fill="#009c97"/>
        <path id="Path_36305" data-name="Path 36305" d="M840.13,575.1a1.335,1.335,0,0,0-1.133.533,1.93,1.93,0,0,0,0,2.531L1125.306,880.97a1.68,1.68,0,0,0,2.392,0,1.93,1.93,0,0,0,0-2.531L841.389,575.5A2.045,2.045,0,0,0,840.13,575.1Z" transform="translate(-838.525 -575.1)" fill="#009c97"/>
      </g>
      <g id="Group_18943" data-name="Group 18943" transform="translate(141.109 0)" opacity="0.75">
        <g id="Group_18906" data-name="Group 18906" transform="translate(0 151.736)">
          <path id="Path_36314" data-name="Path 36314" d="M691.6,520.5a33.935,33.935,0,0,0-24.8,10.924,38.867,38.867,0,0,0,0,52.488L974.385,909.1a33.728,33.728,0,0,0,24.8,10.924,34.312,34.312,0,0,0,24.8-10.791c13.6-14.388,13.6-37.967,0-52.488L716.405,531.291A34.1,34.1,0,0,0,691.6,520.5ZM999.063,916.027A30.2,30.2,0,0,1,976.9,906.3L669.442,580.981a34.589,34.589,0,0,1,0-46.893,30.109,30.109,0,0,1,44.319,0l307.587,325.32a34.589,34.589,0,0,1,0,46.893A30.478,30.478,0,0,1,999.063,916.027Z" transform="translate(-656.6 -520.5)" fill="#009c97"/>
        </g>
        <g id="Group_18907" data-name="Group 18907" transform="translate(443.691 112.836)">
          <path id="Path_36315" data-name="Path 36315" d="M411.536,491.3a25.1,25.1,0,0,0-18.382,7.993,28.645,28.645,0,0,0,0,38.767l223.23,236.064a25.134,25.134,0,0,0,36.764,0,28.645,28.645,0,0,0,0-38.767l-223.1-236.064A25.582,25.582,0,0,0,411.536,491.3Zm223.1,286.953a21.206,21.206,0,0,1-15.738-6.927L395.8,535.4a24.537,24.537,0,0,1,0-33.3,21.707,21.707,0,0,1,15.738-6.927,21.206,21.206,0,0,1,15.738,6.927l223.1,236.064a24.538,24.538,0,0,1,0,33.3A21.575,21.575,0,0,1,634.641,778.253Z" transform="translate(-385.6 -491.3)" fill="#009c97"/>
        </g>
        <g id="Group_18908" data-name="Group 18908" transform="translate(532.454 403.786)">
          <path id="Path_36316" data-name="Path 36316" d="M498.637,709.7a25.1,25.1,0,0,0-18.382,7.993,28.645,28.645,0,0,0,0,38.767l24.8,26.244a25.134,25.134,0,0,0,36.764,0,28.645,28.645,0,0,0,0-38.767l-24.8-26.244A25.832,25.832,0,0,0,498.637,709.7Zm24.678,77.267a21.206,21.206,0,0,1-15.738-6.927l-24.8-26.244a24.538,24.538,0,0,1,0-33.3,21.707,21.707,0,0,1,15.738-6.927,21.206,21.206,0,0,1,15.738,6.927l24.8,26.244a24.538,24.538,0,0,1,0,33.3A21.5,21.5,0,0,1,523.314,786.967Z" transform="translate(-472.7 -709.7)" fill="#009c97"/>
        </g>
        <g id="Group_18909" data-name="Group 18909" transform="translate(231.949 246.455)">
          <path id="Path_36317" data-name="Path 36317" d="M525.276,591.6a17.986,17.986,0,0,0-12.968,5.6,20.012,20.012,0,0,0,0,27.31L809.7,939.168a17.776,17.776,0,0,0,12.968,5.6,17.986,17.986,0,0,0,12.968-5.6,20.012,20.012,0,0,0,0-27.31L538.244,597.2A18.2,18.2,0,0,0,525.276,591.6ZM822.664,941.033A14.084,14.084,0,0,1,812.34,936.5L514.952,621.841a16.166,16.166,0,0,1,0-21.848,14.031,14.031,0,0,1,20.648,0L832.989,914.656a16.166,16.166,0,0,1,0,21.848A14.085,14.085,0,0,1,822.664,941.033Z" transform="translate(-506.925 -591.6)" fill="#009c97"/>
        </g>
        <g id="Group_18910" data-name="Group 18910" transform="translate(73.686)">
          <path id="Path_36318" data-name="Path 36318" d="M650.976,406.6a17.986,17.986,0,0,0-12.968,5.6,20.012,20.012,0,0,0,0,27.31L935.4,754.3a17.776,17.776,0,0,0,12.968,5.6,17.986,17.986,0,0,0,12.968-5.6,20.012,20.012,0,0,0,0-27.31L663.944,412.328A17.817,17.817,0,0,0,650.976,406.6ZM948.364,756.033A14.084,14.084,0,0,1,938.04,751.5L640.651,436.841a16.166,16.166,0,0,1,0-21.848,14.031,14.031,0,0,1,20.648,0l297.388,314.8a16.166,16.166,0,0,1,0,21.848A14.473,14.473,0,0,1,948.364,756.033Z" transform="translate(-632.625 -406.6)" fill="#009c97"/>
        </g>
      </g>
    </g>
    <g id="top_left_diagonals" data-name="top left diagonals" transform="translate(-61.831 -322.88)">
      <g id="Group_18935" data-name="Group 18935" transform="translate(335.711 69.969)" opacity="0.75">
        <line id="Line_572" data-name="Line 572" x2="286.183" y2="302.94" transform="translate(43.929 61.331)" fill="#009c97"/>
      </g>
      <g id="Group_18950" data-name="Group 18950" transform="translate(179.845 294.84)">
        <line id="Line_572-2" data-name="Line 572" x2="286.183" y2="302.94" transform="translate(43.929 61.331)" fill="#009c97"/>
        <path id="Path_36306" data-name="Path 36306" d="M942.43,64.2a1.335,1.335,0,0,0-1.133.533,1.93,1.93,0,0,0,0,2.531L1227.48,370.07a1.68,1.68,0,0,0,2.392,0,1.93,1.93,0,0,0,0-2.531L943.563,64.6A1.7,1.7,0,0,0,942.43,64.2Z" transform="translate(-940.825 -64.2)" fill="#009c97"/>
        <path id="Path_36336" data-name="Path 36336" d="M142.149,794.5c-5.38,0-9.749,4.622-9.749,10.315s4.368,10.315,9.749,10.315,9.749-4.622,9.749-10.315S147.529,794.5,142.149,794.5Zm0,19.365a9.064,9.064,0,1,1,8.553-9.05A8.825,8.825,0,0,1,142.149,813.865Z" transform="translate(170 -475.218)" fill="#13a6a2" stroke="#13a6a2" stroke-width="1.5"/>
      </g>
      <g id="Group_18944" data-name="Group 18944">
        <g id="Group_18912" data-name="Group 18912" transform="translate(477.141 275.712)">
          <path id="Path_36319" data-name="Path 36319" d="M1173.5,68.6a33.934,33.934,0,0,0-24.8,10.924,38.867,38.867,0,0,0,0,52.488l307.461,325.32a33.728,33.728,0,0,0,24.8,10.924,34.311,34.311,0,0,0,24.8-10.791c13.6-14.388,13.6-37.967,0-52.488L1198.3,79.657A33.371,33.371,0,0,0,1173.5,68.6Zm307.587,395.66a30.2,30.2,0,0,1-22.159-9.725l-307.461-325.32a34.588,34.588,0,0,1,0-46.893,30.109,30.109,0,0,1,44.319,0l307.461,325.32a34.589,34.589,0,0,1,0,46.893A30.41,30.41,0,0,1,1481.089,464.26Z" transform="translate(-1138.5 -68.6)" fill="#00a6a2"/>
        </g>
        <g id="Group_18915" data-name="Group 18915" transform="translate(496.391 143.629)">
          <path id="Path_36322" data-name="Path 36322" d="M925.963-12.2a12.156,12.156,0,0,0-8.688,3.73A13.4,13.4,0,0,0,913.75.722a13.646,13.646,0,0,0,3.525,9.192l188.354,199.3a11.944,11.944,0,0,0,8.688,3.73,12.157,12.157,0,0,0,8.688-3.73,13.4,13.4,0,0,0,0-18.251L934.65-8.337A11.579,11.579,0,0,0,925.963-12.2Zm188.354,221.276a8.251,8.251,0,0,1-6.043-2.664L919.919,7.117A9.241,9.241,0,0,1,917.4.722a9.241,9.241,0,0,1,2.518-6.395,8.252,8.252,0,0,1,6.044-2.664,8.252,8.252,0,0,1,6.043,2.664l188.354,199.3a9.293,9.293,0,0,1,0,12.789A8.252,8.252,0,0,1,1114.317,209.076Z" transform="translate(-913.75 12.2)" fill="#00a6a2"/>
        </g>
        <g id="Group_18916" data-name="Group 18916" transform="translate(416.364 395.366)">
          <path id="Path_36323" data-name="Path 36323" d="M1074.176,73.1a17.986,17.986,0,0,0-12.968,5.6,20.012,20.012,0,0,0,0,27.31L1358.6,420.668a17.776,17.776,0,0,0,12.968,5.6,17.987,17.987,0,0,0,12.968-5.6,20.012,20.012,0,0,0,0-27.31L1087.144,78.7A17.775,17.775,0,0,0,1074.176,73.1ZM1371.69,422.533A14.084,14.084,0,0,1,1361.366,418L1063.978,103.341a16.166,16.166,0,0,1,0-21.848,14.031,14.031,0,0,1,20.648,0l297.388,314.663a16.166,16.166,0,0,1,0,21.848A14.084,14.084,0,0,1,1371.69,422.533Z" transform="translate(-1055.825 -73.1)" fill="#00a6a2"/>
        </g>
        <g id="Group_18949" data-name="Group 18949" transform="translate(70 30)">
          <path id="Path_36323-2" data-name="Path 36323" d="M1074.176,73.1a17.986,17.986,0,0,0-12.968,5.6,20.012,20.012,0,0,0,0,27.31L1358.6,420.668a17.776,17.776,0,0,0,12.968,5.6,17.987,17.987,0,0,0,12.968-5.6,20.012,20.012,0,0,0,0-27.31L1087.144,78.7A17.775,17.775,0,0,0,1074.176,73.1ZM1371.69,422.533A14.084,14.084,0,0,1,1361.366,418L1063.978,103.341a16.166,16.166,0,0,1,0-21.848,14.031,14.031,0,0,1,20.648,0l297.388,314.663a16.166,16.166,0,0,1,0,21.848A14.084,14.084,0,0,1,1371.69,422.533Z" transform="translate(-1055.825 -73.1)" fill="#00a6a2"/>
        </g>
      </g>
    </g>
    <g id="top_left_diagonals-2" data-name="top left diagonals" transform="translate(757.378 607.592)">
      <g id="Group_18935-2" data-name="Group 18935" transform="translate(364.028 -14)">
        <line id="Line_572-3" data-name="Line 572" x2="286.183" y2="302.94" transform="translate(53.678 61.331)" fill="#009c97"/>
        <path id="Path_36306-2" data-name="Path 36306" d="M942.43,64.2a1.335,1.335,0,0,0-1.133.533,1.93,1.93,0,0,0,0,2.531L1227.48,370.07a1.68,1.68,0,0,0,2.392,0,1.93,1.93,0,0,0,0-2.531L943.563,64.6A1.7,1.7,0,0,0,942.43,64.2Z" transform="translate(-931.076 -64.2)" fill="#009c97"/>
        <path id="Path_36334" data-name="Path 36334" d="M142.149,794.5c-5.38,0-9.749,4.622-9.749,10.315s4.368,10.315,9.749,10.315,9.749-4.622,9.749-10.315S147.529,794.5,142.149,794.5Zm0,19.365a9.064,9.064,0,1,1,8.553-9.05A8.825,8.825,0,0,1,142.149,813.865Z" transform="translate(178.177 -478.576)" fill="#13a6a2" stroke="#13a6a2" stroke-width="1.5"/>
      </g>
      <g id="Group_18944-2" data-name="Group 18944" transform="translate(0 50.208)">
        <g id="Group_18912-2" data-name="Group 18912" transform="translate(388.91 259.236)">
          <path id="Path_36319-2" data-name="Path 36319" d="M1173.5,68.6a33.934,33.934,0,0,0-24.8,10.924,38.867,38.867,0,0,0,0,52.488l307.461,325.32a33.728,33.728,0,0,0,24.8,10.924,34.311,34.311,0,0,0,24.8-10.791c13.6-14.388,13.6-37.967,0-52.488L1198.3,79.657A33.371,33.371,0,0,0,1173.5,68.6Zm307.587,395.66a30.2,30.2,0,0,1-22.159-9.725l-307.461-325.32a34.588,34.588,0,0,1,0-46.893,30.109,30.109,0,0,1,44.319,0l307.461,325.32a34.589,34.589,0,0,1,0,46.893A30.41,30.41,0,0,1,1481.089,464.26Z" transform="translate(-1138.5 -68.6)" fill="#00a6a2"/>
        </g>
        <g id="Group_18915-2" data-name="Group 18915" transform="translate(452.548 167.582)">
          <path id="Path_36322-2" data-name="Path 36322" d="M925.963-12.2a12.156,12.156,0,0,0-8.688,3.73A13.4,13.4,0,0,0,913.75.722a13.646,13.646,0,0,0,3.525,9.192l188.354,199.3a11.944,11.944,0,0,0,8.688,3.73,12.157,12.157,0,0,0,8.688-3.73,13.4,13.4,0,0,0,0-18.251L934.65-8.337A11.579,11.579,0,0,0,925.963-12.2Zm188.354,221.276a8.251,8.251,0,0,1-6.043-2.664L919.919,7.117A9.241,9.241,0,0,1,917.4.722a9.241,9.241,0,0,1,2.518-6.395,8.252,8.252,0,0,1,6.044-2.664,8.252,8.252,0,0,1,6.043,2.664l188.354,199.3a9.293,9.293,0,0,1,0,12.789A8.252,8.252,0,0,1,1114.317,209.076Z" transform="translate(-913.75 12.2)" fill="#00a6a2"/>
        </g>
        <g id="Group_18916-2" data-name="Group 18916" transform="translate(291.301 295.068)">
          <path id="Path_36323-3" data-name="Path 36323" d="M1074.176,73.1a17.986,17.986,0,0,0-12.968,5.6,20.012,20.012,0,0,0,0,27.31L1358.6,420.668a17.776,17.776,0,0,0,12.968,5.6,17.987,17.987,0,0,0,12.968-5.6,20.012,20.012,0,0,0,0-27.31L1087.144,78.7A17.775,17.775,0,0,0,1074.176,73.1ZM1371.69,422.533A14.084,14.084,0,0,1,1361.366,418L1063.978,103.341a16.166,16.166,0,0,1,0-21.848,14.031,14.031,0,0,1,20.648,0l297.388,314.663a16.166,16.166,0,0,1,0,21.848A14.084,14.084,0,0,1,1371.69,422.533Z" transform="translate(-1055.825 -73.1)" fill="#00a6a2"/>
        </g>
        <g id="Group_18949-2" data-name="Group 18949" transform="translate(-51 -70)">
          <path id="Path_36323-4" data-name="Path 36323" d="M1074.176,73.1a17.986,17.986,0,0,0-12.968,5.6,20.012,20.012,0,0,0,0,27.31L1358.6,420.668a17.776,17.776,0,0,0,12.968,5.6,17.987,17.987,0,0,0,12.968-5.6,20.012,20.012,0,0,0,0-27.31L1087.144,78.7A17.775,17.775,0,0,0,1074.176,73.1ZM1371.69,422.533A14.084,14.084,0,0,1,1361.366,418L1063.978,103.341a16.166,16.166,0,0,1,0-21.848,14.031,14.031,0,0,1,20.648,0l297.388,314.663a16.166,16.166,0,0,1,0,21.848A14.084,14.084,0,0,1,1371.69,422.533Z" transform="translate(-1055.825 -73.1)" fill="#00a6a2"/>
        </g>
      </g>
    </g>
    <g id="Group_18945" data-name="Group 18945" transform="translate(1504.775 -11.496)">
      <g id="Group_18918" data-name="Group 18918" opacity="0.5" clip-path="url(#clip-path-2)">
        <path id="Path_36324" data-name="Path 36324" d="M-591.3,22.3l-3.9,4.13L310.689,984.939l3.9-4.13Zm933.84,958.509-3.9,4.13L-567.375,26.43l3.9-4.13Zm27.825,0-3.9,4.13L-539.424,26.43l3.9-4.13Zm27.951,0-3.9,4.13L-511.473,26.43l3.9-4.13Zm27.951,0-3.9,4.13L-483.648,26.43l3.9-4.13Zm27.825,0-3.9,4.13L-455.7,26.43l3.9-4.13Zm27.951,0-3.9,4.13L-427.746,26.43l3.9-4.13Zm27.951,0-3.9,4.13L-399.8,26.43l3.9-4.13Zm27.951,0-3.9,4.13L-371.97,26.43l3.9-4.13Zm27.825,0-3.9,4.13L-344.019,26.43l3.9-4.13Zm27.951,0-3.9,4.13L-316.068,26.43l3.9-4.13Zm27.951,0-3.9,4.13L-288.243,26.43l3.9-4.13Zm27.825,0-3.9,4.13L-260.292,26.43l3.9-4.13Zm27.951,0-3.9,4.13L-232.341,26.43l3.9-4.13Zm27.951,0-3.9,4.13L-204.39,26.43l3.9-4.13Zm27.951,0-3.9,4.13L-176.565,26.43l3.9-4.13Zm27.825,0-3.9,4.13L-148.614,26.43l3.9-4.13Zm27.951,0-3.9,4.13L-120.663,26.43l3.9-4.13Zm27.951,0-3.9,4.13L-92.838,26.43l3.9-4.13Zm27.825,0-3.9,4.13L-64.887,26.43l3.9-4.13Zm27.951,0-3.9,4.13L-36.936,26.43l3.9-4.13Zm27.951,0-3.9,4.13L-9.111,26.43l3.9-4.13Zm27.825,0-3.9,4.13L18.84,26.43l3.9-4.13Zm27.951,0-3.9,4.13L46.791,26.43l3.9-4.13Zm27.951,0-3.9,4.13L74.742,26.43l3.9-4.13Zm27.951,0-3.9,4.13L102.567,26.43l3.9-4.13Zm27.825,0-3.9,4.13L130.518,26.43l3.9-4.13Zm27.951,0-3.9,4.13L158.469,26.43l3.9-4.13Zm27.951,0-3.9,4.13L186.295,26.43l3.9-4.13Zm27.825,0-3.9,4.13L214.246,26.43l3.9-4.13Zm27.951,0-3.9,4.13L242.2,26.43l3.9-4.13Zm27.951,0-3.9,4.13L270.147,26.43l3.9-4.13Zm27.951,0-3.9,4.13L297.973,26.43l3.9-4.13Zm27.825,0-3.9,4.13L325.924,26.43l3.9-4.13Zm27.951,0-3.9,4.13L353.875,26.43l3.9-4.13Zm27.951,0-3.9,4.13L381.7,26.43l3.9-4.13Zm27.825,0-3.9,4.13L409.651,26.43l3.9-4.13Zm27.951,0-3.9,4.13L437.6,26.43l3.9-4.13Zm27.951,0-3.9,4.13L465.553,26.43l3.9-4.13Zm27.951,0-3.9,4.13L493.378,26.43l3.9-4.13Zm27.825,0-3.9,4.13L521.329,26.43l3.9-4.13Z" transform="translate(77.841 -7.554)" fill="#13a6a2"/>
      </g>
    </g>
    <g id="Group_18946" data-name="Group 18946" transform="translate(-534.393 952.708)">
      <g id="Group_18923" data-name="Group 18923" transform="translate(0 0)" opacity="0.7">
        <g id="Group_18922" data-name="Group 18922" transform="translate(0 0)" clip-path="url(#clip-path-3)">
          <path id="Path_36326" data-name="Path 36326" d="M806.825,320.8l-3.525,3.73,811.838,858.995,3.525-3.73Zm836.893,858.995-3.525,3.73L828.355,324.53l3.525-3.73Zm24.929,0-3.525,3.73L853.285,324.53l3.526-3.73Zm25.055,0-3.525,3.73L878.34,324.53l3.525-3.73Zm25.055,0-3.526,3.73L903.4,324.53l3.525-3.73Zm24.929,0-3.525,3.73L928.324,324.53l3.525-3.73Zm25.055,0-3.526,3.73L953.379,324.53l3.525-3.73Zm25.055,0-3.526,3.73L978.435,324.53l3.526-3.73Zm25.055,0-3.525,3.73L1003.49,324.53l3.525-3.73Zm24.929,0-3.526,3.73L1028.419,324.53l3.525-3.73Zm25.055,0-3.525,3.73L1053.474,324.53,1057,320.8Zm25.055,0-3.525,3.73L1078.53,324.53l3.525-3.73Zm24.929,0-3.525,3.73L1103.459,324.53l3.525-3.73Zm25.055,0-3.525,3.73L1128.514,324.53l3.526-3.73Zm25.055,0-3.525,3.73L1153.569,324.53l3.525-3.73Zm24.929,0-3.526,3.73L1178.5,324.53l3.525-3.73Zm25.055,0-3.525,3.73L1203.554,324.53l3.526-3.73Zm25.055,0-3.525,3.73L1228.609,324.53l3.525-3.73Zm24.929,0-3.525,3.73L1253.538,324.53l3.526-3.73Zm25.055,0-3.525,3.73L1278.593,324.53l3.525-3.73Zm25.055,0-3.525,3.73L1303.649,324.53l3.525-3.73Zm24.929,0-3.526,3.73L1328.577,324.53l3.526-3.73Zm25.055,0-3.525,3.73L1353.633,324.53l3.526-3.73Zm25.055,0-3.525,3.73L1378.688,324.53l3.525-3.73Zm24.929,0-3.525,3.73L1403.617,324.53l3.526-3.73Zm25.055,0-3.525,3.73L1428.672,324.53l3.525-3.73Zm25.055,0-3.525,3.73L1453.727,324.53l3.525-3.73Zm24.929,0-3.526,3.73L1478.657,324.53l3.525-3.73Zm25.055,0-3.525,3.73L1503.712,324.53l3.525-3.73Zm25.055,0-3.525,3.73L1528.767,324.53l3.526-3.73Zm24.929,0-3.526,3.73L1553.7,324.53l3.526-3.73Zm25.055,0-3.525,3.73L1578.751,324.53l3.526-3.73Zm25.055,0-3.525,3.73L1603.807,324.53l3.525-3.73Zm24.929,0-3.525,3.73L1628.736,324.53l3.526-3.73Zm25.055,0-3.525,3.73L1653.917,324.53l3.525-3.73Zm25.055,0-3.526,3.73L1678.846,324.53l3.525-3.73Zm24.929,0-3.525,3.73L1703.776,324.53l3.526-3.73Zm25.055,0-3.525,3.73L1728.831,324.53l3.525-3.73Zm25.055,0-3.526,3.73L1753.886,324.53l3.526-3.73Zm24.929,0-3.525,3.73L1778.815,324.53l3.526-3.73Zm25.055,0-3.525,3.73L1803.871,324.53l3.525-3.73Z" transform="translate(-1342.861 -383.321)" fill="url(#linear-gradient-2)"/>
        </g>
      </g>
      <g id="Group_18925" data-name="Group 18925" transform="translate(219.745 216.954)">
        <g id="Group_18924" data-name="Group 18924" transform="translate(0 0)" clip-path="url(#clip-path-4)">
          <path id="Path_36327" data-name="Path 36327" d="M806.825,320.8l-3.525,3.73,811.838,858.995,3.525-3.73Zm836.893,858.995-3.525,3.73L828.355,324.53l3.525-3.73Zm24.929,0-3.525,3.73L853.285,324.53l3.526-3.73Zm25.055,0-3.525,3.73L878.34,324.53l3.525-3.73Zm25.055,0-3.526,3.73L903.4,324.53l3.525-3.73Zm24.929,0-3.525,3.73L928.324,324.53l3.525-3.73Zm25.055,0-3.526,3.73L953.379,324.53l3.525-3.73Zm25.055,0-3.526,3.73L978.435,324.53l3.526-3.73Zm25.055,0-3.525,3.73L1003.49,324.53l3.525-3.73Zm24.929,0-3.526,3.73L1028.419,324.53l3.525-3.73Zm25.055,0-3.525,3.73L1053.474,324.53,1057,320.8Zm25.055,0-3.525,3.73L1078.53,324.53l3.525-3.73Zm24.929,0-3.525,3.73L1103.459,324.53l3.525-3.73Zm25.055,0-3.525,3.73L1128.514,324.53l3.526-3.73Zm25.055,0-3.525,3.73L1153.569,324.53l3.525-3.73Zm24.929,0-3.526,3.73L1178.5,324.53l3.525-3.73Zm25.055,0-3.525,3.73L1203.554,324.53l3.526-3.73Zm25.055,0-3.525,3.73L1228.609,324.53l3.525-3.73Zm24.929,0-3.525,3.73L1253.538,324.53l3.526-3.73Zm25.055,0-3.525,3.73L1278.593,324.53l3.525-3.73Zm25.055,0-3.525,3.73L1303.649,324.53l3.525-3.73Zm24.929,0-3.526,3.73L1328.577,324.53l3.526-3.73Zm25.055,0-3.525,3.73L1353.633,324.53l3.526-3.73Zm25.055,0-3.525,3.73L1378.688,324.53l3.525-3.73Zm24.929,0-3.525,3.73L1403.617,324.53l3.526-3.73Zm25.055,0-3.525,3.73L1428.672,324.53l3.525-3.73Zm25.055,0-3.525,3.73L1453.727,324.53l3.525-3.73Zm24.929,0-3.526,3.73L1478.657,324.53l3.525-3.73Zm25.055,0-3.525,3.73L1503.712,324.53l3.525-3.73Zm25.055,0-3.525,3.73L1528.767,324.53l3.526-3.73Zm24.929,0-3.526,3.73L1553.7,324.53l3.526-3.73Zm25.055,0-3.525,3.73L1578.751,324.53l3.526-3.73Zm25.055,0-3.525,3.73L1603.807,324.53l3.525-3.73Zm24.929,0-3.525,3.73L1628.736,324.53l3.526-3.73Zm25.055,0-3.525,3.73L1653.917,324.53l3.525-3.73Zm25.055,0-3.526,3.73L1678.846,324.53l3.525-3.73Zm24.929,0-3.525,3.73L1703.776,324.53l3.526-3.73Zm25.055,0-3.525,3.73L1728.831,324.53l3.525-3.73Zm25.055,0-3.526,3.73L1753.886,324.53l3.526-3.73Zm24.929,0-3.525,3.73L1778.815,324.53l3.526-3.73Zm25.055,0-3.525,3.73L1803.871,324.53l3.525-3.73Z" transform="translate(-1562.606 -600.275)" fill="url(#linear-gradient-3)"/>
        </g>
      </g>
    </g>
    <path id="Path_36337" data-name="Path 36337" d="M159.092,794.5c-14.731,0-26.692,12.656-26.692,28.242s11.961,28.242,26.692,28.242,26.692-12.656,26.692-28.242S173.823,794.5,159.092,794.5Zm0,53.021c-12.842,0-23.418-11.057-23.418-24.779,0-13.588,10.45-24.779,23.418-24.779,12.842,0,23.418,11.057,23.418,24.779C182.51,836.331,171.934,847.521,159.092,847.521Z" transform="translate(259.071 -49.998)" fill="#009c97"/>
    <g id="Group_18975" data-name="Group 18975">
      <path id="Path_36341" data-name="Path 36341" d="M942.43,64.2a1.335,1.335,0,0,0-1.133.533,1.93,1.93,0,0,0,0,2.531L1227.48,370.07a1.68,1.68,0,0,0,2.392,0,1.93,1.93,0,0,0,0-2.531L943.563,64.6A1.7,1.7,0,0,0,942.43,64.2Z" transform="translate(-417.813 -351.24)" fill="#009c97"/>
      <g id="Group_18974" data-name="Group 18974" transform="translate(894.435 -298.788)">
        <path id="Path_36231-2" data-name="Path 36231" d="M319.348,759.8a3.336,3.336,0,1,0,3.148,3.33A3.211,3.211,0,0,0,319.348,759.8Z" transform="translate(-262.564 -666.946)" fill="#009c97" opacity="0.7"/>
        <path id="Path_36232-2" data-name="Path 36232" d="M319.348,736.5a3.336,3.336,0,1,0,3.148,3.33A3.3,3.3,0,0,0,319.348,736.5Z" transform="translate(-262.564 -674.686)" fill="#009c97" opacity="0.7"/>
        <path id="Path_36233-2" data-name="Path 36233" d="M319.348,713.3a3.336,3.336,0,1,0,3.148,3.33A3.211,3.211,0,0,0,319.348,713.3Z" transform="translate(-262.564 -682.393)" fill="#009c97" opacity="0.7"/>
        <path id="Path_36234-2" data-name="Path 36234" d="M319.348,690.1a3.336,3.336,0,1,0,3.148,3.331A3.211,3.211,0,0,0,319.348,690.1Z" transform="translate(-262.564 -690.1)" fill="#009c97" opacity="0.7"/>
        <path id="Path_36235-2" data-name="Path 36235" d="M298.042,759.8a3.336,3.336,0,1,0,3.148,3.33A3.135,3.135,0,0,0,298.042,759.8Z" transform="translate(-214.441 -666.946)" fill="#009c97" opacity="0.7"/>
        <path id="Path_36236-2" data-name="Path 36236" d="M298.042,736.5a3.336,3.336,0,1,0,3.148,3.33A3.211,3.211,0,0,0,298.042,736.5Z" transform="translate(-214.441 -674.686)" fill="#009c97" opacity="0.7"/>
        <path id="Path_36237-2" data-name="Path 36237" d="M298.042,713.3a3.336,3.336,0,1,0,3.148,3.33A3.135,3.135,0,0,0,298.042,713.3Z" transform="translate(-214.441 -682.393)" fill="#009c97" opacity="0.7"/>
        <path id="Path_36238-2" data-name="Path 36238" d="M298.042,690.1a3.336,3.336,0,1,0,3.148,3.331A3.135,3.135,0,0,0,298.042,690.1Z" transform="translate(-214.441 -690.1)" fill="#009c97" opacity="0.7"/>
        <path id="Path_36247-2" data-name="Path 36247" d="M319.348,829.5a3.336,3.336,0,1,0,3.148,3.331A3.211,3.211,0,0,0,319.348,829.5Z" transform="translate(-262.564 -643.793)" fill="#009c97" opacity="0.7"/>
        <path id="Path_36248-2" data-name="Path 36248" d="M319.348,806.3a3.336,3.336,0,1,0,3.148,3.331A3.211,3.211,0,0,0,319.348,806.3Z" transform="translate(-262.564 -651.5)" fill="#009c97" opacity="0.7"/>
        <path id="Path_36249-2" data-name="Path 36249" d="M319.348,783a3.336,3.336,0,1,0,3.148,3.331A3.211,3.211,0,0,0,319.348,783Z" transform="translate(-262.564 -659.24)" fill="#009c97" opacity="0.7"/>
        <path id="Path_36250-2" data-name="Path 36250" d="M298.042,829.5a3.336,3.336,0,1,0,3.148,3.331A3.135,3.135,0,0,0,298.042,829.5Z" transform="translate(-214.441 -643.793)" fill="#009c97" opacity="0.7"/>
        <path id="Path_36251-2" data-name="Path 36251" d="M298.042,806.3a3.336,3.336,0,1,0,3.148,3.331A3.135,3.135,0,0,0,298.042,806.3Z" transform="translate(-214.441 -651.5)" fill="#009c97" opacity="0.7"/>
        <path id="Path_36252-2" data-name="Path 36252" d="M298.042,783a3.336,3.336,0,1,0,3.148,3.331A3.135,3.135,0,0,0,298.042,783Z" transform="translate(-214.441 -659.24)" fill="#009c97" opacity="0.7"/>
        <path id="Path_36254-2" data-name="Path 36254" d="M361.948,759.8a3.336,3.336,0,1,0,3.148,3.33A3.211,3.211,0,0,0,361.948,759.8Z" transform="translate(-358.8 -666.946)" fill="#009c97" opacity="0.7"/>
        <path id="Path_36255-2" data-name="Path 36255" d="M361.948,736.5a3.336,3.336,0,1,0,3.148,3.33A3.3,3.3,0,0,0,361.948,736.5Z" transform="translate(-358.8 -674.686)" fill="#009c97" opacity="0.7"/>
        <path id="Path_36256-2" data-name="Path 36256" d="M361.948,713.3a3.336,3.336,0,1,0,3.148,3.33A3.211,3.211,0,0,0,361.948,713.3Z" transform="translate(-358.8 -682.393)" fill="#009c97" opacity="0.7"/>
        <path id="Path_36257-2" data-name="Path 36257" d="M361.948,690.1a3.336,3.336,0,1,0,3.148,3.331A3.211,3.211,0,0,0,361.948,690.1Z" transform="translate(-358.8 -690.1)" fill="#009c97" opacity="0.7"/>
        <path id="Path_36258-2" data-name="Path 36258" d="M340.648,759.8a3.336,3.336,0,1,0,3.148,3.33A3.211,3.211,0,0,0,340.648,759.8Z" transform="translate(-310.682 -666.946)" fill="#009c97" opacity="0.7"/>
        <path id="Path_36259-2" data-name="Path 36259" d="M340.648,736.5a3.336,3.336,0,1,0,3.148,3.33A3.3,3.3,0,0,0,340.648,736.5Z" transform="translate(-310.682 -674.686)" fill="#009c97" opacity="0.7"/>
        <path id="Path_36260-2" data-name="Path 36260" d="M340.648,713.3a3.336,3.336,0,1,0,3.148,3.33A3.211,3.211,0,0,0,340.648,713.3Z" transform="translate(-310.682 -682.393)" fill="#009c97" opacity="0.7"/>
        <path id="Path_36261-2" data-name="Path 36261" d="M340.648,690.1a3.336,3.336,0,1,0,3.148,3.331A3.211,3.211,0,0,0,340.648,690.1Z" transform="translate(-310.682 -690.1)" fill="#009c97" opacity="0.7"/>
        <path id="Path_36262-2" data-name="Path 36262" d="M361.948,829.5a3.336,3.336,0,1,0,3.148,3.331A3.211,3.211,0,0,0,361.948,829.5Z" transform="translate(-358.8 -643.793)" fill="#009c97" opacity="0.7"/>
        <path id="Path_36263-2" data-name="Path 36263" d="M361.948,806.3a3.336,3.336,0,1,0,3.148,3.331A3.211,3.211,0,0,0,361.948,806.3Z" transform="translate(-358.8 -651.5)" fill="#009c97" opacity="0.7"/>
        <path id="Path_36264-2" data-name="Path 36264" d="M361.948,783a3.336,3.336,0,1,0,3.148,3.331A3.211,3.211,0,0,0,361.948,783Z" transform="translate(-358.8 -659.24)" fill="#009c97" opacity="0.7"/>
        <path id="Path_36265-2" data-name="Path 36265" d="M340.648,829.5a3.336,3.336,0,1,0,3.148,3.331A3.211,3.211,0,0,0,340.648,829.5Z" transform="translate(-310.682 -643.793)" fill="#009c97" opacity="0.7"/>
        <path id="Path_36266-2" data-name="Path 36266" d="M340.648,806.3a3.336,3.336,0,1,0,3.148,3.331A3.211,3.211,0,0,0,340.648,806.3Z" transform="translate(-310.682 -651.5)" fill="#009c97" opacity="0.7"/>
        <path id="Path_36267-2" data-name="Path 36267" d="M340.648,783a3.336,3.336,0,1,0,3.148,3.331A3.211,3.211,0,0,0,340.648,783Z" transform="translate(-310.682 -659.24)" fill="#009c97" opacity="0.7"/>
        <path id="Path_36273-2" data-name="Path 36273" d="M319.348,876a3.336,3.336,0,1,0,3.148,3.331A3.211,3.211,0,0,0,319.348,876Z" transform="translate(-262.564 -628.346)" fill="#009c97" opacity="0.7"/>
        <path id="Path_36274-2" data-name="Path 36274" d="M319.348,852.7a3.336,3.336,0,1,0,3.148,3.331A3.3,3.3,0,0,0,319.348,852.7Z" transform="translate(-262.564 -636.086)" fill="#009c97" opacity="0.7"/>
        <path id="Path_36275-2" data-name="Path 36275" d="M298.042,876a3.336,3.336,0,1,0,3.148,3.331A3.135,3.135,0,0,0,298.042,876Z" transform="translate(-214.441 -628.346)" fill="#009c97" opacity="0.7"/>
        <path id="Path_36276-2" data-name="Path 36276" d="M298.042,852.7a3.336,3.336,0,1,0,3.148,3.331A3.212,3.212,0,0,0,298.042,852.7Z" transform="translate(-214.441 -636.086)" fill="#009c97" opacity="0.7"/>
        <path id="Path_36277-2" data-name="Path 36277" d="M361.948,876a3.336,3.336,0,1,0,3.148,3.331A3.211,3.211,0,0,0,361.948,876Z" transform="translate(-358.8 -628.346)" fill="#009c97" opacity="0.7"/>
        <path id="Path_36278-2" data-name="Path 36278" d="M361.948,852.7a3.336,3.336,0,1,0,3.148,3.331A3.3,3.3,0,0,0,361.948,852.7Z" transform="translate(-358.8 -636.086)" fill="#009c97" opacity="0.7"/>
        <path id="Path_36279-2" data-name="Path 36279" d="M340.648,876a3.336,3.336,0,1,0,3.148,3.331A3.211,3.211,0,0,0,340.648,876Z" transform="translate(-310.682 -628.346)" fill="#009c97" opacity="0.7"/>
        <path id="Path_36280-2" data-name="Path 36280" d="M340.648,852.7a3.336,3.336,0,1,0,3.148,3.331A3.3,3.3,0,0,0,340.648,852.7Z" transform="translate(-310.682 -636.086)" fill="#009c97" opacity="0.7"/>
      </g>
    </g>
  </g>
</svg>
