<svg xmlns="http://www.w3.org/2000/svg" width="37.31" height="39.675" viewBox="0 0 37.31 39.675">
  <g id="exclaimation_mark_icon" data-name="exclaimation mark icon" transform="translate(0 -140.639)">
    <rect id="Rectangle_4745" data-name="Rectangle 4745" width="26.382" height="26.382" rx="5" transform="translate(18.655 143.004) rotate(45)" fill="#fff2d9"/>
    <ellipse id="Ellipse_965" data-name="Ellipse 965" cx="3.726" cy="3.078" rx="3.726" ry="3.078" transform="translate(14.516 169.918) rotate(-22)" fill="#ffa70f"/>
    <path id="Path_11305" data-name="Path 11305" d="M10.46.587h3.886c.895,0,2.354.611,1.607,2.159a100.163,100.163,0,0,0-3.786,10.216,98.6,98.6,0,0,0-2.6,11.086c-.12.724-.616,1.62-1.511,1.62H7.088c-.895,0-1.256-.394-1.3-1.62a91.9,91.9,0,0,1,.524-11.5A69.216,69.216,0,0,1,8.459,2.207C8.825,1.225,9.241.587,10.46.587Z" transform="translate(11.496 140.052)" fill="#ffa70f"/>
  </g>
</svg>
