<svg xmlns="http://www.w3.org/2000/svg" width="24" height="24" viewBox="0 0 24 24">
  <g id="small_hand_icon_with_circle" data-name="small hand icon with circle" transform="translate(-771)">
    <circle id="Ellipse_1388" data-name="Ellipse 1388" cx="12" cy="12" r="12" transform="translate(771)" fill="rgba(0,166,162,0.15)"/>
    <g id="receive_small_icon" data-name="receive small icon" transform="translate(690.026 -304.139)">
      <path id="Path_36225" data-name="Path 36225" d="M101.29,316.611l-1.465.62a7.237,7.237,0,0,1-1.521.845c-.939.3-3.117.77-3.211.789H95l-2.479-.056a.449.449,0,0,1-.451-.469.435.435,0,0,1,.469-.432l2.309.056a.706.706,0,0,0,.207-.019c.526-.113,2.122-.469,2.873-.714a.357.357,0,0,0,.3-.375,1.349,1.349,0,0,0-.488-1.108,6.229,6.229,0,0,0-2.122-.038,11,11,0,0,1-1.934.056,10.315,10.315,0,0,1-1.483-.282,5.12,5.12,0,0,0-3.1.188c-.319.132-.638.244-.92.375a11.533,11.533,0,0,1-1.9.563l-1.22.244a.625.625,0,0,0-.507.62v3.511a.63.63,0,0,0,.751.62l1.258-.263a3.681,3.681,0,0,1,1.5.019l3.83.845a3.6,3.6,0,0,0,2.61-.207l7.548-3.605a.445.445,0,0,0,.244-.244,1.059,1.059,0,0,0-1.014-1.54Z" fill="#00a6a2" fill-rule="evenodd"/>
      <circle id="Ellipse_1452" data-name="Ellipse 1452" cx="2.5" cy="2.5" r="2.5" transform="translate(91.358 308.481)" fill="#00a6a2"/>
      <path id="Path_36226" data-name="Path 36226" d="M1.075-.307,2-.407a1,1,0,0,1,1,1v4.1a1,1,0,0,1-1,1l-.925.1a1,1,0,0,1-1-1V.693A1,1,0,0,1,1.075-.307Z" transform="translate(84.479 316.157)" fill="#00a6a2"/>
    </g>
  </g>
</svg>
