<svg xmlns="http://www.w3.org/2000/svg" width="109.972" height="109.971" viewBox="0 0 109.972 109.971"><defs><style>.a{fill:#e1f1e2;}.b{fill:#008a05;fill-rule:evenodd;}</style></defs><rect class="a" width="63" height="63" rx="10" transform="translate(56.709 20.876) rotate(45)"/><g transform="translate(-161.791 -45.077)"><rect class="a" width="5" height="5" rx="1" transform="translate(173.381 91.418) rotate(30)"/><rect class="a" width="7" height="7" rx="1" transform="matrix(0.978, -0.208, 0.208, 0.978, 178.847, 70.848)"/><rect class="a" width="5" height="5" rx="1" transform="matrix(0.978, -0.208, 0.208, 0.978, 263.289, 89.941)"/><rect class="a" width="7.697" height="7.697" rx="1" transform="translate(200.449 62.795) rotate(-31)"/><rect class="a" width="4.697" height="4.697" rx="1" transform="translate(162.201 67.176) rotate(5)"/><rect class="a" width="4.697" height="4.697" rx="1" transform="translate(267.084 59.216) rotate(5)"/><rect class="a" width="4.697" height="4.697" rx="1" transform="translate(200.859 45.077) rotate(5)"/><rect class="a" width="4.697" height="4.697" rx="1" transform="translate(231.628 64.305) rotate(5)"/><rect class="a" width="6.697" height="6.697" rx="1" transform="matrix(0.891, 0.454, -0.454, 0.891, 250.629, 65.905)"/><rect class="a" width="4.047" height="4.047" rx="1" transform="translate(251.64 51.013) rotate(-15)"/><rect class="a" width="4.047" height="4.047" rx="1" transform="translate(177.711 51.762) rotate(-15)"/><rect class="a" width="4.047" height="4.047" rx="1" transform="translate(226.264 48.537) rotate(-15)"/></g><g transform="translate(-58.96 61.003)"><g transform="translate(90.975 -32.161)"><path class="b" d="M0,32.776c1.524-3.049,4.573-6.86,9.909-5.336,4.573,1.524,7.622,6.1,9.909,12.2C38.112,19.056,53.357,4.573,71.65,0c2.287,0,3.049,0,1.524,1.524C53.357,15.245,34.3,35.825,19.056,62.5a1.429,1.429,0,0,1-2.287,0c-3.049-7.622-5.336-15.245-9.147-22.867C6.1,35.825,3.811,32.776,0,32.776Z"/></g></g></svg>