<svg id="Failure_Icon" data-name="Failure Icon" xmlns="http://www.w3.org/2000/svg" width="109.972" height="109.971" viewBox="0 0 109.972 109.971">
  <rect id="Rectangle_4745" data-name="Rectangle 4745" width="63" height="63" rx="10" transform="translate(56.709 20.876) rotate(45)" fill="#fce9e8"/>
  <g id="Success" transform="translate(-161.791 -45.077)">
    <rect id="Rectangle_4734" data-name="Rectangle 4734" width="5" height="5" rx="1" transform="translate(173.381 91.418) rotate(30)" fill="#fce9e8"/>
    <rect id="Rectangle_4735" data-name="Rectangle 4735" width="7" height="7" rx="1" transform="matrix(0.978, -0.208, 0.208, 0.978, 178.847, 70.848)" fill="#fce9e8"/>
    <rect id="Rectangle_4744" data-name="Rectangle 4744" width="5" height="5" rx="1" transform="matrix(0.978, -0.208, 0.208, 0.978, 263.289, 89.941)" fill="#fce9e8"/>
    <rect id="Rectangle_4736" data-name="Rectangle 4736" width="7.697" height="7.697" rx="1" transform="translate(200.449 62.795) rotate(-31)" fill="#fce9e8"/>
    <rect id="Rectangle_4737" data-name="Rectangle 4737" width="4.697" height="4.697" rx="1" transform="translate(162.201 67.176) rotate(5)" fill="#fce9e8"/>
    <rect id="Rectangle_4743" data-name="Rectangle 4743" width="4.697" height="4.697" rx="1" transform="translate(267.084 59.216) rotate(5)" fill="#fce9e8"/>
    <rect id="Rectangle_4738" data-name="Rectangle 4738" width="4.697" height="4.697" rx="1" transform="translate(200.859 45.077) rotate(5)" fill="#fce9e8"/>
    <rect id="Rectangle_4739" data-name="Rectangle 4739" width="4.697" height="4.697" rx="1" transform="translate(231.628 64.305) rotate(5)" fill="#fce9e8"/>
    <rect id="Rectangle_4740" data-name="Rectangle 4740" width="6.697" height="6.697" rx="1" transform="matrix(0.891, 0.454, -0.454, 0.891, 250.629, 65.905)" fill="#fce9e8"/>
    <rect id="Rectangle_4741" data-name="Rectangle 4741" width="4.047" height="4.047" rx="1" transform="translate(251.64 51.013) rotate(-15)" fill="#fce9e8"/>
    <rect id="Rectangle_4746" data-name="Rectangle 4746" width="4.047" height="4.047" rx="1" transform="translate(177.711 51.762) rotate(-15)" fill="#fce9e8"/>
    <rect id="Rectangle_4742" data-name="Rectangle 4742" width="4.047" height="4.047" rx="1" transform="translate(226.264 48.537) rotate(-15)" fill="#fce9e8"/>
  </g>
  <g id="noun_Check_1635228" transform="translate(-58.96 61.003)">
    <g id="Group_11138" data-name="Group 11138" transform="translate(90.975 -32.161)">
      <path id="Path_11146" data-name="Path 11146" d="M3.318.563S27.856-5.3,49.7-5.3,90.649,2.205,90.649,2.205a4.557,4.557,0,0,1,2.7,4.4l.21,1.936c-.092,1.617-1.755,1.394-3.185,1.04A179.348,179.348,0,0,0,48.371,4.037c-21.846,0-44.8,10.068-44.8,10.068A3.318,3.318,0,0,1,.254,10.787L0,3.881A3.318,3.318,0,0,1,3.318.563Z" transform="translate(-8.281 65.809) rotate(-45)" fill="#e32b25"/>
      <path id="Path_11147" data-name="Path 11147" d="M6.833.036a251.822,251.822,0,0,1,37.41,2.453c9.838,1.147,27.106,4.456,37.222,9.366,1.182.573,5.667,2.1,7.267,3.618s.152,2.561-.868,2.434A257.966,257.966,0,0,0,32.91,13.647c-20.752-.252-27.966,1.31-27.966,1.31-2.761,0-4.192-.553-4.192-3.314L0,5C.051.475,4.071.036,6.833.036Z" transform="matrix(0.809, 0.588, -0.588, 0.809, -2.444, 2.873)" fill="#e32b25"/>
    </g>
  </g>
</svg>
