<svg id="Success_Icon" data-name="Success Icon" xmlns="http://www.w3.org/2000/svg" width="109.972" height="109.971" viewBox="0 0 109.972 109.971">
  <rect id="Rectangle_4745" data-name="Rectangle 4745" width="63" height="63" rx="10" transform="translate(56.709 20.876) rotate(45)" fill="#e1f1e2"/>
  <g id="Success" transform="translate(-161.791 -45.077)">
    <rect id="Rectangle_4734" data-name="Rectangle 4734" width="5" height="5" rx="1" transform="translate(173.381 91.418) rotate(30)" fill="#e1f1e2"/>
    <rect id="Rectangle_4735" data-name="Rectangle 4735" width="7" height="7" rx="1" transform="matrix(0.978, -0.208, 0.208, 0.978, 178.847, 70.848)" fill="#e1f1e2"/>
    <rect id="Rectangle_4744" data-name="Rectangle 4744" width="5" height="5" rx="1" transform="matrix(0.978, -0.208, 0.208, 0.978, 263.289, 89.941)" fill="#e1f1e2"/>
    <rect id="Rectangle_4736" data-name="Rectangle 4736" width="7.697" height="7.697" rx="1" transform="translate(200.449 62.795) rotate(-31)" fill="#e1f1e2"/>
    <rect id="Rectangle_4737" data-name="Rectangle 4737" width="4.697" height="4.697" rx="1" transform="translate(162.201 67.176) rotate(5)" fill="#e1f1e2"/>
    <rect id="Rectangle_4743" data-name="Rectangle 4743" width="4.697" height="4.697" rx="1" transform="translate(267.084 59.216) rotate(5)" fill="#e1f1e2"/>
    <rect id="Rectangle_4738" data-name="Rectangle 4738" width="4.697" height="4.697" rx="1" transform="translate(200.859 45.077) rotate(5)" fill="#e1f1e2"/>
    <rect id="Rectangle_4739" data-name="Rectangle 4739" width="4.697" height="4.697" rx="1" transform="translate(231.628 64.305) rotate(5)" fill="#e1f1e2"/>
    <rect id="Rectangle_4740" data-name="Rectangle 4740" width="6.697" height="6.697" rx="1" transform="matrix(0.891, 0.454, -0.454, 0.891, 250.629, 65.905)" fill="#e1f1e2"/>
    <rect id="Rectangle_4741" data-name="Rectangle 4741" width="4.047" height="4.047" rx="1" transform="translate(251.64 51.013) rotate(-15)" fill="#e1f1e2"/>
    <rect id="Rectangle_4746" data-name="Rectangle 4746" width="4.047" height="4.047" rx="1" transform="translate(177.711 51.762) rotate(-15)" fill="#e1f1e2"/>
    <rect id="Rectangle_4742" data-name="Rectangle 4742" width="4.047" height="4.047" rx="1" transform="translate(226.264 48.537) rotate(-15)" fill="#e1f1e2"/>
  </g>
  <g id="noun_Check_1635228" transform="translate(-58.96 61.003)">
    <g id="Group_11138" data-name="Group 11138" transform="translate(90.975 -32.161)">
      <path id="Path_11145" data-name="Path 11145" d="M0,32.776c1.524-3.049,4.573-6.86,9.909-5.336,4.573,1.524,7.622,6.1,9.909,12.2C38.112,19.056,53.357,4.573,71.65,0c2.287,0,3.049,0,1.524,1.524C53.357,15.245,34.3,35.825,19.056,62.5a1.429,1.429,0,0,1-2.287,0c-3.049-7.622-5.336-15.245-9.147-22.867C6.1,35.825,3.811,32.776,0,32.776Z" fill="#008a05"/>
    </g>
  </g>
</svg>
