<svg id="info_icon_and_tooltip" data-name="info icon and tooltip" xmlns="http://www.w3.org/2000/svg" width="16.375" height="16.375" viewBox="0 0 16.375 16.375">
  <path id="Path_11530" data-name="Path 11530" d="M5.023,5.023a8.188,8.188,0,1,0,11.579,0A8.188,8.188,0,0,0,5.023,5.023ZM11.141,6.06a1.262,1.262,0,0,1,0,2.523A1.272,1.272,0,0,1,9.879,7.3,1.254,1.254,0,0,1,11.141,6.06Zm1.78,8.451a.827.827,0,0,1-.173.294,2.253,2.253,0,0,1-1.659.743,5.43,5.43,0,0,1-.916-.052,1.336,1.336,0,0,1-1.054-1.348L9.326,12.8c.138-.778.277-1.573.415-2.35,0-.052.017-.1.017-.156,0-.328-.1-.449-.432-.484a3.46,3.46,0,0,1-.415-.069.3.3,0,0,1-.225-.311c.017-.138.1-.225.277-.259a1.581,1.581,0,0,1,.294-.017h2.385c.294,0,.467.138.467.432a3.469,3.469,0,0,1-.086.726c-.156.9-.328,1.78-.484,2.679-.052.294-.121.588-.156.881a1.221,1.221,0,0,0,.035.432.342.342,0,0,0,.38.277,1.6,1.6,0,0,0,.467-.138,3.222,3.222,0,0,1,.346-.173C12.817,14.2,12.973,14.321,12.921,14.511Z" transform="translate(-2.625 -2.625)" fill="#767676"/>
</svg>
