<svg xmlns="http://www.w3.org/2000/svg" width="100" height="100" viewBox="0 0 100 100"><defs><style>.a{opacity:0.52;}.b{fill:#35bab6;opacity:0.56;}</style></defs><g class="a" transform="translate(-1153 -969)"><rect class="b" width="17" height="17" transform="translate(1153 969)"/><rect class="b" width="16" height="17" transform="translate(1181 969)"/><rect class="b" width="17" height="17" transform="translate(1208 969)"/><rect class="b" width="17" height="17" transform="translate(1236 969)"/><rect class="b" width="17" height="17" transform="translate(1153 997)"/><rect class="b" width="16" height="17" transform="translate(1181 997)"/><rect class="b" width="17" height="17" transform="translate(1208 997)"/><rect class="b" width="17" height="17" transform="translate(1236 997)"/><rect class="b" width="17" height="16" transform="translate(1153 1025)"/><rect class="b" width="16" height="16" transform="translate(1181 1025)"/><rect class="b" width="17" height="16" transform="translate(1208 1025)"/><rect class="b" width="17" height="16" transform="translate(1236 1025)"/><rect class="b" width="17" height="17" transform="translate(1153 1052)"/><rect class="b" width="16" height="17" transform="translate(1181 1052)"/><rect class="b" width="17" height="17" transform="translate(1208 1052)"/><rect class="b" width="17" height="17" transform="translate(1236 1052)"/></g></svg>