<svg xmlns="http://www.w3.org/2000/svg" width="113.995" height="91.999" viewBox="0 0 113.995 91.999">
    <defs>
        <style>
            .cls-1{fill:#fff}.cls-2{fill:#adadad}.cls-3{fill:#35bab6}.cls-4{fill:#ffca37}
        </style>
    </defs>
    <g id="Group_8067" transform="translate(-547 -124)">
        <g id="Group_7578" transform="translate(-125 -92)">
            <path id="Rectangle_3585" d="M0 0H27V16H0z" class="cls-1" transform="translate(691.085 291.198)"/>
            <g id="Group_7577" transform="rotate(180 364.497 154)">
                <path id="Path_5453" d="M0 80.58A3.438 3.438 0 0 0 3.42 84h50.155a3.439 3.439 0 0 0 3.419-3.42V53.574a3.441 3.441 0 0 0-3.421-3.419H41.561v-6.484l.821 1.45.251.443a5.353 5.353 0 0 0 4.745 2.862 5.472 5.472 0 0 0 3.8-1.571 4.9 4.9 0 0 0 1.179-1.784 5.432 5.432 0 0 0-.448-4.844L39.691 19.07l-.059-.1V2.73A2.734 2.734 0 0 0 36.9 0H12.376a2.733 2.733 0 0 0-2.73 2.73v14.19a1.492 1.492 0 0 0 1.327 1.454l.624.07-.28.562-3.435 6.889a1.5 1.5 0 0 0-.166.676v23.584h-4.3A3.439 3.439 0 0 0 0 53.576zm8.934.441H2.979V74.5l.55.146a8.2 8.2 0 0 1 5.829 5.829l.145.55zm45.08-5.958v5.956h-6.525l.145-.55a8.2 8.2 0 0 1 5.829-5.829l.552-.146zm-5.956-21.928h5.957v6.525l-.552-.145a8.2 8.2 0 0 1-5.829-5.829l-.145-.55zm-3.955 0h.37l.063.366a11.126 11.126 0 0 0 9.112 9.111l.366.062v8.806l-.366.061a11.129 11.129 0 0 0-9.112 9.113l-.063.365H12.519l-.061-.365a11.132 11.132 0 0 0-9.112-9.113l-.366-.061v-8.8l.365-.062a11.128 11.128 0 0 0 9.113-9.118l.061-.366H44.1zM12.626 15V2.979h24.026v12.456H12.626zm-1.931 34.716V26.93l.046-.093 3.646-7.311a1.535 1.535 0 0 0 .148-.667l-.006-.444h22.123v.96a1.658 1.658 0 0 0 .2.758L49.325 41.7a2.378 2.378 0 0 1 .137 2.075 2.4 2.4 0 0 1-1.563 1.4 2.189 2.189 0 0 1-.622.09 2.4 2.4 0 0 1-2.03-1.169l-3.876-6.7a1.507 1.507 0 0 0-1.3-.751h-1.933a8.164 8.164 0 0 1-8.154-8.145 1.49 1.49 0 1 0-2.98 0 11.146 11.146 0 0 0 11.134 11.131h.439V50.155h-4.732v-4.3a1.494 1.494 0 0 0-1.419-1.583h-.072a1.49 1.49 0 0 0-1.489 1.421 1.265 1.265 0 0 0 0 .142v4.318h-4.736v-4.3a1.486 1.486 0 0 0-1.489-1.4h-.073a1.486 1.486 0 0 0-1.419 1.42v4.276h-4.736v-4.3a1.5 1.5 0 0 0-1.419-1.583h-.073a1.49 1.49 0 0 0-1.489 1.422 1.4 1.4 0 0 0 0 .142v4.317h-4.736zm-7.277 3.422h6.088l-.145.551a8.2 8.2 0 0 1-5.829 5.829l-.551.145v-6.525z" class="cls-2"/>
            </g>
            <path id="Path_5452" d="M1069.114 377.238a3.44 3.44 0 0 0-3.42-3.42h-50.154a3.439 3.439 0 0 0-3.419 3.421v27a3.438 3.438 0 0 0 3.42 3.419c10.578 0 36.719.038 50.155 0a3.439 3.439 0 0 0 3.42-3.42zm-8.934-.442h5.955v6.525l-.55-.145a8.2 8.2 0 0 1-5.829-5.829l-.145-.55zm-45.081 5.957V376.8h6.526l-.145.551a8.2 8.2 0 0 1-5.829 5.829l-.551.145zm5.956 21.928H1015.098v-6.526l.551.145a8.2 8.2 0 0 1 5.829 5.829l.145.55zm3.955 0h-.371l-.062-.365a11.128 11.128 0 0 0-9.112-9.112l-.365-.061v-8.805l.365-.062a11.127 11.127 0 0 0 9.112-9.112l.063-.365h31.954l.062.365a11.129 11.129 0 0 0 9.112 9.112l.366.062v8.8l-.365.062a11.128 11.128 0 0 0-9.113 9.114l-.062.365h-31.584zm40.685 0h-6.087l.145-.551a8.2 8.2 0 0 1 5.83-5.829l.55-.145v6.525z" class="cls-3" transform="translate(-340.12 -149.818)"/>
            <path id="Path_5438" d="M1043.239 382.108a9.646 9.646 0 1 0 9.645 9.646 9.647 9.647 0 0 0-9.645-9.646zm0 16.16a6.514 6.514 0 1 1 6.514-6.514 6.514 6.514 0 0 1-6.514 6.514z" class="cls-3" transform="translate(-342.742 -150.632)"/>
            <rect id="Rectangle_3444" width="3.858" height="3.858" class="cls-4" rx="1.929" transform="translate(708.212 297.064)"/>
        </g>
        <g id="Group_7579" transform="rotate(180 666.497 216)">
            <path id="Rectangle_3585-2" d="M0 0H27V16H0z" class="cls-1" transform="translate(691.085 291.198)"/>
            <g id="Group_7577-2" transform="rotate(180 364.497 154)">
                <path id="Path_5453-2" d="M0 80.58A3.438 3.438 0 0 0 3.42 84h50.155a3.439 3.439 0 0 0 3.419-3.42V53.574a3.441 3.441 0 0 0-3.421-3.419H41.561v-6.484l.821 1.45.251.443a5.353 5.353 0 0 0 4.745 2.862 5.472 5.472 0 0 0 3.8-1.571 4.9 4.9 0 0 0 1.179-1.784 5.432 5.432 0 0 0-.448-4.844L39.691 19.07l-.059-.1V2.73A2.734 2.734 0 0 0 36.9 0H12.376a2.733 2.733 0 0 0-2.73 2.73v14.19a1.492 1.492 0 0 0 1.327 1.454l.624.07-.28.562-3.435 6.889a1.5 1.5 0 0 0-.166.676v23.584h-4.3A3.439 3.439 0 0 0 0 53.576zm8.934.441H2.979V74.5l.55.146a8.2 8.2 0 0 1 5.829 5.829l.145.55zm45.08-5.958v5.956h-6.525l.145-.55a8.2 8.2 0 0 1 5.829-5.829l.552-.146zm-5.956-21.928h5.957v6.525l-.552-.145a8.2 8.2 0 0 1-5.829-5.829l-.145-.55zm-3.955 0h.37l.063.366a11.126 11.126 0 0 0 9.112 9.111l.366.062v8.806l-.366.061a11.129 11.129 0 0 0-9.112 9.113l-.063.365H12.519l-.061-.365a11.132 11.132 0 0 0-9.112-9.113l-.366-.061v-8.8l.365-.062a11.128 11.128 0 0 0 9.113-9.118l.061-.366H44.1zM12.626 15V2.979h24.026v12.456H12.626zm-1.931 34.716V26.93l.046-.093 3.646-7.311a1.535 1.535 0 0 0 .148-.667l-.006-.444h22.123v.96a1.658 1.658 0 0 0 .2.758L49.325 41.7a2.378 2.378 0 0 1 .137 2.075 2.4 2.4 0 0 1-1.563 1.4 2.189 2.189 0 0 1-.622.09 2.4 2.4 0 0 1-2.03-1.169l-3.876-6.7a1.507 1.507 0 0 0-1.3-.751h-1.933a8.164 8.164 0 0 1-8.154-8.145 1.49 1.49 0 1 0-2.98 0 11.146 11.146 0 0 0 11.134 11.131h.439V50.155h-4.732v-4.3a1.494 1.494 0 0 0-1.419-1.583h-.072a1.49 1.49 0 0 0-1.489 1.421 1.265 1.265 0 0 0 0 .142v4.318h-4.736v-4.3a1.486 1.486 0 0 0-1.489-1.4h-.073a1.486 1.486 0 0 0-1.419 1.42v4.276h-4.736v-4.3a1.5 1.5 0 0 0-1.419-1.583h-.073a1.49 1.49 0 0 0-1.489 1.422 1.4 1.4 0 0 0 0 .142v4.317h-4.736zm-7.277 3.422h6.088l-.145.551a8.2 8.2 0 0 1-5.829 5.829l-.551.145v-6.525z" class="cls-2"/>
            </g>
            <path id="Path_5452-2" d="M1069.114 377.238a3.44 3.44 0 0 0-3.42-3.42h-50.154a3.439 3.439 0 0 0-3.419 3.421v27a3.438 3.438 0 0 0 3.42 3.419c10.578 0 36.719.038 50.155 0a3.439 3.439 0 0 0 3.42-3.42zm-8.934-.442h5.955v6.525l-.55-.145a8.2 8.2 0 0 1-5.829-5.829l-.145-.55zm-45.081 5.957V376.8h6.526l-.145.551a8.2 8.2 0 0 1-5.829 5.829l-.551.145zm5.956 21.928H1015.098v-6.526l.551.145a8.2 8.2 0 0 1 5.829 5.829l.145.55zm3.955 0h-.371l-.062-.365a11.128 11.128 0 0 0-9.112-9.112l-.365-.061v-8.805l.365-.062a11.127 11.127 0 0 0 9.112-9.112l.063-.365h31.954l.062.365a11.129 11.129 0 0 0 9.112 9.112l.366.062v8.8l-.365.062a11.128 11.128 0 0 0-9.113 9.114l-.062.365h-31.584zm40.685 0h-6.087l.145-.551a8.2 8.2 0 0 1 5.83-5.829l.55-.145v6.525z" class="cls-3" transform="translate(-340.12 -149.818)"/>
            <path id="Path_5438-2" d="M1043.239 382.108a9.646 9.646 0 1 0 9.645 9.646 9.647 9.647 0 0 0-9.645-9.646zm0 16.16a6.514 6.514 0 1 1 6.514-6.514 6.514 6.514 0 0 1-6.514 6.514z" class="cls-3" transform="translate(-342.742 -150.632)"/>
            <rect id="Rectangle_3444-2" width="3.858" height="3.858" class="cls-4" rx="1.929" transform="translate(708.212 297.064)"/>
        </g>
    </g>
</svg>
