<svg xmlns="http://www.w3.org/2000/svg" width="30" height="20" viewBox="0 0 30 20">
  <g id="_002-united-states-of-america" data-name="002-united-states-of-america" transform="translate(0 -82.883)">
    <rect id="Rectangle_2961" data-name="Rectangle 2961" width="30" height="16" transform="translate(0 84.331)" fill="#f0f0f0"/>
    <g id="Group_5664" data-name="Group 5664" transform="translate(0 87.882)">
      <rect id="Rectangle_2962" data-name="Rectangle 2962" width="30" height="2.919" transform="translate(0 0.72)" fill="#d80027"/>
      <rect id="Rectangle_4665" data-name="Rectangle 4665" width="30" height="2.919" transform="translate(0 0.72)" fill="#d80027"/>
      <rect id="Rectangle_4666" data-name="Rectangle 4666" width="30" height="2.919" transform="translate(0 -5)" fill="#d80027"/>
      <rect id="Rectangle_2963" data-name="Rectangle 2963" width="30" height="2.919" transform="translate(0 6.4)" fill="#d80027"/>
      <rect id="Rectangle_2964" data-name="Rectangle 2964" width="30" height="2.919" transform="translate(0 12.081)" fill="#d80027"/>
    </g>
    <rect id="Rectangle_2966" data-name="Rectangle 2966" width="16.26" height="11.674" transform="translate(0 82.883)" fill="#2e52b2"/>
    <g id="Group_5665" data-name="Group 5665" transform="translate(1.764 85.096)">
      <path id="Path_5087" data-name="Path 5087" d="M83.453,160.624l-.257.792h-.832l.674.489-.257.792.674-.489.673.489-.257-.792.674-.489H83.71Z" transform="translate(-78.845 -157.767)" fill="#f0f0f0"/>
      <path id="Path_5088" data-name="Path 5088" d="M83.71,207.189l-.257-.792-.257.792h-.832l.674.489-.257.792.674-.489.673.489-.257-.792.674-.489Z" transform="translate(-78.845 -200.683)" fill="#f0f0f0"/>
      <path id="Path_5089" data-name="Path 5089" d="M27.348,207.189l-.257-.792-.257.792H26l.674.489-.257.792.674-.489.673.489-.257-.792.673-.489Z" transform="translate(-26.001 -200.683)" fill="#f0f0f0"/>
      <path id="Path_5090" data-name="Path 5090" d="M27.091,160.624l-.257.792H26l.674.489-.257.792.674-.489.673.489-.257-.792.673-.489h-.832Z" transform="translate(-26.001 -157.767)" fill="#f0f0f0"/>
      <path id="Path_5091" data-name="Path 5091" d="M83.453,114.85l-.257.792h-.832l.674.489-.257.792.674-.489.673.489-.257-.792.674-.489H83.71Z" transform="translate(-78.845 -114.85)" fill="#f0f0f0"/>
      <path id="Path_5092" data-name="Path 5092" d="M27.091,114.85l-.257.792H26l.674.489-.257.792.674-.489.673.489-.257-.792.673-.489h-.832Z" transform="translate(-26.001 -114.85)" fill="#f0f0f0"/>
      <path id="Path_5093" data-name="Path 5093" d="M139.815,160.624l-.257.792h-.832l.673.489-.257.792.673-.489.673.489-.257-.792.674-.489h-.832Z" transform="translate(-131.689 -157.767)" fill="#f0f0f0"/>
      <path id="Path_5094" data-name="Path 5094" d="M140.072,207.189l-.257-.792-.257.792h-.832l.673.489-.257.792.673-.489.673.489-.257-.792.674-.489Z" transform="translate(-131.689 -200.683)" fill="#f0f0f0"/>
      <path id="Path_5095" data-name="Path 5095" d="M196.435,207.189l-.257-.792-.257.792h-.832l.673.489-.257.792.674-.489.673.489-.257-.792.674-.489Z" transform="translate(-184.535 -200.683)" fill="#f0f0f0"/>
      <path id="Path_5096" data-name="Path 5096" d="M196.178,160.624l-.257.792h-.832l.673.489-.257.792.674-.489.673.489-.257-.792.674-.489h-.832Z" transform="translate(-184.535 -157.767)" fill="#f0f0f0"/>
      <path id="Path_5097" data-name="Path 5097" d="M139.815,114.85l-.257.792h-.832l.673.489-.257.792.673-.489.673.489-.257-.792.674-.489h-.832Z" transform="translate(-131.689 -114.85)" fill="#f0f0f0"/>
      <path id="Path_5098" data-name="Path 5098" d="M196.178,114.85l-.257.792h-.832l.673.489-.257.792.674-.489.673.489-.257-.792.674-.489h-.832Z" transform="translate(-184.535 -114.85)" fill="#f0f0f0"/>
    </g>
  </g>
</svg>
