<svg xmlns="http://www.w3.org/2000/svg" width="86.69" height="81" viewBox="0 0 86.69 81"><defs><style>.a,.b,.c{fill:#35bab6;}.b,.c{stroke:#35bab6;}.b,.d{stroke-linecap:round;stroke-linejoin:round;}.d{fill:#828282;stroke:#828282;}</style></defs><g transform="translate(0.5 0.499)"><path class="a" d="M136.613,187.83H134.1v-2.51h2.51Zm-4.184,0h-2.51v-2.51h2.51Zm0,0" transform="translate(-108.328 -154.357)"/><path class="b" d="M65.124,51.214c4.592-6.788,16.988-26.053,16.988-34.2a16.987,16.987,0,1,0-33.975,0C48.137,25.161,60.532,44.426,65.124,51.214ZM50.64,17.014a14.484,14.484,0,1,1,28.968,0c0,6.83-10.735,23.956-14.484,29.7C61.394,41,50.64,23.85,50.64,17.014Zm0,0" transform="translate(-40.08 0)"/><path class="c" d="M117.558,61.422a8,8,0,1,0-8,8A8.009,8.009,0,0,0,117.558,61.422Zm-13.519,0a5.519,5.519,0,1,1,5.518,5.518A5.525,5.525,0,0,1,104.04,61.422Zm0,0" transform="translate(-84.654 -44.55)"/><path class="d" d="M80.081,145.969,67.424,158.607H62.511L51.937,147.9H41.767v2.507h9.121l10.573,10.705h7l11.616-11.6,3.1,3.094v3.745l-2.992,2.987v20.236L76.265,183.5v5.693l2.89,2.886v2.335l-1.816,1.814-6.391-6.382H50.889l-2.027,4.886,2.09,2.087-2.382,2.379H45.609l-9.366-9.352H20.172L2.511,172.206v-21.8h5.9V147.9H0v25.342l19.132,19.1H35.2l9.365,9.352H49.61l4.893-4.886-2.679-2.676.743-1.791H69.91l7.431,7.42,4.327-4.32v-4.412l-2.891-2.887v-3.617l3.923-3.917V160.38l2.992-2.987v-5.822Zm0,0" transform="translate(0 -121.7)"/></g></svg>