<svg id="Vendor_POS_point_of_sale_icon" data-name="Vendor POS point of sale icon" xmlns="http://www.w3.org/2000/svg" width="43" height="51" viewBox="0 0 43 51">
  <path id="Path_34827" data-name="Path 34827" d="M13.414,20H9.8a1.806,1.806,0,0,0,0,3.612h3.61a1.806,1.806,0,0,0,0-3.612Z" transform="translate(-0.787 14.101)" fill="#404040"/>
  <path id="Path_34828" data-name="Path 34828" d="M19.414,20H15.8a1.806,1.806,0,0,0,0,3.612h3.61a1.806,1.806,0,0,0,0-3.612Z" transform="translate(4.041 14.101)" fill="#404040"/>
  <path id="Path_34829" data-name="Path 34829" d="M25.414,20H21.8a1.806,1.806,0,0,0,0,3.612h3.61a1.806,1.806,0,0,0,0-3.612Z" transform="translate(8.872 14.101)" fill="#404040"/>
  <path id="Path_34830" data-name="Path 34830" d="M13.414,24H9.8a1.806,1.806,0,0,0,0,3.612h3.61a1.806,1.806,0,0,0,0-3.612Z" transform="translate(-0.787 17.325)" fill="#404040"/>
  <path id="Path_34831" data-name="Path 34831" d="M19.414,24H15.8a1.806,1.806,0,0,0,0,3.612h3.61a1.806,1.806,0,0,0,0-3.612Z" transform="translate(4.041 17.325)" fill="#404040"/>
  <path id="Path_34832" data-name="Path 34832" d="M25.414,24H21.8a1.806,1.806,0,0,0,0,3.612h3.61a1.806,1.806,0,0,0,0-3.612Z" transform="translate(8.872 17.325)" fill="#404040"/>
  <path id="Rectangle_18723" data-name="Rectangle 18723" d="M3.185,3.188V6.375H27.074V3.188H3.185M3.185,0H27.074a3.186,3.186,0,0,1,3.185,3.188V6.375a3.186,3.186,0,0,1-3.185,3.188H3.185A3.186,3.186,0,0,1,0,6.375V3.188A3.186,3.186,0,0,1,3.185,0Z" transform="translate(6.364 20.716)" fill="#404040"/>
  <path id="Path_36214" data-name="Path 36214" d="M20472.18-19125a3.137,3.137,0,0,1-3.18-3.078v-36.891a3.127,3.127,0,0,1,3.18-3.062h3.186v-4.789a3.185,3.185,0,0,1,3.188-3.18h23.887a3.183,3.183,0,0,1,3.188,3.18v4.789h3.18a3.135,3.135,0,0,1,3.193,3.063v36.891a3.145,3.145,0,0,1-3.193,3.078Zm0-3.078h36.627v-36.891h-3.18v3.3a3.188,3.188,0,0,1-3.187,3.191h-23.887a3.19,3.19,0,0,1-3.187-3.191v-3.3h-3.186Zm6.373-33.586h23.887v-11.156h-23.887Z" transform="translate(-20469 19175.996)" fill="#404040"/>
</svg>
