<svg xmlns="http://www.w3.org/2000/svg" id="Group_8264" width="24" height="24" viewBox="0 0 24 24">
    <defs>
        <style>
            .cls-3{fill:#fff}
        </style>
    </defs>
    <path id="Rectangle_3174" fill="none" d="M0 0H24V24H0z"/>
    <g id="Group_5846" transform="translate(0 2)">
        <path id="Path_5196" fill="#e32b25" d="M1470.928 388.634l-8.947 15.073a2.965 2.965 0 0 0 2.639 4.445h17.9a2.965 2.965 0 0 0 2.639-4.445l-8.949-15.073a3.09 3.09 0 0 0-5.282 0z" transform="translate(-1461.568 -387.152)"/>
        <g id="Group_5845" transform="translate(10.716 7.303)">
            <circle id="Ellipse_600" cx="1.201" cy="1.201" r="1.201" class="cls-3" transform="translate(.082 7.985)"/>
            <g id="Group_5844">
                <path id="Path_5197" d="M1469.726 397.861c-.5 0-.91-.631-.91-1.408l-.372-4.256a1.282 1.282 0 1 1 2.564 0l-.37 4.256c0 .777-.408 1.408-.912 1.408z" class="cls-3" transform="translate(-1468.444 -390.915)"/>
            </g>
        </g>
    </g>
</svg>
