<svg id="withdraw_icon" data-name="withdraw icon" xmlns="http://www.w3.org/2000/svg" width="43.036" height="42.36" viewBox="0 0 43.036 42.36">
  <path id="Path_10952" data-name="Path 10952" d="M101.613,68H71.425A6.423,6.423,0,0,0,65,74.407V91.969a6.423,6.423,0,0,0,6.425,6.407H80.7a1.389,1.389,0,1,0,0-2.779H71.425a3.638,3.638,0,0,1-3.638-3.628V74.407a3.638,3.638,0,0,1,3.638-3.628h30.188a3.637,3.637,0,0,1,3.637,3.628V91.969a3.637,3.637,0,0,1-3.637,3.628H92.2a1.389,1.389,0,1,0,0,2.779h9.411a6.422,6.422,0,0,0,6.423-6.407V74.407A6.422,6.422,0,0,0,101.613,68Z" transform="translate(-65 -68)" fill="#00a6a2" />
  <path id="Path_10953" data-name="Path 10953" d="M132.336,198.72a1.393,1.393,0,1,0,1.393-1.39A1.391,1.391,0,0,0,132.336,198.72Z" transform="translate(-124.75 -182.76)" fill="#00a6a2" />
  <ellipse id="Ellipse_814" data-name="Ellipse 814" cx="1.393" cy="1.389" rx="1.393" ry="1.389" transform="translate(32.665 14.57)" fill="#00a6a2" />
  <path id="Path_10954" data-name="Path 10954" d="M199.094,156.18a1.4,1.4,0,0,0,1.97,0,7.664,7.664,0,1,0-10.837,0,1.391,1.391,0,0,0,1.97-1.965,4.853,4.853,0,0,1,0-6.878,4.87,4.87,0,1,1,6.9,6.878A1.386,1.386,0,0,0,199.094,156.18Z" transform="translate(-174.127 -134.673)" fill="#00a6a2" />
  <path id="Path_10955" data-name="Path 10955" d="M210.51,283.548l-2.5,2.491v-13.32a1.393,1.393,0,0,0-2.787,0v13.32l-2.5-2.491a1.391,1.391,0,1,0-1.97,1.965l4.872,4.859a1.437,1.437,0,0,0,.109.1l.02.014c.029.023.059.046.09.066l.041.025c.025.015.05.031.076.045l.049.023c.025.012.049.024.074.034l.052.019c.025.009.05.019.076.026l.056.014c.025.006.05.013.076.018s.046.007.069.011.043.007.065.009c.046,0,.091.007.137.007s.092,0,.137-.007c.022,0,.043-.006.065-.009s.046-.006.069-.011.051-.012.076-.018l.056-.014c.026-.008.051-.017.076-.026l.052-.019c.025-.011.05-.023.074-.034l.049-.023c.026-.014.051-.029.076-.045l.041-.025c.031-.021.061-.043.09-.066l.019-.014a1.41,1.41,0,0,0,.109-.1l4.872-4.859a1.391,1.391,0,1,0-1.97-1.965Z" transform="translate(-185.1 -248.423)" fill="#00a6a2" />
</svg>