<svg xmlns="http://www.w3.org/2000/svg" width="41.586" height="43.071" viewBox="0 0 41.586 43.071">
  <path id="withdrawn_icon" data-name="withdrawn icon" d="M48.1,7H9.485A1.485,1.485,0,0,0,8,8.485V27.793a1.485,1.485,0,0,0,1.485,1.485h5.941v2.228a12.584,12.584,0,0,0,2.97,8.132V41.16a1.485,1.485,0,0,0-1.485,1.485v5.941A1.485,1.485,0,0,0,18.4,50.071H36.219A1.485,1.485,0,0,0,37.7,48.586V42.645A1.485,1.485,0,0,0,36.22,41.16V39.641a12.586,12.586,0,0,0,2.969-8.135V29.278H48.1a1.485,1.485,0,0,0,1.485-1.485V8.485A1.485,1.485,0,0,0,48.1,7ZM10.97,9.97h2.7a4.448,4.448,0,0,1-2.7,2.7Zm0,16.337v-2.7a4.448,4.448,0,0,1,2.7,2.7ZM34.734,47.1H19.882V44.13H34.734Zm1.485-15.595a9.618,9.618,0,0,1-2.574,6.562,1.486,1.486,0,0,0-.4,1.01V41.16H21.367V39.076a1.486,1.486,0,0,0-.4-1.009,9.627,9.627,0,0,1-2.574-6.56V29.278H26.63a5.89,5.89,0,0,0-.808,2.97,1.485,1.485,0,1,0,2.97,0,2.973,2.973,0,0,1,2.97-2.97,1.485,1.485,0,0,0,1.485-1.485V23.337a1.485,1.485,0,0,1,2.97,0Zm10.4-5.2h-2.7a4.448,4.448,0,0,1,2.7-2.7Zm0-5.791a7.448,7.448,0,0,0-5.791,5.791H39.189v-2.97a4.456,4.456,0,0,0-8.911,0v2.97H16.761a7.448,7.448,0,0,0-5.791-5.791V15.761A7.448,7.448,0,0,0,16.761,9.97H40.825a7.448,7.448,0,0,0,5.791,5.791Zm0-7.85a4.448,4.448,0,0,1-2.7-2.7h2.7Z" transform="translate(-8 -7)" fill="#00a6a2"/>
</svg>
